<?xml version="1.0" encoding="UTF-8"?>
<svg width="15px" height="15px" viewBox="0 0 15 15" version="1.1" xmlns="http://www.w3.org/2000/svg" xmlns:xlink="http://www.w3.org/1999/xlink">
    <!-- Generator: Sketch 52.3 (67297) - http://www.bohemiancoding.com/sketch -->
    <title>edit icon</title>
    <desc>Created with Sketch.</desc>
    <g id="Page-1" stroke="none" stroke-width="1" fill="none" fill-rule="evenodd">
        <g id="00_01_00_Synth_User_Profile" transform="translate(-283.000000, -284.000000)">
            <g id="user-details" transform="translate(136.000000, 184.000000)">
                <g id="profile-details">
                    <g id="usernae" transform="translate(144.000000, 0.000000)">
                        <g id="edit" transform="translate(0.000000, 97.000000)">
                            <g id="edit-icon" transform="translate(0.000000, 0.090909)">
                                <rect id="Rectangle-3-Copy" fill="#C3CADF" opacity="0" x="0" y="0.909090909" width="20" height="20"></rect>
                                <path d="M5.48216073,5.40401111 C5.48216073,4.29411824 6.36886708,3.39437228 7.48026209,3.39437228 L11.4840594,3.39437228 C12.5875803,3.39437228 13.4821607,4.29682048 13.4821607,5.40401111 L13.4821607,14.9003723 C13.4821607,15.176859 13.3377596,15.5754855 13.1637919,15.7857023 L10.6974895,18.7659014 C9.99464064,19.615201 8.85997509,19.6012572 8.17737151,18.7524499 L5.79153844,15.7857023 C5.62067385,15.5732348 5.48216073,15.1718689 5.48216073,14.9003723 L5.48216073,5.40401111 Z M7.48216073,6.39349202 L7.48216073,14.3997272 L8.92504923,16.5657716 C9.23692147,17.0339499 9.73158805,17.0276629 10.0392722,16.5657716 L11.4821607,14.3997272 L11.4821607,6.39349202 C11.4821607,5.84199841 11.0302509,5.39547621 10.4727918,5.39547621 L8.49152963,5.39547621 C7.92551391,5.39547621 7.48216073,5.84230311 7.48216073,6.39349202 Z M7.48216073,7.39658013 L11.4821607,7.39658013 L11.4821607,9.39768405 L7.48216073,9.39768405 L7.48216073,7.39658013 Z" id="Combined-Shape" fill="#F05D63" transform="translate(9.482161, 11.394372) rotate(45.000000) translate(-9.482161, -11.394372) "></path>
                            </g>
                        </g>
                    </g>
                </g>
            </g>
        </g>
    </g>
</svg>