<?xml version="1.0" encoding="UTF-8"?>
<svg width="19px" height="20px" viewBox="0 0 19 20" version="1.1" xmlns="http://www.w3.org/2000/svg" xmlns:xlink="http://www.w3.org/1999/xlink">
    <!-- Generator: Sketch 52.3 (67297) - http://www.bohemiancoding.com/sketch -->
    <title>a/icon_edit</title>
    <desc>Created with Sketch.</desc>
    <defs>
        <rect id="path-1" x="0" y="0" width="20" height="20"></rect>
    </defs>
    <g id="Page-1" stroke="none" stroke-width="1" fill="none" fill-rule="evenodd">
        <g id="00_01_00_Synth_User_Profile" transform="translate(-471.000000, -257.000000)">
            <g id="a/3_dots_menu" transform="translate(446.000000, 224.000000)">
                <g id="Group-3" transform="translate(24.000000, 32.000000)">
                    <g id="a/icon_edit" transform="translate(0.000000, 1.000000)">
                        <mask id="mask-2" fill="white">
                            <use xlink:href="#path-1"></use>
                        </mask>
                        <use id="Mask" fill="#ECF1F8" opacity="0" xlink:href="#path-1"></use>
                        <g id="edit-icon" mask="url(#mask-2)">
                            <g id="delete-copy">
                                <rect id="Rectangle-3-Copy" fill="#C3CADF" opacity="0" x="0" y="0" width="20" height="20"></rect>
                                <path d="M4,17 C2.8954305,17 2,16.1045695 2,15 L2,3 C2,1.8954305 2.8954305,1 4,1 L14,1 C15.1045695,1 16,1.8954305 16,3 L16,4" id="Rectangle" stroke="#3E4056" stroke-width="2"></path>
                                <rect id="Rectangle-2" fill="#3E4056" x="5" y="4" width="8" height="2" rx="1"></rect>
                                <path d="M6,8 L10,8 L8,10 L6,10 C5.44771525,10 5,9.55228475 5,9 L5,9 C5,8.44771525 5.44771525,8 6,8 Z" id="Rectangle-2-Copy" fill="#3E4056"></path>
                                <path d="M8.48216073,8.0085302 C8.48216073,6.8992496 9.36886708,6 10.4802621,6 L14.4840594,6 C15.5875803,6 16.4821607,6.90195036 16.4821607,8.0085302 L16.4821607,17.4996527 C16.4821607,17.7759869 16.3377596,18.1743934 16.1637919,18.3844943 L13.6974895,21.3630493 C12.9946406,22.2118804 11.8599751,22.1979442 11.1665313,21.336133 L8.79153844,18.3844943 C8.62067385,18.172144 8.48216073,17.7709994 8.48216073,17.4996527 L8.48216073,8.0085302 Z M10.4821607,8.99746525 L10.4821607,16.9992837 L11.9250492,19.1641332 C12.2369215,19.6320533 12.731588,19.6257697 13.0392722,19.1641332 L14.4821607,16.9992837 L14.4821607,8.99746525 C14.4821607,8.44627588 14.0302509,8 13.4727918,8 L11.4915296,8 C10.9255139,8 10.4821607,8.44658041 10.4821607,8.99746525 Z M10.4821607,10 L14.4821607,10 L14.4821607,12 L10.4821607,12 L10.4821607,10 Z" id="Combined-Shape" fill="#3E4056" transform="translate(12.482161, 13.995587) rotate(45.000000) translate(-12.482161, -13.995587) "></path>
                            </g>
                        </g>
                    </g>
                </g>
            </g>
        </g>
    </g>
</svg>