
<svg version="1.1"  xmlns="http://www.w3.org/2000/svg" xmlns:xlink="http://www.w3.org/1999/xlink" x="0px" y="0px"
	 viewBox="0 0 17.3 17.3" enable-background="new 0 0 17.3 17.3" xml:space="preserve">
<g>
	<defs>
		<rect id="SVGID_1_" y="0" width="17.3" height="17.3"/>
	</defs>
	<clipPath id="SVGID_2_">
		<use xlink:href="#SVGID_1_"  overflow="visible"/>
	</clipPath>
	<path clip-path="url(#SVGID_2_)" fill="#333333" d="M13.2,2.8c0.6,0,1.1,0.5,1.1,1.1c0,0.6-0.5,1.1-1.1,1.1c-0.6,0-1.1-0.5-1.1-1.1
		C12.1,3.3,12.6,2.8,13.2,2.8"/>
	<path clip-path="url(#SVGID_2_)" fill="#333333" d="M17.3,5c0-0.7-0.1-1.4-0.4-2.1c-0.2-0.6-0.6-1.1-1-1.5c-0.4-0.4-1-0.8-1.5-1
		C13.7,0.2,13,0.1,12.3,0H5C4.3,0,3.6,0.1,3,0.4C2.4,0.7,1.9,1,1.4,1.4C1,1.9,0.7,2.4,0.4,3C0.2,3.6,0.1,4.3,0,5v7.2
		c0,0.7,0.1,1.4,0.4,2.1c0.4,1.2,1.4,2.1,2.5,2.5c0.7,0.2,1.4,0.4,2.1,0.4h7.2c0.7,0,1.4-0.1,2.1-0.4c1.2-0.4,2.1-1.4,2.5-2.5
		c0.2-0.7,0.4-1.4,0.4-2.1V5z M15.6,12.1c0,0.6-0.1,1.1-0.3,1.6c-0.1,0.4-0.3,0.7-0.7,1c-0.3,0.3-0.6,0.5-1,0.7
		c-0.5,0.2-1.1,0.3-1.6,0.3H5c-0.6,0-1.1-0.1-1.6-0.3c-0.4-0.1-0.7-0.3-1-0.7c-0.3-0.3-0.5-0.6-0.7-1c-0.2-0.5-0.3-1.1-0.3-1.6v-7
		c0-0.6,0.1-1.1,0.3-1.6c0.1-0.4,0.3-0.7,0.7-1C2.7,2.2,3,2,3.4,1.9C3.9,1.7,4.5,1.6,5,1.5h7c0.6,0,1.1,0.1,1.6,0.3
		c0.4,0.1,0.7,0.3,1,0.7c0.3,0.3,0.5,0.6,0.7,1c0.2,0.5,0.3,1.1,0.3,1.6v3.5C15.8,9.8,15.8,11,15.6,12.1"/>
	<path clip-path="url(#SVGID_2_)" fill="#333333" d="M8.5,4.2C6.1,4.1,4.1,6.1,4,8.5c0,0,0,0.1,0,0.1c0,2.5,2,4.5,4.5,4.5
		c2.5,0,4.5-2,4.5-4.5C13,6.2,11.1,4.2,8.5,4.2L8.5,4.2z M8.5,11.6c-1.6,0-3-1.3-3-3s1.3-3,3-3s3,1.3,3,3
		C11.5,10.3,10.2,11.6,8.5,11.6L8.5,11.6z"/>
</g>
</svg>
