<svg version="1.1"  xmlns="http://www.w3.org/2000/svg" xmlns:xlink="http://www.w3.org/1999/xlink" x="0px" y="0px"
	 viewBox="0 0 40.9 41.1" enable-background="new 0 0 40.9 41.1" xml:space="preserve">
<path fill="none" stroke="#3B3B3B" stroke-width="3" d="M11.5,1.5h18c5.5,0,10,4.5,10,10v18c0,5.5-4.5,10-10,10h-18
	c-5.5,0-10-4.5-10-10v-18C1.5,6,6,1.5,11.5,1.5z"/>
<g>
	<defs>
		<rect id="SVGID_1_" x="4.5" y="12.9" width="31.5" height="18"/>
	</defs>
	<clipPath id="SVGID_2_">
		<use xlink:href="#SVGID_1_"  overflow="visible"/>
	</clipPath>
	<path clip-path="url(#SVGID_2_)" fill="#333333" d="M20,30.7h1.9c0,0,0.6,0,0.8-0.3c0.2-0.2,0.3-0.5,0.3-0.8c0,0,0-2.5,1.1-2.8
		s2.7,2.5,4.2,3.5c0.6,0.4,1.3,0.7,2,0.6h4.2c0,0,2.2-0.2,1.1-1.9c-0.9-1.3-1.9-2.6-3.1-3.6c-2.7-2.5-2.4-2,0.9-6.3
		c1.9-2.5,2.7-4.1,2.5-4.9c-0.2-0.6-1.6-0.5-1.6-0.5h-4.7c-0.2,0-0.4,0.1-0.6,0.2c-0.2,0.1-0.4,0.3-0.5,0.5
		c-0.5,1.2-1.1,2.5-1.7,3.6c-2,3.6-3,3.8-3.3,3.6c-0.8-0.5-0.6-2-0.6-3.1c0-3.5,0.5-4.9-1.1-5.3c-0.7-0.2-1.5-0.2-2.2-0.2
		c-1.3-0.1-2.7,0-3.9,0.5c-0.5,0.3-0.9,0.8-0.6,0.9c0.5,0,1,0.3,1.4,0.6c0.3,0.7,0.5,1.4,0.5,2.2c0,0,0.3,4.1-0.6,4.6
		c-0.6,0.3-1.6-0.3-3.5-3.6c-0.9-1.7-1.7-3.5-1.7-3.5c-0.1-0.2-0.2-0.3-0.3-0.5c-0.3-0.1-0.5-0.2-0.8-0.3H5.5
		c-0.3,0-0.7,0.1-0.9,0.3c-0.1,0.3-0.1,0.5,0,0.8c0,0,3.5,8.2,7.5,12.4C14.2,29.4,17,30.6,20,30.7"/>
</g>
</svg>
