<svg xmlns="http://www.w3.org/2000/svg" xmlns:xlink="http://www.w3.org/1999/xlink" width="49" height="48.84" viewBox="0 0 49 48.84">
  <metadata><?xpacket begin="﻿" id="W5M0MpCehiHzreSzNTczkc9d"?>
<x:xmpmeta xmlns:x="adobe:ns:meta/" x:xmptk="Adobe XMP Core 5.6-c142 79.160924, 2017/07/13-01:06:39        ">
   <rdf:RDF xmlns:rdf="http://www.w3.org/1999/02/22-rdf-syntax-ns#">
      <rdf:Description rdf:about=""/>
   </rdf:RDF>
</x:xmpmeta>
                                                                                                    
                                                                                                    
                                                                                                    
                                                                                                    
                                                                                                    
                                                                                                    
                                                                                                    
                                                                                                    
                                                                                                    
                                                                                                    
                                                                                                    
                                                                                                    
                                                                                                    
                                                                                                    
                                                                                                    
                                                                                                    
                                                                                                    
                                                                                                    
                                                                                                    
                                                                                                    
                           
<?xpacket end="w"?></metadata>
<defs>
    <style>
      .cls-1 {
        fill-rule: evenodd;
        filter: url(#filter);
      }
    </style>
    <filter id="filter" x="285" y="1254" width="49" height="48.84" filterUnits="userSpaceOnUse">
      <feFlood result="flood" flood-color="#ff4300"/>
      <feComposite result="composite" operator="in" in2="SourceGraphic"/>
      <feBlend result="blend" in2="SourceGraphic"/>
    </filter>
  </defs>
  <path id="Forma_1" data-name="Forma 1" class="cls-1" d="M329.918,1258.57h-6.637v-3.06a1.531,1.531,0,0,0-3.062,0v3.06h-9.188v-3.06a1.531,1.531,0,0,0-3.062,0v3.06h-9.188v-3.06a1.531,1.531,0,0,0-3.062,0v3.06h-6.635a4.075,4.075,0,0,0-4.084,4.07v36.13a4.075,4.075,0,0,0,4.084,4.07h40.834a4.074,4.074,0,0,0,4.082-4.07v-36.13A4.074,4.074,0,0,0,329.918,1258.57Zm1.019,40.2a1.022,1.022,0,0,1-1.019,1.02H289.084a1.023,1.023,0,0,1-1.022-1.02v-36.13a1.023,1.023,0,0,1,1.022-1.02h6.635v3.05a1.531,1.531,0,0,0,3.062,0v-3.05h9.188v3.05a1.531,1.531,0,0,0,3.062,0v-3.05h9.188v3.05a1.531,1.531,0,0,0,3.062,0v-3.05h6.637a1.022,1.022,0,0,1,1.019,1.02v36.13Zm-35.218-26.46h6.125v4.58h-6.125v-4.58Zm0,7.63h6.125v4.58h-6.125v-4.58Zm0,7.63h6.125v4.58h-6.125v-4.58Zm10.718,0h6.125v4.58h-6.125v-4.58Zm0-7.63h6.125v4.58h-6.125v-4.58Zm0-7.63h6.125v4.58h-6.125v-4.58Zm10.719,15.26h6.125v4.58h-6.125v-4.58Zm0-7.63h6.125v4.58h-6.125v-4.58Zm0-7.63h6.125v4.58h-6.125v-4.58Z" transform="translate(-285 -1254)"/>
</svg>
