<svg xmlns="http://www.w3.org/2000/svg" xmlns:xlink="http://www.w3.org/1999/xlink"  viewBox="0 0 59 58.81">

  <path d="M515.78,1268.83l-0.632-2.08a4.519,4.519,0,0,0-8.547,0l-0.631,2.08a11.58,11.58,0,0,0-.325,5.39,5.072,5.072,0,0,0,2.619,3.53l-0.707,15.76a3.12,3.12,0,0,0,.787,2.42,3.443,3.443,0,0,0,4.852.21c0.076-.07.149-0.14,0.218-0.21a3.066,3.066,0,0,0,.787-2.35l-0.711-15.83a5.072,5.072,0,0,0,2.615-3.53A11.58,11.58,0,0,0,515.78,1268.83Zm-1.612,5.05a3.1,3.1,0,0,1-2.04,2.34,0.98,0.98,0,0,0-.636.96l0.747,16.55a1.131,1.131,0,0,1-.3.89,1.513,1.513,0,0,1-2.138,0,1.173,1.173,0,0,1-.289-0.95l0.741-16.49a0.98,0.98,0,0,0-.636-0.96,3.1,3.1,0,0,1-2.04-2.34,9.654,9.654,0,0,1,.27-4.48l0.632-2.07a2.545,2.545,0,0,1,3.275-1.5,2.51,2.51,0,0,1,1.507,1.5l0.632,2.07A9.668,9.668,0,0,1,514.168,1273.88Zm-13.618-10.17a0.982,0.982,0,0,0-.983.98v8.42l-2.662,2.65a0.974,0.974,0,0,0-.288.74l0.86,17.16a1.336,1.336,0,0,1-.372,1,1.4,1.4,0,0,1-1.958.01c0-.01,0-0.01-0.008-0.01a1.336,1.336,0,0,1-.372-1l0.866-17.16a0.987,0.987,0,0,0-.287-0.74l-2.663-2.65v-8.42a0.983,0.983,0,0,0-1.966,0v8.82a0.962,0.962,0,0,0,.288.69l2.641,2.64-0.839,16.72a3.322,3.322,0,0,0,6.636.33q0.007-.165,0-0.33l-0.839-16.72,2.641-2.64a0.962,0.962,0,0,0,.288-0.69v-8.82A0.982,0.982,0,0,0,500.55,1263.71Zm-5.9,0a0.982,0.982,0,0,0-.983.98v7.84a0.983,0.983,0,0,0,1.966,0v-7.84A0.982,0.982,0,0,0,494.65,1263.71Zm2.95,0a0.982,0.982,0,0,0-.983.98v7.84a0.983,0.983,0,0,0,1.966,0v-7.84A0.982,0.982,0,0,0,497.6,1263.71Zm5.9-14.71a29.415,29.415,0,1,0,29.5,29.41A29.457,29.457,0,0,0,503.5,1249Zm0,56.87a27.455,27.455,0,1,1,27.533-27.46A27.494,27.494,0,0,1,503.5,1305.87Zm3.192-9.05a0.983,0.983,0,0,0-1.074-.88h-0.034a18.156,18.156,0,0,1-4.168,0,0.982,0.982,0,1,0-.229,1.95,19.848,19.848,0,0,0,4.622,0A0.978,0.978,0,0,0,506.692,1296.82Zm11.853-31.04a0.978,0.978,0,0,0-1.385-.12h0a0.976,0.976,0,0,0-.118,1.38,17.609,17.609,0,0,1-1.044,23.87,0.983,0.983,0,1,0,1.389,1.39A19.562,19.562,0,0,0,518.545,1265.78Zm-21.634-3.82h0Zm11.227-2.61a19.882,19.882,0,0,0-11.574.71,0.981,0.981,0,0,0,.345,1.9,1.009,1.009,0,0,0,.344-0.06,17.834,17.834,0,0,1,10.423-.64A0.983,0.983,0,1,0,508.138,1259.35Zm-17.177,31.52a17.617,17.617,0,0,1-1.777-22.84,0.983,0.983,0,0,0-1.572-1.18c-0.006.01-.012,0.02-0.017,0.03a19.557,19.557,0,0,0,1.973,25.37A0.98,0.98,0,0,0,490.961,1290.87Z" transform="translate(-474 -1249)"/>
</svg>
