<svg xmlns="http://www.w3.org/2000/svg" xmlns:xlink="http://www.w3.org/1999/xlink" viewBox="0 0 57 56.66">
  <path class="cls-1" d="M239.937,1254.92l-0.108-1.01a4.364,4.364,0,0,0-4.1-3.85l-0.863-.06a9.363,9.363,0,0,0-6.955,2.68l-8.627,8.49-28.252-.05a9.154,9.154,0,0,0-6.417,2.67l-1.186,1.18a1.787,1.787,0,0,0-.431,1.55,1.624,1.624,0,0,0,1.078,1.12l22.484,6.1-5.23,5.18-9.49.32a3.482,3.482,0,0,0-2.588,1.12l-0.916.91a1.687,1.687,0,0,0-.432,1.5,1.776,1.776,0,0,0,1.025,1.12l12.077,4.54,4.853,12.4a1.538,1.538,0,0,0,1.24.97,1.582,1.582,0,0,0,1.4-.54l0.97-.96a4.055,4.055,0,0,0,1.132-2.57l0.324-9.46,5.284-5.13,6.092,22.34a1.7,1.7,0,0,0,1.133,1.13,1.27,1.27,0,0,0,.431.05,1.682,1.682,0,0,0,1.186-.48l1.186-1.18a9.021,9.021,0,0,0,2.7-6.41v-28.01l8.357-8.34A8.744,8.744,0,0,0,239.937,1254.92Zm-4.151,5.83-8.735,8.66a1.037,1.037,0,0,0-.323.74v28.44a7.033,7.033,0,0,1-2.049,4.92l-0.539.53-6.417-23.14a1.059,1.059,0,0,0-.754-0.75c-0.108,0-.162-0.05-0.27-0.05a1.043,1.043,0,0,0-.755.32l-6.9,6.73a0.965,0.965,0,0,0-.324.75l-0.323,9.83a1.509,1.509,0,0,1-.485,1.13l-0.378.37-4.691-12.03a1,1,0,0,0-.647-0.58l-11.7-4.44,0.324-.32a1.718,1.718,0,0,1,1.132-.48l9.975-.32a0.885,0.885,0,0,0,.7-0.32l6.847-6.79a1.017,1.017,0,0,0,.27-1.02,1.049,1.049,0,0,0-.755-0.74l-23.4-6.37,0.539-.53a7.027,7.027,0,0,1,4.907-2.03l28.683,0.05a1.042,1.042,0,0,0,.755-0.32l8.95-8.82a7.043,7.043,0,0,1,5.338-2.03l0.863,0.06a2.174,2.174,0,0,1,2.049,1.92l0.108,1.01A6.848,6.848,0,0,1,235.786,1260.75Z" transform="translate(-183 -1250)"/>
</svg>
