<svg 
 xmlns="http://www.w3.org/2000/svg"
 xmlns:xlink="http://www.w3.org/1999/xlink"
 width="20px" height="20px">
<defs>
<filter id="Filter_0">
    <feFlood flood-color="rgb(255, 138, 30)" flood-opacity="1" result="floodOut" />
    <feComposite operator="atop" in="floodOut" in2="SourceGraphic" result="compOut" />
    <feBlend mode="normal" in="compOut" in2="SourceGraphic" />
</filter>

</defs>
<g filter="url(#Filter_0)">
<path fill-rule="evenodd"  fill="rgb(0, 0, 0)"
 d="M19.340,1.844 L10.889,10.295 L19.044,18.449 C19.289,18.695 19.289,19.093 19.044,19.339 C18.798,19.584 18.400,19.584 18.154,19.339 L10.000,11.185 L1.845,19.339 C1.599,19.584 1.201,19.584 0.955,19.339 C0.710,19.093 0.710,18.695 0.955,18.449 L9.110,10.295 L0.659,1.844 C0.413,1.598 0.413,1.200 0.659,0.954 C0.905,0.708 1.303,0.708 1.549,0.954 L10.000,9.405 L18.451,0.954 C18.696,0.708 19.095,0.708 19.340,0.954 C19.586,1.200 19.586,1.598 19.340,1.844 Z"/>
</g>
</svg>