<svg version="1.1" xmlns="http://www.w3.org/2000/svg" xmlns:xlink="http://www.w3.org/1999/xlink" x="0px" y="0px" viewBox="0 0 249.8 67" enable-background="new 0 0 249.8 67" xml:space="preserve">
	<path  fill-rule="evenodd" clip-rule="evenodd" fill="#FF8A1E" d="M4.5,12.7h7.8l1.7-2.1
		c0-0.2,0.1-0.3,0.2-0.5l0.7-0.8c0.1-0.1,0.3-0.2,0.4-0.3l0.3-0.3c0.2-0.2,0.5-0.3,0.7-0.3l5.2-6.3c0-1.7,1-2.6,2.7-2
		c1,0.3,2,0.7,2.9,1.1c2-0.4,4.1-0.2,5.6,1.4c0.1,0.1,0.1,0.2,0.2,0.2c0.8,0.3,1.4,0.7,2,1.4c1.2,1.4,0.7,3.3,0.4,4.8
		c0,0.2-0.1,0.5-0.1,0.7l0.1,0.1c0.2,0,0.3,0.1,0.4,0.3l0.7,0.9c0.1,0.1,0.2,0.3,0.2,0.5l0.3,0.3c0.2,0.2,0.2,0.5,0.1,0.7l0.2,0.2
		h5.4c2.5,0,4.5,2,4.5,4.5v36.8c0,2.5-2,4.5-4.5,4.5h-6.6c-0.2,0.7-0.7,1.4-1.1,1.9c-0.6,0.8-1.7,2.4-2.9,1.9
		c-0.1-0.1-0.3-0.2-0.4-0.2c-0.1,0-0.2,0.1-0.3,0.2c0,0-0.1,0.1-0.1,0.1c0.1,0.1,0.1,0.2,0.2,0.4c0.4,1.1-1.2,1.9-2,2.3
		c-0.8,0.5-2.4,1.3-3.2,0.4c-0.1-0.1-0.1-0.2-0.2-0.2c-0.2,0-0.5,0.1-0.7,0.2c0,0.1,0,0.2,0,0.3c-0.2,1.1-1.8,1.2-2.7,1.2
		c-0.9,0.1-2.6,0.2-2.9-0.9c0-0.1,0-0.2,0-0.3c-0.2,0-0.4-0.1-0.6-0.1c-0.6,1.2-2,0.6-3,0.2c-0.8-0.3-2.2-0.9-2-1.9
		c0-0.1,0.1-0.2,0.1-0.3c-0.1-0.1-0.2-0.1-0.3-0.2c-1,0.6-1.9-0.3-2.5-1.1c-0.5-0.6-1.3-1.6-0.6-2.3c0.1-0.1,0.1-0.1,0.2-0.2
		c0,0,0-0.1,0-0.1c-0.9,0.1-1.3-0.6-1.4-1.3H4.5c-2.5,0-4.5-2-4.5-4.5V17.2C0,14.7,2,12.7,4.5,12.7"/>
	<path  fill-rule="evenodd" clip-rule="evenodd" fill="#12110C" d="M6.8,19l-3.6,5.7
		c-0.6,0.9-0.2,1.6,0.2,2.1l-0.2,0.4c-0.1,0.3-0.1,0.6,0.2,0.8l0,0c-0.9,1.9-1.3,3.5-1.2,4.8c0.1,1.3,0.7,2.4,1.5,3.1
		c0.8,0.7,1.8,1.1,2.9,1.3C7,37.5,7.3,37.7,7.7,38c1.5,0.9,3.3,1.3,4.5,1.5l0,0c0,0.3,0.2,0.6,0.5,0.6c0,0,0.1,0,0.1,0
		c0,0,0,0.1,0,0.1c0,0.2,0.1,0.3,0.3,0.3c0.5,0,0.9,0.1,1.4,0.1c0.2-0.1,0.4-0.2,0.6-0.3c2.5,0.2,3.3,0.9,5.1,2.4
		c3.6,3,5.6,7.7,4.1,11.7c-1,2.6-5.5,4-7.6,1.5c-2-2.5,0.9-6.6-0.3-9.7c-0.9-2.5-3.3-4-6.2-3.3c-1.2,0.3-1.9,1-2.1,1.8
		c-0.5,1.4,0,2.1,0.9,4.3c0.2,0.6,0.1,1.2-0.5,1.6c1.6,0,1.2-1.6,1.3-1.7c0.1,0,0.2,0,0.1-0.3c0-0.3-0.1-0.3-0.2-0.3
		c-0.1,0-0.2-0.7-0.1-0.7c0.1,0,0.2,0,0.2-0.4c0-0.4-0.1-0.4-0.2-0.4c-0.2,0-0.1-0.7,0-0.7c0.1,0,0.2,0.1,0.3-0.3
		c0.2-0.4,0-0.4-0.1-0.4c-0.3-0.1,0.5-0.7,0.6-0.4c0,0.1,0,0.3,0.6,0.2c0.7-0.1,0.6-0.2,0.5-0.3c0-0.2,0.9,0.3,0.6,0.4
		c-0.1,0.1-0.4,0.1,0.1,0.8c0.5,0.7,0.6,0.5,0.7,0.4c0.3-0.2,0.5,0.8,0.1,0.8c-0.2,0-0.4-0.2-0.5,0.8c-0.1,1,0.2,0.9,0.4,0.9
		c0.3,0,0,0.9-0.2,0.9c-0.2-0.1-0.5-0.3-0.8,0.8c-0.4,1.1-0.1,1,0.2,1.1c0.2,0.1,0,1-0.4,0.9c-0.3-0.1-0.6-0.3-0.9,1.1
		c-0.3,1.4,0.1,1.3,0.4,1.3c0.3,0.1,0.2,1.1-0.2,1.1c-0.4,0-0.9-0.1-0.6,1.6c0.2,1.7,0.6,1.4,1,1.4c0.4,0,0.8,1,0.5,1.2
		c-0.3,0.2-0.9,0.3,0.3,1.7s1.4,1,1.7,0.8c0.3-0.2,1.4,0.6,1.3,0.9c-0.2,0.4-0.7,0.7,1.4,1.5c2,0.8,2,0.3,2.2-0.1
		c0.2-0.4,1.8-0.2,1.8,0.2c0,0.4-0.3,0.9,2.1,0.8c2.4-0.1,2.1-0.6,2-1c0-0.4,1.7-0.9,1.9-0.6c0.3,0.4,0.3,1,2.6-0.2
		c3.4-1.8,0.4-1.5,1.8-2.7c1.6-1.4,1.1,1.6,3.5-1.7c2.5-3.4-0.4-1.8,0.4-3.5c0.9-1.8,1.8,1.3,2.7-2.9c0.9-4.3-1.3-1.5-1.4-3.7
		c-0.1-2.2,2.3,0.7,1.3-3.8c-0.6-3-1.3-2.5-2-2.4c-0.7,0.1-1.9-2-1.2-2.4c0.6-0.4,1.6-0.5-0.6-3.2c-2.2-2.6-2.6-1.9-3.2-1.4
		c-0.6,0.4-1-0.5-1.4-0.8c-1-0.9,1.4-0.7-1.8-2.6c-1.1-0.7-2.9-1.2-4.7-1.8l-1-5.6c0-0.1-0.3-0.2-0.7-0.3l-1-5.8
		c2.2-3.7,4.7-7.3,5.1-8.1c0,0.7,0.3,1.3,0.8,1.8l9.4,9c-0.1,0.2-0.2,0.4-0.2,0.6c0,0.2,0.1,0.4,0.2,0.6l-0.8-0.2
		c-0.5-0.1-0.9-0.1-1.3,0.1c-0.7,0.2-1.4,0.5-2.2,0.7L30,24.1l-0.4-1.8c0-0.1-0.1-0.1-0.2-0.2l-0.2-0.1c-0.1,0-0.1,0-0.2,0
		c-0.1,0-0.1,0.1-0.1,0.2l0,1.5l-0.5-0.1l-0.5-2c0-0.1-0.1-0.1-0.2-0.2c-0.1,0-0.2,0-0.2-0.1c-0.1,0-0.1,0-0.2,0
		c-0.1,0-0.1,0.1-0.1,0.2l0,1.7l-0.4-0.1l-0.6-2.3c0-0.1-0.1-0.1-0.2-0.2c-0.1,0-0.2,0-0.2-0.1c-0.1,0-0.1,0-0.2,0
		c-0.1,0-0.1,0.1-0.1,0.2l0,1.9l-0.4-0.1l-0.6-2.5c0-0.1-0.1-0.1-0.2-0.2L24.1,20c-0.1,0-0.1,0-0.2,0c-0.1,0-0.1,0.1-0.1,0.2
		c0,4.4-0.3,11.5,5.2,12.6l6.5,0.5c3-0.1,2.8-2.2,3.1-3.7l1.9-0.5c0.4-0.1,0.7-0.3,0.8-0.5c0.2-0.5,0-0.8-0.3-1.1
		c0.4-0.3,3.5-3,3.5-3.2c0.5,0.1,1-0.2,1.2-0.7c0.1-0.5-0.2-0.9-0.6-1.1l-8.8-10.1c0.2-0.2,0.2-0.3,0.2-0.4l-0.5-0.6
		c0.1-0.1,0.1-0.2,0-0.2l-0.7-0.9c0,0-0.1,0-0.2,0L34.4,10c0.1-0.3,0.1-0.7,0.2-1c0.4-1.7,0.7-3.2-0.3-4.3c-0.5-0.6-1.2-1-1.9-1.2
		c-0.1-0.1-0.2-0.2-0.3-0.3c-1.1-1.2-2.6-1.4-4.1-1.3c-0.3,0-0.7,0.1-1,0.2c-0.9-0.4-2.1-0.9-3.1-1.2c-1.2-0.4-1.7,0.2-1.7,1.3
		l0,0.3l-5.6,6.8c-0.2-0.1-0.4-0.1-0.4-0.1l-0.5,0.6c-0.1,0-0.2,0-0.2,0l-0.7,0.9c0,0,0,0.1,0,0.2l-6.1,7.4c-0.1,0-0.2,0-0.2,0
		l-0.3,0.4c-0.2-0.1-0.4-0.1-0.6,0C7.2,18.6,7,18.8,6.8,19 M4.8,28.9l0.4,0.3c-0.1,0.6,0,1.2,0.2,1.8c0,0,0,0.1,0,0.1
		C5,32.7,5,33.9,5.3,35c-0.1-0.1-0.3-0.2-0.4-0.3c-0.5-0.5-0.9-1.2-1-2.1C3.9,31.7,4.1,30.4,4.8,28.9 M33.9,9.4L32.6,8
		c0-0.2,0-0.3,0.1-0.5c0.2-1.2,0.3-2.3,0.1-3.3c0.4,0.2,0.8,0.5,1.1,0.8c0.8,0.9,0.5,2.2,0.1,3.8C34,9,33.9,9.2,33.9,9.4 M28.9,3.4
		c-0.2-0.4-0.4-0.7-0.6-0.8c1-0.1,2,0.1,2.8,0.7c-0.3,0-0.5,0-0.8,0C29.9,3.2,29.4,3.3,28.9,3.4 M34.2,13l0.4,0.5
		c0.1,0.1,0.2,0,0.5-0.1l7.4,8.5l-1.5-0.6l-1.6-0.7l-4.5-5.5C34.5,14.4,34.3,13.7,34.2,13 M33.7,13.7L33,12.8
		c-0.2-0.6-0.4-1.2-0.5-1.8l0.7,0.8c-0.1,0.1-0.1,0.2,0,0.2l0.4,0.5C33.6,12.9,33.6,13.3,33.7,13.7 M31.8,3.9c0.5,0.8,0.4,2,0.2,3.3
		l-1.7-2c0.1-0.1,0.1-0.2,0-0.2l-0.7-0.9c0,0-0.1,0-0.2,0l-0.2-0.2c0.4-0.1,0.8-0.1,1.3-0.2C30.9,3.7,31.3,3.8,31.8,3.9 M31.7,11.3
		L29.8,9c-0.2-0.2-0.2-0.7-0.3-1.3l2.1,2.4C31.7,10.5,31.7,10.9,31.7,11.3 M42.1,22.9c0,0.3,0.1,0.5,0.3,0.8L41.9,24l-0.6-1.2
		L42.1,22.9z M12.3,38.3c-0.9-0.2-2.2-0.5-3.3-1c0.8-0.1,1.6-0.2,2.3-0.4c0.4,0.3,1.1,0.7,1.6,0.9l-0.2,0
		C12.5,37.8,12.3,38,12.3,38.3L12.3,38.3z M7,35.6c-0.5-0.7-0.7-1.6-0.6-2.8c0.8,1,1.9,1.9,3.1,2.8c-0.8,0.1-1.6,0.1-2.3,0
		C7.1,35.6,7.1,35.6,7,35.6 M19.1,30.2c-1.3-0.7-2.3-1.6-2.5-3c-0.1-0.5,0-1.1,0.2-1.7c0.3-1,0.9-2.1,1.5-3.3l0.7,3.7
		c-0.4,0.2-0.6,0.3-0.6,0.5L19.1,30.2z M21.7,5.2c-1.9,3.5-8.4,12.2-9.4,13.6c-0.6,0.8-1.2,1.1-2.1,1.1l0.3-0.3c0,0,0-0.1,0-0.2
		l6.1-7.4c0.1,0,0.2,0,0.2,0l0.7-0.8c0,0,0-0.1,0-0.2l0.5-0.6c0.1-0.1,0-0.2-0.2-0.4L21.7,5.2z"/>
	<path  fill-rule="evenodd" clip-rule="evenodd" fill="#FF8A1E" d="M60.3,30.3h3c0.4,0,0.7,0.3,0.7,0.7
		v9.3c0,0.4,0.3,0.7,0.7,0.7h2.6c0.4,0,0.7-0.3,0.7-0.7V16.6c0-0.4-0.3-0.7-0.7-0.7h-2.6c-0.4,0-0.7,0.3-0.7,0.7V26
		c0,0.4-0.3,0.7-0.7,0.7h-3c-0.4,0-0.7-0.3-0.7-0.7v-9.3c0-0.4-0.3-0.7-0.7-0.7h-2.5c-0.4,0-0.7,0.3-0.7,0.7v23.7
		c0,0.4,0.3,0.7,0.7,0.7h2.5c0.4,0,0.7-0.3,0.7-0.7V31C59.5,30.6,59.9,30.3,60.3,30.3 M78.2,41.1h2.5c0.4,0,0.7-0.3,0.7-0.7v-7.5
		c0-0.1,0-0.1,0-0.2l4.7-15.8c0.1-0.2,0-0.5-0.1-0.6c-0.1-0.2-0.3-0.3-0.6-0.3h-2.2c-0.3,0-0.6,0.2-0.7,0.5l-2.2,8.2
		c-0.1,0.3-0.4,0.5-0.7,0.5c-0.3,0-0.6-0.2-0.7-0.5l-2.2-8.2c-0.1-0.3-0.4-0.5-0.7-0.5h-2.6c-0.2,0-0.4,0.1-0.6,0.3
		c-0.1,0.2-0.2,0.4-0.1,0.6l4.7,15.8c0,0.1,0,0.1,0,0.2v7.5C77.5,40.8,77.8,41.1,78.2,41.1 M91.6,41.1h5.5c4,0,5.9-2.2,5.9-6.2V22.1
		c0-4-1.9-6.2-5.9-6.2h-5.5c-0.4,0-0.7,0.3-0.7,0.7v23.7C90.9,40.8,91.2,41.1,91.6,41.1 M97,19.5c1.3,0,2,0.6,2,2.4V35
		c0,1.8-0.8,2.4-2,2.4h-1.5c-0.4,0-0.7-0.3-0.7-0.7V20.2c0-0.4,0.3-0.7,0.7-0.7H97z M120.4,40.2c-0.1-0.7-0.2-1.3-0.2-2.2v-3.9
		c0-2.2-0.4-3.8-1.7-4.8c-0.2-0.1-0.3-0.3-0.3-0.6c0-0.2,0.1-0.4,0.3-0.6c1.1-0.9,1.7-2.4,1.7-4.5v-2c0-3.9-1.8-5.8-5.9-5.8h-5.2
		c-0.4,0-0.7,0.3-0.7,0.7v23.7c0,0.4,0.3,0.7,0.7,0.7h2.5c0.4,0,0.7-0.3,0.7-0.7v-8.8c0-0.4,0.3-0.7,0.7-0.7h0.6
		c1.8,0,2.6,0.9,2.6,3.2v4c0,1.4,0.1,2.1,0.2,2.5c0.1,0.3,0.4,0.6,0.7,0.6h2.5c0.2,0,0.4-0.1,0.6-0.3
		C120.4,40.6,120.4,40.4,120.4,40.2 M114.2,19.5c1.4,0,2,0.8,2,2.6v2.5c0,2-0.9,2.7-2.4,2.7h-0.8c-0.4,0-0.7-0.3-0.7-0.7v-6.3
		c0-0.4,0.3-0.7,0.7-0.7H114.2z M133.8,15.9h-4.5c-0.4,0-0.7,0.3-0.7,0.6l-3.8,23.7c0,0.2,0,0.4,0.2,0.6c0.1,0.2,0.3,0.3,0.6,0.3
		h2.1c0.4,0,0.7-0.3,0.7-0.6l0.5-3.3c0.1-0.4,0.4-0.6,0.7-0.6h3.6c0.4,0,0.7,0.3,0.7,0.6l0.5,3.3c0.1,0.4,0.4,0.6,0.7,0.6h2.5
		c0.2,0,0.4-0.1,0.6-0.3c0.1-0.2,0.2-0.4,0.2-0.6l-3.8-23.7C134.5,16.2,134.2,15.9,133.8,15.9 M132.1,25.2l1.1,7.1
		c0,0.2,0,0.4-0.2,0.6c-0.1,0.2-0.3,0.3-0.6,0.3h-2.1c-0.2,0-0.4-0.1-0.6-0.3c-0.1-0.2-0.2-0.4-0.2-0.6l1.1-7.1
		c0.1-0.4,0.4-0.6,0.7-0.6C131.7,24.6,132,24.8,132.1,25.2"/>
	<path  fill-rule="evenodd" clip-rule="evenodd" fill="#12110C" d="M147.7,19.5h5c0.4,0,0.7-0.3,0.7-0.7
		v-2.1c0-0.4-0.3-0.7-0.7-0.7h-9c-0.4,0-0.7,0.3-0.7,0.7v23.7c0,0.4,0.3,0.7,0.7,0.7h2.5c0.4,0,0.7-0.3,0.7-0.7v-8.9
		c0-0.4,0.3-0.7,0.7-0.7h3.6c0.4,0,0.7-0.3,0.7-0.7v-2.1c0-0.4-0.3-0.7-0.7-0.7h-3.6c-0.4,0-0.7-0.3-0.7-0.7v-6.1
		C147,19.8,147.3,19.5,147.7,19.5 M159,41.1h9c0.4,0,0.7-0.3,0.7-0.7v-2.1c0-0.4-0.3-0.7-0.7-0.7h-5c-0.4,0-0.7-0.3-0.7-0.7V16.6
		c0-0.4-0.3-0.7-0.7-0.7H159c-0.4,0-0.7,0.3-0.7,0.7v23.7C158.2,40.8,158.6,41.1,159,41.1 M177.9,19.5h5.4c0.4,0,0.7-0.3,0.7-0.7
		v-2.1c0-0.4-0.3-0.7-0.7-0.7H174c-0.4,0-0.7,0.3-0.7,0.7v23.7c0,0.4,0.3,0.7,0.7,0.7h9.3c0.4,0,0.7-0.3,0.7-0.7v-2.1
		c0-0.4-0.3-0.7-0.7-0.7h-5.4c-0.4,0-0.7-0.3-0.7-0.7v-5.9c0-0.4,0.3-0.7,0.7-0.7h4c0.4,0,0.7-0.3,0.7-0.7v-2.1
		c0-0.4-0.3-0.7-0.7-0.7h-4c-0.4,0-0.7-0.3-0.7-0.7v-5.6C177.2,19.8,177.5,19.5,177.9,19.5 M198.7,16.4l-2.2,6.6
		c-0.1,0.3-0.4,0.5-0.7,0.5c-0.3,0-0.6-0.2-0.7-0.5l-2.1-6.6c-0.1-0.3-0.4-0.5-0.7-0.5h-2.5c-0.2,0-0.5,0.1-0.6,0.3
		c-0.1,0.2-0.2,0.4-0.1,0.7l3.7,11c0.1,0.2,0.1,0.3,0,0.5l-4,11.7c-0.1,0.2,0,0.5,0.1,0.7c0.1,0.2,0.4,0.3,0.6,0.3h2.2
		c0.3,0,0.6-0.2,0.7-0.5l2.4-7.3c0.1-0.3,0.4-0.5,0.7-0.5c0.3,0,0.6,0.2,0.7,0.5l2.4,7.3c0.1,0.3,0.4,0.5,0.7,0.5h2.6
		c0.2,0,0.5-0.1,0.6-0.3c0.1-0.2,0.2-0.4,0.1-0.7l-4-11.7c-0.1-0.2-0.1-0.3,0-0.5l3.7-11c0.1-0.2,0-0.5-0.1-0.7
		c-0.1-0.2-0.4-0.3-0.6-0.3h-2.1C199.1,15.9,198.8,16.1,198.7,16.4"/>
	<path  fill-rule="evenodd" clip-rule="evenodd" fill="#12110C" d="M60.5,49.3c0,0.3-0.1,0.6-0.2,0.9
		c-0.1,0.3-0.3,0.5-0.5,0.8c-0.2,0.2-0.5,0.4-0.8,0.5c-0.3,0.1-0.6,0.2-1,0.2h-1.2c-0.1,0-0.1,0-0.1,0.1V55c0,0.1-0.1,0.2-0.2,0.2
		h-0.8c-0.1,0-0.2,0-0.2-0.1V47c0-0.1,0.1-0.1,0.2-0.1H58c0.4,0,0.7,0.1,1,0.2c0.3,0.1,0.6,0.3,0.8,0.5c0.2,0.2,0.4,0.5,0.5,0.8
		C60.4,48.7,60.5,49,60.5,49.3 M56.8,47.9c-0.1,0-0.1,0-0.1,0.1v2.7c0,0.1,0,0.1,0.1,0.1H58c0.4,0,0.8-0.1,1-0.4
		c0.3-0.3,0.4-0.6,0.4-1.1c0-0.2,0-0.3-0.1-0.5c-0.1-0.2-0.1-0.3-0.3-0.5c-0.1-0.1-0.3-0.3-0.4-0.3c-0.2-0.1-0.4-0.1-0.6-0.1H56.8z
		 M61.9,46.9c0.2,0,0.2,0,0.3,0.1l1.6,4.8c0,0,0.1,0,0.1,0l1.5-4.7c0-0.1,0.1-0.2,0.3-0.2h0.7c0.1,0,0.2,0,0.2,0.1c0,0,0,0.1,0,0.2
		l-2,6.1c-0.1,0.3-0.2,0.6-0.3,0.9c-0.1,0.3-0.2,0.5-0.3,0.7c-0.1,0.2-0.3,0.3-0.5,0.4c-0.2,0.1-0.4,0.1-0.7,0.1h-0.6
		c-0.1,0-0.2,0-0.2,0c0,0,0-0.1,0-0.2v-0.5c0-0.1,0-0.2,0-0.2c0,0,0.1,0,0.1,0h0.3c0.2,0,0.3,0,0.4-0.1c0.1,0,0.2-0.1,0.3-0.3
		c0.1-0.2,0.2-0.3,0.2-0.4c0-0.1,0-0.3,0-0.4L61,47.1c-0.1-0.2,0-0.2,0.1-0.2H61.9z M72.5,46.9c0.1,0,0.1,0,0.2,0.1c0,0,0,0.1,0,0.1
		l-2.5,3c0,0,0,0.1,0,0.1c0,0,0,0,0.1,0c0.1,0,0.1,0,0.2,0c0.1,0,0.1,0,0.2,0c0.6,0,1.1,0.3,1.4,0.6c0.3,0.4,0.5,0.9,0.5,1.6
		l0.2,2.5c0,0.1,0,0.1-0.1,0.1h-0.8c-0.1,0-0.1,0-0.1-0.1l-0.2-2.4c0-0.1,0-0.3-0.1-0.5c0-0.2-0.1-0.3-0.2-0.5
		c-0.1-0.2-0.2-0.3-0.4-0.4c-0.2-0.1-0.4-0.2-0.7-0.2c-0.5,0-0.9,0.1-1.1,0.4c-0.3,0.3-0.4,0.7-0.4,1.1V55c0,0.1,0,0.1-0.1,0.1h-0.9
		c-0.1,0-0.1,0-0.1-0.1v-8c0-0.1,0-0.1,0.1-0.1h0.9c0.1,0,0.1,0,0.1,0.1v3.3c0,0.1,0,0.1,0.1,0.1c0,0,0.1,0,0.1-0.1l2.8-3.4
		c0.1-0.1,0.1-0.1,0.2-0.1H72.5z M78.1,55.1c-0.1,0-0.2,0-0.2-0.1l-0.4-1.7c0,0,0-0.1-0.1-0.1h-2.4c0,0-0.1,0-0.1,0c0,0,0,0,0,0
		L74.6,55c0,0.1-0.1,0.1-0.2,0.1h-0.7c-0.1,0-0.1,0-0.2,0c0,0,0-0.1,0-0.2l2-7.9c0,0,0-0.1,0.1-0.1c0,0,0.1,0,0.2,0h1.1
		c0.1,0,0.2,0,0.2,0.1l2,7.9c0,0,0,0.1,0,0.1c0,0.1-0.1,0.1-0.1,0.1H78.1z M75.8,49.8l-0.6,2.4c0,0,0,0.1,0,0.1c0,0,0,0,0.1,0h1.8
		c0,0,0.1,0,0.1,0c0,0,0,0,0-0.1l-0.6-2.4l-0.4-1.7c0,0,0,0,0,0c0,0,0,0,0,0L75.8,49.8z M85.1,52.7c0,0.4-0.1,0.7-0.2,1
		c-0.1,0.3-0.3,0.6-0.5,0.8c-0.2,0.2-0.5,0.4-0.8,0.5c-0.3,0.1-0.6,0.2-1,0.2h-2.6c-0.1,0-0.2,0-0.2-0.1V47c0-0.1,0-0.1,0.1-0.1h2.4
		c0.7,0,1.3,0.2,1.7,0.5c0.4,0.4,0.6,0.9,0.6,1.6c0,0.1,0,0.3-0.1,0.4c0,0.2-0.1,0.3-0.2,0.4c-0.1,0.1-0.2,0.3-0.3,0.4
		c-0.1,0.1-0.2,0.2-0.3,0.3c0,0,0,0.1,0,0.1c0.4,0.2,0.6,0.5,0.8,0.8C85,51.9,85.1,52.3,85.1,52.7 M84,52.7c0-0.2,0-0.4-0.1-0.6
		c0-0.2-0.1-0.3-0.2-0.5c-0.1-0.1-0.3-0.3-0.5-0.3c-0.2-0.1-0.4-0.1-0.7-0.1h-1.3c-0.1,0-0.1,0-0.1,0.1V54c0,0.1,0,0.1,0.1,0.1h1.5
		c0.4,0,0.7-0.1,1-0.4C83.9,53.5,84,53.1,84,52.7 M83.8,49c0-0.4-0.1-0.6-0.3-0.8c-0.2-0.2-0.5-0.3-0.9-0.3h-1.3
		c-0.1,0-0.1,0-0.1,0.1v2.2c0,0.1,0,0.1,0.1,0.1h1.3c0.4,0,0.7-0.1,0.9-0.4C83.7,49.6,83.8,49.4,83.8,49 M90.5,55.1
		c-0.1,0-0.2,0-0.2-0.1l-0.4-1.7c0,0,0-0.1-0.1-0.1h-2.4c0,0-0.1,0-0.1,0c0,0,0,0,0,0L87,55c0,0.1-0.1,0.1-0.2,0.1h-0.7
		c-0.1,0-0.1,0-0.2,0c0,0,0-0.1,0-0.2l2-7.9c0,0,0-0.1,0.1-0.1c0,0,0.1,0,0.2,0h1.1c0.1,0,0.2,0,0.2,0.1l2,7.9c0,0,0,0.1,0,0.1
		c0,0.1-0.1,0.1-0.1,0.1H90.5z M88.3,49.8l-0.6,2.4c0,0,0,0.1,0,0.1c0,0,0,0,0.1,0h1.8c0,0,0.1,0,0.1,0c0,0,0,0,0-0.1l-0.6-2.4
		l-0.4-1.7c0,0,0,0,0,0s0,0,0,0L88.3,49.8z M100.4,52.7c0,0.4-0.1,0.7-0.2,1c-0.1,0.3-0.3,0.6-0.5,0.8c-0.2,0.2-0.5,0.4-0.8,0.5
		c-0.3,0.1-0.6,0.2-1,0.2h-2.6c-0.1,0-0.2,0-0.2-0.1V47c0-0.1,0-0.1,0.1-0.1h2.4c0.7,0,1.3,0.2,1.7,0.5c0.4,0.4,0.6,0.9,0.6,1.6
		c0,0.1,0,0.3-0.1,0.4c0,0.2-0.1,0.3-0.2,0.4c-0.1,0.1-0.2,0.3-0.3,0.4c-0.1,0.1-0.2,0.2-0.3,0.3c0,0,0,0.1,0,0.1
		c0.4,0.2,0.6,0.5,0.8,0.8C100.3,51.9,100.4,52.3,100.4,52.7 M99.2,52.7c0-0.2,0-0.4-0.1-0.6c0-0.2-0.1-0.3-0.2-0.5
		c-0.1-0.1-0.3-0.3-0.5-0.3c-0.2-0.1-0.4-0.1-0.7-0.1h-1.3c-0.1,0-0.1,0-0.1,0.1V54c0,0.1,0,0.1,0.1,0.1h1.5c0.4,0,0.7-0.1,1-0.4
		C99.1,53.5,99.2,53.1,99.2,52.7 M99,49c0-0.4-0.1-0.6-0.3-0.8c-0.2-0.2-0.5-0.3-0.9-0.3h-1.3c-0.1,0-0.1,0-0.1,0.1v2.2
		c0,0.1,0,0.1,0.1,0.1h1.3c0.4,0,0.7-0.1,0.9-0.4C98.9,49.6,99,49.4,99,49 M102.8,50.1c0,0.1,0,0.1,0.1,0.1h1.5c0.4,0,0.7,0.1,1,0.2
		c0.3,0.1,0.5,0.3,0.8,0.5c0.2,0.2,0.4,0.5,0.5,0.8c0.1,0.3,0.2,0.6,0.2,1s-0.1,0.7-0.2,1c-0.1,0.3-0.3,0.5-0.5,0.8
		c-0.2,0.2-0.5,0.4-0.8,0.5c-0.3,0.1-0.7,0.2-1.1,0.2h-2.4c-0.1,0-0.1-0.1-0.1-0.2V47c0-0.1,0-0.1,0.1-0.1h0.8c0.1,0,0.2,0,0.2,0.1
		V50.1z M108.8,55c0,0.1,0,0.2-0.1,0.2h-0.8c-0.1,0-0.2,0-0.2-0.1V47c0-0.1,0.1-0.1,0.2-0.1h0.8c0.1,0,0.1,0,0.1,0.1V55z
		 M104.3,54.1c0.2,0,0.4,0,0.6-0.1c0.2-0.1,0.3-0.2,0.5-0.3c0.1-0.1,0.2-0.3,0.3-0.5c0.1-0.2,0.1-0.4,0.1-0.5c0-0.5-0.1-0.9-0.4-1.1
		c-0.3-0.2-0.6-0.4-1-0.4h-1.4c-0.1,0-0.1,0-0.1,0.1V54c0,0.1,0,0.1,0.1,0.1H104.3z M115,47.8c0,0.1,0.1,0.1,0.1,0.1s0,0.1-0.1,0.2
		l-0.5,0.4c0,0-0.1,0-0.1,0c-0.1,0-0.1,0-0.1-0.1c-0.2-0.2-0.4-0.4-0.6-0.5c-0.3-0.1-0.5-0.2-0.8-0.2c-0.4,0-0.8,0.1-1,0.4
		c-0.2,0.2-0.3,0.5-0.3,0.9v3.9c0,0.4,0.1,0.7,0.4,0.9c0.2,0.2,0.6,0.4,1,0.4c0.3,0,0.5-0.1,0.8-0.2c0.2-0.1,0.4-0.3,0.6-0.4
		c0-0.1,0.1-0.1,0.1-0.1c0,0,0.1,0,0.2,0l0.5,0.4c0,0,0,0,0,0.1c0,0,0,0.1,0,0.1c-0.3,0.3-0.6,0.6-1,0.8c-0.4,0.2-0.8,0.3-1.2,0.3
		c-0.4,0-0.7,0-1-0.1c-0.3-0.1-0.6-0.2-0.8-0.4c-0.2-0.2-0.4-0.4-0.5-0.7c-0.1-0.3-0.2-0.6-0.2-1v-3.9c0-0.3,0.1-0.7,0.2-0.9
		c0.1-0.3,0.3-0.5,0.5-0.7c0.2-0.2,0.5-0.3,0.8-0.5c0.3-0.1,0.6-0.2,1-0.2c0.4,0,0.8,0.1,1.2,0.2C114.3,47.1,114.7,47.4,115,47.8
		 M121.1,52.9c0,0.4-0.1,0.7-0.2,1c-0.1,0.3-0.3,0.5-0.5,0.7c-0.2,0.2-0.5,0.3-0.8,0.4c-0.3,0.1-0.6,0.2-1,0.2c-0.4,0-0.7,0-1-0.1
		c-0.3-0.1-0.6-0.2-0.8-0.4c-0.2-0.2-0.4-0.4-0.5-0.7c-0.1-0.3-0.2-0.6-0.2-1v-3.9c0-0.4,0.1-0.7,0.2-1c0.1-0.3,0.3-0.5,0.5-0.7
		c0.2-0.2,0.5-0.3,0.8-0.4c0.3-0.1,0.6-0.2,1-0.2c0.3,0,0.7,0,1,0.1c0.3,0.1,0.6,0.2,0.8,0.4c0.2,0.2,0.4,0.4,0.6,0.7
		c0.1,0.3,0.2,0.6,0.2,1V52.9z M120,49.1c0-0.4-0.1-0.7-0.4-0.9c-0.3-0.2-0.6-0.4-1-0.4c-0.4,0-0.8,0.1-1,0.4
		c-0.3,0.3-0.4,0.6-0.4,0.9v3.8c0,0.4,0.1,0.7,0.4,1c0.2,0.2,0.6,0.4,1,0.4c0.4,0,0.8-0.1,1-0.4c0.3-0.2,0.4-0.6,0.4-1V49.1z
		 M127.8,46.9c0.1,0,0.1,0,0.2,0.1s0,0.1,0,0.1l-2.5,3c0,0,0,0.1,0,0.1c0,0,0,0,0.1,0c0.1,0,0.1,0,0.2,0c0.1,0,0.1,0,0.2,0
		c0.6,0,1.1,0.3,1.4,0.6c0.3,0.4,0.5,0.9,0.5,1.6L128,55c0,0.1,0,0.1-0.1,0.1h-0.8c-0.1,0-0.1,0-0.1-0.1l-0.2-2.4
		c0-0.1,0-0.3-0.1-0.5c0-0.2-0.1-0.3-0.2-0.5c-0.1-0.2-0.2-0.3-0.4-0.4c-0.2-0.1-0.4-0.2-0.7-0.2c-0.5,0-0.9,0.1-1.1,0.4
		c-0.3,0.3-0.4,0.7-0.4,1.1V55c0,0.1,0,0.1-0.1,0.1h-0.9c-0.1,0-0.1,0-0.1-0.1v-8c0-0.1,0-0.1,0.1-0.1h0.9c0.1,0,0.1,0,0.1,0.1v3.3
		c0,0.1,0,0.1,0.1,0.1c0,0,0.1,0,0.1-0.1l2.8-3.4c0.1-0.1,0.1-0.1,0.2-0.1H127.8z M134.4,52.9c0,0.4-0.1,0.7-0.2,1
		c-0.1,0.3-0.3,0.5-0.5,0.7c-0.2,0.2-0.5,0.3-0.8,0.4s-0.6,0.2-1,0.2c-0.4,0-0.7,0-1-0.1c-0.3-0.1-0.6-0.2-0.8-0.4
		c-0.2-0.2-0.4-0.4-0.5-0.7c-0.1-0.3-0.2-0.6-0.2-1v-3.9c0-0.4,0.1-0.7,0.2-1c0.1-0.3,0.3-0.5,0.5-0.7c0.2-0.2,0.5-0.3,0.8-0.4
		c0.3-0.1,0.6-0.2,1-0.2c0.3,0,0.7,0,1,0.1c0.3,0.1,0.6,0.2,0.8,0.4c0.2,0.2,0.4,0.4,0.6,0.7c0.1,0.3,0.2,0.6,0.2,1V52.9z
		 M133.3,49.1c0-0.4-0.1-0.7-0.4-0.9c-0.3-0.2-0.6-0.4-1-0.4c-0.4,0-0.8,0.1-1,0.4c-0.3,0.3-0.4,0.6-0.4,0.9v3.8
		c0,0.4,0.1,0.7,0.4,1c0.2,0.2,0.6,0.4,1,0.4c0.4,0,0.8-0.1,1-0.4c0.3-0.2,0.4-0.6,0.4-1V49.1z M140.7,47.7c0,0.1-0.1,0.1-0.2,0.1
		h-3.1c-0.1,0-0.1,0-0.1,0.1v7c0,0.1,0,0.2-0.1,0.2h-0.8c-0.1,0-0.2,0-0.2-0.1V47c0-0.1,0.1-0.1,0.2-0.1h4.2c0.1,0,0.2,0,0.2,0.1
		V47.7z M146.7,52.9c0,0.4-0.1,0.7-0.2,1c-0.1,0.3-0.3,0.5-0.5,0.7c-0.2,0.2-0.5,0.3-0.8,0.4c-0.3,0.1-0.6,0.2-1,0.2
		c-0.4,0-0.7,0-1-0.1c-0.3-0.1-0.6-0.2-0.8-0.4c-0.2-0.2-0.4-0.4-0.5-0.7c-0.1-0.3-0.2-0.6-0.2-1v-3.9c0-0.4,0.1-0.7,0.2-1
		c0.1-0.3,0.3-0.5,0.5-0.7c0.2-0.2,0.5-0.3,0.8-0.4c0.3-0.1,0.6-0.2,1-0.2c0.3,0,0.7,0,1,0.1c0.3,0.1,0.6,0.2,0.8,0.4
		c0.2,0.2,0.4,0.4,0.6,0.7s0.2,0.6,0.2,1V52.9z M145.6,49.1c0-0.4-0.1-0.7-0.4-0.9c-0.3-0.2-0.6-0.4-1-0.4c-0.4,0-0.8,0.1-1,0.4
		c-0.3,0.3-0.4,0.6-0.4,0.9v3.8c0,0.4,0.1,0.7,0.4,1c0.2,0.2,0.6,0.4,1,0.4c0.4,0,0.8-0.1,1-0.4c0.3-0.2,0.4-0.6,0.4-1V49.1z
		 M151.4,56.7c0,0.1,0,0.2-0.1,0.2c0,0-0.1,0-0.1,0h-0.6c-0.1,0-0.1,0-0.1,0c0,0,0-0.1-0.1-0.2v-2.2c0-0.1,0-0.2,0.1-0.3
		c0,0,0.1-0.1,0.2-0.1l0.2-0.1c0.3-0.1,0.5-0.3,0.6-0.6c0.1-0.3,0.2-0.7,0.3-1.2c0-0.3,0.1-0.5,0.1-0.8c0-0.3,0-0.6,0.1-1
		c0-0.4,0.1-0.9,0.1-1.4c0-0.5,0.1-1.2,0.1-1.9c0-0.1,0-0.2,0.1-0.2c0,0,0.1-0.1,0.2-0.1h4c0.1,0,0.1,0,0.2,0.1c0,0,0.1,0.1,0.1,0.2
		V54c0,0,0,0,0,0.1c0,0,0,0,0.1,0h0.3c0.1,0,0.2,0,0.2,0.1c0,0,0,0.1,0,0.2v2.3c0,0.1,0,0.2-0.1,0.2c0,0-0.1,0-0.1,0h-0.6
		c-0.1,0-0.1,0-0.2,0c0,0-0.1-0.1-0.1-0.2v-1.5c0-0.1,0-0.1-0.1-0.1c0,0-0.1,0-0.1,0h-4.4c-0.1,0-0.1,0-0.1,0c0,0,0,0.1,0,0.1V56.7z
		 M153.1,47.9C153.1,47.9,153,47.9,153.1,47.9C153,47.9,153,48,153,48c0,0.3,0,0.7-0.1,1c0,0.4,0,0.8-0.1,1.2c0,0.4,0,0.8-0.1,1.1
		c0,0.4-0.1,0.7-0.1,1c0,0.1,0,0.3-0.1,0.4c0,0.2-0.1,0.3-0.1,0.5c0,0.2-0.1,0.3-0.1,0.5c-0.1,0.2-0.1,0.3-0.2,0.4
		c0,0.1,0,0.1,0.1,0.1h3c0,0,0,0,0.1,0c0,0,0,0,0-0.1v-6c0-0.1-0.1-0.2-0.2-0.2H153.1z M162.5,55.1c-0.1,0-0.2,0-0.2-0.1l-0.4-1.7
		c0,0,0-0.1-0.1-0.1h-2.4c0,0-0.1,0-0.1,0c0,0,0,0,0,0L159,55c0,0.1-0.1,0.1-0.2,0.1h-0.7c-0.1,0-0.1,0-0.2,0c0,0,0-0.1,0-0.2l2-7.9
		c0,0,0-0.1,0.1-0.1c0,0,0.1,0,0.2,0h1.1c0.1,0,0.2,0,0.2,0.1l2,7.9c0,0,0,0.1,0,0.1c0,0.1-0.1,0.1-0.1,0.1H162.5z M160.2,49.8
		l-0.6,2.4c0,0,0,0.1,0,0.1c0,0,0,0,0.1,0h1.8c0,0,0.1,0,0.1,0s0,0,0-0.1l-0.6-2.4l-0.4-1.7c0,0,0,0,0,0s0,0,0,0L160.2,49.8z
		 M169.5,52.7c0,0.4-0.1,0.7-0.2,1c-0.1,0.3-0.3,0.6-0.5,0.8c-0.2,0.2-0.5,0.4-0.8,0.5c-0.3,0.1-0.6,0.2-1,0.2h-2.6
		c-0.1,0-0.2,0-0.2-0.1V47c0-0.1,0-0.1,0.1-0.1h2.4c0.7,0,1.3,0.2,1.7,0.5c0.4,0.4,0.6,0.9,0.6,1.6c0,0.1,0,0.3-0.1,0.4
		c0,0.2-0.1,0.3-0.2,0.4c-0.1,0.1-0.2,0.3-0.3,0.4c-0.1,0.1-0.2,0.2-0.3,0.3c0,0,0,0.1,0,0.1c0.4,0.2,0.6,0.5,0.8,0.8
		C169.4,51.9,169.5,52.3,169.5,52.7 M168.4,52.7c0-0.2,0-0.4-0.1-0.6c0-0.2-0.1-0.3-0.2-0.5c-0.1-0.1-0.3-0.3-0.5-0.3
		c-0.2-0.1-0.4-0.1-0.7-0.1h-1.3c-0.1,0-0.1,0-0.1,0.1V54c0,0.1,0,0.1,0.1,0.1h1.5c0.4,0,0.7-0.1,1-0.4
		C168.3,53.5,168.4,53.1,168.4,52.7 M168.2,49c0-0.4-0.1-0.6-0.3-0.8c-0.2-0.2-0.5-0.3-0.9-0.3h-1.3c-0.1,0-0.1,0-0.1,0.1v2.2
		c0,0.1,0,0.1,0.1,0.1h1.3c0.4,0,0.7-0.1,0.9-0.4C168.1,49.6,168.2,49.4,168.2,49 M172.9,47.8c-0.1,0-0.1,0-0.1,0.1v1.7
		c0,1,0,1.8-0.1,2.5c-0.1,0.6-0.2,1.2-0.3,1.6c-0.2,0.4-0.4,0.7-0.6,1c-0.3,0.2-0.6,0.4-1,0.6c0,0,0,0-0.1,0c-0.1,0-0.1,0-0.2-0.1
		l-0.2-0.5c0,0,0,0,0,0c0,0,0,0,0,0c0,0,0-0.1,0.1-0.1c0,0,0.1-0.1,0.1-0.1c0.2-0.1,0.3-0.2,0.5-0.3c0.1-0.1,0.3-0.2,0.4-0.3
		c0.1-0.1,0.2-0.3,0.3-0.5s0.1-0.5,0.2-0.8c0-0.3,0.1-0.7,0.1-1.2c0-0.5,0-1,0-1.7V47c0-0.1,0.1-0.1,0.2-0.1h4.1
		c0.1,0,0.2,0,0.2,0.1V55c0,0.1-0.1,0.2-0.2,0.2h-0.8c-0.1,0-0.1,0-0.1-0.1v-7c0-0.1,0-0.1-0.1-0.1H172.9z M182.5,55
		c0,0.1-0.1,0.2-0.2,0.2H178c-0.1,0-0.2,0-0.2-0.1V47c0-0.1,0.1-0.1,0.2-0.1h4.3c0.1,0,0.2,0,0.2,0.1v0.7c0,0.1-0.1,0.2-0.2,0.2H179
		c-0.1,0-0.1,0-0.1,0.1v2.3c0,0.1,0,0.1,0.1,0.1h2.7c0.1,0,0.2,0.1,0.2,0.2v0.7c0,0.1,0,0.1-0.1,0.1H179c-0.1,0-0.1,0-0.1,0.1V54
		c0,0.1,0,0.1,0.1,0.1h3.3c0.1,0,0.2,0,0.2,0.1V55z M189,55c0,0.1-0.1,0.2-0.2,0.2H188c-0.1,0-0.2,0-0.2-0.1v-3.5
		c0-0.1,0-0.1-0.1-0.1h-2.8c-0.1,0-0.1,0-0.1,0.1V55c0,0.1,0,0.2-0.1,0.2h-0.8c-0.1,0-0.2,0-0.2-0.1V47c0-0.1,0-0.1,0.1-0.1h0.8
		c0.1,0,0.2,0,0.2,0.1v3.2c0,0.1,0,0.1,0.1,0.1h2.8c0.1,0,0.1,0,0.1-0.1V47c0-0.1,0-0.1,0.1-0.1h0.8c0.1,0,0.2,0,0.2,0.1V55z
		 M190.7,47c0-0.1,0.1-0.1,0.2-0.1h0.8c0.1,0,0.1,0,0.1,0.1v5.9c0,0,0,0,0,0c0,0,0,0,0,0l3.1-5.8c0-0.1,0.1-0.1,0.1-0.2
		c0,0,0.1-0.1,0.2-0.1h0.6c0.1,0,0.1,0,0.1,0.1V55c0,0.1-0.1,0.1-0.2,0.1h-0.8c-0.1,0-0.1-0.1-0.1-0.2V49c0,0,0,0,0,0
		c-0.5,0.9-1,1.9-1.5,3c-0.5,1-1.1,2-1.5,3c0,0.1-0.1,0.2-0.1,0.2c0,0-0.1,0-0.2,0h-0.6c-0.1,0-0.2-0.1-0.2-0.2V47z M200.1,47.9
		c-0.3,0-0.5,0-0.7,0.1c-0.2,0.1-0.3,0.2-0.5,0.3c-0.1,0.1-0.2,0.3-0.3,0.5c-0.1,0.2-0.1,0.4-0.1,0.5c0,0.1,0,0.2,0,0.3
		c0,0.1,0.1,0.3,0.1,0.4c0.1,0.1,0.1,0.3,0.2,0.4c0.1,0.1,0.2,0.2,0.3,0.3c0,0,0.1,0,0.1,0c0,0,0.1,0,0.1,0h1.8c0.1,0,0.1,0,0.1-0.1
		V48c0-0.1,0-0.1-0.1-0.1H200.1z M197.5,49.2c0-0.3,0.1-0.7,0.2-1c0.1-0.3,0.3-0.5,0.5-0.7c0.2-0.2,0.5-0.4,0.8-0.5
		c0.3-0.1,0.6-0.2,1-0.2h2.3c0.1,0,0.2,0,0.2,0.1V55c0,0.1-0.1,0.1-0.2,0.1h-0.8c-0.1,0-0.2-0.1-0.2-0.2v-3.1c0-0.1,0-0.1-0.1-0.1
		h-1.3c-0.1,0-0.1,0-0.1,0c0,0,0,0.1-0.1,0.1l-1.4,3c0,0.1-0.1,0.1-0.1,0.2c0,0-0.1,0.1-0.3,0.1h-0.6c-0.1,0-0.1,0-0.2,0
		c-0.1,0-0.1-0.1,0-0.2l1.5-3.2c0,0,0,0,0-0.1c-0.3-0.2-0.6-0.6-0.8-1C197.6,50.2,197.5,49.7,197.5,49.2"/>
	<path fill="#FF8A1E" d="M244.9,47.7V55h-5.6v-7.4h-12.8v-3.5l9.7-28.2h5.9c0,0.1,0,0.2,0,0.2l-9.1,26.5h6.3V31h5.6v11.7h3v5H244.9z
		 M211.8,49.9h11.9V55h-18.9v-3.6l13.2-23.2V21H211v7.3h-5.7v-8.7c0-2.4,1.2-3.5,3.6-3.5h11.4c2.4,0,3.6,1.2,3.6,3.5v7.6
		c0,1.2-0.4,2.6-1.3,4.1L211.8,49.9z"/>
</svg>
