<svg version="1.1" xmlns="http://www.w3.org/2000/svg" xmlns:xlink="http://www.w3.org/1999/xlink" x="0px" y="0px"
	 viewBox="0 0 78 62" enable-background="new 0 0 78 62" xml:space="preserve">
	<path d="M6.5,62h65c3.6,0,6.5-2.9,6.5-6.5v-49C78,2.9,75.1,0,71.5,0h-65C2.9,0,0,2.9,0,6.5v49
		C0,59.1,2.9,62,6.5,62 M71.5,58h-65C5.1,58,4,56.9,4,55.5V11.1l30.8,23.1c1.2,1,2.7,1.4,4.2,1.4s2.9-0.5,4.2-1.4L74,11.1v44.4
		C74,56.9,72.9,58,71.5,58 M6.5,4h65c1.3,0,2.3,0.9,2.4,2.1L40.7,31c-1,0.8-2.5,0.8-3.5,0L4,6.1C4.2,4.9,5.2,4,6.5,4"/>
</svg>
