<?xml version="1.0"?>
<!--Icons from directory ""-->
<svg xmlns="http://www.w3.org/2000/svg" width="76" height="862" viewBox="0 0 76 862"><svg width="73" height="73" fill="none" viewBox="-30 -30 73 73" id="Grohhup" y="0"><path d="M11.876 3.48l-.003-.014C11.6 2.37 10.377 1.191 9.253.946L9.24.942a14.56 14.56 0 0 0-5.48 0l-.013.002c-1.124.246-2.349 1.424-2.62 2.521l-.004.014a10.727 10.727 0 0 0 0 4.62l.003.014c.26 1.051 1.394 2.175 2.476 2.484v1.226c0 .443.54.661.848.341l1.242-1.29a14.435 14.435 0 0 0 3.548-.237l.013-.003c1.124-.245 2.348-1.423 2.62-2.52l.003-.014a10.728 10.728 0 0 0 0-4.621zm-.982 4.399c-.182.716-1.111 1.606-1.85 1.77-.967.185-1.941.263-2.915.236a.07.07 0 0 0-.051.021l-.907.93-.964.99a.113.113 0 0 1-.195-.078v-2.03a.07.07 0 0 0-.056-.068h-.001c-.739-.165-1.668-1.055-1.85-1.771a9.734 9.734 0 0 1 0-4.177c.182-.716 1.111-1.607 1.85-1.771a13.56 13.56 0 0 1 5.09 0c.738.164 1.667 1.055 1.849 1.771a9.724 9.724 0 0 1 0 4.177z" fill="#7D3DAF"/><path d="M8.106 8.816c-.113-.035-.221-.058-.322-.1-1.041-.432-2-.99-2.759-1.844A7.16 7.16 0 0 1 3.97 5.258c-.136-.276-.25-.562-.366-.846-.106-.26.05-.527.215-.722.154-.184.353-.324.568-.427.168-.08.334-.034.456.108.265.308.509.631.706.988.121.22.088.488-.132.637-.053.036-.102.079-.152.12a.498.498 0 0 0-.114.12.331.331 0 0 0-.022.291c.27.745.728 1.324 1.477 1.636.12.05.24.108.379.092.231-.027.306-.28.469-.413a.442.442 0 0 1 .532-.023c.17.108.336.224.5.34.162.116.323.229.472.36.143.126.193.292.112.463-.148.314-.363.574-.673.741-.087.047-.192.062-.29.093-.114-.035.098-.03 0 0zM6.502 2.904c1.363.038 2.481.942 2.721 2.289.04.23.055.464.074.697.007.098-.048.19-.154.192-.11.002-.158-.09-.165-.188-.014-.194-.024-.388-.05-.58a2.434 2.434 0 0 0-1.96-2.035c-.153-.027-.308-.034-.462-.05-.098-.01-.225-.016-.247-.137-.018-.102.068-.182.164-.188h.08c1.362.038-.027 0 0 0z" fill="#7D3DAF"/><path d="M8.573 5.588c-.003.017-.004.057-.014.094-.036.137-.243.154-.29.016a.412.412 0 0 1-.017-.131 1.65 1.65 0 0 0-.209-.828 1.54 1.54 0 0 0-.646-.606 1.858 1.858 0 0 0-.515-.158c-.077-.013-.156-.021-.234-.032-.094-.013-.145-.073-.14-.166.004-.088.068-.15.163-.145.312.018.614.085.892.232.565.3.888.772.982 1.403.005.028.011.057.014.085l.014.236c-.003.017-.006-.094 0 0z" fill="#7D3DAF"/><path d="M7.725 5.555c-.114.002-.175-.061-.187-.166-.008-.073-.014-.147-.032-.217a.612.612 0 0 0-.225-.355.59.59 0 0 0-.185-.089c-.083-.024-.17-.017-.253-.038-.09-.022-.141-.095-.127-.18a.164.164 0 0 1 .173-.132c.528.038.905.311.96.933.003.044.008.09-.002.132-.017.072-.07.108-.122.112-.114.002.052-.004 0 0z" fill="#7D3DAF"/></svg><svg width="72" height="68" fill="none" viewBox="-30 -30 72 68" id="Group-1" y="73"><path fill-rule="evenodd" clip-rule="evenodd" d="M6.179 7.228h.667s.202-.022.304-.133c.095-.102.092-.293.092-.293s-.013-.895.403-1.027c.41-.13.935.865 1.493 1.248.421.29.741.226.741.226l1.49-.021s.78-.048.41-.661c-.03-.05-.214-.454-1.107-1.282-.935-.868-.81-.728.316-2.228.686-.914.96-1.472.874-1.71-.082-.228-.586-.168-.586-.168l-1.678.01s-.124-.017-.217.038c-.09.055-.148.18-.148.18s-.265.708-.62 1.31c-.747 1.268-1.046 1.335-1.168 1.256-.284-.183-.213-.737-.213-1.131 0-1.23.186-1.743-.363-1.875-.183-.044-.317-.073-.784-.078C5.487.883 4.98.89 4.693 1.03c-.191.094-.338.302-.249.314.111.015.362.068.496.25.172.233.166.759.166.759S5.204 3.8 4.875 3.98c-.226.123-.537-.128-1.203-1.28-.341-.59-.6-1.241-.6-1.241s-.049-.122-.137-.187a.695.695 0 0 0-.258-.104l-1.595.01s-.24.007-.327.11c-.079.093-.007.285-.007.285s1.249 2.921 2.663 4.393c1.296 1.35 2.768 1.261 2.768 1.261z" fill="#4775A6"/></svg><svg width="71" height="71" fill="none" viewBox="-30 -30 71 71" id="Group" y="141"><path d="M7.964 0H3.036A3.039 3.039 0 0 0 0 3.036v4.928A3.039 3.039 0 0 0 3.036 11h4.928A3.039 3.039 0 0 0 11 7.964V3.036A3.039 3.039 0 0 0 7.964 0zm2.06 7.964c0 1.136-.924 2.06-2.06 2.06H3.036a2.062 2.062 0 0 1-2.06-2.06V3.036c0-1.136.924-2.06 2.06-2.06h4.928c1.136 0 2.06.924 2.06 2.06v4.928z" fill="#BA009C"/><path d="M5.5 2.666A2.838 2.838 0 0 0 2.666 5.5 2.838 2.838 0 0 0 5.5 8.334 2.838 2.838 0 0 0 8.334 5.5 2.838 2.838 0 0 0 5.5 2.666zm0 4.692A1.86 1.86 0 0 1 3.642 5.5 1.86 1.86 0 0 1 5.5 3.642 1.86 1.86 0 0 1 7.358 5.5 1.86 1.86 0 0 1 5.5 7.358zM8.453 1.838a.719.719 0 0 0-.715.716c0 .188.076.373.21.506.132.133.317.21.505.21a.723.723 0 0 0 .506-.21.719.719 0 0 0-.506-1.222z" fill="#BA009C"/></svg><svg width="66" height="70" fill="none" viewBox="-30 -30 66 70" id="Vector-1" y="212"><path d="M5.5.002L4.203 0C2.746 0 1.804.966 1.804 2.461v1.135H.501a.204.204 0 0 0-.204.204v1.644c0 .112.091.204.204.204h1.303v4.148c0 .113.092.204.204.204H3.71a.204.204 0 0 0 .204-.204V5.648h1.525a.204.204 0 0 0 .204-.204V3.8a.204.204 0 0 0-.204-.204H3.913v-.962c0-.463.11-.697.713-.697h.873a.204.204 0 0 0 .204-.204V.206A.204.204 0 0 0 5.5.002z" fill="#3F66B0"/></svg><svg width="72" height="72" fill="none" viewBox="-30 -30 72 72" id="Vector" y="282"><path d="M1.052 9.385a.68.68 0 0 1-.682-.682V6.918a.68.68 0 0 1 .682-.682.68.68 0 0 1 .682.682v1.785a.688.688 0 0 1-.682.682zm2.678-.062v-3.1a.68.68 0 0 0-.682-.682.68.68 0 0 0-.682.682v3.1a.68.68 0 0 0 .682.682.696.696 0 0 0 .682-.682zm1.997.682V5.578a.68.68 0 0 0-.682-.682.68.68 0 0 0-.682.682v4.427a.68.68 0 0 0 .682.682.68.68 0 0 0 .682-.682zm2.009.633V4.872a.68.68 0 0 0-.682-.682.68.68 0 0 0-.682.682v5.766a.68.68 0 0 0 .682.682c.372 0 .682-.31.682-.682zm2.963-7.292L1.66.706C1.599.68 1.524.68 1.462.68a.72.72 0 0 0-.719.72v4.265h.533V1.4a.17.17 0 0 1 .174-.174c.012 0 .037 0 .05.012l9.039 2.642a.175.175 0 0 1 .124.173v5.692a.17.17 0 0 1-.174.173c-.012 0-.037 0-.05-.012L8.38 9.298v.558l1.91.558a.546.546 0 0 0 .198.025.72.72 0 0 0 .72-.719V4.028c.012-.31-.199-.582-.509-.682z" fill="#000"/></svg><svg width="73" height="73" fill="none" viewBox="-30 -30 73 73" id="agreement" y="354"><path d="M10.95 0h-8.9a.259.259 0 0 0-.26.259v12.482c0 .143.116.259.26.259h6.768A.26.26 0 0 0 9 12.924l2.133-2.133a.259.259 0 0 0 .075-.183V.26A.259.259 0 0 0 10.95 0zM9.076 12.116l-.001-1.25h1.25l-1.249 1.25zm1.615-1.767l-1.875-.002a.26.26 0 0 0-.26.26l.003 1.875h-6.25V.518h8.382v9.831z" fill="#0059D8"/><path d="M4.444 9.343c-.651 0-1.181.53-1.181 1.181s.53 1.181 1.18 1.181c.652 0 1.182-.53 1.182-1.18 0-.652-.53-1.182-1.181-1.182zm0 1.844a.664.664 0 1 1 .001-1.327.664.664 0 0 1-.001 1.327zM7.821 10.307H6.397a.259.259 0 1 0 0 .518H7.82a.259.259 0 0 0 0-.518zM4.35 1.554H3.6a.259.259 0 0 0 0 .518h.75a.259.259 0 0 0 0-.518zM9.504 1.554H7.25a.259.259 0 0 0 0 .518h2.253a.259.259 0 0 0 0-.518zM9.504 2.667H5.67a.259.259 0 0 0 0 .518h3.833a.259.259 0 0 0 0-.518zM9.517 4.713H3.483a.259.259 0 0 0 0 .518h6.034a.259.259 0 0 0 0-.518zM9.517 5.594H3.483a.259.259 0 0 0 0 .518h6.034a.259.259 0 0 0 0-.518zM9.517 6.552H3.483a.259.259 0 0 0 0 .518h6.034a.259.259 0 0 0 0-.518zM9.517 7.432h-.143a.259.259 0 0 0 0 .518h.143a.259.259 0 0 0 0-.518zM8.468 7.432H3.483a.259.259 0 0 0 0 .518h4.985a.259.259 0 0 0 0-.518z" fill="#0059D8"/></svg><svg width="73" height="73" fill="none" viewBox="-30 -30 73 73" id="increase" y="427"><path d="M4.305 9.717c.32-.018.638-.054.952-.108v2.978h-.952v-2.87zM.4 12.587h.952V9.729H.4v2.858zm1.952-2.858v2.858h.953V9.729h-.953zm7.786 2.858h.953v-7.24c-.266.51-.585.987-.953 1.43v5.81zm-1.952 0h.952v-4.8a8.13 8.13 0 0 1-.952.699v4.1zm-1.953-3.21v3.21h.953V9.02a8.169 8.169 0 0 1-.952.357zm4.35-8.964l-2.02 2.02.674.673.838-.837a6.271 6.271 0 0 1-6.223 5.555H.4v.953h3.452c1.927 0 3.74-.75 5.102-2.113a7.16 7.16 0 0 0 2.084-4.45l.876.876.673-.674L10.584.413z" fill="#0059D8"/></svg><svg width="72" height="72" fill="none" viewBox="-30 -30 72 72" id="info" y="500"><path d="M8.492 10.705l-.168.685c-.503.199-.905.35-1.204.454-.3.104-.647.156-1.044.156-.609 0-1.082-.15-1.42-.445a1.442 1.442 0 0 1-.507-1.132c0-.177.012-.36.038-.545.025-.186.066-.395.122-.629l.629-2.225c.056-.213.103-.414.141-.605.039-.19.058-.365.058-.522 0-.284-.06-.483-.176-.594-.117-.112-.34-.168-.673-.168-.162 0-.33.026-.5.076-.17.05-.317.1-.44.145l.169-.686c.412-.168.805-.311 1.182-.43.376-.12.732-.18 1.069-.18.604 0 1.07.146 1.399.439.327.292.491.671.491 1.139 0 .096-.01.267-.034.51a3.414 3.414 0 0 1-.126.671l-.626 2.216a5.887 5.887 0 0 0-.137.61 3.143 3.143 0 0 0-.061.519c0 .294.065.495.197.601.132.107.36.16.685.16.152 0 .325-.027.517-.08.192-.053.332-.1.419-.14zm.159-9.304c0 .386-.146.716-.438.987a1.49 1.49 0 0 1-1.055.409c-.412 0-.764-.137-1.06-.409a1.294 1.294 0 0 1-.441-.987c0-.385.147-.715.442-.99A1.5 1.5 0 0 1 7.159 0c.41 0 .762.137 1.054.411.292.275.438.605.438.99z" fill="#0059D8"/></svg><svg width="76" height="71" fill="none" viewBox="-30 -30 76 71" id="path18" y="572"><path d="M6.763.035a12.348 12.348 0 0 1 1.85 0c1.595.32 2.922 1.627 3.313 3.202.144.535.144 1.09.092 1.637.648-.083 1.327.04 1.872.411a2.584 2.584 0 0 1 1.162 2.337c-.02 1.328-1.224 2.522-2.56 2.46H4.355c-.535 0-1.09.031-1.604-.154A3.62 3.62 0 0 1 .54 7.818C.273 7.2.324 6.5.366 5.85.612 4.328 1.96 3.124 3.472 2.95 3.975 1.507 5.25.324 6.762.035zM4.49 3.01c.987.175 1.83.762 2.725 1.184-.144.278-.288.546-.442.813-.504-.288-1.039-.525-1.553-.803-.597-.308-1.306-.442-1.954-.267-1.214.288-2.119 1.513-2.016 2.769.062 1.348 1.275 2.512 2.623 2.512h8.536c.7.02 1.378-.443 1.635-1.081.268-.649.083-1.441-.442-1.894-.483-.464-1.244-.556-1.84-.299a4.785 4.785 0 0 1-.752 1.246c-.226-.206-.463-.402-.7-.608.433-.514.731-1.142.813-1.811.227-1.555-.75-3.16-2.221-3.686-1.677-.68-3.805.227-4.412 1.925z" fill="#409DE4"/></svg><svg width="75" height="75" fill="none" viewBox="-30 -30 75 75" id="shopping-cart" y="643"><path d="M10.86 11.76c-.67 0-1.221.55-1.221 1.221s.55 1.222 1.221 1.222 1.222-.55 1.222-1.222c0-.67-.55-1.221-1.222-1.221zm.61 1.221a.614.614 0 0 1-.613.613.614.614 0 0 1-.612-.613c0-.336.276-.612.612-.612.37.003.645.279.613.612zM6.583 11.76c-.67 0-1.222.55-1.222 1.221s.551 1.222 1.222 1.222c.67 0 1.222-.55 1.222-1.222 0-.67-.548-1.221-1.222-1.221zm0 1.834a.614.614 0 0 1-.612-.613c0-.336.275-.612.612-.612.337 0 .612.276.612.612a.614.614 0 0 1-.612.613zM11.927 4.734a2.918 2.918 0 1 0-5.467 0H4.307L3.164.826H.322v.58h2.382l2.719 9.255h6.78l2.475-5.927h-2.751zm-2.73-3.328a2.304 2.304 0 0 1 2.305 2.306 2.304 2.304 0 0 1-2.306 2.306 2.304 2.304 0 0 1-2.305-2.306 2.304 2.304 0 0 1 2.305-2.306zm2.61 8.646H5.85L4.482 5.347h2.294a2.917 2.917 0 0 0 4.834 0h2.15l-1.953 4.705z" fill="#0059D8"/><path d="M8.906 5.104h.61v-1.07h1.069v-.612h-1.07V2.323h-.609v1.099H7.805v.612h1.101v1.07z" fill="#0059D8"/></svg><svg width="71" height="71" fill="none" viewBox="-30 -30 71 71" id="whatsapp-logo" y="718"><path d="M11 5.358c0 2.96-2.417 5.359-5.4 5.359a5.41 5.41 0 0 1-2.61-.667L0 11l.975-2.875A5.302 5.302 0 0 1 .2 5.358C.2 2.4 2.618 0 5.6 0 8.583 0 11 2.399 11 5.358zM5.6.853c-2.504 0-4.54 2.021-4.54 4.505 0 .986.321 1.899.865 2.642l-.567 1.673 1.744-.555c.717.47 1.576.745 2.498.745 2.503 0 4.54-2.02 4.54-4.504C10.14 2.875 8.103.853 5.6.853zm2.727 5.74c-.033-.055-.122-.088-.254-.154a22.232 22.232 0 0 0-.904-.427c-.122-.044-.21-.066-.298.066a7.572 7.572 0 0 1-.42.514c-.077.088-.154.1-.286.034-.133-.066-.559-.205-1.065-.652a3.96 3.96 0 0 1-.736-.91c-.077-.131-.008-.202.058-.268.06-.058.132-.153.199-.23.066-.076.088-.13.132-.219.044-.087.022-.164-.011-.23-.033-.065-.298-.712-.408-.975-.11-.263-.22-.219-.298-.219-.077 0-.166-.01-.254-.01a.488.488 0 0 0-.353.163c-.121.132-.463.45-.463 1.096 0 .646.474 1.27.54 1.358.067.088.916 1.457 2.262 1.983 1.345.526 1.345.35 1.588.328.243-.022.783-.317.894-.624.11-.307.11-.57.077-.625z" fill="#4EEB57"/></svg><svg width="71" height="73" fill="none" viewBox="-30 -30 71 73" id="yandexdialogs" y="789"><mask id="yandexdialogs-a" maskUnits="userSpaceOnUse" x="0" y="0" width="11" height="13"><path d="M4.355.35l-3.25 2.034C.42 2.813 0 3.594 0 4.438v4.145c0 .845.42 1.626 1.105 2.054l3.25 2.034c.348.218.737.327 1.126.329h.02c.39-.002.778-.111 1.126-.329l3.25-2.034c.685-.428 1.105-1.21 1.105-2.054V4.438c0-.844-.42-1.625-1.105-2.054L6.627.351A2.138 2.138 0 0 0 5.49.02c-.393 0-.785.11-1.136.33z" fill="#fff"/></mask><g mask="url(#yandexdialogs-a)"><path fill-rule="evenodd" clip-rule="evenodd" d="M4.355.35l-3.25 2.034C.42 2.813 0 3.594 0 4.438v4.145c0 .845.42 1.626 1.105 2.054l3.25 2.034c.348.218.737.327 1.126.329h.02c.39-.002.778-.111 1.126-.329l3.25-2.034c.685-.428 1.105-1.21 1.105-2.054V4.438c0-.844-.42-1.625-1.105-2.054L6.627.351A2.138 2.138 0 0 0 5.49.02c-.393 0-.785.11-1.136.33z" fill="url(#yandexdialogs-paint0_linear)"/></g><path fill-rule="evenodd" clip-rule="evenodd" d="M9.809 5.362a.167.167 0 0 0-.02-.08.146.146 0 0 0-.206-.058l-2.722 1.67c-.592.418-.985 1.115-.986 1.776v2.188c0 .11.036.213.084.303a.565.565 0 0 0 .494.304c.13 0 .211-.025.336-.101l1.774-1.089c1.069-.647 1.208-.882 1.244-2.09l.003-2.823h-.001zM3.765 6.375L2.019 5.302a.53.53 0 0 0-.278-.08.553.553 0 0 0-.485.297.647.647 0 0 0-.084.354v2.29c.005 1.148.153 1.395 1.06 1.993l2.252 1.385a.14.14 0 0 0 .073.02c.082 0 .148-.07.148-.157V8.127c-.043-.74-.412-1.428-.94-1.752zm4.78-1.895a.59.59 0 0 0 .207-.223.643.643 0 0 0-.001-.61.611.611 0 0 0-.253-.259l-1.77-1.084c-1.068-.658-1.341-.66-2.343-.081L2.08 3.639a.155.155 0 0 0-.055.058.167.167 0 0 0 .057.22L4.82 5.583c.64.334 1.402.335 1.94.001L8.545 4.48z" fill="#fff"/><defs><linearGradient id="yandexdialogs-paint0_linear" x1="-.09" y1="6.822" x2="11.079" y2="6.376" gradientUnits="userSpaceOnUse"><stop stop-color="#8200FF"/><stop offset="1" stop-color="#00BCC3"/></linearGradient></defs></svg></svg>
