<svg width="30" height="30" viewBox="0 0 30 30" fill="none" xmlns="http://www.w3.org/2000/svg">
<g clip-path="url(#clip0)">
<path d="M29.9792 7.42025C29.978 6.57363 29.2889 5.88574 28.4425 5.88574C28.4418 5.88574 28.4411 5.88574 28.4405 5.88574L1.53457 5.92271C1.12412 5.92324 0.738398 6.08361 0.448536 6.37424C0.158731 6.66492 -0.000526037 7.05111 1.30544e-06 7.46144L0.020802 22.5803C0.0213294 22.9908 0.1817 23.3765 0.472325 23.6663C0.762422 23.9557 1.14767 24.1149 1.55742 24.1149C1.55812 24.1149 1.55889 24.1149 1.55947 24.1149L28.4653 24.0779C29.3125 24.0767 30.0009 23.3866 29.9999 22.5392L29.9792 7.42025ZM26.7545 7.4247L15.0011 15.5952L3.225 7.45705L26.7545 7.4247ZM19.9714 17.1372L26.9424 22.5434L3.03779 22.5762L10.0512 17.1372C10.3865 16.8771 10.4475 16.3946 10.1875 16.0592C9.9274 15.7239 9.44483 15.6629 9.10944 15.9229L1.55631 21.7804L1.53756 8.15888L14.5655 17.1622C14.697 17.2531 14.8496 17.2984 15.0023 17.2984C15.1557 17.2984 15.3091 17.2526 15.4409 17.161L28.4435 8.12209L28.4632 21.7783L20.9131 15.923C20.578 15.663 20.0952 15.724 19.8351 16.0592C19.575 16.3945 19.636 16.8772 19.9714 17.1372Z" fill="#105CDA"/>
</g>
<defs>
<clipPath id="clip0">
<rect width="30" height="30" fill="white"/>
</clipPath>
</defs>
</svg>
