<svg width="22" height="22" viewBox="0 0 22 22" fill="none" xmlns="http://www.w3.org/2000/svg">
<path d="M16.4991 0.00457747L13.6462 0C10.4411 0 8.36982 2.12509 8.36982 5.41423V7.91055H5.50138C5.25352 7.91055 5.0528 8.1115 5.0528 8.35937V11.9763C5.0528 12.2241 5.25374 12.4249 5.50138 12.4249H8.36982V21.5514C8.36982 21.7993 8.57054 22 8.81841 22H12.5609C12.8088 22 13.0095 21.799 13.0095 21.5514V12.4249H16.3634C16.6112 12.4249 16.812 12.2241 16.812 11.9763L16.8133 8.35937C16.8133 8.24036 16.766 8.12638 16.682 8.04215C16.598 7.95793 16.4835 7.91055 16.3645 7.91055H13.0095V5.79439C13.0095 4.77727 13.2519 4.26094 14.5768 4.26094L16.4986 4.26025C16.7463 4.26025 16.947 4.0593 16.947 3.81166V0.453169C16.947 0.205757 16.7465 0.00503522 16.4991 0.00457747Z" fill="white"/>
</svg>
