<svg width="20" height="20" viewBox="0 0 20 20" fill="none" xmlns="http://www.w3.org/2000/svg">
<path opacity="0.3" d="M10 1.66992C5.39939 1.66992 1.67001 5.3993 1.67001 9.99992C1.67001 14.6005 5.40001 18.3299 10 18.3299C14.6006 18.3299 18.33 14.6005 18.33 9.99992C18.33 5.3993 14.6006 1.66992 10 1.66992ZM10 17.6637C5.77439 17.6637 2.33626 14.2255 2.33626 9.99992C2.33626 5.7743 5.77376 2.33617 10 2.33617C14.2256 2.33617 17.6638 5.7743 17.6638 9.99992C17.6638 14.2255 14.2263 17.6637 10 17.6637Z" fill="#105CDA"/>
<path d="M14.1669 7.02558L8.8175 12.2125L6.94375 10.3387C6.74875 10.1437 6.4325 10.1437 6.23688 10.3387C6.04125 10.5337 6.04188 10.85 6.23688 11.0456L8.45875 13.2675C8.55625 13.365 8.68438 13.4137 8.81188 13.4137C8.93688 13.4137 9.0625 13.3668 9.15938 13.2731L14.8619 7.74308C15.06 7.55058 15.065 7.23433 14.8731 7.0362C14.68 6.83745 14.3644 6.83308 14.1663 7.02495L14.1669 7.02558Z" fill="#105CDA"/>
</svg>
