<svg width="32" height="32" viewBox="0 0 32 32" fill="none" xmlns="http://www.w3.org/2000/svg">
<path d="M16 0C10.0117 0 5.13979 4.87185 5.13979 10.8602C5.13979 13.2666 6.55653 16.9263 9.5984 22.3773C11.6741 26.0968 13.7403 29.2384 13.8274 29.3708L15.3208 31.6344C15.4714 31.8626 15.7265 32 16 32C16.2735 32 16.5287 31.8626 16.6792 31.6344L18.1725 29.3709C18.2588 29.2401 20.3099 26.1255 22.4016 22.3773C25.4435 16.9265 26.8602 13.2668 26.8602 10.8602C26.8602 4.87185 21.9883 0 16 0ZM20.9806 21.5843C18.918 25.2801 16.8993 28.3457 16.8142 28.4745L16 29.7087L15.186 28.4749C15.1005 28.345 13.0663 25.2519 11.0194 21.5843C8.19786 16.5279 6.76718 12.9197 6.76718 10.8602C6.76718 5.76919 10.909 1.6274 16 1.6274C21.091 1.6274 25.2328 5.76919 25.2328 10.8602C25.2328 12.92 23.8021 16.528 20.9806 21.5843Z" fill="#105CDA"/>
<path d="M16 4.77148C12.6798 4.77148 9.97864 7.4727 9.97864 10.7929C9.97864 14.113 12.6798 16.8142 16 16.8142C19.3202 16.8142 22.0214 14.113 22.0214 10.7929C22.0214 7.4727 19.3202 4.77148 16 4.77148ZM16 15.1868C13.5771 15.1868 11.606 13.2157 11.606 10.7929C11.606 8.36999 13.5771 6.39888 16 6.39888C18.4229 6.39888 20.394 8.36999 20.394 10.7929C20.394 13.2157 18.4229 15.1868 16 15.1868Z" fill="#105CDA"/>
</svg>
