<svg width="82" height="82" viewBox="0 0 82 82" fill="none" xmlns="http://www.w3.org/2000/svg">
<g clip-path="url(#clip0)">
<path d="M58.7667 -0.000732422H23.2334C19.461 0.00393881 16.4047 3.06025 16.4 6.8326V75.1659C16.4047 78.9383 19.461 81.9946 23.2334 81.9993H58.7667C62.539 81.9946 65.5954 78.9383 65.6 75.1659V6.8326C65.5954 3.06025 62.539 0.00393881 58.7667 -0.000732422ZM19.1334 6.8326C19.1334 4.56839 20.9691 2.7326 23.2334 2.7326H58.7667C61.0309 2.7326 62.8667 4.56839 62.8667 6.8326V10.9326H19.1334V6.8326ZM62.8667 13.6659V68.3326H19.1334V13.6659H62.8667ZM62.8667 75.1659C62.8667 77.4301 61.0309 79.2659 58.7667 79.2659H23.2334C20.9691 79.2659 19.1334 77.4301 19.1334 75.1659V71.0659H62.8667V75.1659Z" fill="#105CDA"/>
<path d="M21.8667 5.46582H24.6V8.19915H21.8667V5.46582Z" fill="#105CDA"/>
<path d="M27.3333 5.46582H35.5333V8.19915H27.3333V5.46582Z" fill="#105CDA"/>
<path d="M38.2667 73.7993H43.7333V76.5327H38.2667V73.7993Z" fill="#105CDA"/>
<path d="M25.9667 39.6326H36.9C38.4095 39.6326 39.6333 38.4087 39.6333 36.8993V23.2326C39.6333 21.7231 38.4095 20.4993 36.9 20.4993H25.9667C24.4572 20.4993 23.2333 21.7231 23.2333 23.2326V36.8993C23.2333 38.4087 24.4572 39.6326 25.9667 39.6326ZM25.9667 23.2326H36.9V36.8993H25.9667V23.2326Z" fill="#105CDA"/>
<path d="M45.1 39.6326H56.0334C57.5428 39.6326 58.7667 38.4087 58.7667 36.8993V23.2326C58.7667 21.7231 57.5428 20.4993 56.0334 20.4993H45.1C43.5906 20.4993 42.3667 21.7231 42.3667 23.2326V36.8993C42.3667 38.4087 43.5906 39.6326 45.1 39.6326ZM45.1 23.2326H56.0334V36.8993H45.1V23.2326Z" fill="#105CDA"/>
<path d="M25.9667 61.4993H36.9C38.4095 61.4993 39.6333 60.2754 39.6333 58.766V45.0993C39.6333 43.5898 38.4095 42.366 36.9 42.366H25.9667C24.4572 42.366 23.2333 43.5898 23.2333 45.0993V58.766C23.2333 60.2754 24.4572 61.4993 25.9667 61.4993ZM25.9667 45.0993H36.9V58.766H25.9667V45.0993Z" fill="#105CDA"/>
<path d="M45.1 61.4993H56.0334C57.5428 61.4993 58.7667 60.2754 58.7667 58.766V45.0993C58.7667 43.5898 57.5428 42.366 56.0334 42.366H45.1C43.5906 42.366 42.3667 43.5898 42.3667 45.0993V58.766C42.3667 60.2754 43.5906 61.4993 45.1 61.4993ZM45.1 45.0993H56.0334V58.766H45.1V45.0993Z" fill="#105CDA"/>
</g>
<defs>
<clipPath id="clip0">
<rect width="82" height="82" fill="white" transform="translate(0 -0.000732422)"/>
</clipPath>
</defs>
</svg>
