<svg width="74" height="74" viewBox="0 0 74 74" fill="none" xmlns="http://www.w3.org/2000/svg">
<g clip-path="url(#clip0)">
<path d="M37.0003 -0.000732422C32.9133 -0.000732422 29.6003 3.31231 29.6003 7.39927C29.6003 11.4862 32.9133 14.7993 37.0003 14.7993C41.0855 14.7953 44.3962 11.4845 44.4003 7.39927C44.4003 3.31231 41.0872 -0.000732422 37.0003 -0.000732422ZM37.0003 12.3326C34.2757 12.3326 32.0669 10.1239 32.0669 7.39927C32.0669 4.67468 34.2757 2.46593 37.0003 2.46593C39.7248 2.46593 41.9336 4.67468 41.9336 7.39927C41.9336 10.1239 39.7248 12.3326 37.0003 12.3326Z" fill="#105CDA"/>
<path d="M41.9336 16.0327H41.6425L41.3823 16.1622C38.6225 17.5363 35.3779 17.5363 32.6182 16.1622L32.358 16.0327H32.0669C28.6629 16.0367 25.9042 18.7954 25.9002 22.1994V29.5994C25.9002 31.6429 27.5568 33.2994 29.6002 33.2994H44.4002C46.4437 33.2994 48.1002 31.6429 48.1002 29.5994V22.1994C48.0962 18.7954 45.3376 16.0367 41.9336 16.0327ZM45.6336 29.5994C45.6336 30.2805 45.0813 30.8327 44.4002 30.8327H29.6002C28.9191 30.8327 28.3669 30.2805 28.3669 29.5994V22.1994C28.3672 20.2581 29.8677 18.6471 31.8042 18.5092C35.0995 20.0386 38.9011 20.0386 42.1963 18.5092C44.1326 18.6471 45.6333 20.2581 45.6336 22.1994V29.5994Z" fill="#105CDA"/>
<path d="M62.9002 40.6992C58.8133 40.6992 55.5002 44.0123 55.5002 48.0992C55.5002 52.1862 58.8133 55.4992 62.9002 55.4992C66.9872 55.4992 70.3002 52.1862 70.3002 48.0992C70.2962 44.014 66.9855 40.7032 62.9002 40.6992ZM62.9002 53.0326C60.1757 53.0326 57.9669 50.8238 57.9669 48.0992C57.9669 45.3746 60.1757 43.1659 62.9002 43.1659C65.6248 43.1659 67.8336 45.3746 67.8336 48.0992C67.8336 50.8238 65.6248 53.0326 62.9002 53.0326Z" fill="#105CDA"/>
<path d="M67.8336 56.7327H67.5425L67.2823 56.856C64.5225 58.2299 61.2779 58.2299 58.5182 56.856L58.258 56.7327H57.9669C54.5629 56.7367 51.8043 59.4953 51.8002 62.8993V70.2993C51.8002 72.3428 53.4568 73.9993 55.5002 73.9993H70.3002C72.3437 73.9993 74.0002 72.3428 74.0002 70.2993V62.8993C73.9962 59.4953 71.2376 56.7367 67.8336 56.7327ZM71.5336 70.2993C71.5336 70.9804 70.9814 71.5327 70.3002 71.5327H55.5002C54.8191 71.5327 54.2669 70.9804 54.2669 70.2993V62.8993C54.2672 60.9581 55.7677 59.347 57.7042 59.2092C60.9995 60.7385 64.801 60.7385 68.0963 59.2092C70.0328 59.347 71.5333 60.9581 71.5336 62.8993V70.2993Z" fill="#105CDA"/>
<path d="M11.1002 40.6992C7.01328 40.6992 3.70024 44.0123 3.70024 48.0992C3.70024 52.1862 7.01328 55.4992 11.1002 55.4992C15.1872 55.4992 18.5002 52.1862 18.5002 48.0992C18.4962 44.014 15.1855 40.7032 11.1002 40.6992ZM11.1002 53.0326C8.37565 53.0326 6.16691 50.8238 6.16691 48.0992C6.16691 45.3746 8.37565 43.1659 11.1002 43.1659C13.8248 43.1659 16.0336 45.3746 16.0336 48.0992C16.0336 50.8238 13.8248 53.0326 11.1002 53.0326Z" fill="#105CDA"/>
<path d="M16.0336 56.7327H15.7425L15.4823 56.856C12.7225 58.2299 9.47795 58.2299 6.71821 56.856L6.45798 56.7327H6.16691C2.76291 56.7367 0.00425247 59.4953 0.000244141 62.8993V70.2993C0.000244141 72.3428 1.65676 73.9993 3.70024 73.9993H18.5002C20.5437 73.9993 22.2002 72.3428 22.2002 70.2993V62.8993C22.1962 59.4953 19.4376 56.7367 16.0336 56.7327ZM19.7336 70.2993C19.7336 70.9804 19.1814 71.5327 18.5002 71.5327H3.70024C3.01914 71.5327 2.46691 70.9804 2.46691 70.2993V62.8993C2.46722 60.9581 3.96772 59.347 5.90421 59.2092C9.19952 60.7385 13.001 60.7385 16.2963 59.2092C18.2328 59.347 19.7333 60.9581 19.7336 62.8993V70.2993Z" fill="#105CDA"/>
<path d="M49.2368 62.6335C49.2362 62.6321 49.2355 62.6307 49.2349 62.6291C48.9679 62.0025 48.2435 61.7109 47.6169 61.9779C42.0477 64.312 35.8625 64.7378 30.0259 63.1891L31.1803 62.8499C31.8343 62.6584 32.2092 61.9733 32.0177 61.3194C31.8263 60.6654 31.1411 60.2904 30.4872 60.4819L25.5538 61.9286C25.5353 61.9286 25.5218 61.9496 25.5045 61.9557C25.3903 61.9983 25.283 62.0578 25.1863 62.1321C25.1434 62.1552 25.1023 62.1811 25.063 62.2098C24.9328 62.3259 24.8297 62.469 24.7608 62.6291C24.6939 62.7904 24.662 62.964 24.6671 63.1385C24.6971 63.3055 24.7383 63.4703 24.7904 63.6319C24.7978 63.6491 24.7904 63.6688 24.804 63.6861L27.2706 68.4061C27.5861 69.0103 28.3314 69.2444 28.9356 68.929C29.5398 68.6136 29.774 67.8682 29.4586 67.264L28.4546 65.345C35.086 67.3383 42.2055 66.9509 48.5814 64.2498C49.2086 63.9844 49.5021 63.2608 49.2368 62.6335Z" fill="#105CDA"/>
<path d="M69.9389 32.4274C69.4573 31.946 68.6766 31.946 68.1949 32.4274L66.4498 34.1726C65.4286 23.3701 58.5702 13.9959 48.5837 9.75259C47.957 9.48558 47.2326 9.77711 46.9656 10.4038C46.6986 11.0305 46.9901 11.7549 47.6168 12.0219C56.5754 15.8294 62.8028 24.1501 63.9301 33.8186L62.5389 32.4274C62.0489 31.9541 61.2682 31.9677 60.7949 32.4576C60.3334 32.9356 60.3334 33.6933 60.7949 34.1714L64.4949 37.8714C64.9759 38.3536 65.757 38.3547 66.2392 37.8735C66.24 37.8727 66.2407 37.872 66.2413 37.8714L69.9413 34.1714C70.4222 33.6891 70.4211 32.9084 69.9389 32.4274Z" fill="#105CDA"/>
<path d="M27.0978 10.6786C27.0938 10.6066 27.0832 10.5352 27.0658 10.4653C27.0658 10.4542 27.0522 10.4468 27.0473 10.4344C27.0423 10.4221 27.0473 10.4135 27.0473 10.4036C27.0136 10.3436 26.9748 10.2866 26.9313 10.2334C26.8914 10.1611 26.8442 10.0929 26.7907 10.0299C26.7178 9.96529 26.637 9.91026 26.5502 9.86586C26.5069 9.82901 26.4606 9.79556 26.4121 9.76596L21.4787 7.51266C20.8487 7.25396 20.1281 7.55505 19.8694 8.18513C19.6247 8.78099 19.8799 9.46487 20.4551 9.75486L23.0093 10.9228C13.3935 16.0691 7.39331 26.0928 7.40024 36.9992C7.40024 37.6803 7.95247 38.2325 8.63358 38.2325C9.31469 38.2325 9.86691 37.6803 9.86691 36.9992C9.86074 27.3957 14.9392 18.5066 23.2153 13.6349L22.3236 15.4985C22.0296 16.1116 22.2872 16.847 22.8995 17.1425C23.0659 17.2238 23.2484 17.266 23.4336 17.2659C23.9072 17.2652 24.3385 16.9934 24.5436 16.5666L27.0103 11.4199C27.0103 11.4075 27.0103 11.394 27.0201 11.3816C27.0522 11.2973 27.0745 11.2096 27.0867 11.1202C27.1078 11.0537 27.1236 10.9857 27.1336 10.9167C27.1294 10.8363 27.1175 10.7566 27.0978 10.6786Z" fill="#105CDA"/>
</g>
<defs>
<clipPath id="clip0">
<rect width="74" height="74" fill="white" transform="translate(0.000244141 -0.000732422)"/>
</clipPath>
</defs>
</svg>
