<svg width="91" height="91" viewBox="0 0 91 91" fill="none" xmlns="http://www.w3.org/2000/svg">
<path d="M78.7022 42.0332C81.367 40.1606 83.1316 37.0457 83.1316 33.5346C83.1316 27.7908 78.4862 23.1454 72.7424 23.1454C66.9986 23.1454 62.3532 27.7908 62.3532 33.5346C62.3532 37.0457 64.0997 40.1606 66.7825 42.0332C64.4958 42.8254 62.4072 44.0498 60.6427 45.6343C58.2119 43.5637 55.349 41.9792 52.2161 41.0429C56.0152 38.7382 58.572 34.5429 58.572 29.7714C58.572 22.4972 52.6842 16.6094 45.41 16.6094C38.1357 16.6094 32.2479 22.5152 32.2479 29.7714C32.2479 34.5429 34.7867 38.7382 38.6039 41.0429C35.5069 41.9792 32.6801 43.5457 30.2673 45.5803C28.5028 44.0318 26.4501 42.8254 24.1994 42.0512C26.8643 40.1786 28.6288 37.0637 28.6288 33.5526C28.6288 27.8088 23.9834 23.1634 18.2396 23.1634C12.4958 23.1634 7.85042 27.8088 7.85042 33.5526C7.85042 37.0637 9.59695 40.1786 12.2798 42.0512C5.13158 44.518 0 51.3061 0 59.2825V60.4709C0 60.5069 0.0360111 60.5429 0.0720222 60.5429H22.0928C21.9668 61.5332 21.8947 62.5595 21.8947 63.5858V64.8102C21.8947 70.1038 26.1801 74.3892 31.4737 74.3892H59.3823C64.6759 74.3892 68.9612 70.1038 68.9612 64.8102V63.5858C68.9612 62.5595 68.8892 61.5332 68.7632 60.5429H90.928C90.964 60.5429 91 60.5069 91 60.4709V59.2825C90.964 51.288 85.8504 44.5 78.7022 42.0332ZM65.2341 33.5166C65.2341 29.3753 68.6011 26.0083 72.7424 26.0083C76.8837 26.0083 80.2507 29.3753 80.2507 33.5166C80.2507 37.6038 76.9557 40.9349 72.8864 41.0249C72.8324 41.0249 72.7964 41.0249 72.7424 41.0249C72.6884 41.0249 72.6524 41.0249 72.5983 41.0249C68.5111 40.9529 65.2341 37.6218 65.2341 33.5166ZM35.0928 29.7714C35.0928 24.0997 39.7022 19.4903 45.374 19.4903C51.0457 19.4903 55.6551 24.0997 55.6551 29.7714C55.6551 35.2451 51.3518 39.7285 45.9681 40.0346C45.7701 40.0346 45.572 40.0346 45.374 40.0346C45.1759 40.0346 44.9778 40.0346 44.7798 40.0346C39.3961 39.7285 35.0928 35.2451 35.0928 29.7714ZM10.6773 33.5166C10.6773 29.3753 14.0443 26.0083 18.1856 26.0083C22.3269 26.0083 25.6939 29.3753 25.6939 33.5166C25.6939 37.6038 22.3989 40.9349 18.3296 41.0249C18.2756 41.0249 18.2396 41.0249 18.1856 41.0249C18.1316 41.0249 18.0956 41.0249 18.0416 41.0249C13.9723 40.9529 10.6773 37.6218 10.6773 33.5166ZM22.597 57.644H2.9169C3.72715 49.9736 10.2091 43.9598 18.0776 43.9058C18.1136 43.9058 18.1496 43.9058 18.1856 43.9058C18.2216 43.9058 18.2576 43.9058 18.2936 43.9058C22.0388 43.9238 25.4598 45.3102 28.1067 47.5609C25.5139 50.3698 23.5873 53.8268 22.597 57.644ZM66.0443 64.8102C66.0443 68.5013 63.0374 71.5083 59.3463 71.5083H31.4377C27.7465 71.5083 24.7396 68.5013 24.7396 64.8102V63.5858C24.7396 52.4044 33.6704 43.2576 44.7798 42.9335C44.9778 42.9515 45.1939 42.9515 45.392 42.9515C45.59 42.9515 45.8061 42.9515 46.0042 42.9335C57.1136 43.2576 66.0443 52.4044 66.0443 63.5858V64.8102ZM68.187 57.644C67.1967 53.8448 65.3061 50.4418 62.7313 47.6329C65.3961 45.3282 68.8532 43.9418 72.6344 43.9058C72.6704 43.9058 72.7064 43.9058 72.7424 43.9058C72.7784 43.9058 72.8144 43.9058 72.8504 43.9058C80.7188 43.9598 87.2008 49.9736 88.0111 57.644H68.187Z" fill="#105CDA"/>
</svg>
