<svg width="78" height="78" viewBox="0 0 78 78" fill="none" xmlns="http://www.w3.org/2000/svg">
<g clip-path="url(#clip0)">
<path d="M39.0002 19.1946C38.1594 19.1946 37.4768 19.8772 37.4768 20.718C37.4768 21.5589 38.1594 22.2415 39.0002 22.2415C39.8411 22.2415 40.5237 21.5589 40.5237 20.718C40.5237 19.8772 39.8411 19.1946 39.0002 19.1946Z" fill="#105CDA"/>
<path d="M13.7112 46.6165C14.552 46.6165 15.2346 45.9339 15.2346 45.093C15.2346 44.2522 14.552 43.5696 13.7112 43.5696C12.8703 43.5696 12.1877 44.2522 12.1877 45.093C12.1877 45.9339 12.8703 46.6165 13.7112 46.6165Z" fill="#105CDA"/>
<path d="M51.1877 3.96021C37.4726 3.96021 26.2159 13.4162 25.3452 25.327C12.2836 25.9822 0.000244141 35.4007 0.000244141 48.1399C0.000244141 53.4636 2.10687 58.6219 5.94165 62.709C6.70039 65.8368 5.77919 69.152 3.49344 71.4378C3.05783 71.8734 2.92751 72.5286 3.16316 73.0981C3.39882 73.667 3.95404 74.0383 4.57056 74.0383C8.91533 74.0383 13.1024 72.3346 16.2135 69.3323C19.2444 70.3654 23.1987 70.9915 26.8127 70.9915C40.5261 70.9915 51.7816 61.5378 52.6546 49.6294C55.8443 49.4878 59.162 48.8986 61.7869 48.0042C64.8981 51.0065 69.0852 52.7102 73.4299 52.7102C74.0464 52.7102 74.6017 52.3389 74.8373 51.77C75.073 51.2005 74.9427 50.5453 74.507 50.1096C72.2213 47.8239 71.3001 44.5086 72.0588 41.3808C75.8936 37.2937 78.0002 32.1355 78.0002 26.8118C78.0002 13.5751 64.7707 3.96021 51.1877 3.96021ZM26.8127 67.9446C23.2172 67.9446 19.12 67.2388 16.3754 66.1468C15.7875 65.9123 15.1156 66.0665 14.6877 66.5336C12.8483 68.5444 10.4566 69.9465 7.85071 70.591C9.28667 67.8398 9.65324 64.5966 8.77965 61.5235C8.71062 61.2813 8.58267 61.06 8.40712 60.8796C4.95082 57.3198 3.04712 52.7953 3.04712 48.1399C3.04712 37.4044 13.9302 28.3352 26.8127 28.3352C38.9776 28.3352 49.6643 36.7944 49.6643 48.1399C49.6643 59.0604 39.4132 67.9446 26.8127 67.9446ZM69.5934 39.5515C69.4178 39.7324 69.2899 39.9538 69.2208 40.1954C68.3472 43.2685 68.7138 46.5117 70.1498 49.2628C67.5439 48.6189 65.1522 47.2163 63.3128 45.2055C62.8849 44.7389 62.213 44.5842 61.6251 44.8187C59.2465 45.7649 55.8533 46.4201 52.6499 46.5784C52.2048 40.8173 49.3311 35.4025 44.418 31.3821H64.2893C65.1308 31.3821 65.8127 30.7001 65.8127 29.8586C65.8127 29.0172 65.1308 28.3352 64.2893 28.3352H39.7376C36.2795 26.5749 32.3965 25.5484 28.3999 25.333C29.2752 15.1009 39.1615 7.00708 51.1877 7.00708C64.0703 7.00708 74.9534 16.0763 74.9534 26.8118C74.9534 31.4672 73.0497 35.9917 69.5934 39.5515Z" fill="#105CDA"/>
<path d="M39.0002 43.5696H19.8049C18.9635 43.5696 18.2815 44.2516 18.2815 45.093C18.2815 45.9345 18.9635 46.6165 19.8049 46.6165H39.0002C39.8417 46.6165 40.5237 45.9345 40.5237 45.093C40.5237 44.2516 39.8417 43.5696 39.0002 43.5696Z" fill="#105CDA"/>
<path d="M39.0002 52.7102H13.7112C12.8697 52.7102 12.1877 53.3922 12.1877 54.2336C12.1877 55.0751 12.8697 55.7571 13.7112 55.7571H39.0002C39.8417 55.7571 40.5237 55.0751 40.5237 54.2336C40.5237 53.3922 39.8417 52.7102 39.0002 52.7102Z" fill="#105CDA"/>
<path d="M64.2893 19.1946H45.094C44.2525 19.1946 43.5706 19.8766 43.5706 20.718C43.5706 21.5595 44.2525 22.2415 45.094 22.2415H64.2893C65.1308 22.2415 65.8127 21.5595 65.8127 20.718C65.8127 19.8766 65.1308 19.1946 64.2893 19.1946Z" fill="#105CDA"/>
<g clip-path="url(#clip1)">
<path d="M39.0002 19.1946C38.1594 19.1946 37.4768 19.8772 37.4768 20.718C37.4768 21.5589 38.1594 22.2415 39.0002 22.2415C39.8411 22.2415 40.5237 21.5589 40.5237 20.718C40.5237 19.8772 39.8411 19.1946 39.0002 19.1946Z" fill="#105CDA"/>
<path d="M13.7112 46.6165C14.552 46.6165 15.2346 45.9339 15.2346 45.093C15.2346 44.2522 14.552 43.5696 13.7112 43.5696C12.8703 43.5696 12.1877 44.2522 12.1877 45.093C12.1877 45.9339 12.8703 46.6165 13.7112 46.6165Z" fill="#105CDA"/>
<path d="M51.1877 3.96021C37.4726 3.96021 26.2159 13.4162 25.3452 25.327C12.2836 25.9822 0.000244141 35.4007 0.000244141 48.1399C0.000244141 53.4636 2.10687 58.6219 5.94165 62.709C6.70039 65.8368 5.77919 69.152 3.49344 71.4378C3.05783 71.8734 2.92751 72.5286 3.16316 73.0981C3.39882 73.667 3.95404 74.0383 4.57056 74.0383C8.91533 74.0383 13.1024 72.3346 16.2135 69.3323C19.2444 70.3654 23.1987 70.9915 26.8127 70.9915C40.5261 70.9915 51.7816 61.5378 52.6546 49.6294C55.8443 49.4878 59.162 48.8986 61.7869 48.0042C64.8981 51.0065 69.0852 52.7102 73.4299 52.7102C74.0464 52.7102 74.6017 52.3389 74.8373 51.77C75.073 51.2005 74.9427 50.5453 74.507 50.1096C72.2213 47.8239 71.3001 44.5086 72.0588 41.3808C75.8936 37.2937 78.0002 32.1355 78.0002 26.8118C78.0002 13.5751 64.7707 3.96021 51.1877 3.96021ZM26.8127 67.9446C23.2172 67.9446 19.12 67.2388 16.3754 66.1468C15.7875 65.9123 15.1156 66.0665 14.6877 66.5336C12.8483 68.5444 10.4566 69.9465 7.85071 70.591C9.28667 67.8398 9.65324 64.5966 8.77965 61.5235C8.71062 61.2813 8.58267 61.06 8.40712 60.8796C4.95082 57.3198 3.04712 52.7953 3.04712 48.1399C3.04712 37.4044 13.9302 28.3352 26.8127 28.3352C38.9776 28.3352 49.6643 36.7944 49.6643 48.1399C49.6643 59.0604 39.4132 67.9446 26.8127 67.9446ZM69.5934 39.5515C69.4178 39.7324 69.2899 39.9538 69.2208 40.1954C68.3472 43.2685 68.7138 46.5117 70.1498 49.2628C67.5439 48.6189 65.1522 47.2163 63.3128 45.2055C62.8849 44.7389 62.213 44.5842 61.6251 44.8187C59.2465 45.7649 55.8533 46.4201 52.6499 46.5784C52.2048 40.8173 49.3311 35.4025 44.418 31.3821H64.2893C65.1308 31.3821 65.8127 30.7001 65.8127 29.8586C65.8127 29.0172 65.1308 28.3352 64.2893 28.3352H39.7376C36.2795 26.5749 32.3965 25.5484 28.3999 25.333C29.2752 15.1009 39.1615 7.00708 51.1877 7.00708C64.0703 7.00708 74.9534 16.0763 74.9534 26.8118C74.9534 31.4672 73.0497 35.9917 69.5934 39.5515Z" fill="#105CDA"/>
<path d="M39.0002 43.5696H19.8049C18.9635 43.5696 18.2815 44.2516 18.2815 45.093C18.2815 45.9345 18.9635 46.6165 19.8049 46.6165H39.0002C39.8417 46.6165 40.5237 45.9345 40.5237 45.093C40.5237 44.2516 39.8417 43.5696 39.0002 43.5696Z" fill="#105CDA"/>
<path d="M39.0002 52.7102H13.7112C12.8697 52.7102 12.1877 53.3922 12.1877 54.2336C12.1877 55.0751 12.8697 55.7571 13.7112 55.7571H39.0002C39.8417 55.7571 40.5237 55.0751 40.5237 54.2336C40.5237 53.3922 39.8417 52.7102 39.0002 52.7102Z" fill="#105CDA"/>
<path d="M64.2893 19.1946H45.094C44.2525 19.1946 43.5706 19.8766 43.5706 20.718C43.5706 21.5595 44.2525 22.2415 45.094 22.2415H64.2893C65.1308 22.2415 65.8127 21.5595 65.8127 20.718C65.8127 19.8766 65.1308 19.1946 64.2893 19.1946Z" fill="#105CDA"/>
</g>
</g>
<defs>
<clipPath id="clip0">
<rect width="78" height="78" fill="white" transform="translate(0.000244141 -0.000732422)"/>
</clipPath>
<clipPath id="clip1">
<rect width="78" height="78" fill="white"/>
</clipPath>
</defs>
</svg>
