<svg width="85" height="85" viewBox="0 0 85 85" fill="none" xmlns="http://www.w3.org/2000/svg">
<g clip-path="url(#clip0)">
<path d="M25.5456 -0.000488281C21.6356 0.00447005 18.4672 3.17285 18.4623 7.08285V11.3328H12.7956C12.0129 11.3328 11.3789 11.9668 11.3789 12.7495V83.5828C11.3789 84.3656 12.0129 84.9995 12.7956 84.9995H72.2956C73.0783 84.9995 73.7123 84.3656 73.7123 83.5828V26.9162C73.7123 26.8861 73.6964 26.8595 73.6949 26.8298C73.6875 26.7044 73.6627 26.5804 73.6216 26.4621C73.606 26.4161 73.5951 26.3739 73.5745 26.3297C73.5065 26.1753 73.4105 26.035 73.2915 25.9146L59.1249 11.7479C59.0045 11.6318 58.8649 11.5376 58.7112 11.4717C58.6655 11.4501 58.622 11.4391 58.5695 11.4217C58.453 11.3824 58.3326 11.3594 58.2097 11.3513C58.1785 11.3513 58.1506 11.3328 58.118 11.3328H32.6289V7.08285C32.624 3.17285 29.4556 0.00447005 25.5456 -0.000488281ZM21.2956 7.08285C21.2956 4.73614 23.1989 2.83284 25.5456 2.83284C27.8923 2.83284 29.7956 4.73614 29.7956 7.08285V11.3328H21.2956V7.08285ZM59.5456 16.1693L68.8758 25.4995H59.5456V16.1693ZM56.7123 14.1662V26.9162C56.7123 27.6989 57.3462 28.3328 58.129 28.3328H70.879V82.1662H14.2123V14.1662H29.7956V24.0828C29.7956 26.4296 27.8923 28.3328 25.5456 28.3328C23.1989 28.3328 21.2956 26.4296 21.2956 24.0828V18.4162H18.4623V24.0828C18.4623 27.9946 21.6338 31.1662 25.5456 31.1662C29.4574 31.1662 32.6289 27.9946 32.6289 24.0828V14.1662H56.7123Z" fill="#105CDA"/>
<path d="M18.4622 35.4162V76.4995C18.4622 77.2822 19.0962 77.9162 19.8789 77.9162H65.2123C65.995 77.9162 66.629 77.2822 66.629 76.4995V35.4162C66.629 34.6335 65.995 33.9995 65.2123 33.9995H19.8789C19.0962 33.9995 18.4622 34.6335 18.4622 35.4162ZM21.2956 36.8328H63.7956V63.163L55.5889 54.9563C55.0353 54.4034 54.1393 54.4034 53.5857 54.9563L46.8565 61.6854L36.5148 50.0574C36.257 49.7677 35.8912 49.5963 35.503 49.5828C35.1131 49.5687 34.7345 49.7192 34.4607 49.9979L21.2956 63.163V36.8328ZM21.2956 67.1693L35.4013 53.0636L45.743 64.6916C46.0023 64.9827 46.3703 65.1552 46.7602 65.1662C47.1519 65.1856 47.5323 65.0337 47.8029 64.7511L54.5873 57.961L63.7956 67.1693V75.0828H21.2956V67.1693Z" fill="#105CDA"/>
<path d="M46.7956 52.4161C49.925 52.4161 52.4622 49.8789 52.4622 46.7495C52.4622 43.62 49.925 41.0828 46.7956 41.0828C43.6662 41.0828 41.1289 43.62 41.1289 46.7495C41.1289 49.8789 43.6662 52.4161 46.7956 52.4161ZM46.7956 43.9161C48.3606 43.9161 49.6289 45.1844 49.6289 46.7495C49.6289 48.3145 48.3606 49.5828 46.7956 49.5828C45.2305 49.5828 43.9623 48.3145 43.9623 46.7495C43.9623 45.1844 45.2305 43.9161 46.7956 43.9161Z" fill="#105CDA"/>
</g>
<defs>
<clipPath id="clip0">
<rect width="85" height="85" fill="white" transform="translate(0.000244141 -0.000488281)"/>
</clipPath>
</defs>
</svg>
