<svg width="87" height="87" viewBox="0 0 87 87" fill="none" xmlns="http://www.w3.org/2000/svg">
<path d="M41.1858 11.2485C39.772 10.4481 38.0959 10.4742 36.7053 11.3123C36.6386 11.3515 36.5748 11.3979 36.5168 11.4472L16.8693 28.0685H1.45C0.64815 28.0685 0 28.7167 0 29.5185V57.0685C0 57.4542 0.15225 57.8225 0.42485 58.0937C0.69745 58.3648 1.0643 58.5185 1.45 58.5185L16.8345 58.5113L36.4719 76.5493C36.5443 76.616 36.6227 76.674 36.7053 76.7233C37.4187 77.1539 38.209 77.37 38.9992 77.37C39.7489 77.3685 40.4971 77.1757 41.1858 76.7871C42.6343 75.9693 43.5 74.4758 43.5 72.7909V15.2447C43.5 13.5613 42.6343 12.0678 41.1858 11.2485ZM40.6 72.7909C40.6 73.4158 40.2854 73.9654 39.7605 74.2626C39.5357 74.3888 38.9659 74.6324 38.3105 74.3003L18.85 56.4233V49.8171C18.85 49.0152 18.2019 48.3671 17.4 48.3671C16.5982 48.3671 15.95 49.0152 15.95 49.8171V55.6113L2.9 55.6171V30.9671H15.95V36.7671C15.95 37.5689 16.5982 38.2171 17.4 38.2171C18.2019 38.2171 18.85 37.5689 18.85 36.7671V30.1899L38.2873 13.7469C38.9557 13.396 39.5357 13.6454 39.7605 13.773C40.2854 14.0702 40.6 14.6198 40.6 15.2447V72.7909Z" fill="#105CDA"/>
<path d="M75.4377 43.2934C75.4377 31.1902 67.7295 20.4414 56.2556 16.5452C55.4987 16.2886 54.6737 16.6946 54.4156 17.4529C54.1589 18.2098 54.5649 19.0349 55.3233 19.293C65.6197 22.7889 72.5377 32.4343 72.5377 43.2948C72.5377 54.1452 65.6328 63.792 55.3566 67.2981C54.5997 67.5562 54.1937 68.3798 54.4533 69.1396C54.6592 69.7414 55.2218 70.1213 55.825 70.1213C55.9801 70.1213 56.1382 70.0966 56.2934 70.043C67.7455 66.1352 75.4377 55.3864 75.4377 43.2934Z" fill="#105CDA"/>
<path d="M64.4568 9.24169C63.7202 8.93284 62.8691 9.27214 62.5544 10.0102C62.2427 10.7482 62.5864 11.5994 63.3244 11.9126C75.9452 17.2674 84.1 29.5866 84.1 43.2935C84.1 57.4701 75.5537 69.9445 62.3283 75.0688C61.5815 75.3588 61.2103 76.1983 61.5003 76.9451C61.7222 77.5193 62.2717 77.8716 62.8531 77.8716C63.0271 77.8716 63.204 77.8412 63.3766 77.7745C77.7272 72.2108 87 58.6765 87 43.2935C87 28.4194 78.1506 15.0533 64.4568 9.24169Z" fill="#105CDA"/>
<path d="M62.3877 43.2935C62.3877 34.6341 56.5746 26.9056 48.2517 24.4986C47.4832 24.2797 46.6799 24.719 46.4566 25.4904C46.2347 26.2589 46.6769 27.0637 47.4483 27.2855C54.5374 29.3344 59.4891 35.9174 59.4891 43.2935C59.4891 50.6696 54.5374 57.2526 47.4483 59.3015C46.6784 59.5233 46.2347 60.3281 46.4566 61.0966C46.6407 61.7317 47.2192 62.145 47.85 62.145C47.9834 62.145 48.1183 62.1261 48.2517 62.0884C56.5761 59.6799 62.3877 51.9515 62.3877 43.2935Z" fill="#105CDA"/>
</svg>
