<svg width="79" height="83" viewBox="0 0 79 83" fill="none" xmlns="http://www.w3.org/2000/svg">
<path d="M63.9626 57.5682C63.6493 57.5682 63.336 57.4478 63.0914 57.2042L48.4337 42.7571C47.9217 42.254 47.8962 41.4056 48.3776 40.8676C48.8591 40.3243 49.6615 40.3002 50.1786 40.8087L64.8364 55.2558C65.3484 55.759 65.3739 56.6074 64.8924 57.1454C64.6402 57.4264 64.304 57.5682 63.9626 57.5682Z" fill="#105CDA"/>
<path d="M15.0347 57.5689C14.6959 57.5689 14.3571 57.427 14.1049 57.146C13.6235 56.608 13.6489 55.7596 14.161 55.2565L28.8238 40.8093C29.3384 40.3062 30.1459 40.3276 30.6248 40.8682C31.1063 41.4062 31.0808 42.2546 30.5688 42.7577L15.9059 57.2049C15.6614 57.4484 15.3481 57.5689 15.0347 57.5689Z" fill="#105CDA"/>
<path d="M72.6315 71.0011H6.3685C2.85818 71.0011 0 68.0009 0 64.3101V18.6858C0 14.9951 2.85818 11.9949 6.3685 11.9949H72.6315C76.1418 11.9949 79 14.9951 79 18.6858V64.3101C79 68.0009 76.1418 71.0011 72.6315 71.0011ZM6.3685 14.6713C4.2618 14.6713 2.5474 16.4725 2.5474 18.6858V64.3101C2.5474 66.5235 4.2618 68.3247 6.3685 68.3247H72.6315C74.7382 68.3247 76.4526 66.5235 76.4526 64.3101V18.6858C76.4526 16.4725 74.7382 14.6713 72.6315 14.6713H6.3685Z" fill="#105CDA"/>
<path d="M39.4999 48.2225C37.8059 48.2225 36.1119 47.631 34.8229 46.4507L2.11429 16.4725C1.58443 15.9881 1.52839 15.1424 1.98947 14.583C2.45564 14.0263 3.25807 13.9755 3.78793 14.4545L36.4966 44.43C38.1243 45.9208 40.8755 45.9208 42.5008 44.43L75.1687 14.5027C75.696 14.0183 76.4984 14.0718 76.9671 14.6312C77.4282 15.1905 77.3747 16.0336 76.8448 16.5207L44.177 46.448C42.8854 47.631 41.194 48.2225 39.4999 48.2225Z" fill="#105CDA"/>
</svg>
