<svg width="80" height="80" viewBox="0 0 80 80" fill="none" xmlns="http://www.w3.org/2000/svg">
<g clip-path="url(#clip0)">
<path d="M62.6667 5.33269H46.6667L49.0667 2.13269C49.5093 1.54469 49.3893 0.708688 48.8 0.267355C48.212 -0.173979 47.376 -0.0553121 46.9347 0.534021L43.3333 5.33269H36.824L34.5253 0.736688C34.1947 0.0780212 33.3947 -0.185979 32.736 0.140688C32.0773 0.470021 31.8107 1.27135 32.14 1.93002L33.8427 5.33269H17.3333C15.128 5.33269 13.3333 7.12735 13.3333 9.33269V75.9994C13.3333 78.2047 15.128 79.9994 17.3333 79.9994H62.6667C64.872 79.9994 66.6667 78.2047 66.6667 75.9994V9.33269C66.6667 7.12735 64.872 5.33269 62.6667 5.33269ZM64 75.9994C64 76.7354 63.4027 77.3327 62.6667 77.3327H17.3333C16.5973 77.3327 16 76.7354 16 75.9994V9.33269C16 8.59669 16.5973 7.99935 17.3333 7.99935H35.176L36.5093 10.666C35.3893 11.6447 34.6667 13.0647 34.6667 14.666C34.6667 17.6074 37.0587 19.9994 40 19.9994C42.9413 19.9994 45.3333 17.6074 45.3333 14.666C45.3333 11.7247 42.9413 9.33269 40 9.33269C39.6173 9.33269 39.2453 9.37669 38.8853 9.45402L38.1573 7.99935H62.6667C63.4027 7.99935 64 8.59669 64 9.33269V75.9994ZM37.776 13.2007L38.8067 15.262C39.0413 15.73 39.512 15.9994 40.0013 15.9994C40.2013 15.9994 40.4053 15.954 40.596 15.8594C41.2547 15.53 41.5213 14.7287 41.192 14.07L40.1653 12.0167C41.5573 12.1034 42.6667 13.2527 42.6667 14.666C42.6667 16.1367 41.4707 17.3327 40 17.3327C38.5293 17.3327 37.3333 16.1367 37.3333 14.666C37.3333 14.1247 37.4973 13.622 37.776 13.2007Z" fill="#105CDA"/>
<path d="M53.3333 54.666H26.6667C25.9293 54.666 25.3333 55.262 25.3333 55.9993C25.3333 56.7367 25.9293 57.3327 26.6667 57.3327H53.3333C54.0707 57.3327 54.6667 56.7367 54.6667 55.9993C54.6667 55.262 54.0707 54.666 53.3333 54.666Z" fill="#105CDA"/>
<path d="M53.3333 61.3328H26.6667C25.9293 61.3328 25.3333 61.9288 25.3333 62.6661C25.3333 63.4034 25.9293 63.9994 26.6667 63.9994H53.3333C54.0707 63.9994 54.6667 63.4034 54.6667 62.6661C54.6667 61.9288 54.0707 61.3328 53.3333 61.3328Z" fill="#105CDA"/>
<path d="M53.3333 67.9995H26.6667C25.9293 67.9995 25.3333 68.5955 25.3333 69.3328C25.3333 70.0702 25.9293 70.6662 26.6667 70.6662H53.3333C54.0707 70.6662 54.6667 70.0702 54.6667 69.3328C54.6667 68.5955 54.0707 67.9995 53.3333 67.9995Z" fill="#105CDA"/>
<path d="M48 49.3327H53.3333V22.666H26.6667V49.3327H32H48ZM34.6667 46.666C34.6667 43.7247 37.0587 41.3327 40 41.3327C42.9413 41.3327 45.3333 43.7247 45.3333 46.666H34.6667ZM36 34.666C36 32.4607 37.7947 30.666 40 30.666C42.2053 30.666 44 32.4607 44 34.666C44 36.8714 42.2053 38.666 40 38.666C37.7947 38.666 36 36.8714 36 34.666ZM29.3333 46.666V25.3327H50.6667V46.666H48C48 43.7754 46.4547 41.246 44.1507 39.8407C45.672 38.6167 46.6667 36.7647 46.6667 34.666C46.6667 30.99 43.676 27.9993 40 27.9993C36.324 27.9993 33.3333 30.99 33.3333 34.666C33.3333 36.7647 34.328 38.618 35.8493 39.8407C33.5453 41.246 32 43.7754 32 46.666H29.3333Z" fill="#105CDA"/>
</g>
<defs>
<clipPath id="clip0">
<rect width="80" height="80" fill="white" transform="translate(0 -0.000488281)"/>
</clipPath>
</defs>
</svg>
