<svg width="82" height="83" viewBox="0 0 82 83" fill="none" xmlns="http://www.w3.org/2000/svg">
<g clip-path="url(#clip0)">
<path d="M74.9242 70.0064L69.0543 60.1087C66.3483 55.5402 64.9167 50.3112 64.9167 44.9819V36.3118C64.9167 22.9661 54.1849 12.1035 41.0001 12.1035C27.8152 12.1035 17.0835 22.9661 17.0835 36.3118V44.9819C17.0835 50.3112 15.6518 55.5402 12.9458 60.1087L7.07593 70.0064C6.75818 70.5389 6.75129 71.2065 7.05207 71.746C7.3562 72.2889 7.92668 72.6245 8.54168 72.6245H73.4583C74.0733 72.6245 74.6439 72.2891 74.9479 71.746C75.2487 71.2063 75.242 70.5389 74.9242 70.0064ZM11.5587 69.166L15.874 61.8862C18.9011 56.7817 20.5001 50.9371 20.5001 44.9819V36.3118C20.5001 24.8682 29.6943 15.5618 41.0001 15.5618C52.3058 15.5618 61.5001 24.8682 61.5001 36.3118V44.9819C61.5001 50.9371 63.0991 56.7817 66.1228 61.8862L70.4414 69.166H11.5587Z" fill="#105CDA"/>
<path d="M41 -0.000732422C37.2314 -0.000732422 34.1666 3.10139 34.1666 6.91599V13.8327C34.1666 14.787 34.932 15.5618 35.875 15.5618C36.818 15.5618 37.5834 14.787 37.5834 13.8325V6.91599C37.5834 5.00699 39.114 3.45771 41 3.45771C42.886 3.45771 44.4166 5.00699 44.4166 6.91599V13.8327C44.4166 14.787 45.182 15.5618 46.125 15.5618C47.068 15.5618 47.8334 14.787 47.8334 13.8325V6.91599C47.8334 3.10139 44.7687 -0.000732422 41 -0.000732422Z" fill="#105CDA"/>
<path d="M48.3869 70.0198C47.9051 69.1968 46.863 68.9271 46.0465 69.4007C45.2299 69.885 44.9566 70.9466 45.4349 71.7697C45.879 72.534 46.1216 73.4504 46.1216 74.353C46.1216 77.2131 43.8222 79.5405 40.9966 79.5405C38.171 79.5405 35.8716 77.2131 35.8716 74.353C35.8716 73.4504 36.1143 72.534 36.5584 71.7697C37.0332 70.9431 36.76 69.8848 35.9467 69.4007C35.1234 68.9269 34.0846 69.1967 33.6064 70.0198C32.8512 71.3271 32.4515 72.8245 32.4515 74.3532C32.4516 79.1221 36.2816 82.999 40.9933 82.999C45.7049 82.999 49.5349 79.1221 49.5418 74.3532C49.5418 72.8245 49.142 71.3271 48.3869 70.0198Z" fill="#105CDA"/>
</g>
<defs>
<clipPath id="clip0">
<rect width="82" height="83" fill="white" transform="matrix(-1 0 0 1 82 -0.000732422)"/>
</clipPath>
</defs>
</svg>
