<svg width="412" height="529" viewBox="0 0 412 529" fill="none" xmlns="http://www.w3.org/2000/svg">
<g clip-path="url(#clip0)">
<path opacity="0.14" d="M351.7 326C432.1 372.4 432.1 447.8 351.7 494.2C271.2 540.6 140.8 540.6 60.4 494.2C-20 447.8 -20 372.4 60.4 326C140.8 279.5 271.2 279.5 351.7 326Z" fill="url(#paint0_linear)"/>
<path opacity="0.14" d="M351.7 326C271.2 279.6 140.8 279.6 60.4 326C-20 372.4 -20 447.8 60.4 494.2C140.9 540.6 271.3 540.6 351.7 494.2C432.1 447.7 432.1 372.4 351.7 326ZM350.1 493.3C270.5 539.3 141.4 539.3 61.8 493.3C-17.8 447.3 -17.8 372.8 61.8 326.9C141.4 280.9 270.5 280.9 350.1 326.9C429.7 372.8 429.7 447.3 350.1 493.3Z" fill="url(#paint1_linear)"/>
<path opacity="0.14" d="M319.8 265.7C382.6 302 382.6 360.8 319.8 397.1C257 433.4 155.1 433.4 92.3 397.1C29.5 360.8 29.5 302 92.3 265.7C155.1 229.4 256.9 229.4 319.8 265.7Z" fill="url(#paint2_linear)"/>
<path opacity="0.14" d="M319.8 265.7C257 229.4 155.1 229.4 92.3 265.7C29.5 302 29.5 360.8 92.3 397.1C155.1 433.4 257 433.4 319.8 397.1C382.6 360.7 382.6 301.9 319.8 265.7ZM318.6 396.3C256.4 432.2 155.7 432.2 93.5 396.3C31.3 360.4 31.3 302.2 93.5 266.3C155.7 230.4 256.5 230.4 318.6 266.3C380.7 302.2 380.7 360.4 318.6 396.3Z" fill="url(#paint3_linear)"/>
<path opacity="0.14" d="M292.7 192.8C340.6 220.4 340.6 265.2 292.7 292.9C244.8 320.5 167.2 320.5 119.4 292.9C71.5 265.3 71.5 220.5 119.4 192.8C167.2 165.2 244.8 165.2 292.7 192.8Z" fill="url(#paint4_linear)"/>
<path opacity="0.14" d="M292.7 192.8C244.8 165.2 167.2 165.2 119.4 192.8C71.5 220.4 71.5 265.2 119.4 292.9C167.3 320.5 244.9 320.5 292.7 292.9C340.5 265.2 340.5 220.4 292.7 192.8ZM291.8 292.3C244.4 319.6 167.7 319.6 120.3 292.3C72.9 265 72.9 220.6 120.3 193.3C167.7 166 244.4 166 291.8 193.3C339.1 220.7 339.1 265 291.8 292.3Z" fill="url(#paint5_linear)"/>
<path opacity="0.2" d="M214.7 425C200.7 425.8 186.6 425.5 172.6 424C158.6 422.5 144.8 419.8 131.3 415.7C117.8 411.6 104.7 406.1 92.7 398.7C86.7 395 80.9 390.9 75.7 386.1C70.4 381.4 65.7 376 61.8 370.1L63.4 369.1C67.1 374.9 71.7 380.2 76.8 384.9C81.9 389.6 87.6 393.8 93.5 397.5C105.4 404.9 118.3 410.5 131.6 414.7C145 418.9 158.8 421.7 172.7 423.4C186.6 425.2 200.7 425.7 214.7 425Z" fill="url(#paint6_linear)"/>
<path opacity="0.5" d="M214.7 424.999C200.7 425.799 186.6 425.399 172.6 423.899C158.6 422.399 144.8 419.599 131.3 415.499C117.9 411.399 104.8 405.899 92.8 398.499C86.8 394.799 81.1 390.699 75.8 385.899C70.6 381.199 65.8 375.799 62 369.899L63.1 369.199C66.8 375.099 71.5 380.399 76.6 385.099C81.7 389.799 87.4 393.999 93.3 397.699C105.2 405.099 118.2 410.699 131.5 414.899C144.9 419.099 158.7 421.899 172.6 423.499C186.6 425.199 200.7 425.699 214.7 424.999Z" fill="url(#paint7_linear)"/>
<path opacity="0.78" d="M214.7 425C200.7 425.7 186.6 425.4 172.6 423.8C158.6 422.2 144.8 419.5 131.4 415.4C118 411.3 104.9 405.7 92.9 398.4C86.9 394.7 81.2 390.5 76 385.8C70.8 381.1 66.1 375.8 62.2 369.8L62.7 369.5C66.5 375.4 71.1 380.7 76.3 385.4C81.5 390.1 87.1 394.3 93.1 398C105 405.4 118 411 131.4 415.1C144.8 419.3 158.6 422.1 172.6 423.7C186.6 425.3 200.7 425.7 214.7 425Z" fill="url(#paint8_linear)"/>
<path opacity="0.2" d="M191.8 313.201C203.6 313.901 215.4 313.601 227.1 312.301C238.8 311.001 250.5 308.801 261.8 305.301C273.1 301.901 284.1 297.201 294.2 291.101C299.3 288.001 304.1 284.501 308.5 280.501C312.9 276.501 316.9 272.001 320.2 267.001L318.9 266.101C315.8 271.001 311.9 275.401 307.6 279.401C303.3 283.401 298.6 286.901 293.6 290.001C283.7 296.201 272.8 300.901 261.6 304.501C250.4 308.001 238.8 310.401 227.1 311.801C215.4 313.301 203.6 313.701 191.8 313.201Z" fill="url(#paint9_linear)"/>
<path opacity="0.5" d="M191.8 313.2C203.6 313.8 215.4 313.5 227.1 312.3C238.8 311 250.4 308.7 261.7 305.3C273 301.8 283.9 297.2 294 291C299 287.9 303.8 284.4 308.2 280.4C312.6 276.4 316.6 272 319.8 267L318.9 266.4C315.8 271.3 311.9 275.8 307.6 279.7C303.3 283.7 298.5 287.2 293.6 290.3C283.6 296.5 272.7 301.2 261.5 304.7C250.3 308.2 238.7 310.6 227 312C215.4 313.4 203.6 313.7 191.8 313.2Z" fill="url(#paint10_linear)"/>
<path opacity="0.78" d="M191.8 313.2C203.6 313.8 215.4 313.5 227.1 312.2C238.8 310.9 250.4 308.6 261.7 305.1C273 301.6 283.9 297 294 290.8C299 287.7 303.8 284.2 308.2 280.2C312.6 276.2 316.5 271.8 319.7 266.8L319.3 266.5C316.1 271.4 312.2 275.9 307.9 279.9C303.6 283.9 298.8 287.4 293.8 290.5C283.8 296.7 272.9 301.4 261.7 304.9C250.5 308.4 238.9 310.7 227.2 312.1C215.4 313.4 203.6 313.8 191.8 313.2Z" fill="url(#paint11_linear)"/>
<path d="M319.5 271.8C322.096 271.8 324.2 269.696 324.2 267.1C324.2 264.505 322.096 262.4 319.5 262.4C316.904 262.4 314.8 264.505 314.8 267.1C314.8 269.696 316.904 271.8 319.5 271.8Z" fill="url(#paint12_radial)"/>
<path opacity="0.1" d="M283.5 362.1C326 386.6 326 426.4 283.5 450.9C241 475.4 172.1 475.4 129.7 450.9C87.2 426.4 87.2 386.6 129.7 362.1C172.2 337.6 241 337.6 283.5 362.1Z" fill="#105CDA"/>
<path opacity="0.2" d="M278.4 365C318.1 387.9 318.1 425.1 278.4 448C238.7 470.9 174.4 470.9 134.7 448C95 425.1 95 387.9 134.7 365C174.4 342.1 238.8 342.1 278.4 365Z" fill="#105CDA"/>
<path opacity="0.5" d="M272.9 368.2C309.5 389.4 309.5 423.7 272.9 444.8C236.3 466 176.9 466 140.2 444.8C103.6 423.6 103.6 389.4 140.2 368.2C176.9 347 236.3 347 272.9 368.2Z" fill="#105CDA"/>
<path opacity="0.5" d="M267.6 371.3C301.3 390.8 301.3 422.3 267.6 441.8C233.9 461.3 179.3 461.3 145.6 441.8C111.9 422.3 111.9 390.8 145.6 371.3C179.3 351.8 233.9 351.8 267.6 371.3Z" fill="#D4FFFF"/>
<path opacity="0.23" d="M292.9 0H120.3V406.5C120.3 419.3 128.7 432 145.6 441.7C179.3 461.2 233.9 461.2 267.6 441.7C284.4 432 292.9 419.2 292.9 406.5V0Z" fill="url(#paint13_linear)"/>
<path d="M164.1 319.9C165.5 310.1 179.1 307.6 186.8 307C188.9 329.7 191.3 348.8 192.6 358.8L166.3 390.1L160.5 386.8C160.6 386.8 162.2 333.7 164.1 319.9Z" fill="url(#paint14_linear)"/>
<path d="M246.9 319.9C245.5 310.1 231.9 307.6 224.2 307C222.1 329.7 219.7 348.8 218.4 358.8L244.7 390.1L250.5 386.8C250.5 386.8 248.9 333.7 246.9 319.9Z" fill="url(#paint15_linear)"/>
<path d="M206 378.3C219 378.3 228.5 371 229.6 366C230.7 361 246 288.7 246 235.8C246 173.6 232.1 94.5002 205.9 60.2002C179.8 94.6002 165.8 173.6 165.8 235.8C165.8 288.7 181.1 361 182.2 366C183.5 371.1 193 378.3 206 378.3Z" fill="url(#paint16_linear)"/>
<path d="M246.9 369.801C245.5 358.401 231.9 340.201 224.2 330.801C222.1 351.101 219.7 367.401 218.4 375.901L244.7 437.501L250.5 440.801C250.5 440.801 248.9 385.801 246.9 369.801Z" fill="url(#paint17_linear)"/>
<path d="M249 368.601C247.6 357.201 234 339.001 226.3 329.601L224.2 330.701C231.9 340.201 245.5 358.301 246.9 369.701C248.8 385.701 250.4 440.701 250.4 440.701L252.5 439.601C252.6 439.701 251 384.701 249 368.601Z" fill="url(#paint18_linear)"/>
<path d="M232.8 124.6C226.3 98.1002 217.3 75.0002 206 60.2002C194.7 75.0002 185.8 98.1002 179.2 124.6C180.3 127.5 182.7 130.2 186.6 132.5C197.3 138.7 214.7 138.7 225.4 132.5C229.3 130.2 231.8 127.5 232.8 124.6Z" fill="url(#paint19_linear)"/>
<path opacity="0.5" d="M183.2 237.9C183.2 175.8 189.4 104.5 204.3 62.4004C179.2 97.9004 165.9 174.9 165.9 235.8C165.9 288.7 181.2 361 182.3 366C183.2 369.9 189.1 375.1 197.7 377.3C187.7 332.3 183.2 285.6 183.2 237.9Z" fill="#779EB3"/>
<path d="M191.1 196.8C190.2 196.6 188.9 196.3 187.9 196.2C171.4 195 172.9 226.8 183.1 237.7C192.8 248 206.8 240.3 208.1 224.1C208.9 214 203.9 201.3 191.1 196.8Z" fill="url(#paint20_linear)"/>
<path d="M189.5 197.3C188.6 197.1 187.3 196.8 186.3 196.7C169.8 195.5 171.3 227.3 181.5 238.2C191.2 248.5 205.2 240.8 206.5 224.6C207.3 214.5 202.4 201.7 189.5 197.3Z" fill="url(#paint21_linear)"/>
<path d="M191.3 239.5C188.7 239.5 186.2 238.3 183.9 235.9C177.8 229.4 175.1 213.5 178.8 204.9C181 199.9 184.3 199.9 185.4 199.9C185.6 199.9 185.8 199.9 186 199.9C186.7 199.9 187.8 200.2 188.5 200.4C199.6 204.3 203.8 215.5 203.1 224.2C202.4 234.2 196.5 239.5 191.3 239.5Z" fill="url(#paint22_linear)"/>
<path d="M188.6 200.4C188 200.3 187.1 200 186.4 200C184.9 200.2 182.5 201 180.8 204.9C177.1 213.4 179.7 229.3 185.9 235.9C187.8 238 190 239.2 192.3 239.5C197.2 238.9 202.5 233.6 203.3 224.3C203.9 215.5 199.6 204.4 188.6 200.4Z" fill="#04416E"/>
<path opacity="0.3" d="M187.7 200.2C187.2 200.1 186.8 200 186.4 200C184.9 200.2 182.5 201 180.8 204.9C177.1 213.4 179.7 229.3 185.9 235.9C186.3 236.3 186.7 236.7 187.1 237.1C185.7 220.5 186.7 207.6 187.7 200.2Z" fill="url(#paint23_linear)"/>
<path d="M164.1 369.801C165.5 358.401 179.1 340.201 186.8 330.801C188.9 351.101 191.3 367.401 192.6 375.901L166.3 437.501L160.5 440.801C160.6 440.801 162.2 385.801 164.1 369.801Z" fill="url(#paint24_linear)"/>
<path d="M162 368.601C163.4 357.201 177 339.001 184.7 329.601L186.8 330.701C179.1 340.201 165.5 358.301 164.1 369.701C162.2 385.701 160.6 440.701 160.6 440.701L158.5 439.601C158.5 439.701 160.1 384.701 162 368.601Z" fill="url(#paint25_linear)"/>
<g opacity="0.5">
<path opacity="0.5" d="M233.8 295.7C226.4 300 216.5 302.3 206 302.3C195.5 302.3 185.6 299.9 178.2 295.7C174.3 293.4 171.3 290.8 169.4 287.9C169.6 289.4 169.7 290.8 169.9 292.3C171.8 294.3 174.1 296.1 177 297.7C184.8 302.2 195 304.6 206 304.6C216.9 304.6 227.2 302.1 235 297.7C237.8 296.1 240.2 294.2 242.1 292.3C242.3 290.8 242.5 289.4 242.6 287.9C240.7 290.8 237.7 293.4 233.8 295.7Z" fill="url(#paint26_linear)"/>
</g>
<g opacity="0.5">
<path opacity="0.5" d="M232 309.6C225.1 313.6 215.8 315.8 206 315.8C196.1 315.8 186.9 313.6 180 309.6C175.9 307.2 172.9 304.4 171.2 301.3C171.4 302.9 171.7 304.6 171.9 306.2C173.7 308.2 176.1 310 178.9 311.6C186.2 315.8 195.8 318.1 206.1 318.1C216.4 318.1 226 315.8 233.3 311.6C236.1 310 238.4 308.1 240.3 306.2C240.5 304.6 240.8 303 241 301.3C239.2 304.4 236.2 307.3 232 309.6Z" fill="url(#paint27_linear)"/>
</g>
<path opacity="0.3" d="M283.1 159.4C283.763 159.4 284.3 158.863 284.3 158.2C284.3 157.537 283.763 157 283.1 157C282.437 157 281.9 157.537 281.9 158.2C281.9 158.863 282.437 159.4 283.1 159.4Z" fill="#105CDA"/>
<path opacity="0.3" d="M283.1 159C283.542 159 283.9 158.642 283.9 158.2C283.9 157.759 283.542 157.4 283.1 157.4C282.658 157.4 282.3 157.759 282.3 158.2C282.3 158.642 282.658 159 283.1 159Z" fill="#105CDA"/>
<path d="M283.1 158.7C283.376 158.7 283.6 158.476 283.6 158.2C283.6 157.924 283.376 157.7 283.1 157.7C282.824 157.7 282.6 157.924 282.6 158.2C282.6 158.476 282.824 158.7 283.1 158.7Z" fill="#105CDA"/>
<path opacity="0.3" d="M277.6 330.8C278.263 330.8 278.8 330.263 278.8 329.6C278.8 328.938 278.263 328.4 277.6 328.4C276.937 328.4 276.4 328.938 276.4 329.6C276.4 330.263 276.937 330.8 277.6 330.8Z" fill="#1ED6FE"/>
<path opacity="0.3" d="M277.6 330.401C278.042 330.401 278.4 330.043 278.4 329.601C278.4 329.159 278.042 328.801 277.6 328.801C277.158 328.801 276.8 329.159 276.8 329.601C276.8 330.043 277.158 330.401 277.6 330.401Z" fill="#1ED6FE"/>
<path d="M277.6 330.101C277.876 330.101 278.1 329.877 278.1 329.601C278.1 329.324 277.876 329.101 277.6 329.101C277.324 329.101 277.1 329.324 277.1 329.601C277.1 329.877 277.324 330.101 277.6 330.101Z" fill="#1ED6FE"/>
<path opacity="0.3" d="M147.7 129.6C148.363 129.6 148.9 129.063 148.9 128.4C148.9 127.737 148.363 127.2 147.7 127.2C147.037 127.2 146.5 127.737 146.5 128.4C146.5 129.063 147.037 129.6 147.7 129.6Z" fill="#105CDA"/>
<path opacity="0.3" d="M147.7 129.201C148.142 129.201 148.5 128.842 148.5 128.401C148.5 127.959 148.142 127.601 147.7 127.601C147.258 127.601 146.9 127.959 146.9 128.401C146.9 128.842 147.258 129.201 147.7 129.201Z" fill="#105CDA"/>
<path d="M147.7 128.9C147.976 128.9 148.2 128.677 148.2 128.4C148.2 128.124 147.976 127.9 147.7 127.9C147.424 127.9 147.2 128.124 147.2 128.4C147.2 128.677 147.424 128.9 147.7 128.9Z" fill="#105CDA"/>
</g>
<defs>
<linearGradient id="paint0_linear" x1="206.004" y1="524.332" x2="206.004" y2="252.861" gradientUnits="userSpaceOnUse">
<stop stop-color="#105CDA"/>
<stop offset="1" stop-color="#D8E7FF" stop-opacity="0"/>
</linearGradient>
<linearGradient id="paint1_linear" x1="206.004" y1="521.622" x2="206.004" y2="265.368" gradientUnits="userSpaceOnUse">
<stop stop-color="white" stop-opacity="0.09"/>
<stop offset="1" stop-color="#105CDA"/>
</linearGradient>
<linearGradient id="paint2_linear" x1="206.004" y1="420.558" x2="206.004" y2="208.57" gradientUnits="userSpaceOnUse">
<stop stop-color="#105CDA"/>
<stop offset="1" stop-color="#EDF4FF" stop-opacity="0"/>
</linearGradient>
<linearGradient id="paint3_linear" x1="206.004" y1="418.441" x2="206.004" y2="218.336" gradientUnits="userSpaceOnUse">
<stop stop-color="white"/>
<stop offset="1" stop-color="#105CDA"/>
</linearGradient>
<linearGradient id="paint4_linear" x1="206.003" y1="310.791" x2="206.003" y2="149.284" gradientUnits="userSpaceOnUse">
<stop stop-color="#105CDA"/>
<stop offset="1" stop-color="#DDE9FE" stop-opacity="0"/>
</linearGradient>
<linearGradient id="paint5_linear" x1="206.003" y1="309.179" x2="206.003" y2="156.725" gradientUnits="userSpaceOnUse">
<stop stop-color="white" stop-opacity="0.34"/>
<stop offset="1" stop-color="#105CDA"/>
</linearGradient>
<linearGradient id="paint6_linear" x1="61.7794" y1="397.287" x2="214.739" y2="397.287" gradientUnits="userSpaceOnUse">
<stop stop-color="#4CEAF5"/>
<stop offset="1"/>
</linearGradient>
<linearGradient id="paint7_linear" x1="62.0435" y1="397.355" x2="214.739" y2="397.355" gradientUnits="userSpaceOnUse">
<stop stop-color="#4CEAF5"/>
<stop offset="1"/>
</linearGradient>
<linearGradient id="paint8_linear" x1="62.3116" y1="397.426" x2="214.737" y2="397.426" gradientUnits="userSpaceOnUse">
<stop stop-color="#4CEAF5"/>
<stop offset="1"/>
</linearGradient>
<linearGradient id="paint9_linear" x1="320.156" y1="289.906" x2="191.78" y2="289.906" gradientUnits="userSpaceOnUse">
<stop stop-color="#105CDA"/>
<stop offset="1" stop-color="#EAF2FF" stop-opacity="0.18"/>
</linearGradient>
<linearGradient id="paint10_linear" x1="319.935" y1="289.963" x2="191.78" y2="289.963" gradientUnits="userSpaceOnUse">
<stop stop-color="#105CDA"/>
<stop offset="1" stop-color="#D8E7FF"/>
</linearGradient>
<linearGradient id="paint11_linear" x1="319.712" y1="290.022" x2="191.78" y2="290.022" gradientUnits="userSpaceOnUse">
<stop stop-color="#105CDA"/>
<stop offset="1" stop-color="#B1CEFF" stop-opacity="0"/>
</linearGradient>
<radialGradient id="paint12_radial" cx="0" cy="0" r="1" gradientUnits="userSpaceOnUse" gradientTransform="translate(319.488 267.096) rotate(180) scale(4.73821)">
<stop stop-color="#105CDA"/>
<stop offset="1" stop-color="#EEF5FF" stop-opacity="0"/>
</radialGradient>
<linearGradient id="paint13_linear" x1="206.603" y1="2.6257" x2="206.603" y2="469.673" gradientUnits="userSpaceOnUse">
<stop stop-color="#E2EDFF" stop-opacity="0"/>
<stop offset="1" stop-color="#105CDA"/>
</linearGradient>
<linearGradient id="paint14_linear" x1="176.6" y1="364.297" x2="176.6" y2="309.442" gradientUnits="userSpaceOnUse">
<stop stop-color="#258FEB"/>
<stop offset="1" stop-color="#0A208F"/>
</linearGradient>
<linearGradient id="paint15_linear" x1="234.459" y1="364.297" x2="234.459" y2="309.442" gradientUnits="userSpaceOnUse">
<stop stop-color="#258FEB"/>
<stop offset="1" stop-color="#0A208F"/>
</linearGradient>
<linearGradient id="paint16_linear" x1="165.942" y1="219.252" x2="246.068" y2="219.252" gradientUnits="userSpaceOnUse">
<stop stop-color="#779EB3"/>
<stop offset="0.7888" stop-color="#CCEDFF"/>
<stop offset="1" stop-color="#AAE1FF"/>
</linearGradient>
<linearGradient id="paint17_linear" x1="234.459" y1="440.171" x2="234.459" y2="309.085" gradientUnits="userSpaceOnUse">
<stop stop-color="#258FEB"/>
<stop offset="1" stop-color="#0A208F"/>
</linearGradient>
<linearGradient id="paint18_linear" x1="238.424" y1="373.815" x2="238.424" y2="344.545" gradientUnits="userSpaceOnUse">
<stop stop-color="#74D8FF"/>
<stop offset="1" stop-color="#3E54C3"/>
</linearGradient>
<linearGradient id="paint19_linear" x1="226.587" y1="98.6373" x2="172.053" y2="98.6373" gradientUnits="userSpaceOnUse">
<stop stop-color="#258FEB"/>
<stop offset="1" stop-color="#0A208F"/>
</linearGradient>
<linearGradient id="paint20_linear" x1="190.415" y1="204.316" x2="193.924" y2="240.515" gradientUnits="userSpaceOnUse">
<stop stop-color="#258FEB"/>
<stop offset="1" stop-color="#0A208F"/>
</linearGradient>
<linearGradient id="paint21_linear" x1="208.09" y1="219.73" x2="167.793" y2="219.73" gradientUnits="userSpaceOnUse">
<stop stop-color="#258FEB"/>
<stop offset="1" stop-color="#0A208F"/>
</linearGradient>
<linearGradient id="paint22_linear" x1="177.187" y1="219.73" x2="203.294" y2="219.73" gradientUnits="userSpaceOnUse">
<stop stop-color="#258FEB"/>
<stop offset="1" stop-color="#0A208F"/>
</linearGradient>
<linearGradient id="paint23_linear" x1="183.403" y1="201.905" x2="183.403" y2="252.509" gradientUnits="userSpaceOnUse">
<stop stop-color="white"/>
<stop offset="1"/>
</linearGradient>
<linearGradient id="paint24_linear" x1="176.598" y1="440.171" x2="176.598" y2="309.085" gradientUnits="userSpaceOnUse">
<stop stop-color="#258FEB"/>
<stop offset="1" stop-color="#0A208F"/>
</linearGradient>
<linearGradient id="paint25_linear" x1="172.634" y1="373.815" x2="172.634" y2="344.545" gradientUnits="userSpaceOnUse">
<stop stop-color="#74D8FF"/>
<stop offset="1" stop-color="#3E54C3"/>
</linearGradient>
<linearGradient id="paint26_linear" x1="239.518" y1="296.258" x2="164.092" y2="296.258" gradientUnits="userSpaceOnUse">
<stop stop-color="#258FEB"/>
<stop offset="1" stop-color="#0A208F"/>
</linearGradient>
<linearGradient id="paint27_linear" x1="239.517" y1="309.753" x2="164.093" y2="309.753" gradientUnits="userSpaceOnUse">
<stop stop-color="#258FEB"/>
<stop offset="1" stop-color="#0A208F"/>
</linearGradient>
<clipPath id="clip0">
<rect width="412" height="529" fill="white"/>
</clipPath>
</defs>
</svg>
