<svg >
    <symbol width="50" height="50" viewBox="0 0 16 11"  xmlns="http://www.w3.org/2000/svg" id="path18">
        <path d="M6.763.035a12.348 12.348 0 0 1 1.85 0c1.595.32 2.922 1.627 3.313 3.202.144.535.144 1.09.092 1.637.648-.083 1.327.04 1.872.411a2.584 2.584 0 0 1 1.162 2.337c-.02 1.328-1.224 2.522-2.56 2.46H4.355c-.535 0-1.09.031-1.604-.154A3.62 3.62 0 0 1 .54 7.818C.273 7.2.324 6.5.366 5.85c.246-1.522 1.594-2.726 3.106-2.9C3.975 1.507 5.25.324 6.762.035zM4.49 3.01c.987.175 1.83.762 2.725 1.184-.144.278-.288.546-.442.813-.504-.288-1.039-.525-1.553-.803-.597-.308-1.306-.442-1.954-.267-1.214.288-2.119 1.513-2.016 2.769.062 1.348 1.275 2.512 2.623 2.512h8.536c.7.02 1.378-.443 1.635-1.081a1.697 1.697 0 0 0-.442-1.894c-.483-.464-1.244-.556-1.84-.299a4.785 4.785 0 0 1-.752 1.246c-.226-.206-.463-.402-.7-.608a3.495 3.495 0 0 0 .813-1.811c.227-1.555-.75-3.16-2.221-3.686-1.677-.68-3.805.227-4.412 1.925z" fill="#409DE4"></path>
    </symbol>
    <symbol width="50" height="50" viewBox="0 0 12 12"  xmlns="http://www.w3.org/2000/svg" id="Vector">
        <path d="M1.052 9.385a.68.68 0 0 1-.682-.682V6.918a.68.68 0 0 1 .682-.682.68.68 0 0 1 .682.682v1.785a.688.688 0 0 1-.682.682zm2.678-.062v-3.1a.68.68 0 0 0-.682-.682.68.68 0 0 0-.682.682v3.1a.68.68 0 0 0 .682.682.696.696 0 0 0 .682-.682zm1.997.682V5.578a.68.68 0 0 0-.682-.682.68.68 0 0 0-.682.682v4.427a.68.68 0 0 0 .682.682.68.68 0 0 0 .682-.682zm2.009.633V4.872a.68.68 0 0 0-.682-.682.68.68 0 0 0-.682.682v5.766a.68.68 0 0 0 .682.682c.372 0 .682-.31.682-.682zm2.963-7.292L1.66.706C1.599.68 1.524.68 1.462.68a.72.72 0 0 0-.719.72v4.265h.533V1.4a.17.17 0 0 1 .174-.174c.012 0 .037 0 .05.012l9.039 2.642a.175.175 0 0 1 .124.173v5.692a.17.17 0 0 1-.174.173c-.012 0-.037 0-.05-.012L8.38 9.298v.558l1.91.558a.546.546 0 0 0 .198.025.72.72 0 0 0 .72-.719V4.028c.012-.31-.199-.582-.509-.682z" fill="#000"></path>
    </symbol>
    <symbol width="50" height="50" viewBox="0 0 6 10"  xmlns="http://www.w3.org/2000/svg" id="Vector-1">
        <path d="M5.5.002L4.203 0C2.746 0 1.804.966 1.804 2.461v1.135H.501a.204.204 0 0 0-.204.204v1.644c0 .112.091.204.204.204h1.303v4.148c0 .113.092.204.204.204H3.71a.204.204 0 0 0 .204-.204V5.648h1.525a.204.204 0 0 0 .204-.204V3.8a.204.204 0 0 0-.204-.204H3.913v-.962c0-.463.11-.697.713-.697h.873a.204.204 0 0 0 .204-.204V.206A.204.204 0 0 0 5.5.002z" fill="#3F66B0"></path>
    </symbol>
    <symbol width="50" height="50" viewBox="0 0 11 11"  xmlns="http://www.w3.org/2000/svg" id="whatsapp-logo">
        <path d="M11 5.358c0 2.96-2.417 5.359-5.4 5.359a5.41 5.41 0 0 1-2.61-.667L0 11l.975-2.875A5.302 5.302 0 0 1 .2 5.358C.2 2.4 2.618 0 5.6 0 8.583 0 11 2.399 11 5.358zM5.6.853c-2.504 0-4.54 2.021-4.54 4.505 0 .986.321 1.899.865 2.642l-.567 1.673 1.744-.555c.717.47 1.576.745 2.498.745 2.503 0 4.54-2.02 4.54-4.504C10.14 2.875 8.103.853 5.6.853zm2.727 5.74c-.033-.055-.122-.088-.254-.154a22.232 22.232 0 0 0-.904-.427c-.122-.044-.21-.066-.298.066a7.572 7.572 0 0 1-.42.514c-.077.088-.154.1-.286.034-.133-.066-.559-.205-1.065-.652a3.96 3.96 0 0 1-.736-.91c-.077-.131-.008-.202.058-.268.06-.058.132-.153.199-.23.066-.076.088-.13.132-.219.044-.087.022-.164-.011-.23-.033-.065-.298-.712-.408-.975-.11-.263-.22-.219-.298-.219-.077 0-.166-.01-.254-.01a.488.488 0 0 0-.353.163c-.121.132-.463.45-.463 1.096 0 .646.474 1.27.54 1.358.067.088.916 1.457 2.262 1.983 1.345.526 1.345.35 1.588.328.243-.022.783-.317.894-.624.11-.307.11-.57.077-.625z" fill="#4EEB57"></path>
    </symbol>
    <symbol width="50" height="50" viewBox="0 0 11 11"  xmlns="http://www.w3.org/2000/svg" id="Group">
        <path d="M7.964 0H3.036A3.039 3.039 0 0 0 0 3.036v4.928A3.039 3.039 0 0 0 3.036 11h4.928A3.039 3.039 0 0 0 11 7.964V3.036A3.039 3.039 0 0 0 7.964 0zm2.06 7.964c0 1.136-.924 2.06-2.06 2.06H3.036a2.062 2.062 0 0 1-2.06-2.06V3.036c0-1.136.924-2.06 2.06-2.06h4.928c1.136 0 2.06.924 2.06 2.06v4.928z" fill="#BA009C"></path>
        <path d="M5.5 2.666A2.838 2.838 0 0 0 2.666 5.5 2.838 2.838 0 0 0 5.5 8.334 2.838 2.838 0 0 0 8.334 5.5 2.838 2.838 0 0 0 5.5 2.666zm0 4.692A1.86 1.86 0 0 1 3.642 5.5 1.86 1.86 0 0 1 5.5 3.642 1.86 1.86 0 0 1 7.358 5.5 1.86 1.86 0 0 1 5.5 7.358zm2.953-5.52a.719.719 0 0 0-.715.716.718.718 0 0 0 .715.716.723.723 0 0 0 .506-.21.719.719 0 0 0-.506-1.222z" fill="#BA009C"></path>
    </symbol>
    <symbol width="50" height="50" viewBox="0 0 12 8"  xmlns="http://www.w3.org/2000/svg" id="Group-1">
        <path fill-rule="evenodd" clip-rule="evenodd" d="M6.179 7.228h.667s.202-.022.304-.133c.095-.102.092-.293.092-.293s-.013-.895.403-1.027c.41-.13.935.865 1.493 1.248.421.29.741.226.741.226l1.49-.021s.78-.048.41-.661c-.03-.05-.214-.454-1.107-1.282-.935-.868-.81-.728.316-2.228.686-.914.96-1.472.874-1.71-.082-.228-.586-.168-.586-.168l-1.678.01s-.124-.017-.217.038c-.09.055-.148.18-.148.18s-.265.708-.62 1.31c-.747 1.268-1.046 1.335-1.168 1.256-.284-.183-.213-.737-.213-1.131 0-1.23.186-1.743-.363-1.875-.183-.044-.317-.073-.784-.078C5.487.883 4.98.89 4.693 1.03c-.191.094-.338.302-.249.314.111.015.362.068.496.25.172.233.166.759.166.759S5.204 3.8 4.875 3.98c-.226.123-.537-.128-1.203-1.28-.341-.59-.6-1.241-.6-1.241s-.049-.122-.137-.187a.695.695 0 0 0-.258-.104l-1.595.01s-.24.007-.327.11c-.079.093-.007.285-.007.285s1.249 2.921 2.663 4.393c1.296 1.35 2.768 1.261 2.768 1.261z" fill="#4775A6"></path>
    </symbol>
</svg>