<svg width="582" height="668" viewBox="0 0 582 668" fill="none" xmlns="http://www.w3.org/2000/svg">
<g clip-path="url(#clip0)">
<path opacity="0.2" d="M457.422 566.137L433.301 580.121L272.835 487.385L296.957 473.4L457.422 566.137Z" fill="#105CDA"/>
<path d="M272.835 41.3641C272.835 32.2376 279.307 28.4104 287.249 32.9736L414.769 106.722C422.711 111.285 429.183 122.619 429.183 131.746V508.434C429.183 517.561 422.711 521.388 414.769 516.825L287.249 443.077C279.307 438.513 272.835 427.179 272.835 418.053V41.3641Z" fill="#D4DBDF"/>
<path d="M429.33 508.582V131.893C429.33 122.767 422.858 111.432 414.916 106.869L287.396 33.1211C283.572 30.9131 280.042 30.6187 277.395 31.9435L294.603 22.081C297.104 20.9034 300.487 21.1978 304.311 23.4058L431.83 97.1537C439.773 101.717 446.244 113.051 446.244 122.178V498.866C446.244 503.577 444.626 506.815 441.832 508.287L425.8 517.414C428.006 515.647 429.33 512.703 429.33 508.582Z" fill="#95C4DF"/>
<path d="M272.835 41.3645V405.541L429.33 496.07V131.893C429.33 131.157 429.33 130.421 429.183 129.538L272.983 39.3037C272.835 40.0397 272.835 40.6285 272.835 41.3645Z" fill="url(#paint0_linear)"/>
<path d="M437.566 490.917V124.386L429.036 129.243C429.183 130.127 429.183 130.863 429.183 131.746V495.628L437.566 490.917Z" fill="url(#paint1_linear)"/>
<path d="M427.712 128.655V495.187L429.33 496.07V131.894C429.33 131.158 429.33 130.422 429.183 129.538L427.712 128.655Z" fill="url(#paint2_linear)"/>
<path d="M437.566 490.917V124.386L429.036 129.243C429.183 130.127 429.183 130.863 429.183 131.746V495.628L437.566 490.917Z" fill="url(#paint3_linear)"/>
<path d="M427.712 128.655V495.187L429.33 496.07V131.894C429.33 131.158 429.33 130.422 429.183 129.538L427.712 128.655Z" fill="url(#paint4_linear)"/>
<g opacity="0.4">
<path opacity="0.4" d="M380.94 428.503C380.94 428.503 382.705 430.269 385.647 433.802C388.588 437.335 392.56 442.487 396.237 449.406C399.914 456.324 403.296 465.009 404.62 474.724C405.944 484.587 405.061 495.332 401.679 505.489C398.296 515.646 392.854 524.773 386.529 532.427C380.352 540.082 373.586 546.264 367.409 551.122C361.231 555.979 355.789 559.512 351.965 561.867C348.141 564.223 345.788 565.4 345.788 565.4C345.788 565.4 347.994 564.075 351.965 561.573C355.789 559.071 361.231 555.391 367.262 550.386C373.292 545.381 379.911 539.051 385.941 531.397C391.971 523.742 397.266 514.763 400.502 504.9C403.738 495.185 404.767 484.587 403.591 475.019C402.414 465.303 399.325 456.618 395.795 449.7C392.265 442.781 388.294 437.482 385.5 433.802C382.705 430.417 380.94 428.503 380.94 428.503Z" fill="#63EDF6"/>
</g>
<g opacity="0.4">
<path opacity="0.4" d="M3.38287 478.11C3.38287 478.11 3.52995 474.136 5.00077 467.365C6.47158 460.593 9.85444 451.172 16.6202 441.163C23.2388 431.153 32.9462 420.996 45.0068 412.017C57.0675 403.038 71.1873 395.236 86.1895 388.906C101.045 382.724 116.635 378.013 131.196 374.775C145.904 371.536 159.73 369.623 171.497 368.592C183.41 367.562 193.265 367.268 200.177 367.268C207.09 367.268 211.061 367.415 211.061 367.415C211.061 367.415 207.09 367.268 200.03 367.415C192.97 367.562 182.969 368.004 171.202 369.181C159.289 370.359 145.463 372.42 131.049 375.805C116.488 379.191 101.339 383.754 86.7779 389.937C72.2168 395.972 58.2441 403.626 46.1835 412.458C34.1228 421.291 24.2684 431.3 17.5027 441.163C10.7369 451.025 7.0599 460.593 5.44201 467.365C3.52995 473.989 3.38287 478.11 3.38287 478.11Z" fill="#63EDF6"/>
</g>
<g opacity="0.4">
<path opacity="0.4" d="M56.185 316.777C56.185 316.777 63.392 312.214 75.1585 306.915C86.7779 301.468 103.104 295.58 120.165 291.753C137.227 287.779 154.435 285.718 167.231 284.835C180.027 283.951 188.558 284.246 188.558 284.099C188.558 284.099 179.88 284.246 166.937 285.423C153.994 286.601 136.933 288.956 120.312 292.784C103.692 296.611 87.3662 302.204 75.4526 307.356C63.6861 312.509 56.185 316.925 56.185 316.777Z" fill="#63EDF6"/>
</g>
<g opacity="0.4">
<path opacity="0.4" d="M0 428.209C0 428.209 0.147081 426.442 0.735406 423.351C1.32373 420.26 2.3533 415.844 4.41243 410.692C6.32449 405.687 9.26611 399.946 13.2373 394.205C17.0614 388.612 21.9151 383.018 27.3571 377.866C38.094 367.709 50.5959 359.907 60.1562 354.903C69.7165 349.898 76.4822 347.248 76.4822 347.248C76.4822 347.248 69.7165 350.192 60.3033 355.491C50.743 360.791 38.5353 368.739 28.2396 378.749C23.0917 383.607 18.2381 389.053 14.2669 394.647C10.2957 400.093 7.20697 405.687 5.14784 410.692C0.735406 420.702 0.147081 428.209 0 428.209Z" fill="#63EDF6"/>
</g>
<path opacity="0.3" d="M417.269 276.738L343.434 234.05V267.906L417.269 310.447V276.738Z" fill="#A9D0E5"/>
<path opacity="0.3" d="M417.269 321.341L343.434 278.652V312.361L417.269 355.05V321.341Z" fill="#A9D0E5"/>
<path opacity="0.3" d="M385.647 347.395L311.812 304.854V338.563L385.647 381.251V347.395Z" fill="#A9D0E5"/>
<path opacity="0.3" d="M385.647 388.611L311.812 345.923V379.779L385.647 422.32V388.611Z" fill="#A9D0E5"/>
<path opacity="0.3" d="M415.651 445.137L341.817 402.596V436.305L415.651 478.993V445.137Z" fill="#A9D0E5"/>
<g opacity="0.3">
<path opacity="0.3" d="M279.895 173.109C279.895 179.88 284.749 188.123 290.485 191.509L448.597 282.185C454.481 285.571 459.187 282.774 459.187 276.003V240.821C459.187 234.05 454.334 225.807 448.597 222.421L290.632 131.745C284.749 128.36 280.042 131.156 280.042 137.928V173.109H279.895Z" fill="#A9D0E5"/>
</g>
<g opacity="0.3">
<path opacity="0.3" d="M277.248 174.287C277.248 181.058 282.102 189.301 287.838 192.687L445.803 283.51C451.686 286.896 456.393 284.099 456.393 277.327V242.146C456.393 235.375 451.539 227.132 445.803 223.746L287.985 132.923C282.102 129.537 277.395 132.334 277.395 139.105L277.248 174.287Z" fill="#A9D0E5"/>
</g>
<path opacity="0.2" d="M427.712 193.422L304.752 122.766C298.869 119.38 294.162 122.177 294.162 128.948V133.806L427.859 210.645V193.422H427.712Z" fill="black"/>
<path d="M431.095 255.983L289.897 174.434V179.438L431.095 260.988V255.983Z" fill="#A9D0E5"/>
<path d="M313.283 187.976L289.897 174.434V179.438L313.283 192.834V187.976Z" fill="white"/>
<path d="M403.885 167.662C403.885 171.489 406.532 176.052 409.768 177.966L434.772 192.392C438.008 194.305 440.655 192.686 440.655 189.006V160.155C440.655 156.327 438.008 151.764 434.772 149.85L409.768 135.425C406.532 133.511 403.885 135.13 403.885 138.81V167.662Z" fill="#FF4BA9"/>
<path d="M440.802 189.006V160.155C440.802 156.328 438.155 151.764 434.919 149.851L409.915 135.425C408.297 134.542 406.973 134.395 405.797 134.984L412.121 131.303C413.151 130.715 414.622 130.862 416.24 131.745L441.243 146.171C444.479 148.084 447.127 152.648 447.127 156.475V185.326C447.127 187.093 446.538 188.418 445.509 189.154L439.184 192.834C440.067 192.098 440.802 190.773 440.802 189.006Z" fill="#E71875"/>
<path d="M427.712 166.631V162.362C427.712 158.977 425.212 154.708 422.27 152.941C419.328 151.175 416.828 152.647 416.828 156.033V160.302L415.504 159.566V171.783L429.183 179.732V167.514L427.712 166.631ZM420.652 172.225L421.387 168.25C421.093 167.809 420.946 167.367 420.946 166.926C420.946 166.042 421.534 165.601 422.417 166.042C423.152 166.484 423.888 167.662 423.888 168.545C423.888 168.986 423.741 169.281 423.447 169.428L424.182 174.138L420.652 172.225ZM425.212 165.159L419.475 161.774V157.505C419.475 155.738 420.799 154.855 422.417 155.886C424.035 156.769 425.359 158.977 425.359 160.89L425.212 165.159Z" fill="white"/>
<path d="M329.168 88.1732C329.168 92.0005 331.815 96.5637 335.051 98.4773L360.055 112.903C363.29 114.817 365.938 113.197 365.938 109.517V80.5188C365.938 76.6915 363.29 72.1283 360.055 70.2147L335.051 55.7889C331.815 53.8753 329.168 55.4945 329.168 59.1746V88.1732Z" fill="#B18FFF"/>
<path d="M366.085 109.371V80.5192C366.085 76.692 363.437 72.1287 360.202 70.2151L335.198 55.7894C333.58 54.9062 332.256 54.759 331.08 55.3478L337.404 51.6677C338.434 51.0789 339.904 51.2261 341.522 52.1093L366.526 66.5351C369.762 68.4487 372.409 73.0119 372.409 76.8392V105.691C372.409 107.457 371.821 108.782 370.791 109.518L364.467 113.198C365.349 112.609 366.085 111.284 366.085 109.371Z" fill="#9260FF"/>
<path d="M358.143 88.468C357.848 86.8487 357.407 85.3767 356.672 83.7575L357.995 82.1383L355.495 77.8695L353.436 78.1639C352.406 76.839 351.23 75.6614 350.053 74.631L349.612 71.687L346.229 69.6262L345.788 72.1286C344.611 71.687 343.434 71.687 342.405 71.8342L340.346 69.1846L337.845 70.6566L339.169 73.7478C338.581 74.4838 337.992 75.6614 337.698 76.839L335.345 76.103V80.0775L337.698 81.9911C337.992 83.6103 338.434 85.2295 339.169 86.7015L337.845 88.3208L340.346 92.5896L342.405 92.2952C343.434 93.62 344.611 94.7976 345.788 95.828L346.229 98.7721L349.612 100.833L350.053 98.3305C351.23 98.7721 352.406 98.7721 353.436 98.6249L355.495 101.274L357.995 99.8025L356.672 96.7112C357.26 95.9752 357.848 94.7976 358.143 93.62L360.496 94.356V90.3816L358.143 88.468ZM348.141 92.0008C344.758 90.0872 342.111 85.3767 342.111 81.5495C342.111 77.7223 344.758 76.103 348.141 78.0167C351.524 79.9303 354.171 84.6407 354.171 88.468C354.024 92.4424 351.377 93.9144 348.141 92.0008Z" fill="white"/>
<path d="M464.629 413.489C464.629 417.316 467.277 421.879 470.513 423.793L495.516 438.219C498.752 440.132 501.4 438.513 501.4 434.833V405.982C501.4 402.154 498.752 397.591 495.516 395.678L470.513 381.252C467.277 379.338 464.629 380.957 464.629 384.637V413.489Z" fill="#73C138"/>
<path d="M501.4 434.686V405.835C501.4 402.007 498.752 397.444 495.516 395.531L470.513 381.105C468.895 380.222 467.571 380.074 466.394 380.663L472.719 376.983C473.748 376.394 475.219 376.542 476.837 377.425L501.841 391.851C505.077 393.764 507.724 398.327 507.724 402.155V431.006C507.724 432.772 507.136 434.097 506.106 434.833L499.782 438.513C500.811 437.925 501.4 436.6 501.4 434.686Z" fill="#4D9B12"/>
<path d="M483.014 397.591C476.102 393.617 470.365 395.236 470.365 401.271C470.365 404.804 472.277 408.925 475.219 412.605C474.778 418.052 474.189 418.935 474.189 418.935C474.189 418.935 476.69 419.818 481.249 418.346C481.838 418.788 482.426 419.082 483.014 419.377C489.927 423.351 495.663 421.732 495.663 415.697C495.663 409.809 489.927 401.713 483.014 397.591Z" fill="white"/>
<path d="M502.576 257.307C502.576 261.135 505.224 265.698 508.459 267.611L533.463 282.037C536.699 283.951 539.347 282.332 539.347 278.652V249.8C539.347 245.973 536.699 241.41 533.463 239.496L508.459 225.07C505.224 223.157 502.576 224.776 502.576 228.456V257.307Z" fill="#1ED6FE"/>
<path d="M539.494 278.652V249.8C539.494 245.973 536.846 241.41 533.61 239.496L508.607 225.071C506.989 224.187 505.665 224.04 504.488 224.629L510.813 220.949C511.842 220.36 513.313 220.507 514.931 221.391L539.935 235.816C543.171 237.73 545.818 242.293 545.818 246.12V274.972C545.818 276.738 545.23 278.063 544.2 278.799L537.876 282.479C538.758 281.743 539.494 280.418 539.494 278.652Z" fill="#07B3FA"/>
<path d="M525.962 261.134L520.961 264.078L515.961 255.394C513.019 255.688 511.107 258.19 511.107 262.312L530.669 273.647C530.816 269.378 528.904 264.667 525.962 261.134Z" fill="white"/>
<path d="M520.961 255.541C524.933 257.749 528.168 255.983 528.168 251.419C528.168 246.856 524.933 241.262 520.961 239.054C516.99 236.846 513.754 238.613 513.754 243.176C513.901 247.739 517.137 253.333 520.961 255.541Z" fill="white"/>
<path d="M183.851 75.9557C183.851 79.783 186.499 84.3462 189.735 86.2598L214.738 100.686C217.974 102.599 220.622 100.98 220.622 97.2999V68.4485C220.622 64.6212 217.974 60.058 214.738 58.1444L189.735 43.7186C186.499 41.805 183.851 43.4242 183.851 47.1043V75.9557Z" fill="#FFC113"/>
<path d="M220.769 97.3004V68.4489C220.769 64.6217 218.121 60.0584 214.886 58.1448L189.882 43.7191C188.264 42.8359 186.94 42.6887 185.763 43.2775L192.088 39.5974C193.117 39.0086 194.588 39.1558 196.206 40.039L221.21 54.4648C224.446 56.3784 227.093 60.9416 227.093 64.7689V93.6203C227.093 95.3868 226.505 96.7116 225.475 97.4476L219.151 101.128C220.033 100.539 220.769 99.214 220.769 97.3004Z" fill="#D58A00"/>
<path d="M202.384 86.2601C195.618 82.4328 190.176 72.8647 190.176 65.0631C190.176 57.2614 195.618 54.1702 202.384 57.9974C209.149 61.8246 214.591 71.3927 214.591 79.1944C214.591 86.9961 209.002 90.2345 202.384 86.2601ZM202.384 60.2054C196.647 56.8198 191.941 59.6166 191.941 66.2407C191.941 72.8647 196.647 80.9608 202.384 84.3464C208.12 87.7321 212.826 84.9352 212.826 78.3112C212.826 71.5399 208.12 63.4438 202.384 60.2054Z" fill="white"/>
<path d="M208.561 77.8694L202.237 74.1894C201.795 73.895 201.354 73.159 201.354 72.7174V62.5605C201.354 61.9717 201.795 61.8245 202.237 62.1189C202.678 62.4133 203.119 63.1493 203.119 63.5909V72.7174L208.561 75.8086C209.002 76.103 209.443 76.839 209.443 77.2806C209.443 78.0166 209.149 78.1638 208.561 77.8694Z" fill="white"/>
<path d="M360.937 526.245C376.381 535.224 376.381 549.797 360.937 558.777L237.095 630.316C221.651 639.296 196.206 639.296 180.763 630.316L56.9204 558.777C41.4769 549.797 41.4769 535.224 56.9204 526.245L180.763 454.705C196.206 445.726 221.651 445.726 237.095 454.705L360.937 526.245Z" fill="url(#paint5_linear)"/>
<path d="M360.937 558.777L237.095 630.317C221.651 639.296 196.206 639.296 180.763 630.317L56.9204 558.777C49.7134 554.655 45.8893 549.209 45.4481 543.763H45.301V571.878C45.301 577.766 49.1251 583.654 56.9204 588.217L180.763 659.757C196.206 668.737 221.651 668.737 237.095 659.757L360.937 588.217C368.732 583.801 372.556 577.913 372.556 571.878V542.585C372.409 548.473 368.585 554.361 360.937 558.777Z" fill="url(#paint6_linear)"/>
<path opacity="0.5" d="M289.162 493.42C334.168 519.327 334.168 561.574 289.162 587.482C244.155 613.536 171.35 613.536 126.343 587.482C81.3359 561.574 81.3359 519.327 126.343 493.42C171.202 467.365 244.155 467.365 289.162 493.42Z" fill="#1ED6FE"/>
<path opacity="0.5" d="M271.512 503.576C306.811 523.89 306.811 557.01 271.512 577.324C236.212 597.638 178.998 597.638 143.845 577.324C108.546 557.01 108.546 523.89 143.845 503.576C179.145 483.115 236.359 483.115 271.512 503.576Z" fill="#1ED6FE"/>
<path opacity="0.5" d="M50.8901 576.147V577.913C50.8901 579.827 52.0667 581.593 54.5671 583.065L87.3662 602.054V595.577V584.537L61.7741 569.67L50.8901 575.852C51.0372 576 51.0372 576 50.8901 576.147Z" fill="url(#paint7_linear)"/>
<path d="M87.5133 584.537L61.7741 569.67V580.71L87.5133 595.43V584.537Z" fill="#7CFFFF"/>
<path d="M61.7741 569.67V580.71L71.3344 575.264L61.7741 569.67Z" fill="#48D8F5"/>
<path opacity="0.3" d="M87.5133 595.43V584.537L61.7741 569.67L27.21 589.542V600.582L52.8021 615.302L87.5133 595.43Z" fill="url(#paint8_linear)"/>
<path opacity="0.5" d="M141.198 628.698V630.464C141.198 632.378 142.375 634.144 144.875 635.616L177.674 654.605V648.128V637.088L152.082 622.221L141.198 628.55C141.198 628.55 141.198 628.55 141.198 628.698Z" fill="url(#paint9_linear)"/>
<path d="M177.674 637.088L151.935 622.221V633.261L177.674 647.981V637.088Z" fill="#7CFFFF"/>
<path d="M151.935 622.221V633.261H152.082L161.495 627.814L151.935 622.221Z" fill="#48D8F5"/>
<path opacity="0.3" d="M177.674 647.981V637.088L151.935 622.221L117.371 642.093V653.133L143.11 668L177.674 647.981Z" fill="url(#paint10_linear)"/>
<path opacity="0.5" d="M365.202 576.294V578.06C365.202 579.974 364.026 581.74 361.525 583.212L328.579 602.054V595.577V584.537L354.171 569.67L365.055 575.852C365.055 576.147 365.055 576.147 365.202 576.294Z" fill="url(#paint11_linear)"/>
<path d="M328.579 584.684L354.318 569.816V580.857L328.579 595.577V584.684Z" fill="#7CFFFF"/>
<path d="M354.318 569.816V580.856L344.758 575.263L354.318 569.816Z" fill="#48D8F5"/>
<path opacity="0.3" d="M328.579 595.577V584.684L354.318 569.816L388.882 589.689V600.729L363.29 615.449L328.579 595.577Z" fill="url(#paint12_linear)"/>
<path opacity="0.5" d="M281.072 625.901V627.667C281.072 629.581 279.895 631.347 277.395 632.819L244.596 651.808V645.331V634.291L270.188 619.424L281.072 625.606C281.072 625.753 281.072 625.901 281.072 625.901Z" fill="url(#paint13_linear)"/>
<path d="M244.596 634.29L270.188 619.57V630.463L244.596 645.331V634.29Z" fill="#7CFFFF"/>
<path d="M270.188 619.57V630.463L260.775 625.017L270.188 619.57Z" fill="#48D8F5"/>
<path opacity="0.3" d="M244.596 645.331V634.29L270.188 619.57L304.752 639.443V650.335L279.16 665.203L244.596 645.331Z" fill="url(#paint14_linear)"/>
<path d="M149.876 213L143.551 202.99C143.551 202.99 131.049 206.229 128.843 215.65C126.637 224.923 119.577 242.587 118.253 251.714C116.93 260.84 115.459 289.692 121.636 292.489C127.814 295.285 132.961 295.285 138.403 292.636C143.845 289.986 153.847 280.565 153.847 280.565L149.876 213Z" fill="#9D95FE"/>
<path d="M134.432 238.761C134.432 238.761 134.873 249.212 132.226 259.811C129.578 270.409 127.519 276.739 128.843 283.952C129.726 288.073 127.078 291.901 127.961 294.109C131.638 294.697 135.02 294.109 138.55 292.342C143.992 289.693 153.994 280.272 153.994 280.272L152.082 247.887L134.432 238.761Z" fill="#847CE5"/>
<path d="M155.759 534.193C155.759 534.193 153.994 545.528 155.759 548.178C157.524 550.827 165.025 553.477 169.879 550.533C174.732 547.589 175.174 545.528 180.321 540.818C185.175 536.401 192.676 532.28 194.588 525.509C196.059 520.357 194.882 514.174 192.235 512.996C189.588 511.819 179.586 514.763 174.291 519.326C169.29 523.889 155.759 534.193 155.759 534.193Z" fill="#3A2E52"/>
<path d="M194.588 525.509C192.529 532.28 185.175 536.402 180.321 540.818C175.174 545.528 174.732 547.736 169.879 550.533C165.025 553.477 157.671 550.68 155.759 548.178C155.465 547.736 155.318 547.147 155.171 546.558C155.171 547.442 155.171 548.325 155.465 548.914L155.906 551.858C155.906 551.858 157.377 553.624 160.171 554.654C162.966 555.685 166.937 555.832 169.879 553.918C172.673 552.005 178.115 546.264 178.115 546.264C178.115 546.264 178.115 545.381 178.115 544.498C178.704 543.762 179.439 543.173 180.321 542.29C185.175 537.874 192.676 533.752 194.588 526.981C195.177 525.214 195.324 523.301 195.177 521.534C195.177 522.859 195.03 524.184 194.588 525.509Z" fill="#000508"/>
<path d="M255.48 560.837C249.008 559.365 228.417 558.04 221.21 550.533L192.529 559.954C192.529 559.954 190.617 569.081 192.529 573.938C192.529 573.938 199.883 577.618 206.061 577.618C212.385 577.618 216.945 576.882 223.857 578.649C230.917 580.415 242.096 581.298 250.773 578.649C259.451 575.999 265.187 569.522 265.187 566.431C265.481 563.192 261.951 562.309 255.48 560.837Z" fill="#3A2E52"/>
<path d="M265.334 566.431C265.187 569.522 259.598 575.999 250.92 578.648C242.243 581.298 230.917 580.415 224.005 578.648C216.945 576.882 212.385 577.618 206.208 577.618C199.883 577.618 192.676 573.938 192.676 573.938C192.676 573.791 192.529 573.644 192.529 573.496C192.529 573.791 192.676 574.085 192.676 574.527L192.529 578.943C192.529 578.943 193.853 579.973 198.265 581.151C202.678 582.476 215.621 581.592 215.621 581.592C215.621 581.592 215.621 580.415 215.621 579.237C218.268 579.237 221.063 579.532 224.446 580.415C231.506 582.181 242.684 583.064 251.362 580.415C260.039 577.765 265.776 571.288 265.776 568.197C265.776 567.314 265.628 566.872 265.334 566.431Z" fill="#000508"/>
<path d="M205.178 136.161C210.767 139.105 214.886 147.054 216.209 153.53C217.68 159.86 216.209 161.627 216.209 161.627C216.209 161.627 220.622 165.454 220.18 166.779C219.739 168.103 215.768 171.047 215.768 171.047C215.768 171.047 216.503 175.169 216.209 177.083C215.768 178.996 214.297 183.118 214.591 185.326C214.886 187.387 214.591 191.214 212.385 192.244C210.179 193.275 200.766 192.539 199.736 195.483C198.854 198.28 198.854 213.147 198.854 213.147C198.854 213.147 184.293 222.862 171.497 216.385C158.553 210.056 163.407 196.366 163.407 196.366C163.407 196.366 167.378 189.153 165.613 184.296C163.848 179.438 156.2 170.606 157.671 158.094C159.142 145.729 165.613 138.958 177.38 134.836C189.146 130.714 196.942 131.745 205.178 136.161Z" fill="#FFCDA8"/>
<path d="M199.736 195.336C200.177 193.864 202.678 193.422 205.472 193.128C201.207 192.098 195.765 190.184 195.471 187.093C194.883 181.941 193.412 173.256 193.412 173.256L184.146 177.525C184.146 177.525 183.557 205.493 178.998 218.447C189.441 219.477 199.001 213.147 199.001 213.147C199.001 213.147 198.854 198.133 199.736 195.336Z" fill="#D9A782"/>
<path d="M197.53 179.879C197.236 176.494 196.206 174.727 193.118 175.905C190.029 177.082 188.411 182.676 191.058 186.209C193.853 189.889 198.412 193.127 197.53 179.879Z" fill="#FFCDA8"/>
<path d="M193.706 129.242C178.409 129.831 160.171 135.719 156.936 153.236C153.7 170.9 161.348 175.611 161.348 175.611C163.113 179.144 164.878 182.088 165.613 184.149C166.055 185.179 166.055 186.504 166.055 187.681C168.996 188.859 172.967 190.184 175.909 190.037C181.792 189.742 181.939 191.067 185.028 185.326C188.117 179.585 191.353 173.697 195.765 174.286C200.325 174.875 203.266 176.052 203.854 173.844C204.443 171.784 204.59 171.342 204.296 169.134C204.149 166.926 207.531 164.424 208.561 160.891C209.591 157.505 205.325 153.972 208.561 150.734C210.62 148.673 212.532 147.495 213.415 145.729C213.415 145.729 215.621 144.257 215.474 141.46C215.474 138.81 209.002 128.654 193.706 129.242Z" fill="#563317"/>
<path opacity="0.3" d="M195.765 174.286C200.325 174.874 203.266 176.052 203.854 173.844C204.443 171.783 204.59 171.342 204.296 169.134C204.149 166.926 207.531 164.423 208.561 160.89C208.855 159.86 208.708 158.977 208.414 157.946C204.443 164.57 180.763 175.758 172.82 176.788C168.849 177.23 164.437 176.494 161.054 175.61C162.819 179.143 164.584 182.087 165.319 184.148C165.76 185.179 165.76 186.503 165.76 187.681C168.702 188.859 172.673 190.183 175.615 190.036C181.498 189.742 181.645 191.067 184.734 185.326C188.117 179.585 191.353 173.697 195.765 174.286Z" fill="#563317"/>
<path d="M152.082 536.254C152.082 536.254 150.611 544.645 162.083 546.264C168.555 547.147 178.262 538.021 182.528 528.747C185.911 521.534 184.587 514.027 184.587 514.027C184.587 514.027 183.704 474.724 186.94 460.445C190.176 446.167 200.03 392.438 200.03 392.438L184.734 321.487H155.171C155.171 321.487 150.611 348.278 150.611 357.257C150.758 371.536 155.612 392.144 155.171 414.371C154.729 436.599 148.111 459.562 149.434 482.967C150.611 506.225 152.082 536.254 152.082 536.254Z" fill="#071E5C"/>
<path d="M229.888 339.005C229.888 339.005 244.302 395.236 240.183 423.057C236.212 450.731 229.299 508.581 228.417 522.418C227.535 536.402 237.977 557.893 237.977 557.893C237.977 557.893 211.944 570.994 191.5 569.817C191.5 569.817 186.499 513.291 188.705 496.363C190.764 479.288 197.383 458.238 195.177 446.167C192.97 434.097 186.793 389.2 186.793 389.2C186.793 389.2 178.704 376.983 176.792 365.501C176.056 361.232 170.467 330.761 179.733 326.493C195.471 319.133 229.888 339.005 229.888 339.005Z" fill="#142B69"/>
<path d="M230.77 313.833C229.299 305.295 228.711 289.397 229.152 275.708C229.594 262.018 234.153 238.76 206.649 221.096L162.819 200.782C162.819 200.782 155.171 201.224 149.729 201.96C144.287 202.696 132.814 203.579 132.373 216.091C131.932 228.603 138.697 261.135 144.434 269.672C150.17 278.21 157.965 298.082 157.818 302.94C157.524 307.798 147.081 330.908 151.199 331.939C155.318 332.822 177.527 344.745 191.647 348.278C205.766 351.811 233.271 353.577 233.418 345.187C233.418 341.507 232.241 322.371 230.77 313.833Z" fill="#9D95FE"/>
<path d="M229.152 275.707C229.447 266.139 231.8 252.008 223.71 238.171C216.945 244.501 209.002 252.155 207.679 254.51C205.325 258.632 202.531 262.901 202.531 262.901C202.531 262.901 210.179 272.174 214.15 280.418C218.121 288.661 221.504 302.645 218.121 310.447C214.738 318.248 217.827 326.639 215.474 335.324C214.738 338.121 211.208 345.334 208.12 350.78C220.769 351.81 233.418 350.78 233.565 345.039C233.565 341.359 232.388 322.223 230.917 313.685C229.299 305.295 228.711 289.397 229.152 275.707Z" fill="#847CE5"/>
<path d="M214.738 221.244C214.738 221.244 221.21 225.071 222.828 225.218C224.446 225.365 226.358 225.071 225.77 223.599C225.181 222.127 220.033 218.152 220.033 218.152C220.033 218.152 222.828 217.711 223.269 217.711C223.71 217.711 229.594 221.685 231.653 221.832C233.712 221.98 236.065 220.36 235.036 219.183C234.006 218.152 227.093 215.355 225.77 215.355C224.593 215.355 216.062 219.036 214.738 221.244Z" fill="#D9A782"/>
<path d="M215.327 234.05C215.327 234.05 230.623 233.461 231.947 232.873C233.271 232.284 233.712 228.898 231.064 228.162C228.417 227.426 216.798 227.426 216.503 227.426C216.062 227.426 213.268 224.188 217.092 221.097C221.063 218.005 222.093 218.3 224.887 218.3C227.682 218.3 233.124 219.036 235.771 220.508C238.419 221.833 241.36 222.716 241.654 221.097C242.096 219.625 234.889 215.061 232.094 213C229.152 210.94 226.946 210.645 223.269 210.351C219.739 210.204 214.003 210.498 211.503 211.823C209.002 213.148 202.531 217.269 202.531 217.269L215.327 234.05Z" fill="#FFCDA8"/>
<path d="M163.995 194.158C163.995 194.158 172.085 194.894 179.733 198.574C186.499 201.96 200.913 209.909 200.913 209.909L206.502 220.949C206.502 220.949 182.822 216.238 165.908 206.965C154.876 200.929 158.995 199.31 158.995 199.31L163.995 194.158Z" fill="#AAA2FF"/>
<path d="M312.547 186.356C311.959 186.356 309.459 186.945 308.429 190.331C307.547 193.717 303.428 201.224 302.546 203.579C301.81 205.934 299.31 209.761 297.986 211.822C296.663 213.883 297.104 216.091 297.986 217.71C299.016 219.33 300.193 222.862 300.046 223.157C299.898 223.451 292.691 238.171 292.691 238.171L309.017 244.943C309.017 244.943 316.077 228.309 316.666 226.984C317.254 225.659 322.255 221.39 323.726 219.33C325.196 217.269 327.844 212.558 327.403 211.233C326.961 209.909 324.167 208.878 324.167 208.878C324.167 208.878 324.314 205.493 322.99 204.462C321.666 203.432 319.901 202.549 319.901 202.549C319.901 202.549 320.49 197.544 318.284 196.513C316.077 195.63 314.459 198.721 313.43 198.574C312.4 198.427 313.283 192.981 313.724 190.773C314.459 188.417 314.165 186.356 312.547 186.356Z" fill="#FFCDA8"/>
<path d="M203.413 228.161C208.12 226.395 215.474 229.339 228.711 237.288C241.948 245.384 275.483 262.312 275.483 262.312L300.046 222.126C300.046 222.126 308.87 225.364 316.813 230.516L313.577 238.318C313.577 238.318 314.754 242.734 312.106 247.592C309.459 252.449 292.103 287.778 284.161 289.25C276.071 290.722 244.89 281.154 233.712 278.21C222.534 275.266 206.649 270.997 198.118 259.957C189.588 249.064 194.735 231.4 203.413 228.161Z" fill="#9D95FE"/>
<path opacity="0.7" d="M92.6611 541.849C93.2494 558.482 104.428 574.822 126.343 587.481C171.35 613.536 244.155 613.536 289.162 587.481C311.077 574.822 322.255 558.335 322.843 541.849V36.6533H92.514L92.6611 541.849Z" fill="url(#paint15_linear)"/>
<path opacity="0.5" d="M127.814 300.732C124.431 300.732 121.636 303.529 121.636 306.915V525.215H134.138V307.062C133.991 303.529 131.196 300.732 127.814 300.732Z" fill="url(#paint16_linear)"/>
<path opacity="0.5" d="M297.986 263.638C294.604 263.638 291.809 266.435 291.809 269.82V488.12H304.311V269.967C304.311 266.435 301.516 263.638 297.986 263.638Z" fill="url(#paint17_linear)"/>
<path opacity="0.7" d="M271.365 330.614C269.6 330.614 268.129 332.086 268.129 333.853V523.301H274.6V333.853C274.748 332.086 273.277 330.614 271.365 330.614Z" fill="url(#paint18_linear)"/>
<path opacity="0.7" d="M108.252 158.095C106.487 158.095 105.016 159.567 105.016 161.333V350.781H111.487V161.333C111.487 159.567 110.017 158.095 108.252 158.095Z" fill="url(#paint19_linear)"/>
<path opacity="0.7" d="M256.362 131.304C255.48 131.304 254.597 132.04 254.597 133.07V325.315H257.98V133.07C258.127 132.04 257.392 131.304 256.362 131.304Z" fill="url(#paint20_linear)"/>
<path opacity="0.7" d="M277.689 175.464C277.248 175.464 276.807 175.905 276.807 176.347V281.154H278.719V176.494C278.719 175.905 278.278 175.464 277.689 175.464Z" fill="url(#paint21_linear)"/>
<path opacity="0.7" d="M207.679 382.724C207.237 382.724 206.796 383.165 206.796 383.607V488.267H208.708V383.607C208.708 383.165 208.267 382.724 207.679 382.724Z" fill="url(#paint22_linear)"/>
<path opacity="0.7" d="M140.757 361.38C139.874 361.38 138.992 362.116 138.992 363.146V555.391H142.375V363.146C142.522 362.263 141.786 361.38 140.757 361.38Z" fill="url(#paint23_linear)"/>
<path opacity="0.3" d="M275.483 313.834C278.488 313.834 280.925 311.396 280.925 308.388C280.925 305.38 278.488 302.941 275.483 302.941C272.477 302.941 270.041 305.38 270.041 308.388C270.041 311.396 272.477 313.834 275.483 313.834Z" fill="#1ED6FE"/>
<path opacity="0.3" d="M275.483 311.92C277.433 311.92 279.013 310.338 279.013 308.387C279.013 306.436 277.433 304.854 275.483 304.854C273.533 304.854 271.953 306.436 271.953 308.387C271.953 310.338 273.533 311.92 275.483 311.92Z" fill="#1ED6FE"/>
<path d="M275.483 310.743C276.783 310.743 277.836 309.688 277.836 308.387C277.836 307.087 276.783 306.032 275.483 306.032C274.183 306.032 273.13 307.087 273.13 308.387C273.13 309.688 274.183 310.743 275.483 310.743Z" fill="#1ED6FE"/>
<path opacity="0.3" d="M289.897 164.571C291.278 164.571 292.397 163.451 292.397 162.069C292.397 160.687 291.278 159.566 289.897 159.566C288.516 159.566 287.396 160.687 287.396 162.069C287.396 163.451 288.516 164.571 289.897 164.571Z" fill="#1ED6FE"/>
<path opacity="0.3" d="M289.897 163.688C290.79 163.688 291.515 162.963 291.515 162.068C291.515 161.174 290.79 160.449 289.897 160.449C289.003 160.449 288.279 161.174 288.279 162.068C288.279 162.963 289.003 163.688 289.897 163.688Z" fill="#1ED6FE"/>
<path d="M289.897 163.099C290.466 163.099 290.926 162.638 290.926 162.068C290.926 161.499 290.466 161.038 289.897 161.038C289.328 161.038 288.867 161.499 288.867 162.068C288.867 162.638 289.328 163.099 289.897 163.099Z" fill="#1ED6FE"/>
<path opacity="0.3" d="M111.487 469.279C114.493 469.279 116.929 466.84 116.929 463.832C116.929 460.824 114.493 458.386 111.487 458.386C108.482 458.386 106.045 460.824 106.045 463.832C106.045 466.84 108.482 469.279 111.487 469.279Z" fill="#1ED6FE"/>
<path opacity="0.3" d="M111.487 467.365C113.437 467.365 115.017 465.783 115.017 463.832C115.017 461.881 113.437 460.299 111.487 460.299C109.538 460.299 107.958 461.881 107.958 463.832C107.958 465.783 109.538 467.365 111.487 467.365Z" fill="#1ED6FE"/>
<path d="M111.487 466.187C112.787 466.187 113.841 465.133 113.841 463.832C113.841 462.531 112.787 461.477 111.487 461.477C110.188 461.477 109.134 462.531 109.134 463.832C109.134 465.133 110.188 466.187 111.487 466.187Z" fill="#1ED6FE"/>
<path opacity="0.3" d="M130.02 143.816C131.563 143.816 132.814 142.564 132.814 141.019C132.814 139.475 131.563 138.223 130.02 138.223C128.476 138.223 127.225 139.475 127.225 141.019C127.225 142.564 128.476 143.816 130.02 143.816Z" fill="#1ED6FE"/>
<path opacity="0.3" d="M130.02 142.786C130.995 142.786 131.785 141.995 131.785 141.019C131.785 140.044 130.995 139.253 130.02 139.253C129.045 139.253 128.255 140.044 128.255 141.019C128.255 141.995 129.045 142.786 130.02 142.786Z" fill="#1ED6FE"/>
<path d="M130.02 142.197C130.67 142.197 131.196 141.67 131.196 141.019C131.196 140.369 130.67 139.842 130.02 139.842C129.37 139.842 128.843 140.369 128.843 141.019C128.843 141.67 129.37 142.197 130.02 142.197Z" fill="#1ED6FE"/>
<path opacity="0.3" d="M283.719 470.162C285.263 470.162 286.514 468.91 286.514 467.365C286.514 465.821 285.263 464.568 283.719 464.568C282.176 464.568 280.925 465.821 280.925 467.365C280.925 468.91 282.176 470.162 283.719 470.162Z" fill="#1ED6FE"/>
<path opacity="0.3" d="M283.719 469.132C284.694 469.132 285.484 468.341 285.484 467.365C285.484 466.39 284.694 465.599 283.719 465.599C282.745 465.599 281.954 466.39 281.954 467.365C281.954 468.341 282.745 469.132 283.719 469.132Z" fill="#1ED6FE"/>
<path d="M283.719 468.543C284.369 468.543 284.896 468.015 284.896 467.365C284.896 466.715 284.369 466.188 283.719 466.188C283.07 466.188 282.543 466.715 282.543 467.365C282.543 468.015 283.07 468.543 283.719 468.543Z" fill="#1ED6FE"/>
<path opacity="0.3" d="M313.136 453.675C314.679 453.675 315.93 452.423 315.93 450.878C315.93 449.333 314.679 448.081 313.136 448.081C311.592 448.081 310.341 449.333 310.341 450.878C310.341 452.423 311.592 453.675 313.136 453.675Z" fill="#1ED6FE"/>
<path opacity="0.3" d="M313.136 452.644C314.111 452.644 314.901 451.853 314.901 450.878C314.901 449.902 314.111 449.111 313.136 449.111C312.161 449.111 311.371 449.902 311.371 450.878C311.371 451.853 312.161 452.644 313.136 452.644Z" fill="#1ED6FE"/>
<path d="M313.136 452.055C313.786 452.055 314.312 451.528 314.312 450.878C314.312 450.227 313.786 449.7 313.136 449.7C312.486 449.7 311.959 450.227 311.959 450.878C311.959 451.528 312.486 452.055 313.136 452.055Z" fill="#1ED6FE"/>
<path opacity="0.3" d="M208.855 526.099C210.399 526.099 211.65 524.846 211.65 523.302C211.65 521.757 210.399 520.505 208.855 520.505C207.312 520.505 206.061 521.757 206.061 523.302C206.061 524.846 207.312 526.099 208.855 526.099Z" fill="#1ED6FE"/>
<path opacity="0.3" d="M208.855 525.068C209.83 525.068 210.62 524.277 210.62 523.302C210.62 522.326 209.83 521.535 208.855 521.535C207.88 521.535 207.09 522.326 207.09 523.302C207.09 524.277 207.88 525.068 208.855 525.068Z" fill="#1ED6FE"/>
<path d="M208.855 524.479C209.505 524.479 210.032 523.952 210.032 523.302C210.032 522.651 209.505 522.124 208.855 522.124C208.205 522.124 207.679 522.651 207.679 523.302C207.679 523.952 208.205 524.479 208.855 524.479Z" fill="#1ED6FE"/>
<path opacity="0.3" d="M244.596 378.014C246.139 378.014 247.39 376.761 247.39 375.217C247.39 373.672 246.139 372.42 244.596 372.42C243.053 372.42 241.801 373.672 241.801 375.217C241.801 376.761 243.053 378.014 244.596 378.014Z" fill="#1ED6FE"/>
<path opacity="0.3" d="M244.596 376.983C245.571 376.983 246.361 376.192 246.361 375.217C246.361 374.241 245.571 373.45 244.596 373.45C243.621 373.45 242.831 374.241 242.831 375.217C242.831 376.192 243.621 376.983 244.596 376.983Z" fill="#1ED6FE"/>
<path d="M244.596 376.394C245.246 376.394 245.773 375.867 245.773 375.217C245.773 374.566 245.246 374.039 244.596 374.039C243.946 374.039 243.419 374.566 243.419 375.217C243.419 375.867 243.946 376.394 244.596 376.394Z" fill="#1ED6FE"/>
<path d="M538.905 382.723C538.905 386.551 541.553 391.114 544.788 393.027L569.792 407.453C573.028 409.367 575.675 407.748 575.675 404.068V375.216C575.675 371.389 573.028 366.826 569.792 364.912L544.788 350.486C541.553 348.573 538.905 350.192 538.905 353.872V382.723Z" fill="#F7941D"/>
<path d="M575.675 404.068V375.216C575.675 371.389 573.028 366.826 569.792 364.912L544.788 350.487C543.171 349.603 541.847 349.456 540.67 350.045L546.995 346.365C548.024 345.776 549.495 345.923 551.113 346.807L576.117 361.232C579.353 363.146 582 367.709 582 371.536V400.388C582 402.154 581.412 403.479 580.382 404.215L574.058 407.895C575.087 407.159 575.675 405.834 575.675 404.068Z" fill="#D16E00"/>
<path d="M568.763 382.43L562.879 381.252V379.486C562.879 378.014 561.85 376.247 560.526 375.511L548.024 368.298C546.701 367.562 545.671 368.151 545.671 369.623V377.572C545.671 379.044 546.701 380.81 548.024 381.546L560.526 388.759C561.85 389.495 562.879 388.907 562.879 387.435V385.668L568.763 391.262V382.43Z" fill="white"/>
<path d="M240.919 36.8002C240.919 40.6274 243.566 45.1907 246.802 47.1043L271.806 61.53C275.042 63.4437 277.689 61.8245 277.689 58.1444V29.1457C277.689 25.3185 275.042 20.7553 271.806 18.8416L246.802 4.41589C243.566 2.50227 240.919 4.12149 240.919 7.80153V36.8002Z" fill="#1ED6FE"/>
<path d="M277.836 57.9977V29.1462C277.836 25.3189 275.189 20.7557 271.953 18.8421L246.949 4.41633C245.331 3.53312 244.008 3.38592 242.831 3.97473L249.155 0.29469C250.185 -0.294116 251.656 -0.146915 253.274 0.736294L278.277 15.162C281.513 17.0757 284.161 21.6389 284.161 25.4661V54.3176C284.161 56.084 283.572 57.4088 282.543 58.1448L276.218 61.8249C277.101 61.2361 277.836 59.9113 277.836 57.9977Z" fill="#07B3FA"/>
<path d="M254.744 23.9947C254.156 23.7003 253.421 22.6699 253.127 21.9339L252.244 19.2843C251.95 18.5483 251.215 17.5178 250.626 17.2234L247.096 15.1626C246.508 14.8682 246.214 15.1626 246.508 15.8986L247.39 18.2538C247.685 18.9899 248.273 19.8731 248.714 20.1675C249.155 20.4619 249.744 21.3451 249.744 22.0811L251.362 34.0044C251.509 34.7404 252.097 35.6236 252.685 36.0652L265.776 43.5725C266.364 43.8669 266.952 43.7197 267.099 43.1309L268.57 33.2684C268.717 32.6796 268.276 31.7964 267.688 31.502L254.744 23.9947Z" fill="white"/>
<path d="M256.362 43.72C256.362 45.192 255.333 45.7808 254.009 45.0448C252.685 44.3088 251.656 42.5424 251.656 41.0704C251.656 39.5984 252.685 39.0096 254.009 39.7456C255.333 40.4816 256.362 42.248 256.362 43.72Z" fill="white"/>
<path d="M265.923 49.1663C265.923 50.6383 264.893 51.2271 263.569 50.4911C262.246 49.7551 261.216 47.9887 261.216 46.5167C261.216 45.0447 262.246 44.4559 263.569 45.1919C264.893 45.9279 265.923 47.6943 265.923 49.1663Z" fill="white"/>
<path d="M477.867 157.8C477.867 161.628 480.514 166.191 483.75 168.105L508.754 182.53C511.989 184.444 514.637 182.825 514.637 179.145V150.293C514.637 146.466 511.989 141.903 508.754 139.989L483.75 125.563C480.514 123.65 477.867 125.269 477.867 128.949V157.8Z" fill="#00D900"/>
<path d="M514.784 179.144V150.293C514.784 146.465 512.136 141.902 508.901 139.989L483.897 125.563C482.279 124.68 480.955 124.532 479.779 125.121L486.103 121.441C487.133 120.852 488.604 121 490.221 121.883L515.225 136.309C518.461 138.222 521.108 142.785 521.108 146.613V175.464C521.108 177.23 520.52 178.555 519.491 179.291L513.166 182.971C514.049 182.235 514.784 180.911 514.784 179.144Z" fill="#00A500"/>
<path d="M491.692 144.994C491.104 144.699 490.368 143.669 490.074 142.933L489.192 140.283C488.898 139.547 488.162 138.517 487.574 138.222L484.044 136.162C483.456 135.867 483.162 136.162 483.456 136.898L484.338 139.253C484.632 139.989 485.221 140.872 485.662 141.166C486.103 141.461 486.691 142.344 486.691 143.08L488.309 155.003C488.456 155.739 489.045 156.623 489.633 157.064L502.723 164.572C503.312 164.866 503.9 164.719 504.047 164.13L505.518 154.267C505.665 153.679 505.224 152.795 504.635 152.501L491.692 144.994Z" fill="white"/>
<path d="M493.31 164.866C493.31 166.338 492.28 166.926 490.957 166.19C489.633 165.454 488.604 163.688 488.604 162.216C488.604 160.744 489.633 160.155 490.957 160.891C492.28 161.48 493.31 163.393 493.31 164.866Z" fill="white"/>
<path d="M502.87 170.313C502.87 171.785 501.841 172.374 500.517 171.638C499.193 170.902 498.164 169.135 498.164 167.663C498.164 166.191 499.193 165.602 500.517 166.338C501.841 167.074 502.87 168.841 502.87 170.313Z" fill="white"/>
<path d="M499.487 530.955C499.487 534.782 502.135 539.345 505.371 541.259L530.374 555.685C533.61 557.598 536.258 555.979 536.258 552.299V523.447C536.258 519.62 533.61 515.057 530.374 513.143L505.371 498.718C502.135 496.804 499.487 498.423 499.487 502.103V530.955Z" fill="#A432E0"/>
<path d="M536.258 552.299V523.448C536.258 519.621 533.61 515.057 530.375 513.144L505.371 498.718C503.753 497.835 502.429 497.688 501.252 498.276L507.577 494.596C508.606 494.008 510.077 494.155 511.695 495.038L536.699 509.464C539.935 511.377 542.582 515.941 542.582 519.768V548.619C542.582 550.386 541.994 551.711 540.964 552.447L534.64 556.127C535.669 555.391 536.258 554.066 536.258 552.299Z" fill="#7200AE"/>
<path d="M517.578 512.703C512.578 509.759 508.606 512.114 508.606 517.855C508.606 519.474 509.048 521.976 510.813 526.098C513.019 531.103 517.726 542.879 517.726 542.879C517.726 542.879 522.432 536.697 524.638 534.047C526.403 531.986 526.845 529.925 526.845 528.306C526.55 522.565 522.579 515.647 517.578 512.703ZM517.578 528.012C514.931 526.393 512.725 522.565 512.725 519.474C512.725 516.383 514.931 515.058 517.578 516.677C520.226 518.296 522.432 522.124 522.432 525.215C522.432 528.306 520.226 529.631 517.578 528.012Z" fill="white"/>
</g>
<defs>
<linearGradient id="paint0_linear" x1="208.091" y1="-186.816" x2="458.432" y2="608.161" gradientUnits="userSpaceOnUse">
<stop stop-color="#59B4FF"/>
<stop offset="1" stop-color="#3D54C3"/>
</linearGradient>
<linearGradient id="paint1_linear" x1="433.367" y1="54.3417" x2="433.367" y2="318.36" gradientUnits="userSpaceOnUse">
<stop stop-color="#FE9FEE"/>
<stop offset="1" stop-color="#E33CE3"/>
</linearGradient>
<linearGradient id="paint2_linear" x1="412.39" y1="99.2933" x2="473.384" y2="908.62" gradientUnits="userSpaceOnUse">
<stop stop-color="#FE9FEE"/>
<stop offset="1" stop-color="#E33CE3"/>
</linearGradient>
<linearGradient id="paint3_linear" x1="433.367" y1="89.2782" x2="433.367" y2="582.561" gradientUnits="userSpaceOnUse">
<stop stop-color="#2580D3"/>
<stop offset="1" stop-color="#0A208F"/>
</linearGradient>
<linearGradient id="paint4_linear" x1="412.39" y1="99.2933" x2="473.384" y2="908.62" gradientUnits="userSpaceOnUse">
<stop stop-color="#73CEFF"/>
<stop offset="1" stop-color="#576EDD"/>
</linearGradient>
<linearGradient id="paint5_linear" x1="208.837" y1="445.123" x2="208.837" y2="638.874" gradientUnits="userSpaceOnUse">
<stop stop-color="#07B3FA"/>
<stop offset="1" stop-color="#2580D3"/>
</linearGradient>
<linearGradient id="paint6_linear" x1="221.115" y1="604.536" x2="192.254" y2="604.536" gradientUnits="userSpaceOnUse">
<stop stop-color="#3638B2"/>
<stop offset="1" stop-color="#252A88"/>
</linearGradient>
<linearGradient id="paint7_linear" x1="67.8398" y1="591.551" x2="75.4567" y2="576.927" gradientUnits="userSpaceOnUse">
<stop/>
<stop offset="1" stop-color="#4CEAF5"/>
</linearGradient>
<linearGradient id="paint8_linear" x1="47.2653" y1="611.819" x2="67.4518" y2="572.937" gradientUnits="userSpaceOnUse">
<stop stop-opacity="0"/>
<stop offset="1" stop-color="#105CDA"/>
</linearGradient>
<linearGradient id="paint9_linear" x1="158.03" y1="644.106" x2="165.648" y2="629.481" gradientUnits="userSpaceOnUse">
<stop/>
<stop offset="1" stop-color="#4CEAF5"/>
</linearGradient>
<linearGradient id="paint10_linear" x1="137.426" y1="664.506" x2="157.715" y2="625.552" gradientUnits="userSpaceOnUse">
<stop stop-opacity="0"/>
<stop offset="1" stop-color="#105CDA"/>
</linearGradient>
<linearGradient id="paint11_linear" x1="348.245" y1="591.696" x2="340.627" y2="577.068" gradientUnits="userSpaceOnUse">
<stop/>
<stop offset="1" stop-color="#4CEAF5"/>
</linearGradient>
<linearGradient id="paint12_linear" x1="348.634" y1="611.966" x2="368.821" y2="573.083" gradientUnits="userSpaceOnUse">
<stop stop-opacity="0"/>
<stop offset="1" stop-color="#105CDA"/>
</linearGradient>
<linearGradient id="paint13_linear" x1="264.19" y1="641.382" x2="256.572" y2="626.755" gradientUnits="userSpaceOnUse">
<stop/>
<stop offset="1" stop-color="#4CEAF5"/>
</linearGradient>
<linearGradient id="paint14_linear" x1="264.602" y1="661.72" x2="284.817" y2="622.878" gradientUnits="userSpaceOnUse">
<stop stop-opacity="0"/>
<stop offset="1" stop-color="#105CDA"/>
</linearGradient>
<linearGradient id="paint15_linear" x1="207.72" y1="35.7732" x2="207.72" y2="662.433" gradientUnits="userSpaceOnUse">
<stop stop-opacity="0"/>
<stop offset="1" stop-color="#390EE1" stop-opacity="0.46"/>
</linearGradient>
<linearGradient id="paint16_linear" x1="127.82" y1="524.611" x2="127.82" y2="286.224" gradientUnits="userSpaceOnUse">
<stop stop-color="#105CDA" stop-opacity="0"/>
<stop offset="1" stop-color="#105CDA"/>
</linearGradient>
<linearGradient id="paint17_linear" x1="297.993" y1="487.516" x2="297.993" y2="249.129" gradientUnits="userSpaceOnUse">
<stop stop-color="#105CDA" stop-opacity="0"/>
<stop offset="1" stop-color="#105CDA"/>
</linearGradient>
<linearGradient id="paint18_linear" x1="271.335" y1="522.783" x2="271.335" y2="318.16" gradientUnits="userSpaceOnUse">
<stop stop-color="#105CDA" stop-opacity="0"/>
<stop offset="1" stop-color="#105CDA"/>
</linearGradient>
<linearGradient id="paint19_linear" x1="108.217" y1="350.263" x2="108.217" y2="145.641" gradientUnits="userSpaceOnUse">
<stop stop-color="#105CDA" stop-opacity="0"/>
<stop offset="1" stop-color="#105CDA"/>
</linearGradient>
<linearGradient id="paint20_linear" x1="256.28" y1="324.793" x2="256.28" y2="118.764" gradientUnits="userSpaceOnUse">
<stop stop-color="#105CDA" stop-opacity="0"/>
<stop offset="1" stop-color="#105CDA"/>
</linearGradient>
<linearGradient id="paint21_linear" x1="277.728" y1="280.777" x2="277.728" y2="168.735" gradientUnits="userSpaceOnUse">
<stop/>
<stop offset="1" stop-color="#48D8F5"/>
</linearGradient>
<linearGradient id="paint22_linear" x1="207.742" y1="487.983" x2="207.742" y2="375.902" gradientUnits="userSpaceOnUse">
<stop stop-color="#105CDA" stop-opacity="0"/>
<stop offset="1" stop-color="#105CDA"/>
</linearGradient>
<linearGradient id="paint23_linear" x1="140.674" y1="554.87" x2="140.674" y2="348.84" gradientUnits="userSpaceOnUse">
<stop stop-color="#105CDA" stop-opacity="0"/>
<stop offset="1" stop-color="#105CDA"/>
</linearGradient>
<clipPath id="clip0">
<rect width="582" height="668" fill="white"/>
</clipPath>
</defs>
</svg>
