<svg width="25" height="27" viewBox="0 0 25 27" fill="none" xmlns="http://www.w3.org/2000/svg">
<path d="M24.2017 6.92677L24.1944 6.89754C23.6034 4.50817 20.9388 1.94425 18.4917 1.41084L18.4641 1.40516C14.5062 0.650105 10.4931 0.650105 6.53596 1.40516L6.50755 1.41084C4.06134 1.94425 1.39674 4.50817 0.804882 6.89754L0.798387 6.92677C0.0676926 10.2636 0.0676926 13.6475 0.798387 16.9844L0.804882 17.0136C1.3715 19.301 3.83767 21.7471 6.19335 22.4198V25.087C6.19335 26.0524 7.36976 26.5265 8.03876 25.8299L10.7411 23.0209C11.3272 23.0537 11.9136 23.0719 12.5001 23.0719C14.4924 23.0719 16.4856 22.8836 18.4641 22.5061L18.4917 22.5004C20.9388 21.967 23.6034 19.403 24.1944 17.0137L24.2017 16.9844C24.9324 13.6475 24.9324 10.2636 24.2017 6.92677ZM22.0632 16.5005C21.6686 18.0593 19.6454 19.9973 18.0379 20.3553C15.9334 20.7555 13.8123 20.9265 11.6933 20.8678C11.6511 20.8667 11.6106 20.883 11.5812 20.9132C11.2805 21.2219 9.60813 22.9387 9.60813 22.9387L7.50941 25.0926C7.35596 25.2526 7.08642 25.1438 7.08642 24.923V20.5045C7.08642 20.4315 7.03429 20.3695 6.96261 20.3555C6.9622 20.3554 6.96179 20.3553 6.96139 20.3552C5.35386 19.9972 3.33146 18.0592 2.93607 16.5004C2.27845 13.4843 2.27845 10.4267 2.93607 7.41057C3.33146 5.85175 5.35386 3.91379 6.96139 3.55575C10.6368 2.85672 14.3633 2.85672 18.0379 3.55575C19.6462 3.91379 21.6686 5.85175 22.0632 7.41057C22.7216 10.4268 22.7216 13.4843 22.0632 16.5005Z" fill="white"/>
<path d="M15.9969 18.5399C15.7498 18.4649 15.5143 18.4145 15.2955 18.3237C13.0291 17.3834 10.9432 16.1703 9.29093 14.3107C8.35134 13.2532 7.61593 12.0593 6.99427 10.7959C6.69948 10.1967 6.45104 9.57409 6.19782 8.95552C5.96692 8.39142 6.30702 7.80865 6.66514 7.38363C7.00118 6.98475 7.43358 6.67949 7.90188 6.45451C8.26739 6.2789 8.62794 6.38014 8.89489 6.68996C9.47198 7.35976 10.0021 8.06383 10.4313 8.84023C10.6952 9.31778 10.6228 9.90152 10.1445 10.2265C10.0282 10.3055 9.92225 10.3982 9.81394 10.4875C9.71895 10.5656 9.62956 10.6446 9.56445 10.7505C9.44543 10.9442 9.43975 11.1727 9.51639 11.3833C10.1063 13.0045 11.1006 14.2651 12.7323 14.944C12.9934 15.0527 13.2557 15.1792 13.5565 15.1441C14.0603 15.0852 14.2234 14.5327 14.5764 14.244C14.9214 13.9618 15.3624 13.9581 15.734 14.1933C16.1058 14.4286 16.4662 14.6812 16.8244 14.9364C17.176 15.187 17.5261 15.4321 17.8504 15.7177C18.1623 15.9923 18.2697 16.3527 18.0941 16.7254C17.7726 17.408 17.3048 17.9759 16.6299 18.3384C16.4394 18.4407 16.2118 18.4738 15.9969 18.5399C15.7498 18.4649 16.2118 18.4738 15.9969 18.5399Z" fill="white"/>
<path d="M12.5062 5.67408C15.4708 5.75714 17.9057 7.72458 18.4275 10.6555C18.5164 11.1549 18.5481 11.6655 18.5876 12.1723C18.6043 12.3855 18.4835 12.5881 18.2535 12.5908C18.0158 12.5937 17.9089 12.3949 17.8935 12.1817C17.8629 11.7599 17.8418 11.3362 17.7836 10.9178C17.4767 8.70939 15.7158 6.88233 13.5176 6.49027C13.1868 6.43125 12.8483 6.41574 12.5132 6.38059C12.3014 6.35834 12.024 6.34551 11.977 6.08222C11.9377 5.86147 12.124 5.6857 12.3342 5.67441C12.3913 5.67124 12.4488 5.67384 12.5062 5.67408C15.4708 5.75714 12.4488 5.67384 12.5062 5.67408Z" fill="white"/>
<path d="M17.0115 11.5145C17.0066 11.5515 17.004 11.6385 16.9824 11.7205C16.9037 12.0182 16.4524 12.0554 16.3485 11.755C16.3177 11.6659 16.3131 11.5645 16.313 11.4685C16.3119 10.8406 16.1754 10.2134 15.8588 9.66704C15.5333 9.10554 15.036 8.63351 14.4528 8.34789C14.1001 8.17521 13.7187 8.06788 13.3321 8.0039C13.1632 7.97597 12.9924 7.959 12.8227 7.93538C12.6169 7.9068 12.5071 7.77568 12.5168 7.57295C12.5259 7.38297 12.6648 7.24633 12.8718 7.25802C13.5521 7.29667 14.2093 7.4437 14.8141 7.76399C16.0441 8.41536 16.7467 9.44353 16.9518 10.8164C16.9611 10.8786 16.976 10.9402 16.9807 11.0027C16.9923 11.1568 16.9996 11.3112 17.0115 11.5145C17.0066 11.5515 16.9996 11.3112 17.0115 11.5145Z" fill="white"/>
<path d="M15.1676 11.4426C14.9195 11.4471 14.7868 11.3098 14.7612 11.0824C14.7434 10.9238 14.7294 10.7632 14.6915 10.6089C14.617 10.3051 14.4555 10.0235 14.1999 9.83737C14.0793 9.74945 13.9426 9.68539 13.7994 9.64406C13.6174 9.59154 13.4285 9.60599 13.247 9.5615C13.0498 9.51319 12.9408 9.35357 12.9718 9.16863C13 9.00033 13.1637 8.86896 13.3476 8.88228C14.497 8.96525 15.3185 9.55947 15.4357 10.9125C15.444 11.008 15.4537 11.1089 15.4326 11.2003C15.3963 11.3566 15.2805 11.435 15.1676 11.4426C14.9195 11.4471 15.2805 11.435 15.1676 11.4426Z" fill="white"/>
</svg>
