<svg width="29" height="17" viewBox="0 0 29 17" fill="none" xmlns="http://www.w3.org/2000/svg">
<path fill-rule="evenodd" clip-rule="evenodd" d="M14.2068 16.2105H15.855C15.855 16.2105 16.3529 16.1558 16.6071 15.8818C16.841 15.6302 16.8335 15.1578 16.8335 15.1578C16.8335 15.1578 16.8014 12.9462 17.8278 12.6205C18.8397 12.2997 20.139 14.758 21.5162 15.7032C22.5577 16.4186 23.349 16.2617 23.349 16.2617L27.0315 16.2105C27.0315 16.2105 28.9578 16.0918 28.0444 14.5772C27.9696 14.4533 27.5125 13.4568 25.3065 11.4091C22.9975 9.26598 23.3067 9.61262 26.0881 5.90549C27.782 3.64781 28.4592 2.26947 28.2477 1.67913C28.0459 1.11687 26.8001 1.26548 26.8001 1.26548L22.6539 1.29131C22.6539 1.29131 22.3465 1.24938 22.1185 1.38565C21.8958 1.51929 21.7524 1.83074 21.7524 1.83074C21.7524 1.83074 21.0962 3.57781 20.221 5.06358C18.3747 8.19872 17.6365 8.36418 17.3348 8.16952C16.6329 7.71582 16.8081 6.34684 16.8081 5.37429C16.8081 2.33611 17.2689 1.06933 15.9108 0.741399C15.4601 0.632465 15.1284 0.56059 13.9758 0.548986C12.4964 0.533637 11.2442 0.553477 10.5352 0.900869C10.0635 1.13184 9.69965 1.64656 9.92127 1.67614C10.1953 1.71282 10.816 1.84347 11.145 2.29156C11.5699 2.86955 11.5549 4.16778 11.5549 4.16778C11.5549 4.16778 11.799 7.74427 10.9848 8.18862C10.4259 8.49333 9.65922 7.87117 8.01323 5.0269C7.16983 3.56995 6.53307 1.95952 6.53307 1.95952C6.53307 1.95952 6.41029 1.65854 6.19129 1.49757C5.92551 1.30254 5.55416 1.2404 5.55416 1.2404L1.61418 1.26623C1.61418 1.26623 1.02271 1.2827 0.805594 1.53988C0.612432 1.7686 0.790246 2.24177 0.790246 2.24177C0.790246 2.24177 3.87485 9.45839 7.36749 13.0952C10.57 16.4294 14.2068 16.2105 14.2068 16.2105Z" fill="white"/>
</svg>
