<svg width="37" height="41" viewBox="0 0 37 41" fill="none" xmlns="http://www.w3.org/2000/svg">
<mask id="mask0" mask-type="alpha" maskUnits="userSpaceOnUse" x="0" y="0" width="37" height="41">
<path d="M14.6484 1.10597L3.71519 7.51976C1.4134 8.87015 0 11.3346 0 13.9978V27.0703C0 29.7338 1.4134 32.1978 3.71519 33.5484L14.6484 39.9622C15.8177 40.6481 17.1263 40.994 18.4361 40.9998H18.5026C19.8122 40.994 21.1209 40.6481 22.2901 39.9622L33.2235 33.5484C35.5253 32.1978 36.9386 29.7338 36.9386 27.0703V13.9978C36.9386 11.3346 35.5253 8.87015 33.2235 7.51976L22.2901 1.10597C21.111 0.41423 19.7901 0.0683594 18.4692 0.0683594C17.1485 0.0683594 15.8277 0.41423 14.6484 1.10597Z" fill="white"/>
</mask>
<g mask="url(#mask0)">
<path fill-rule="evenodd" clip-rule="evenodd" d="M14.6484 1.10597L3.71519 7.51976C1.4134 8.87015 0 11.3346 0 13.9978V27.0703C0 29.7338 1.4134 32.1978 3.71519 33.5484L14.6484 39.9622C15.8177 40.6481 17.1263 40.994 18.4361 40.9998H18.5026C19.8122 40.994 21.1209 40.6481 22.2901 39.9622L33.2235 33.5484C35.5253 32.1978 36.9386 29.7338 36.9386 27.0703V13.9978C36.9386 11.3346 35.5253 8.87015 33.2235 7.51976L22.2901 1.10597C21.111 0.41423 19.7901 0.0683594 18.4692 0.0683594C17.1485 0.0683594 15.8277 0.41423 14.6484 1.10597Z" fill="url(#paint0_linear)"/>
</g>
<path fill-rule="evenodd" clip-rule="evenodd" d="M32.9941 16.9102C32.9936 16.8256 32.9738 16.74 32.9285 16.6612C32.7882 16.4188 32.4782 16.3363 32.2352 16.4756V16.4754L23.0788 21.7413C21.0865 23.0601 19.7643 25.2592 19.7626 27.3448V34.2446C19.7624 34.592 19.8828 34.9176 20.0451 35.1983C20.3763 35.7714 20.9961 36.1578 21.7052 36.1587C22.1418 36.1584 22.417 36.0808 22.8373 35.8391L28.8033 32.4063C32.3985 30.3645 32.8676 29.6238 32.9862 25.8126L32.9963 16.9115L32.9941 16.9102ZM12.6645 20.1056L6.79231 16.7215C6.49664 16.5512 6.17394 16.4705 5.85518 16.4705C5.205 16.4705 4.57243 16.8061 4.2246 17.4065C4.01101 17.7764 3.94226 18.0476 3.94226 18.522V25.7449C3.95919 29.3661 4.45563 30.1448 7.50953 32.0294L15.0837 36.3971L15.0858 36.3959C15.1583 36.4369 15.2409 36.4623 15.33 36.4623C15.605 36.4623 15.8271 36.24 15.8276 35.9658V35.9656L15.828 25.6306C15.6807 23.297 14.4394 21.1283 12.6645 20.1056ZM28.7402 14.1275C29.0421 13.9518 29.2781 13.7069 29.44 13.4245C29.7704 12.8484 29.7928 12.1171 29.4349 11.5036C29.2139 11.1264 29.0074 10.9277 28.5846 10.6865L22.6321 7.26553C19.0395 5.19013 18.1204 5.1857 14.7487 7.01056L6.99958 11.4755V11.4781C6.92621 11.5214 6.86174 11.5817 6.81643 11.6609C6.67654 11.9044 6.7617 12.2143 7.00556 12.354L16.2119 17.607C18.3654 18.6625 20.928 18.6646 22.7412 17.6113L28.7402 14.1275Z" fill="white"/>
<defs>
<linearGradient id="paint0_linear" x1="-0.302295" y1="21.5152" x2="37.2563" y2="19.9165" gradientUnits="userSpaceOnUse">
<stop stop-color="#8200FF"/>
<stop offset="1" stop-color="#00BCC3"/>
</linearGradient>
</defs>
</svg>
