<svg version="1" xmlns="http://www.w3.org/2000/svg" xmlns:xlink="http://www.w3.org/1999/xlink" viewBox="0 0 1101 1145.8"><switch><g><defs><path id="a" d="M0 0h1101v1145.8H0z"/></defs><clipPath id="b"><use xlink:href="#a" overflow="visible"/></clipPath><g clip-path="url(#b)"><defs><path id="c" d="M0 0h1101v1145.8H0z"/></defs><clipPath id="d"><use xlink:href="#c" overflow="visible"/></clipPath><path clip-path="url(#d)" fill="#F2F2F2" d="M1044.1 572.9c0 288.3-233.7 522.1-522.1 522.1S0 861.3 0 572.9c0-288.3 233.7-522 522.1-522s522 233.7 522 522"/><path clip-path="url(#d)" fill="#4D4D4D" d="M884.5 572.9c0 200.1-162.3 362.4-362.4 362.4S159.7 773.1 159.7 572.9 322 210.5 522.1 210.5s362.4 162.3 362.4 362.4"/><path clip-path="url(#d)" fill="#FFF" d="M522.1 860.4c-76.8 0-149-29.9-203.3-84.2-54.3-54.3-84.2-126.5-84.2-203.3 0-76.8 29.9-149 84.2-203.3 54.3-54.3 126.5-84.2 203.3-84.2s149 29.9 203.3 84.2c54.3 54.3 84.2 126.5 84.2 203.3 0 76.8-29.9 149-84.2 203.3-54.4 54.3-126.6 84.2-203.3 84.2m0-572.9c-157.4 0-285.5 128.1-285.5 285.5s128.1 285.5 285.5 285.5S807.6 730.4 807.6 573c-.1-157.5-128.1-285.5-285.5-285.5"/><path clip-path="url(#d)" fill="#F02051" d="M1098.2 515.7c-5.6-57.1-19.8-112.7-42.2-165.8-28.9-68.2-70.2-129.5-122.8-182.1L528.1 572.9H1101c0-19.2-1-38.3-2.8-57.2"/><path clip-path="url(#d)" fill="#F02051" d="M933.2 167.8c-15.3-15.3-31.3-29.6-48-42.9-40.8-32.6-85.7-59.4-134.1-79.9-70.7-29.9-145.7-45-223-45v572.9l405.1-405.1M1098.2 630.1c-5.6 57.1-19.8 112.7-42.2 165.8-28.9 68.2-70.2 129.5-122.8 182.1L528.1 572.9H1101c0 19.3-1 38.3-2.8 57.2"/><path clip-path="url(#d)" fill="#F02051" d="M933.2 978c-15.3 15.3-31.3 29.6-48 42.9-40.8 32.6-85.7 59.4-134.1 79.8-70.7 29.9-145.7 45-223 45V572.9L933.2 978"/><g opacity=".5" clip-path="url(#d)"><defs><path id="z" d="M467.3 50.9H522V1095h-54.7z"/></defs><clipPath id="A"><use xlink:href="#z" overflow="visible"/></clipPath><g clip-path="url(#A)"><defs><path id="B" d="M467.3 53.7v1038.4c18 1.9 36.3 2.9 54.7 2.9V50.9c-18.4 0-36.7.9-54.7 2.8"/></defs><clipPath id="C"><use xlink:href="#B" overflow="visible"/></clipPath><linearGradient id="D" gradientUnits="userSpaceOnUse" y1="1145.85" x2="1" y2="1145.85" gradientTransform="matrix(290.1743 0 0 -290.1743 404.368 333069.125)"><stop offset="0" stop-color="#fff"/><stop offset=".259" stop-color="#fff"/><stop offset=".814" stop-color="#231f20"/><stop offset="1" stop-color="#231f20"/></linearGradient><path clip-path="url(#C)" fill="url(#D)" d="M467.3 50.9H522V1095h-54.7z"/></g></g><path clip-path="url(#d)" fill="#FFF" d="M693.1 572.9c0 94.4-76.6 171-171 171s-171-76.6-171-171 76.6-171 171-171 171 76.6 171 171"/></g></g></switch></svg>