<?xml version="1.0" encoding="utf-8"?>
<!-- Generator: Adobe Illustrator 17.1.0, SVG Export Plug-In . SVG Version: 6.00 Build 0)  -->
<!DOCTYPE svg PUBLIC "-//W3C//DTD SVG 1.1//EN" "http://www.w3.org/Graphics/SVG/1.1/DTD/svg11.dtd">
<svg version="1.1" id="Layer_1" xmlns="http://www.w3.org/2000/svg" xmlns:xlink="http://www.w3.org/1999/xlink" x="0px" y="0px"
	 viewBox="0 0 465.5 1000" enable-background="new 0 0 465.5 1000" xml:space="preserve">
<path fill="#FFAD45" d="M463.1,852.3c-2.9-2.2-5.8-4.4-8.8-6.7c-6.9-4.2-12.5-8.3-19.4-13.9c-5.5-5.5-12.5-9.7-16.6-16.6
	c-2.8-4.2-4.2-9.7-5.5-15.2c0-1.4,1.4-4.2,2.8-4.2c1.4-1.4,4.2-1.4,5.5-2.8c4.2,23.5,18,38.8,38.8,48.5c1.3,0.7,2.6,1.4,3.8,2.1
	c0.1-1.9,0.2-3.8,0.3-5.7c-0.4-0.2-0.9-0.4-1.3-0.6c0.5-0.9,1-1.8,1.5-2.7c0-1.6,0.1-3.1,0.1-4.7c0-1.9,0.8-3.2,2-4
	c0-0.8-0.1-1.5-0.2-2.3c-3,3-6,6.1-8.9,9.4c-4.2-2.8-8.3-6.9-12.5-9.7c7.3-7.9,13.9-15.5,20.5-23.1c-0.1-3.2-0.1-6.5-0.1-9.7
	c-8.1,9.5-15,17.7-24.6,28.7c-4.2-5.5-6.9-9.7-8.3-13.9c10.9-12.4,22.2-24.4,33.5-36.5c0.1-1.7,0.2-3.3,0.3-5
	c-0.1-0.3-0.2-0.7-0.3-1c-0.5-1.4-0.1-2.9,0.7-4.1c0-0.1,0-0.1,0-0.2c-0.3,0.3-0.6,0.7-0.9,1c-5.5,6.9-12.5,11.1-20.8,13.9
	c-19.4,8.3-37.4,16.6-56.8,24.9c-15.2,5.5-31.9,8.3-48.5,9.7h-48.5c-20.8,0-40.2,1.4-58.2,8.3c-5.5,1.4-9.7,4.2-13.9,6.9
	c-2.8,1.4-5.5,2.8-9.7,1.4c2.8-4.2,5.5-8.3,8.3-12.5c4.2-9.7,9.7-19.4,13.9-29.1c8.3-18,22.2-31.9,38.8-44.3s34.6-20.8,55.4-26.3
	c1.4,0,1.4,0,2.8,0c0,0,0,0,1.4,0c-2.8,1.4-4.2,4.2-6.9,5.5c-6.9,2.8-13.9,6.9-19.4,11.1c-6.9,4.2-13.9,8.3-20.8,12.5
	c-4.2,1.4-6.9,4.2-9.7,6.9s-5.5,5.5-8.3,6.9c-16.6,11.1-26.3,29.1-34.6,45.7c-1.4,2.8,0,4.2,1.4,5.5c12.5-6.9,24.9-8.3,38.8-12.5
	c18-5.5,36-4.2,54-1.4c18,1.4,36-1.4,52.6-5.5c11.1-4.2,22.2-8.3,33.2-13.9c18-8.3,36-19.4,52.6-30.5c0.1-0.1,0.1-0.1,0.2-0.2
	c-0.4-3.4-0.4-6.7-0.4-10.1c-1.8,1.1-3.6,2.3-5.4,3.4c2.8-2.8,4.2-6.9,5.5-9.7l0.2-0.7c0-0.6,0.1-1.3,0.1-1.9
	c0.4-6.8,0.8-13.5,1-20.3c-1.9,1.8-4.1,3.5-6.8,4.9c-5.4-10.7-1.6-23.1,7.5-29.4c0.3-6.1,0.7-12.1,0.8-18.2c0-0.3,0-0.5,0-0.8
	c-4.1,4.1-8.3,8.2-15.2,5.5c-2.8-1.4-4.2-2.8-2.8-6.9c5.5,1.4,12.4,0,17.9,0c0-2.8-0.1-5.7-0.3-8.5c-1.8,0.2-3.6,0.2-5.2,0.2
	c-4.2,0-4.2-2.8-5.5-6.9h10.4c-0.2-4.2-0.3-8.5-0.1-12.7c0.3-4.8,0.7-9.6-0.2-14.3c-0.8-4.1-1.7-8.1-1.5-12.3c0-1.3,0.5-2.4,1.2-3.2
	c-2.6-3.8-4.8-7.9-7-11.5c-5.5-6.9-8.3-15.2-8.3-23.5c0-4.2-1.4-6.9-1.4-11.1c0-2.8-1.4-5.5,0-9.7c2.8,6.9,5.5,13.9,8.3,20.8
	c1.9,4.1,4,8.1,6.2,12c0.3-3.4,0.9-6.8,1.4-10.3c1.2-8.4,1.3-16.8,1.3-25.3c0-12.8-1.7-25.6-0.9-38.4c-6.2,13.8-7.3,28.1-5.2,43.9
	c1.4,5.5,1.4,11.1,1.4,16.6c-8.3-15.2-12.5-31.9-5.5-49.9c1.4-2.8,1.4-4.2,1.4-6.9c1.4-8.3,4.2-16.6,8.3-24.9
	c0.1-0.2,0.3-0.4,0.4-0.7c-0.2-1.7-0.3-3.3-0.5-5c-0.2-1.5-0.2-3-0.2-4.5c0-1.6,0.7-2.8,1.6-3.6c-1-9.7-1.7-19.4,0.3-29.2
	c0.2-1.1,0.7-1.9,1.3-2.5c-0.8-2.4-1.7-4.8-2.9-7.2c-2-7.1-2.5-9.7,1.1-12.3c-1.5-6.1-1-12.7-0.6-18.9c0.1-2.2,0.6-4.4,1-6.5
	c-1.2-1.9-1-4.6,0.4-6.3c0-0.5,0-1-0.1-1.5c-0.9,1.5-1.9,3.3-3.3,5.3c-12.5-4.2-23.5-9.7-29.1-20.8c2.8-4.2,5.5-9.7,6.9-13.9
	c8.6,7.4,16.2,14.8,24.6,22.2c0.2-0.5,0.5-1,0.8-1.4c-0.1-0.7-0.2-1.3-0.3-2c-0.1-1.1,0-2,0.4-2.9c-5.1-3.9-9.1-7.9-13-11.8
	c-8.3-8.3-8.3-11.1-1.4-19.4c0-1.4,1.4-1.4,1.4-1.4c4,4.8,8.1,9.7,12.7,15.1c0-0.1,0-0.3,0.1-0.4c-0.1-0.7-0.1-1.4,0-2.1
	c-0.1-0.6-0.1-1.1-0.1-1.7c0-0.3,0-0.7,0-1c-0.1-1,0.1-2,0.5-2.8c-3.5-4.3-6.4-8.8-9-14c2.8-4.2,5.5-8.3,8.3-12.5
	c0.2,0.2,0.3,0.3,0.5,0.5c-0.3-1.1-0.6-2.1-0.7-3.2c-0.5-4.7,0.4-9.6,0.9-14.4c-3.7,5.9-7.7,11.7-11.7,17.1
	c-20.8,29.1-37.4,60.9-51.2,94.2c-4.2,9.7-6.9,20.8-9.7,30.5c-9.7,34.6-5.5,67.9,8.3,99.7c0,1.4,1.4,2.8,1.4,4.2
	c-11.1-16.6-19.4-34.6-22.2-55.4c-1.4-16.6-2.8-33.2-2.8-49.9c0-11.1,2.8-23.5,4.2-34.6c2.8-29.1,12.5-55.4,24.9-81.7
	c6.9-15.2,16.6-29.1,26.3-42.9c9.9-14.9,20.3-29.8,30.7-44.7c0-0.2,0-0.5,0-0.7c0-3.6,0-7.2,0.1-10.8c-0.5,0.7-1,1.4-1.6,2.2
	c-5.5-6.9-9.7-13.9-13.9-20.8c4.2-5.5,6.9-11.1,11.1-15.2c1.7,1.7,3.5,3.5,4.9,5.6c0.1-4,0.2-8,0.3-11.9c-0.3-0.6-0.7-1.3-1-1.9
	c0.3-0.3,0.7-0.7,1-1.1c0.1-5.1,0.2-10.2,0.3-15.3c-3.1,4.5-6.1,8-8.2,12.2c-2.8-2.8-5.5-4.2-6.9-6.9c-4.2-4.2-4.2-8.3-1.4-12.5
	c2.8-4.2,8.3-5.5,12.5-2.8c1.7,0.8,2.9,2.2,4.1,3.4c0-2.5,0-5,0-7.5c0-0.6,0.1-1.2,0.3-1.7c-0.7-1.3-1.2-2.6-1.7-3.9
	c-0.5-2.7,0-5.3,1.3-7.5c-0.2-1.1-0.1-2.4,0.4-3.4c0-0.3-0.1-0.7,0-1c-0.4-0.8-0.5-1.8-0.4-2.7c-1.4,0.8-2.7,2-4,3.6
	c-4.2,4.2-1.4,9.7,0,15.2c-5.5,1.4-11.1,0-13.9,4.2c-2.8,4.2-5.5,8.3-5.5,12.5c-11.1,2.8-15.2,12.5-13.9,23.5
	c-6.9,0-12.5,1.4-16.6,6.9s-2.8,12.5,0,18c-1.4,0-4.2,0-5.5,1.4c-6.9,1.4-11.1,4.2-15.2,9.7c-4.2,5.5-5.5,12.5,0,19.4
	c-15.2,8.3-18,12.5-13.9,27.7c-1.4,0-2.8,1.4-4.2,1.4c-9.7,5.5-11.1,9.7-8.3,20.8c1.4,4.2,2.8,9.7,4.2,13.9H356
	c-9.7,0-15.2,8.3-11.1,16.6c1.4,4.2,4.2,8.3,5.5,13.9c-2.8-1.4-5.5-4.2-8.3-5.5c-2.8-1.4-6.9-1.4-11.1-2.8
	c-1.4-4.2-2.8-8.3-8.3-11.1c-5.5-1.4-9.7-2.8-15.2-1.4c-2.8-4.2-2.8-11.1-9.7-11.1h-15.2c-4.2-4.2-8.3-6.9-12.5-9.7
	c-5.5-2.8-9.7,0-13.9,2.8c-8.3-13.9-16.6-19.4-30.5-6.9c-9.7-5.5-20.8-12.5-31.9-2.8c-2.8-1.4-5.5-4.2-8.3-5.5
	c-6.9-4.2-13.9-4.2-18,4.2c-1.4,1.4-2.8,4.2-2.8,5.5c-12.5-6.9-22.2-9.7-30.5,4.2c-16.6-4.2-23.5-1.4-27.7,11.1
	c-6.9,0-15.2-2.8-22.2,2.8c-2.8,2.8-5.5,5.5-5.5,11.1c-2.8,0-4.2,1.4-5.5,1.4c-5.5,1.4-11.1,5.5-15.2,11.1
	c-2.8,5.5-2.8,8.3,4.2,11.1c8.3,2.8,15.2,5.5,23.5,1.4c6.9,12.5,6.9,13.9,23.5,9.7c1.4,13.9,9.7,19.4,26.3,18c0,6.9,0,12.5,5.5,18
	s12.5,4.2,19.4,4.2c-1.4,6.9-2.8,13.9,2.8,19.4c4.2,5.5,11.1,5.5,18,6.9c-2.8,11.1-2.8,12.5,4.2,20.8c-15.2-4.2-18-4.2-23.5,6.9
	c-2.8-1.4-5.5-2.8-6.9-2.8c-2.8,0-6.9-1.4-9.7,0c-5.5,1.4-8.3,6.9-5.5,15.2c-4.2,0-8.3-1.4-12.5-1.4h-5.5c-8.3,0-9.7,4.2-6.9,11.1
	c0,1.4,1.4,1.4,1.4,2.8c0,0,0,0,0,1.4c-2.8,0-4.2,0-6.9-1.4c-4.2,0-6.9-1.4-11.1-1.4c-9.7,0-15.2,6.9-12.5,15.2
	c0,1.4,1.4,2.8,1.4,5.5c-2.8,0-6.9,1.4-9.7,1.4c-4.2,1.4-6.9,1.4-11.1,4.2c-5.5,2.8-6.9,8.3-4.2,15.2c0,1.4,1.4,1.4,2.8,2.8
	c-2.8,0-5.5,1.4-8.3,1.4c-6.9,0-12.5,2.8-16.6,6.9c-8.3,5.5-8.3,11.1-1.4,18c-4.2,4.2-8.3,8.3-12.5,11.1c-6.9,6.9-9.7,13.9-6.9,23.5
	c-6.9,5.5-13.9,12.5-8.3,23.5c-1.4,1.4-2.8,2.8-4.2,4.2c-8.3,8.3-9.7,19.4-2.8,29.1c2.8,2.8,4.2,6.9,5.5,11.1
	c1.4,6.9,6.9,11.1,15.2,5.5c4.2-2.8,8.3-4.2,12.5-5.5c4.2-1.4,8.3-4.2,11.1-8.3c4.2-4.2,5.5-9.7,8.3-13.9c4.2,0,8.3,2.8,11.1,1.4
	c4.2-1.4,6.9-4.2,9.7-6.9c1.4-2.8,2.8-5.5,5.5-8.3c8.3,8.3,13.9,0,19.4-2.8c1.4,4.2,2.8,8.3,5.5,11.1c2.8,4.2,4.2,4.2,8.3,1.4
	c2.8-2.8,5.5-5.5,8.3-8.3c1.4-1.4,2.8-4.2,4.2-6.9c4.2,2.8,6.9,6.9,12.5,4.2c4.2-1.4,8.3-4.2,13.9-5.5c-1.4,2.8-4.2,5.5-5.5,6.9
	c-2.8,5.5-2.8,8.3,0,12.5c4.2,5.5,8.3,6.9,13.9,1.4c1.4-1.4,4.2-2.8,5.5-4.2c0,1.4,0,1.4,0,2.8c0,9.7,4.2,12.5,13.9,9.7
	c2.8-1.4,5.5-2.8,9.7-4.2c0,5.5-1.4,9.7-1.4,13.9c0,5.5,1.4,6.9,5.5,6.9h15.2c-1.4,5.5-2.8,11.1,4.2,13.9c4.2,1.4,9.7,1.4,16.6,1.4
	c1.4,4.2,4.2,8.3,9.7,11.1c5.5,2.8,9.7,0,15.2-1.4c0,2.8,0,4.2-1.4,5.5c-1.4,8.3,4.2,13.9,12.5,12.5c4.2-1.4,8.3-2.8,12.5-4.2
	c2.8,2.8,4.2,5.5,6.9,6.9c5.5,2.8,11.1,2.8,15.2-1.4c1.4-1.4,4.2-2.8,6.9-4.2c0,4.2-1.4,8.3-1.4,12.5c-8.3,4.2-16.6,8.3-23.5,12.5
	c-31.9,16.6-55.4,41.6-69.3,74.8c-1.4,5.5-4.2,9.7-6.9,13.9c-2.8,5.5-6.9,9.7-12.5,12.5c-2.8,1.4-4.2,2.8-6.9,4.2
	c-4.2,4.2-2.8,8.3,2.8,9.7c13.9,1.4,29.1,2.8,41.6-8.3c4.2-4.2,9.7-5.5,15.2-6.9c13.9-2.8,26.3-4.2,40.2-4.2
	c20.8,1.4,41.6,1.4,62.3-1.4c12.5-1.4,23.5-4.2,34.6-9.7c4.2-1.4,9.7-4.2,13.9-5.5c0,1.4,1.4,2.8,1.4,2.8
	c1.4,15.2,9.7,24.9,20.8,34.6c9.7,6.9,19.4,13.9,29.1,20.8c3.7,2.4,7.1,5.2,10.4,8C462.3,861.5,462.7,856.9,463.1,852.3z
	 M430.7,788.8c5.5-2.8,12.5-5.5,18-8.3c0,0,0,1.4,1.4,1.4c-6.9,5.5-13.9,11.1-20.8,18C428,794.3,426.6,790.2,430.7,788.8z
	 M313,704.3c0-8.3,1.4-15.2,8.3-20.8c5.5-2.8,12.5-4.2,16.6,0C332.4,694.6,322.7,702.9,313,704.3z M206.4,484.1
	c0,2.8-1.4,2.8-4.2,2.8c-16.6-1.4-30.5,4.2-45.7,11.1c-11.1,5.5-22.2,13.9-33.2,20.8c-20.8,13.9-37.4,33.2-51.2,54
	c-1.4,1.4-1.4,2.8-1.4,6.9c2.8-1.4,4.2-1.4,5.5-2.8c2.8-1.4,4.2-2.8,6.9-2.8c9.7-1.4,20.8-4.2,30.5-5.5c20.8-1.4,41.6-1.4,60.9,5.5
	c15.2,5.5,29.1,11.1,41.6,20.8c8.3,5.5,15.2,12.5,22.2,18c11.1,8.3,22.2,16.6,34.6,22.2c12.5,5.5,24.9,12.5,37.4,18
	c13.9,5.5,27.7,11.1,41.6,15.2c11.1,4.2,22.2,5.5,34.6,8.3c-13.9,1.4-36-1.4-52.6-6.9c-6.9-2.8-15.2-5.5-23.5-6.9
	c-30.5-8.3-56.8-22.2-80.3-41.6c-13.9-11.1-26.3-23.5-42.9-31.9s-33.2-13.9-52.6-13.9c-29.1,0-55.4,6.9-83.1,18
	c-1.4,0-2.8,1.4-5.5,1.4c9.7-23.5,22.2-44.3,38.8-60.9c8.3-8.3,18-15.2,27.7-22.2c22.2-16.6,47.1-26.3,73.4-31.9
	C195.3,479.9,200.8,481.3,206.4,484.1z M199.4,466.1c1.4,1.4,2.8,2.8,4.2,4.2C199.4,470.2,198.1,470.2,199.4,466.1z M265.9,610.1
	c4.2,1.4,8.3,1.4,12.5,1.4c0,6.9,0,13.9,6.9,16.6c5.5,2.8,12.5,2.8,19.4,2.8c1.4,4.2,2.8,9.7,5.5,15.2c-24.9-9.7-54-27.7-59.6-34.6
	c2.8-2.8,4.2-5.5,6.9-8.3C259,606,261.8,608.7,265.9,610.1z M260.4,593.5c2.8,4.2,5.5,6.9,8.3,11.1
	C261.8,603.2,260.4,601.8,260.4,593.5z M285.3,618.4c2.8,2.8,6.9,4.2,9.7,6.9C286.7,625.3,286.7,625.3,285.3,618.4z M241,589.3
	c4.2,0,8.3,1.4,13.9,1.4c0,2.8,0,5.5,1.4,8.3c-4.2,4.2-6.9,6.9-11.1,11.1c-2.8-2.8-5.5-4.2-8.3-5.5c-2.8-1.4-4.2-2.8-6.9-5.5
	c2.8-2.8,4.2-5.5,6.9-8.3C236.8,590.7,239.6,589.3,241,589.3z M242.4,565.8c4.2,6.9,9.7,12.5,13.9,20.8h-11.1
	c-1.4,0-4.2-2.8-4.2-4.2C239.6,576.9,238.2,572.7,242.4,565.8z M225.8,597.6c-5.5-4.2-9.7-6.9-15.2-11.1
	c6.9-9.7,12.5-16.6,19.4-23.5c1.4,0,4.2,1.4,5.5,1.4v15.2C236.8,588,231.3,592.1,225.8,597.6z M231.3,554.7c-6.9,1.4-8.3,0-6.9-5.5
	c0-2.8,1.4-6.9,5.5-6.9c2.8,5.5,5.5,11.1,6.9,16.6C232.7,560.2,232.7,557.5,231.3,554.7z M218.8,515.9c4.2,5.5,5.5,12.5,8.3,18
	C213.3,532.5,211.9,527,218.8,515.9z M221.6,539.5c-1.4,4.2-2.8,6.9-2.8,11.1c0,2.8,2.8,6.9,5.5,11.1c-5.5,5.5-11.1,12.5-18,19.4
	c-6.9-4.2-13.9-6.9-20.8-9.7c8.3-11.1,15.2-20.8,23.5-33.2C213.3,538.1,217.5,539.5,221.6,539.5z M152.4,520.1
	c5.5,4.2,11.1,6.9,18,11.1v1.4c-6.9,1.4-13.9,2.8-20.8,2.8c-1.4,0-1.4,0-2.8,0c-6.9-2.8-15.2-6.9-23.5-9.7c2.8-1.4,5.5-2.8,6.9-5.5
	C137.1,514.5,144,513.2,152.4,520.1z M144,510.4c8.3-4.2,13.9-8.3,20.8-11.1c2.8-1.4,5.5-1.4,8.3,1.4c8.3,6.9,16.6,15.2,24.9,22.2
	c2.8,2.8,6.9,6.9,9.7,9.7h-23.5c-2.8,0-5.5-1.4-8.3-2.8C166.2,524.2,156.5,517.3,144,510.4z M137.1,538.1
	c-16.6,8.3-31.9,15.2-48.5,22.2c6.9-11.1,18-19.4,27.7-30.5C124.7,532.5,130.2,535.3,137.1,538.1z M146.8,542.2
	c-6.9,11.1-13.9,19.4-26.3,20.8c-9.7,1.4-19.4,1.4-29.1,2.8C109.4,554.7,126,545,146.8,542.2z M148.2,547.8
	c2.8-4.2,6.9-8.3,12.5-8.3c4.2,0,8.3-1.4,12.5-1.4c0,1.4,0,1.4,0,1.4c-6.9,8.3-12.5,15.2-19.4,23.5c0,0-1.4,1.4-2.8,1.4
	c-5.5,0-9.7,0-15.2-1.4C141.3,557.5,144,551.9,148.2,547.8z M173.1,546.4c4.2-4.2,6.9-8.3,13.9-8.3c5.5,0,11.1-1.4,16.6,0
	c-5.5,9.7-11.1,19.4-19.4,27.7c-1.4,1.4-5.5,4.2-8.3,2.8c-5.5-1.4-11.1-2.8-18-5.5C163.4,557.5,169,551.9,173.1,546.4z M214.7,513.2
	c-2.8,4.2-4.2,8.3-6.9,12.5c-11.1-9.7-22.2-18-31.9-29.1c8.3-4.2,16.6-5.5,24.9-4.2c1.4,5.5,1.4,9.7,2.8,13.9
	C206.4,511.8,211.9,510.4,214.7,513.2z M209.1,491c4.2,5.5,5.5,9.7,5.5,15.2C207.8,504.8,206.4,500.7,209.1,491z M311.6,633.7
	c5.5,2.8,11.1,2.8,15.2,6.9C317.2,647.5,313,646.1,311.6,633.7z M329.6,646.1c1.4,2.8,2.8,5.5,4.2,11.1c-5.5-1.4-11.1-4.2-15.2-5.5
	v-1.4C321.3,648.9,325.5,647.5,329.6,646.1z M343.5,657.2c-6.9-1.4-8.3-6.9-9.7-12.5c6.9,2.8,12.5,4.2,19.4,6.9
	C350.4,655.8,347.6,658.6,343.5,657.2z M356,658.6c1.4,2.8,1.4,4.2,2.8,8.3c-4.2-1.4-6.9-1.4-11.1-2.8
	C351.8,660,353.2,660,356,658.6z M441.8,668.3c1.4,1.4,2.8,2.8,4.2,4.2c-11.1,4.2-29.1,5.5-37.4,2.8c1.4-1.4,4.2-2.8,5.5-4.2
	C422.4,676.6,430.7,676.6,441.8,668.3z M419.7,662.7c6.9,0,13.9,0,20.8-1.4c-4.2,6.9-8.3,9.7-15.2,8.3
	C421.1,668.3,419.7,666.9,419.7,662.7z M429.4,686.3c-2.8,6.9-4.2,12.5-6.9,18c-2.8,6.9-8.3,9.7-13.9,12.5c-2.8,1.4-5.5,0-5.5-4.2
	v-4.2c1.4-6.9,5.5-12.5,9.7-16.6c2.8-2.8,6.9-2.8,11.1-4.2C425.2,687.7,426.6,687.7,429.4,686.3z M397.5,671.1
	c-4.2-1.4-5.5-2.8-5.5-12.5c8.3,1.4,15.2,2.8,22.2,2.8C408.6,669.7,404.4,672.4,397.5,671.1z M403,689.1c0,0,1.4,0,2.8,0
	c-2.8,5.5-5.5,9.7-8.3,13.9s-8.3,8.3-13.9,8.3c-1.4,0-4.2-1.4-5.5-2.8c-1.4-1.4-1.4-4.2,0-4.2C383.7,697.4,389.2,687.7,403,689.1z
	 M380.9,690.4c-4.2,5.5-6.9,9.7-11.1,13.9c-2.8,2.8-6.9,5.5-9.7,6.9c-2.8,1.4-5.5,0-8.3-1.4c-1.4-1.4-2.8-4.2-4.2-6.9
	C358.7,697.4,365.7,686.3,380.9,690.4z M339.3,697.4c4.2-8.3,6.9-11.1,13.9-9.7C346.3,696,344.9,698.8,339.3,697.4z M369.8,666.9
	c-5.5-1.4-9.7-8.3-6.9-13.9c6.9,1.4,15.2,2.8,22.2,5.5C383.7,665.5,376.7,669.7,369.8,666.9z M386.4,668.3c1.4,1.4,1.4,2.8,2.8,6.9
	c-4.2-1.4-5.5-1.4-9.7-2.8C383.7,669.7,385,668.3,386.4,668.3z M336.6,714c2.8-1.4,5.5-2.8,8.3-4.2c9.7,8.3,11.1,8.3,26.3,0
	c6.9,12.5,15.2,6.9,23.5,2.8c1.4,2.8,2.8,4.2,4.2,6.9c-4.2,1.4-8.3,4.2-12.5,5.5c-4.2,1.4-6.9,2.8-11.1,0c-1.4-1.4-4.2-1.4-6.9-1.4
	c-11.1-1.4-22.2-1.4-31.9-2.8c-2.8,0-5.5-1.4-8.3-1.4C331,716.8,333.8,715.4,336.6,714z M296.4,737.5c5.5-2.8,11.1-6.9,18-9.7
	c2.8-1.4,5.5-2.8,8.3-2.8c11.1,1.4,22.2,1.4,33.2,2.8c5.5,0,11.1,1.4,16.6,2.8v1.4c-8.3,2.8-18,5.5-26.3,8.3h-4.2
	c-9.7-2.8-19.4-2.8-29.1-1.4h-16.6V737.5z M288.1,745.8c12.5-1.4,24.9-1.4,36-1.4h6.9c-9.7,5.5-18,8.3-27.7,9.7
	c-8.3,1.4-15.2,2.8-23.5,4.2c-4.2,0-8.3,1.4-12.5,1.4C272.9,752.8,278.4,745.8,288.1,745.8z M268.7,763.9c5.5-1.4,11.1-1.4,16.6-1.4
	c-8.3,8.3-19.4,9.7-31.9,8.3C256.2,763.9,263.2,765.2,268.7,763.9z M259,774.9l1.4,1.4c-5.5,5.5-12.5,9.7-20.8,13.9
	C243.8,780.5,252.1,779.1,259,774.9z M246.5,794.3c0,0,0-1.4-1.4-1.4c6.9-4.2,12.5-8.3,19.4-12.5
	C263.2,792.9,253.5,791.6,246.5,794.3z M267.3,787.4c4.2-6.9,8.3-12.5,15.2-16.6c5.5-2.8,12.5-5.5,18-8.3c2.8-1.4,6.9-1.4,9.7-2.8
	c0,0,0,0,0,1.4c-9.7,8.3-20.8,18-31.9,24.9C275.6,788.8,271.5,790.2,267.3,787.4z M303.3,786h-12.5v-1.4c1.4-2.8,4.2-4.2,6.9-6.9
	c12.5-8.3,23.5-18,36-26.3c2.8-1.4,6.9-2.8,9.7-4.2c0,0,0,1.4,1.4,1.4c0,1.4-1.4,2.8-2.8,2.8c-12.5,11.1-23.5,22.2-36,33.2
	C304.7,786,303.3,786,303.3,786z M314.4,784.6c11.1-11.1,22.2-20.8,34.6-31.9c2.8-2.8,5.5-5.5,9.7-8.3c5.5-4.2,11.1-4.2,16.6-6.9
	c-9.7,16.6-24.9,30.5-38.8,42.9C331,786,324.1,787.4,314.4,784.6z M368.4,780.5c-8.3,5.5-18,8.3-27.7,6.9c-1.4-1.4-1.4-2.8,0-2.8
	c13.9-12.5,27.7-26.3,38.8-41.6c6.9-9.7,16.6-13.9,27.7-16.6c-6.9,9.7-12.5,20.8-19.4,30.5C382.3,765.2,376.7,773.5,368.4,780.5z
	 M393.4,772.2c-4.2,1.4-8.3,4.2-11.1,5.5c-1.4,1.4-4.2,1.4-6.9,2.8c0-1.4,1.4-2.8,1.4-4.2c12.5-16.6,23.5-34.6,36-51.2
	c2.8-4.2,6.9-8.3,9.7-13.9l11.1,11.1c-2.8,6.9-6.9,13.9-9.7,20.8C416.9,755.5,408.6,768,393.4,772.2z M455.7,714
	c2.8,0,4.2,0,6.9-1.4c-1.4,4.2-2.8,8.3-2.8,11.1c-2.8,9.7-6.9,19.4-16.6,23.5c-2.8,1.4-5.5,4.2-8.3,5.5c-4.2,2.8-9.7,5.5-15.2,8.3
	c5.5-11.1,11.1-22.2,15.2-33.2c2.8-8.3,9.7-15.2,15.2-22.2C451.5,708.4,452.9,711.2,455.7,714z M452.9,682.1
	c-1.4,5.5-4.2,11.1-5.5,16.6c-1.4,5.5-4.2,11.1-9.7,13.9s-6.9,2.8-9.7-2.8v-5.5C429.4,693.2,439.1,683.5,452.9,682.1z M441.8,632.3
	c0-1.4,0-4.2-1.4-5.5c2.8-1.4,4.2-2.8,6.9-4.2c-5.5-1.4-8.3-2.8-13.9-2.8c1.4-2.8,2.8-4.2,2.8-5.5c8.3,5.5,16.6,11.1,26.3,16.6
	C455.7,633.7,448.8,633.7,441.8,632.3z M205,362.2c0,0,1.4,0,2.8,0c4.2,4.2,8.3,8.3,12.5,12.5v1.4c-4.2,0-8.3,1.4-11.1,0
	c-4.2,0-8.3,0-9.7-5.5C198.1,367.7,200.8,365,205,362.2z M173.1,342.8c8.3-5.5,16.6-4.2,26.3-4.2c8.3,0,8.3,1.4,11.1,9.7
	c-6.9,1.4-8.3,2.8-11.1,9.7C184.2,360.8,177.3,358,173.1,342.8z M214.7,338.6c4.2-4.2,8.3-5.5,12.5-4.2c4.2,2.8,5.5,8.3,4.2,16.6
	c-2.8,0-6.9-1.4-9.7-1.4C218.8,345.6,217.5,342.8,214.7,338.6z M224.4,380.2c4.2,5.5,6.9,9.7,11.1,15.2c-6.9,0-12.5-1.4-18-6.9
	C220.2,385.7,221.6,383,224.4,380.2z M236.8,402.4c1.4,0,1.4,0,2.8-1.4c2.8,4.2,5.5,9.7,8.3,13.9c-2.8,1.4-4.2,1.4-5.5,1.4
	c-5.5,1.4-11.1-1.4-12.5-4.2C229.9,409.3,231.3,406.5,236.8,402.4z M250.7,421.7c2.8,6.9,4.2,12.5,6.9,19.4
	c-8.3,4.2-15.2,1.4-20.8-8.3C239.6,427.3,243.8,423.1,250.7,421.7z M259,448.1c1.4,5.5,1.4,11.1,2.8,18c-8.3,1.4-13.9,2.8-19.4-4.2
	C245.2,453.6,250.7,449.4,259,448.1z M250.7,481.3c1.4-5.5,5.5-8.3,12.5-9.7c1.4,6.9,2.8,12.5,4.2,19.4c-6.9,2.8-12.5-1.4-16.6-4.2
	C249.3,486.8,249.3,482.7,250.7,481.3z M267.3,499.3c0,0,0,0,1.4,0c2.8,6.9,5.5,12.5,6.9,19.4c-6.9,1.4-16.6-2.8-16.6-5.5
	C259,506.2,263.2,502.1,267.3,499.3z M279.8,524.2c2.8,6.9,6.9,11.1,8.3,18c-6.9,0-13.9,0-18-5.5C271.5,531.2,275.6,527,279.8,524.2
	z M307.5,569.9c0-1.4,1.4-1.4,2.8-2.8c4.2,4.2,8.3,8.3,12.5,11.1c0,0,1.4,1.4,1.4,2.8c-1.4,1.4-2.8,2.8-4.2,2.8
	c-4.2,2.8-13.9,1.4-15.2-1.4C301.9,578.3,304.7,574.1,307.5,569.9z M292.2,567.2c-4.2-1.4-6.9-4.2-5.5-8.3c1.4-4.2,4.2-8.3,6.9-9.7
	c4.2,4.2,6.9,8.3,11.1,13.9C300.6,567.2,296.4,568.6,292.2,567.2z M329.6,585.2c4.2,4.2,9.7,8.3,13.9,12.5c-9.7,6.9-15.2,6.9-20.8,0
	C322.7,592.1,324.1,589.3,329.6,585.2z M343.5,610.1c1.4-2.8,2.8-6.9,5.5-9.7c4.2,4.2,8.3,6.9,12.5,9.7c-2.8,6.9-6.9,9.7-12.5,8.3
	S342.1,615.7,343.5,610.1z M360.1,594.9c-11.1-9.7-22.2-18-33.2-27.7c-31.9-27.7-48.5-65.1-55.4-106.6c-1.4-9.7-2.8-19.4-5.5-29.1
	c-5.5-23.5-19.4-42.9-34.6-60.9c-2.8-2.8-5.5-6.9-8.3-11.1c2.8,0,4.2,0,5.5,1.4c20.8,4.2,42.9,8.3,62.3,16.6
	c8.3,4.2,16.6,6.9,26.3,11.1c2.8,1.4,4.2,2.8,4.2,5.5s1.4,5.5,2.8,9.7c-8.3-4.2-15.2-8.3-23.5-11.1c-8.3-2.8-16.6-5.5-24.9-6.9
	s-16.6-5.5-26.3-2.8c2.8,2.8,4.2,5.5,5.5,6.9c2.8,2.8,5.5,5.5,8.3,9.7c5.5,11.1,12.5,23.5,16.6,34.6c4.2,11.1,6.9,22.2,9.7,33.2
	c5.5,23.5,15.2,44.3,24.9,66.5c8.3,18,19.4,34.6,34.6,49.9c6.9,5.5,12.5,12.5,18,19.4c0,0,0,0,0,1.4
	C364.3,599,361.5,597.6,360.1,594.9z M238.2,353.9v-5.5c0-1.4,0-1.4,1.4-2.8c1.4-4.2,5.5-5.5,8.3-2.8c1.4,1.4,2.8,4.2,4.2,6.9
	c1.4,1.4,0,4.2,1.4,6.9C247.9,355.3,243.8,355.3,238.2,353.9z M259,356.6c1.4-5.5,1.4-9.7,6.9-11.1c4.2-1.4,6.9,0,9.7,2.8
	c2.8,4.2,4.2,8.3,1.4,12.5C270.1,359.4,264.5,358,259,356.6z M281.2,363.6c4.2-8.3,5.5-9.7,9.7-9.7c5.5,1.4,6.9,4.2,8.3,15.2
	C293.6,367.7,288.1,366.3,281.2,363.6z M354.6,427.3c2.8,1.4,5.5,1.4,8.3,2.8c9.7,4.2,9.7,4.2,9.7,15.2v15.2
	c-6.9-1.4-12.5-4.2-19.4-5.5C354.6,445.3,351.8,437,354.6,427.3z M371.2,565.8c-4.2-1.4-8.3-2.8-9.7-8.3c0-6.9,4.2-8.3,8.3-11.1h1.4
	c5.5,6.9,9.7,13.9,15.2,22.2C380.9,569.9,375.3,567.2,371.2,565.8z M393.4,572.7c5.5,5.5,11.1,11.1,16.6,18
	c-6.9,2.8-8.3,2.8-13.9,1.4c-2.8,0-5.5-1.4-6.9-2.8C383.7,583.8,385,578.3,393.4,572.7z M368.4,511.8c-2.8-8.3-5.5-15.2-6.9-22.2
	c4.2-1.4,8.3-2.8,12.5-4.2c1.4,6.9,2.8,13.9,4.2,22.2C375.3,509,372.6,510.4,368.4,511.8z M368.4,538.1
	c-11.1-1.4-13.9-4.2-15.2-12.5c-1.4-5.5,0-6.9,6.9-9.7C362.9,524.2,365.7,531.2,368.4,538.1z M357.3,459.1
	c5.5,2.8,11.1,4.2,16.6,6.9c0,5.5,1.4,9.7,1.4,13.9c-5.5,1.4-9.7,2.8-13.9,4.2C357.3,474.4,356,466.1,357.3,459.1z M372.6,430.1
	c-5.5-2.8-12.5-4.2-18-6.9c2.8-9.7,4.2-19.4,5.5-29.1c6.9,1.4,11.1,4.2,16.6,5.5C375.3,409.3,374,419,372.6,430.1z M357.3,509
	c-11.1-1.4-15.2-6.9-18-15.2c-1.4-2.8,0-5.5,1.4-6.9c2.8-1.4,4.2-2.8,6.9-4.2C351.8,491,353.2,499.3,357.3,509z M342.1,445.3
	c1.4,11.1,2.8,20.8,4.2,30.5c-6.9,0-12.5-4.2-16.6-9.7c-5.5-6.9-4.2-13.9,4.2-18C336.6,446.7,339.3,446.7,342.1,445.3z M322.7,423.1
	c-1.4-5.5,1.4-8.3,5.5-9.7c5.5-1.4,9.7-1.4,15.2,1.4c-1.4,8.3-1.4,16.6-2.8,24.9C331,437,326.9,430.1,322.7,423.1z M344.9,410.7
	c-5.5-2.8-9.7-5.5-13.9-8.3c-5.5-4.2-5.5-9.7-5.5-15.2s5.5-6.9,9.7-8.3c5.5-2.8,9.7,1.4,13.9,4.2C349,389.9,347.6,399.6,344.9,410.7
	z M322.7,378.8c-5.5-2.8-11.1-4.2-15.2-6.9c2.8-5.5,5.5-9.7,12.5-8.3c2.8,1.4,5.5,4.2,6.9,8.3C328.3,376,325.5,377.4,322.7,378.8z
	 M367,614.3c5.5,2.8,11.1,6.9,16.6,9.7c-6.9,8.3-12.5,9.7-18,5.5C361.5,625.3,361.5,619.8,367,614.3z M358.7,572.7
	c-11.1-15.2-22.2-29.1-30.5-45.7c-5.5-9.7-11.1-20.8-15.2-31.9c-4.2-13.9-6.9-27.7-11.1-41.6c-2.8-11.1-6.9-22.2-11.1-33.2
	c-2.8-6.9-5.5-13.9-8.3-20.8c6.9,1.4,26.3,8.3,30.5,12.5c1.4,1.4,2.8,4.2,2.8,5.5c1.4,2.8,1.4,6.9,4.2,9.7
	c4.2,5.5,8.3,9.7,12.5,15.2c-1.4,0-1.4,1.4-2.8,1.4c-11.1,8.3-12.5,13.9-1.4,26.3c1.4,1.4,2.8,1.4,4.2,2.8c2.8,1.4,5.5,4.2,8.3,5.5
	c-1.4,1.4-4.2,2.8-5.5,5.5c-1.4,1.4-2.8,4.2-2.8,6.9c2.8,9.7,5.5,18,16.6,19.4c1.4,0,2.8,1.4,4.2,1.4c-9.7,13.9-6.9,23.5,11.1,30.5
	c-1.4,1.4-1.4,2.8-2.8,4.2c-6.9,9.7-5.5,15.2,5.5,20.8c2.8,1.4,5.5,2.8,8.3,2.8c2.8,1.4,6.9,1.4,9.7,2.8c-1.4,1.4-1.4,2.8-1.4,2.8
	c-5.5,8.3-1.4,20.8,11.1,20.8h12.5c-1.4,4.2-1.4,6.9-2.8,9.7c-5.5-2.8-11.1-4.2-13.9-6.9C378.1,592.1,367,583.8,358.7,572.7z
	 M390.6,626.7c8.3,2.8,15.2,6.9,23.5,9.7c-2.8,4.2-5.5,5.5-9.7,5.5c-4.2-1.4-9.7-2.8-13.9-4.2c0-1.4-1.4-2.8-1.4-4.2
	C389.2,630.9,389.2,629.5,390.6,626.7z M410,600.4c1.4-1.4,2.8-2.8,4.2-5.5c6.9,5.5,12.5,11.1,18,15.2c-5.5,4.2-8.3,4.2-15.2,2.8
	C408.6,611.5,407.2,607.3,410,600.4z M429.4,540.9c0,1.4,1.4,4.2,1.4,5.5v22.2c-8.3-6.9-18-22.2-18-30.5
	C416.9,539.5,422.4,540.9,429.4,540.9z M404.4,514.5c6.9,5.5,16.6,5.5,26.3,5.5c0,5.5-1.4,11.1-1.4,15.2
	C414.1,538.1,401.7,531.2,404.4,514.5z M433.5,592.1c-1.4,1.4-2.8,2.8-4.2,4.2c-4.2-4.2-9.7-8.3-13.9-12.5c1.4-2.8,2.8-4.2,4.2-5.5
	C425.2,582.4,429.4,586.6,433.5,592.1z M421.1,637.8c6.9,1.4,13.9,1.4,20.8,2.8c-5.5,4.2-11.1,4.2-18,4.2
	C421.1,644.7,419.7,642,421.1,637.8z M461.2,615.7c-9.7-4.2-18-8.3-24.9-15.2c-2.8-1.4-2.8-4.2,0-5.5
	C444.6,601.8,452.9,608.7,461.2,615.7z M446,535.3c-1.4-15.2,1.4-30.5,9.7-45.7C452.9,506.2,446,520.1,446,535.3z M432.1,374.7
	c5.5,11.1,16.6,15.2,27.7,20.8c-2.8,5.5-4.2,9.7-5.5,13.9c-12.5-4.2-22.2-11.1-30.5-20.8C426.6,384.3,426.6,378.8,432.1,374.7z
	 M416.9,399.6c0-1.4,1.4-2.8,1.4-4.2c11.1,6.9,20.8,13.9,31.9,20.8c0,1.4-1.4,4.2-1.4,6.9c-1.4,2.8-1.4,4.2-2.8,6.9
	c-2.8,0-5.5,0-8.3-1.4c-5.5-2.8-11.1-5.5-15.2-9.7C411.4,410.7,412.7,410.7,416.9,399.6z M410,416.2c11.1,9.7,20.8,18,36,19.4
	c-1.4,6.9-1.4,12.5-4.2,18c-15.2,0-26.3-9.7-37.4-20.8C405.8,427.3,407.2,421.7,410,416.2z M403,441.1c11.1,9.7,23.5,18,37.4,20.8
	c0,0,0,1.4,0,2.8c-1.4,4.2-4.2,8.3-5.5,12.5c-15.2,1.4-24.9-8.3-36-18C400.3,453.6,401.7,448.1,403,441.1z M398.9,464.7
	c11.1,9.7,20.8,18,36,16.6v4.2c-1.4,2.8-1.4,5.5-1.4,8.3c-5.5,1.4-9.7,1.4-13.9,0c-8.3-1.4-13.9-6.9-19.4-11.1
	c-1.4-1.4-1.4-2.8-1.4-4.2V464.7z M400.3,489.6c9.7,6.9,19.4,11.1,31.9,9.7c-1.4,5.5-1.4,9.7-1.4,13.9
	C410,517.3,396.1,506.2,400.3,489.6z M405.8,561.6c4.2,4.2,6.9,8.3,11.1,13.9c-1.4,1.4-2.8,2.8-4.2,4.2c-4.2-4.2-6.9-8.3-12.5-12.5
	C401.7,565.8,404.4,564.4,405.8,561.6z M403,558.9c-2.8,1.4-4.2,2.8-6.9,5.5c-5.5-6.9-9.7-13.9-15.2-20.8c4.2-2.8,6.9-4.2,9.7-5.5
	C394.7,545,398.9,551.9,403,558.9z M380.9,511.8c2.8,8.3,5.5,15.2,8.3,22.2c-2.8,1.4-4.2,1.4-5.5,2.8c-1.4,1.4-2.8,1.4-4.2,1.4
	c-2.8-6.9-5.5-12.5-6.9-18c-1.4-2.8,0-5.5,2.8-5.5C376.7,514.5,378.1,513.2,380.9,511.8z M376.7,394c-5.5-1.4-11.1-4.2-16.6-5.5
	c1.4-8.3,4.2-15.2,5.5-23.5c5.5,2.8,9.7,5.5,12.5,8.3c1.4,1.4,2.8,4.2,2.8,5.5C379.5,383,378.1,388.5,376.7,394z M383.7,369.1
	c-5.5-4.2-9.7-6.9-15.2-11.1c2.8-6.9,4.2-13.9,6.9-20.8c5.5,4.2,11.1,6.9,15.2,11.1C387.8,355.3,385,362.2,383.7,369.1z
	 M393.4,342.8c-5.5-4.2-11.1-6.9-15.2-11.1c2.8-6.9,5.5-15.2,9.7-23.5c4.2,6.9,8.3,12.5,12.5,18
	C397.5,331.7,396.1,335.9,393.4,342.8z M412.7,302.6c-2.8,5.5-5.5,11.1-9.7,18c-4.2-5.5-9.7-11.1-13.9-16.6
	c2.8-6.9,5.5-12.5,9.7-19.4c5.5,4.2,9.7,9.7,13.9,15.2C412.7,299.9,412.7,301.2,412.7,302.6z M416.9,295.7
	c-5.5-6.9-9.7-12.5-15.2-18c4.2-5.5,6.9-11.1,12.5-18c4.2,5.5,8.3,9.7,11.1,13.9c1.4,1.4,1.4,5.5,1.4,6.9
	C423.8,286,419.7,290.2,416.9,295.7z M432.1,272.2c-5.5-5.5-9.7-11.1-15.2-16.6c4.2-5.5,6.9-9.7,11.1-15.2
	c5.5,5.5,9.7,9.7,15.2,15.2C439.1,261.1,436.3,266.6,432.1,272.2z M459.8,232c-4.2,5.5-8.3,12.5-12.5,18
	c-5.5-5.5-9.7-11.1-15.2-15.2c4.2-6.9,9.7-13.9,13.9-22.2C450.1,220.9,454.3,226.5,459.8,232z M433.5,186.3c0-4.2,1.4-6.9,4.2-9.7
	c2.8-1.4,5.5-2.8,6.9,1.4c1.4,2.8,4.2,5.5,5.5,8.3c-2.8,4.2-6.9,9.7-9.7,15.2C434.9,197.4,432.1,191.8,433.5,186.3z M418.3,198.8
	c5.5-2.8,12.5-1.4,15.2,4.2c1.4,1.4,1.4,2.8,2.8,4.2c-4.2,6.9-8.3,13.9-12.5,20.8c-5.5-4.2-6.9-9.7-9.7-15.2
	C412.7,208.4,414.1,201.5,418.3,198.8z M400.3,226.5c6.9-4.2,12.5-1.4,15.2,4.2c1.4,1.4,1.4,4.2,2.8,5.5
	c-4.2,6.9-9.7,13.9-13.9,20.8c-2.8-2.8-5.5-5.5-6.9-6.9C389.2,241.7,390.6,232,400.3,226.5z M383.7,256.9c2.8-2.8,6.9-2.8,11.1-1.4
	c1.4,1.4,4.2,2.8,5.5,4.2c-4.2,8.3-9.7,15.2-13.9,23.5c-4.2-5.5-6.9-9.7-8.3-15.2C378.1,263.9,379.5,259.7,383.7,256.9z M367,290.2
	c0-4.2,2.8-5.5,5.5-6.9c2.8-1.4,5.5,0,8.3,2.8c2.8,2.8,2.8,5.5,1.4,8.3c-2.8,5.5-5.5,9.7-8.3,16.6c-2.8-4.2-4.2-8.3-5.5-11.1
	S367,292.9,367,290.2z M346.3,327.6c-1.4-5.5,0-9.7,4.2-11.1c6.9-1.4,12.5-1.4,19.4,2.8c-2.8,8.3-5.5,16.6-9.7,24.9
	C353.2,340,349,334.5,346.3,327.6z M344.9,348.3c4.2-4.2,6.9-4.2,13.9,2.8c-2.8,6.9-4.2,15.2-6.9,22.2c-5.5-1.4-6.9-5.5-9.7-8.3
	C338,359.4,339.3,353.9,344.9,348.3z M333.8,340c2.8,2.8,5.5,4.2,8.3,6.9c-2.8,4.2-4.2,6.9-6.9,11.1c-4.2-4.2-6.9-6.9-11.1-11.1
	C328.3,342.8,331,341.4,333.8,340z M319.9,327.6c4.2,2.8,5.5,6.9,0,15.2c-5.5-4.2-11.1-6.9-16.6-11.1
	C308.9,324.8,313,324.8,319.9,327.6z M296.4,315.1c4.2,2.8,5.5,5.5,1.4,13.9l-16.6-8.3C283.9,313.7,289.5,312.3,296.4,315.1z
	 M270.1,306.8c4.2,2.8,5.5,5.5,2.8,12.5c-5.5-1.4-9.7-4.2-15.2-5.5C263.2,305.4,265.9,304,270.1,306.8z M232.7,298.5
	c1.4-1.4,5.5-4.2,6.9-2.8c2.8,1.4,5.5,4.2,8.3,6.9c1.4,2.8,4.2,4.2,1.4,8.3c-6.9-1.4-13.9-2.8-22.2-4.2
	C229.9,302.6,231.3,299.9,232.7,298.5z M203.6,294.3c5.5-1.4,16.6,4.2,19.4,11.1c-8.3-1.4-16.6-2.8-24.9-2.8
	C199.4,298.5,200.8,295.7,203.6,294.3z M174.5,291.6c1.4-1.4,2.8-2.8,4.2-1.4c4.2,0,11.1,6.9,11.1,12.5c-6.9,0-13.9,1.4-20.8,1.4
	C170.4,298.5,171.7,294.3,174.5,291.6z M148.2,295.7c5.5,0,11.1,2.8,15.2,8.3c-6.9,1.4-13.9,2.8-19.4,4.2
	C139.9,302.6,142.7,295.7,148.2,295.7z M117.7,305.4c5.5-4.2,11.1-1.4,19.4,5.5c-6.9,2.8-13.9,5.5-20.8,6.9
	C113.6,310.9,113.6,308.2,117.7,305.4z M120.5,326.2c20.8-9.7,42.9-12.5,65.1-13.9c19.4-1.4,38.8,2.8,58.2,6.9
	c24.9,5.5,45.7,16.6,66.5,30.5c4.2,2.8,8.3,6.9,12.5,9.7v1.4c-6.9-2.8-12.5-1.4-18,4.2c-4.2-13.9-9.7-16.6-22.2-13.9
	c-4.2-2.8-8.3-6.9-12.5-9.7c-5.5-2.8-9.7,0-13.9,2.8c-2.8-2.8-5.5-6.9-9.7-6.9c-2.8-1.4-6.9,1.4-11.1,1.4c-5.5-8.3-9.7-11.1-18-8.3
	c-2.8,0-4.2,1.4-6.9,4.2c-2.8,1.4-4.2,2.8-8.3,1.4c-6.9-1.4-13.9-1.4-20.8-1.4c-6.9,1.4-12.5,2.8-18,8.3c2.8,2.8,5.5,5.5,5.5,8.3
	c2.8,8.3,9.7,11.1,18,12.5c1.4,0,2.8,0,5.5,1.4c0,4.2-1.4,6.9-1.4,11.1c6.9,4.2,13.9,5.5,22.2,6.9c-1.4,2.8-2.8,5.5-4.2,9.7
	c5.5,2.8,12.5,5.5,18,8.3c-1.4,4.2-4.2,9.7-5.5,15.2c5.5,2.8,9.7,5.5,13.9,8.3c-1.4,4.2-4.2,8.3-6.9,12.5
	c5.5,4.2,11.1,8.3,16.6,12.5c-4.2,5.5-9.7,9.7-9.7,16.6c4.2,2.8,9.7,4.2,13.9,6.9c-4.2,4.2-6.9,8.3-6.9,15.2
	c5.5,2.8,11.1,6.9,18,9.7c-1.4,1.4-2.8,4.2-2.8,5.5c-1.4,1.4-1.4,4.2-2.8,5.5c-1.4,5.5-1.4,6.9,2.8,9.7c4.2,2.8,8.3,4.2,12.5,6.9
	v1.4c-8.3,13.9-5.5,13.9,8.3,19.4h4.2c1.4,0,4.2,1.4,5.5,1.4c-1.4,2.8-2.8,4.2-4.2,5.5c-5.5,9.7-1.4,18,9.7,18h6.9
	c-1.4,2.8-1.4,4.2-1.4,6.9c-1.4,5.5,0,8.3,5.5,9.7c4.2,1.4,9.7,2.8,13.9,4.2v4.2c-1.4,6.9-1.4,6.9,5.5,9.7c4.2,1.4,9.7,2.8,15.2,2.8
	c0,5.5,0,11.1,4.2,12.5c4.2,1.4,9.7,1.4,15.2,1.4c5.5,12.5,9.7,15.2,27.7,9.7c0,2.8,0,6.9,4.2,8.3c8.3,2.8,16.6,5.5,24.9,2.8
	c12.5,11.1,23.5,4.2,36,1.4c0,1.4,1.4,2.8,1.4,4.2s0,1.4,0,2.8c-2.8,0-4.2,0-6.9,1.4c-23.5,2.8-47.1-1.4-70.6-5.5
	c-18-4.2-34.6-11.1-51.2-18c-9.7-4.2-18-9.7-27.7-15.2c-18-12.5-30.5-30.5-41.6-48.5C241,542.2,229.9,517.3,223,491
	c-5.5-19.4-11.1-37.4-19.4-55.4c-8.3-18-18-36-31.9-49.9c-1.4-1.4-2.8-2.8-4.2-4.2c-11.1-12.5-20.8-24.9-36-31.9
	c-6.9-2.8-12.5-5.5-18-9.7c-2.8-1.4-5.5-4.2-9.7-5.5C110.8,331.7,115,327.6,120.5,326.2z M85.9,345.6c-1.4,2.8-4.2,4.2-8.3,4.2
	c-4.2-1.4-8.3-2.8-12.5-4.2c-1.4,0-1.4-4.2,0-5.5c4.2-8.3,15.2-11.1,23.5-5.5C83.1,338.6,83.1,338.6,85.9,345.6z M87.3,326.2
	c-1.4-1.4-1.4-4.2-1.4-4.2c1.4-2.8,4.2-4.2,6.9-5.5c5.5-1.4,11.1,0,15.2,4.2c-4.2,2.8-6.9,4.2-9.7,6.9
	C95.6,328.9,90,328.9,87.3,326.2z M108,358c-4.2,2.8-8.3,2.8-11.1,0c-2.8-2.8-4.2-6.9-1.4-12.5c6.9,0,12.5,5.5,20.8,8.3
	C112.2,355.3,109.4,356.6,108,358z M120.5,373.3c-5.5-4.2-5.5-9.7,0-18c6.9,4.2,13.9,8.3,20.8,13.9
	C135.7,377.4,127.4,378.8,120.5,373.3z M145.4,395.4c-5.5-5.5-4.2-13.9,1.4-20.8c5.5,6.9,12.5,13.9,18,20.8
	C157.9,401,149.6,401,145.4,395.4z M166.2,419c-2.8-5.5-2.8-12.5,2.8-19.4c6.9,6.9,11.1,13.9,15.2,23.5
	C175.9,425.9,170.4,424.5,166.2,419z M187,428.7c2.8,6.9,5.5,13.9,9.7,19.4C185.6,446.7,181.4,439.8,187,428.7z M177.3,452.2
	c5.5,2.8,11.1,5.5,16.6,9.7c-1.4,2.8-1.4,5.5-2.8,8.3c-2.8,1.4-5.5,1.4-8.3,1.4s-4.2,0-5.5-2.8c-2.8-5.5-5.5-9.7-9.7-15.2
	C171.7,450.8,174.5,450.8,177.3,452.2z M148.2,457.8h4.2c5.5,2.8,9.7,5.5,13.9,8.3c2.8,1.4,2.8,4.2,5.5,6.9
	c-5.5,2.8-11.1,4.2-16.6,5.5c-4.2-4.2-8.3-9.7-11.1-13.9C141.3,461.9,142.7,457.8,148.2,457.8z M148.2,482.7l-16.6,8.3
	c-6.9-5.5-12.5-9.7-15.2-18C128.8,470.2,142.7,474.4,148.2,482.7z M94.2,485.5c11.1,0,20.8,2.8,30.5,9.7
	c-5.5,4.2-11.1,8.3-16.6,11.1c-4.2-1.4-8.3-2.8-12.5-5.5c-4.2-1.4-5.5-4.2-6.9-8.3C88.6,488.2,90,485.5,94.2,485.5z M72,509
	c9.7-4.2,20.8-2.8,31.9,0c-6.9,5.5-12.5,11.1-18,16.6c-5.5-2.8-9.7-4.2-13.9-5.5c-2.8-1.4-4.2-4.2-5.5-6.9
	C66.5,510.4,69.3,509,72,509z M49.9,531.2c8.3-2.8,16.6-4.2,24.9-2.8c1.4,0,2.8,1.4,4.2,1.4c-5.5,12.5-16.6,12.5-27.7,13.9
	c-4.2,0-9.7,0-12.5-4.2C40.2,535.3,45.7,532.5,49.9,531.2z M26.3,567.2c9.7-11.1,20.8-19.4,37.4-18c-6.9,11.1-11.1,24.9-27.7,24.9
	c-2.8,0-4.2,1.4-6.9,2.8c-1.4,1.4-4.2,1.4-6.9,1.4C23.5,572.7,23.5,571.3,26.3,567.2z M16.6,592.1c8.3-6.9,19.4-11.1,29.1-13.9
	c-1.4,6.9-2.8,13.9-6.9,18c-5.5,5.5-13.9,8.3-22.2,11.1C13.9,599,13.9,596.3,16.6,592.1z M9.7,637.8c-6.9-8.3-5.5-19.4,2.8-23.5
	c8.3-4.2,16.6-6.9,26.3-11.1C37.4,611.5,18,633.7,9.7,637.8z M27.7,648.9c0,2.8-4.2,6.9-6.9,6.9c-4.2,0-5.5-2.8-5.5-5.5
	c0-2.8,0-6.9,1.4-8.3c2.8-4.2,6.9-8.3,12.5-13.9C27.7,635,27.7,642,27.7,648.9z M58.2,617c-1.4,9.7-5.5,16.6-11.1,23.5
	c-2.8,4.2-5.5,5.5-12.5,6.9c-1.4-2.8-1.4-5.5-2.8-8.3c-1.4-11.1,2.8-19.4,9.7-26.3c5.5-4.2,11.1-8.3,19.4-9.7
	C59.6,608.7,58.2,612.9,58.2,617z M76.2,618.4c-1.4,1.4-2.8,4.2-4.2,5.5c-1.4,1.4-4.2,4.2-6.9,2.8c-4.2-1.4-2.8-5.5-1.4-8.3
	c1.4-5.5,4.2-11.1,6.9-15.2c2.8-5.5,8.3-8.3,16.6-8.3C83.1,603.2,80.3,611.5,76.2,618.4z M105.3,604.6c-2.8,4.2-6.9,6.9-9.7,9.7
	c-4.2,2.8-6.9,1.4-6.9-4.2c0-8.3,5.5-16.6,13.9-19.4c4.2-1.4,9.7-2.8,15.2-4.2C112.2,593.5,108,599,105.3,604.6z M127.4,604.6
	c-2.8,4.2-5.5,8.3-6.9,12.5c-1.4,2.8-2.8,5.5-6.9,4.2c-4.2-6.9-4.2-12.5,0-19.4c2.8-4.2,6.9-8.3,11.1-12.5c4.2-4.2,8.3-5.5,13.9-4.2
	C134.3,593.5,130.2,599,127.4,604.6z M134.3,610.1c0-9.7,4.2-16.6,12.5-20.8c5.5-2.8,11.1-2.8,18,1.4
	C153.7,597.6,148.2,608.7,134.3,610.1z M167.6,619.8c-2.8,2.8-5.5,5.5-8.3,8.3c-1.4,1.4-4.2,2.8-5.5,0c-1.4-1.4-1.4-4.2-1.4-5.5
	c4.2-8.3,9.7-16.6,18-22.2c2.8-1.4,6.9-2.8,9.7-2.8c4.2,1.4,6.9,4.2,11.1,5.5C180.1,606,173.1,611.5,167.6,619.8z M175.9,635
	c-4.2-9.7,0-19.4,9.7-23.5c9.7-4.2,18-2.8,26.3,8.3C200.8,625.3,188.4,629.5,175.9,635z M213.3,646.1c-4.2,4.2-11.1,4.2-16.6,2.8
	c-1.4-8.3,1.4-13.9,9.7-18c5.5-1.4,11.1-2.8,16.6-2.8c1.4,0,2.8,1.4,5.5,2.8C223,637.8,218.8,642,213.3,646.1z M232.7,660
	c-2.8,1.4-5.5,2.8-8.3,4.2c-6.9,1.4-9.7-1.4-6.9-8.3c2.8-9.7,9.7-15.2,18-18c5.5,4.2,9.7,6.9,15.2,11.1
	C243.8,653,238.2,657.2,232.7,660z M254.8,673.8c-4.2,2.8-8.3,2.8-11.1,1.4c-5.5-1.4-8.3-8.3-2.8-12.5c8.3-8.3,20.8-9.7,31.9-1.4
	C265.9,665.5,260.4,669.7,254.8,673.8z M279.8,687.7c-2.8,2.8-5.5,4.2-9.7,5.5c-2.8,1.4-6.9,0-8.3-2.8c-1.4-1.4-1.4-5.5,0-6.9
	c1.4-4.2,4.2-6.9,5.5-11.1c5.5-6.9,12.5-8.3,20.8-5.5c2.8,1.4,5.5,1.4,9.7,2.8C290.9,676.6,285.3,682.1,279.8,687.7z M304.7,691.8
	c-4.2,4.2-9.7,5.5-15.2,2.8c0-13.9,13.9-22.2,30.5-16.6C314.4,682.1,310.2,687.7,304.7,691.8z"/>
</svg>
