<?xml version="1.0" encoding="utf-8"?>
<!-- Generator: Adobe Illustrator 17.1.0, SVG Export Plug-In . SVG Version: 6.00 Build 0)  -->
<!DOCTYPE svg PUBLIC "-//W3C//DTD SVG 1.1//EN" "http://www.w3.org/Graphics/SVG/1.1/DTD/svg11.dtd">
<svg version="1.1" id="Layer_1" xmlns="http://www.w3.org/2000/svg" xmlns:xlink="http://www.w3.org/1999/xlink" x="0px" y="0px"
	 viewBox="0 0 87.2 87.2" enable-background="new 0 0 87.2 87.2" xml:space="preserve">
<g>
	<defs>
		<rect id="SVGID_1_" y="0" width="87.2" height="87.2"/>
	</defs>
	<clipPath id="SVGID_2_">
		<use xlink:href="#SVGID_1_"  overflow="visible"/>
	</clipPath>
	<path clip-path="url(#SVGID_2_)" fill="#feb145" d="M20.6,49.7c-0.1-0.3-0.2-0.5-0.4-0.7c-0.9-0.9-2.2-0.9-3.2-0.2
		c0,0-0.1,0.1-0.1,0.1c0,0-0.1,0.1-0.1,0.1c-0.4,0.5-0.6,1.2-0.5,1.8c0.3,0.6,0.7,1,1.3,1.3c0,0,0.1,0,0.2,0.1c0.1,0,0.1,0,0.2,0
		c1.2,0.2,2.4-0.5,2.7-1.7C20.6,50.3,20.6,50,20.6,49.7 M20.6,37.4c0-0.3,0-0.5,0-0.8c-0.3-1.2-1.5-1.9-2.7-1.7c-0.1,0-0.1,0-0.2,0
		c-0.1,0-0.1,0-0.2,0.1c-0.6,0.2-1.1,0.7-1.3,1.3c-0.1,0.6,0.1,1.3,0.5,1.8c0,0,0.1,0.1,0.1,0.1c0,0,0.1,0.1,0.1,0.1
		c0.9,0.8,2.3,0.7,3.2-0.2C20.3,37.9,20.5,37.7,20.6,37.4 M26.7,26.7c0.2-0.2,0.3-0.5,0.4-0.7c0.4-1.2-0.3-2.4-1.4-2.8
		c0,0-0.1,0-0.2-0.1c-0.1,0-0.1,0-0.2,0c-0.6-0.1-1.3,0.1-1.8,0.4c-0.4,0.5-0.5,1.2-0.4,1.8c0,0.1,0,0.1,0,0.2c0,0.1,0,0.1,0.1,0.2
		c0.4,1.1,1.6,1.8,2.8,1.4C26.3,27,26.5,26.9,26.7,26.7 M37.4,20.6c0.3-0.1,0.5-0.3,0.7-0.4c0.9-0.9,0.9-2.3,0.2-3.2
		c0,0-0.1-0.1-0.1-0.1c0,0-0.1-0.1-0.1-0.1c-0.5-0.4-1.2-0.6-1.8-0.5c-0.6,0.3-1,0.7-1.3,1.3c0,0,0,0.1-0.1,0.2c0,0.1,0,0.1,0,0.2
		c-0.2,1.2,0.5,2.4,1.7,2.7C36.9,20.6,37.1,20.6,37.4,20.6 M49.7,20.6c0.3,0,0.5,0,0.8,0c1.2-0.3,1.9-1.5,1.7-2.7c0-0.1,0-0.1,0-0.2
		c0-0.1,0-0.1-0.1-0.2c-0.2-0.6-0.7-1.1-1.3-1.3c-0.6-0.1-1.3,0.1-1.8,0.5c0,0-0.1,0.1-0.1,0.1c0,0-0.1,0.1-0.1,0.1
		c-0.8,0.9-0.7,2.3,0.2,3.2C49.3,20.3,49.5,20.5,49.7,20.6 M60.4,26.7c0.2,0.2,0.5,0.3,0.7,0.4c1.2,0.4,2.4-0.3,2.8-1.4
		c0,0,0-0.1,0.1-0.2c0-0.1,0-0.1,0-0.2c0.1-0.6-0.1-1.3-0.4-1.8c-0.5-0.4-1.2-0.5-1.8-0.4c-0.1,0-0.1,0-0.2,0c-0.1,0-0.1,0-0.2,0.1
		c-1.1,0.4-1.8,1.6-1.4,2.8C60.1,26.3,60.3,26.5,60.4,26.7 M66.6,37.4c0.1,0.3,0.3,0.5,0.4,0.7c0.9,0.9,2.3,0.9,3.2,0.2
		c0,0,0.1-0.1,0.1-0.1c0,0,0.1-0.1,0.1-0.1c0.4-0.5,0.6-1.2,0.5-1.8c-0.3-0.6-0.7-1-1.3-1.3c0,0-0.1,0-0.2-0.1c-0.1,0-0.1,0-0.2,0
		c-1.2-0.2-2.4,0.5-2.7,1.7C66.6,36.9,66.6,37.1,66.6,37.4 M66.6,49.7c0,0.3,0,0.5,0,0.8c0.3,1.2,1.5,1.9,2.7,1.7c0.1,0,0.1,0,0.2,0
		c0.1,0,0.1,0,0.2-0.1c0.6-0.2,1.1-0.7,1.3-1.3c0.1-0.6-0.1-1.3-0.5-1.8c0,0-0.1-0.1-0.1-0.1c0,0-0.1-0.1-0.1-0.1
		c-0.9-0.8-2.3-0.7-3.2,0.2C66.8,49.3,66.7,49.5,66.6,49.7 M60.4,60.4c-0.2,0.2-0.3,0.5-0.4,0.7c-0.4,1.2,0.3,2.4,1.4,2.8
		c0,0,0.1,0,0.2,0.1c0.1,0,0.1,0,0.2,0c0.6,0.1,1.3-0.1,1.8-0.4c0.4-0.5,0.5-1.2,0.4-1.8c0-0.1,0-0.1,0-0.2c0-0.1,0-0.1-0.1-0.2
		c-0.4-1.1-1.6-1.8-2.8-1.4C60.9,60.1,60.6,60.3,60.4,60.4 M49.7,66.6c-0.3,0.1-0.5,0.2-0.7,0.4c-0.9,0.9-0.9,2.2-0.2,3.2
		c0,0,0.1,0.1,0.1,0.1c0,0,0.1,0.1,0.1,0.1c0.5,0.4,1.2,0.6,1.8,0.5c0.6-0.3,1-0.7,1.3-1.3c0-0.1,0-0.1,0.1-0.2c0-0.1,0-0.1,0-0.2
		c0.2-1.2-0.5-2.4-1.7-2.7C50.3,66.6,50,66.6,49.7,66.6 M37.4,66.6c-0.3,0-0.5,0-0.8,0c-1.2,0.3-1.9,1.5-1.7,2.7c0,0.1,0,0.1,0,0.2
		c0,0.1,0,0.1,0.1,0.2c0.2,0.6,0.7,1.1,1.3,1.3c0.6,0.1,1.3-0.1,1.8-0.5c0,0,0.1-0.1,0.1-0.1c0,0,0.1-0.1,0.1-0.1
		c0.8-0.9,0.7-2.3-0.2-3.2C37.9,66.8,37.7,66.7,37.4,66.6 M26.7,60.4c-0.2-0.2-0.5-0.3-0.7-0.4c-1.2-0.4-2.4,0.3-2.8,1.4
		c0,0,0,0.1-0.1,0.2c0,0.1,0,0.1,0,0.2c-0.1,0.6,0.1,1.3,0.4,1.8c0.5,0.4,1.2,0.5,1.8,0.4c0.1,0,0.1,0,0.2,0c0.1,0,0.1,0,0.2-0.1
		c1.1-0.4,1.8-1.6,1.4-2.8C27,60.9,26.9,60.6,26.7,60.4 M17.5,50.6c0-0.2,0.1-0.4,0.3-0.6c0.5-0.4,1-0.3,1.4,0.1
		c-0.1,0.5-0.5,0.9-1.1,0.8C17.8,50.8,17.6,50.7,17.5,50.6 M17.5,36.6c0.1-0.2,0.3-0.3,0.5-0.4c0.6-0.1,1,0.3,1.1,0.8
		c-0.3,0.4-0.9,0.6-1.4,0.1C17.6,37,17.6,36.8,17.5,36.6 M24.5,24.5c0.2-0.1,0.4-0.1,0.6-0.1c0.6,0.2,0.7,0.8,0.6,1.2
		c-0.5,0.2-1,0.1-1.2-0.6C24.4,24.9,24.4,24.7,24.5,24.5 M36.6,17.5c0.2,0,0.4,0.1,0.6,0.3c0.4,0.5,0.3,1-0.1,1.3
		c-0.5-0.1-0.9-0.5-0.8-1.1C36.3,17.8,36.4,17.6,36.6,17.5 M50.6,17.5c0.2,0.1,0.3,0.3,0.4,0.5c0.1,0.6-0.3,1-0.8,1.1
		c-0.4-0.3-0.6-0.9-0.1-1.3C50.2,17.6,50.4,17.6,50.6,17.5 M62.6,24.5c0.1,0.2,0.1,0.4,0.1,0.6c-0.2,0.6-0.8,0.7-1.2,0.6
		c-0.2-0.5-0.1-1,0.6-1.2C62.3,24.4,62.5,24.4,62.6,24.5 M69.6,36.6c0,0.2-0.1,0.4-0.3,0.6c-0.5,0.4-1,0.3-1.3-0.1
		c0.1-0.5,0.5-0.9,1.1-0.8C69.3,36.3,69.5,36.4,69.6,36.6 M69.6,50.6c-0.1,0.2-0.3,0.3-0.5,0.4c-0.6,0.1-1-0.3-1.1-0.8
		c0.3-0.4,0.9-0.6,1.3-0.1C69.5,50.2,69.6,50.4,69.6,50.6 M62.6,62.6c-0.2,0.1-0.4,0.1-0.6,0.1c-0.6-0.2-0.7-0.8-0.6-1.2
		c0.5-0.2,1-0.1,1.2,0.6C62.7,62.3,62.7,62.5,62.6,62.6 M50.6,69.6c-0.2,0-0.4-0.1-0.6-0.3c-0.4-0.5-0.3-1,0.1-1.3
		c0.5,0.1,0.9,0.5,0.8,1.1C50.8,69.3,50.7,69.5,50.6,69.6 M36.6,69.6c-0.2-0.1-0.3-0.3-0.4-0.5c-0.1-0.6,0.3-1,0.8-1.1
		c0.4,0.3,0.6,0.9,0.1,1.3C37,69.5,36.8,69.6,36.6,69.6 M24.5,62.6c-0.1-0.2-0.1-0.4-0.1-0.6c0.2-0.6,0.8-0.7,1.2-0.6
		c0.2,0.5,0.1,1-0.6,1.2C24.9,62.7,24.7,62.7,24.5,62.6"/>
	<path clip-path="url(#SVGID_2_)" fill="#feb145" d="M28.5,47.6c-0.1-0.3-0.3-0.6-0.5-0.9c-0.9-0.9-2.2-0.9-3.2-0.2
		c0,0-0.1,0.1-0.1,0.1c0,0-0.1,0.1-0.1,0.1c-0.5,0.6-0.6,1.3-0.5,2c0.2,0.7,0.7,1.2,1.4,1.5c0,0,0.1,0,0.2,0.1c0.1,0,0.1,0,0.2,0
		c1.2,0.2,2.4-0.5,2.7-1.7C28.6,48.3,28.6,48,28.5,47.6 M28.5,39.5c0.1-0.3,0.1-0.7,0-1c-0.3-1.2-1.5-1.9-2.7-1.7
		c-0.1,0-0.1,0-0.2,0c-0.1,0-0.1,0-0.2,0.1c-0.7,0.3-1.2,0.8-1.4,1.5c-0.1,0.7,0,1.4,0.5,2c0,0,0.1,0.1,0.1,0.1c0,0,0.1,0.1,0.1,0.1
		c0.9,0.8,2.3,0.7,3.2-0.2C28.2,40.2,28.4,39.9,28.5,39.5 M32.5,32.5c0.2-0.3,0.4-0.6,0.5-0.9c0.4-1.2-0.3-2.4-1.4-2.8
		c-0.1,0-0.1,0-0.2-0.1c-0.1,0-0.1,0-0.2,0c-0.7-0.1-1.4,0.1-2,0.6c-0.5,0.5-0.7,1.3-0.6,2c0,0.1,0,0.1,0,0.2c0,0.1,0,0.1,0.1,0.2
		c0.4,1.1,1.6,1.8,2.8,1.4C32,33,32.3,32.8,32.5,32.5 M39.5,28.5c0.3-0.1,0.6-0.3,0.9-0.5c0.9-0.9,0.9-2.3,0.2-3.2
		c0,0-0.1-0.1-0.1-0.1c0,0-0.1-0.1-0.1-0.1c-0.6-0.5-1.3-0.6-2-0.5c-0.7,0.2-1.2,0.7-1.5,1.4c0,0,0,0.1-0.1,0.2c0,0.1,0,0.1,0,0.2
		c-0.2,1.2,0.5,2.4,1.7,2.7C38.9,28.6,39.2,28.6,39.5,28.5 M47.6,28.5c0.3,0.1,0.7,0.1,1,0c1.2-0.3,1.9-1.5,1.7-2.7
		c0-0.1,0-0.1,0-0.2c0-0.1,0-0.1-0.1-0.2c-0.3-0.7-0.8-1.2-1.5-1.4c-0.7-0.1-1.4,0-2,0.5c0,0-0.1,0.1-0.1,0.1c0,0-0.1,0.1-0.1,0.1
		c-0.8,0.9-0.7,2.3,0.2,3.2C47,28.2,47.3,28.4,47.6,28.5 M54.6,32.5c0.3,0.2,0.6,0.4,0.9,0.5c1.2,0.4,2.4-0.3,2.8-1.4
		c0,0,0-0.1,0.1-0.2c0-0.1,0-0.1,0-0.2c0.1-0.7-0.1-1.4-0.6-2c-0.5-0.5-1.3-0.7-2-0.6c-0.1,0-0.1,0-0.2,0c-0.1,0-0.1,0-0.2,0.1
		c-1.1,0.4-1.8,1.6-1.4,2.8C54.2,32,54.4,32.3,54.6,32.5 M58.7,39.5c0.1,0.3,0.3,0.6,0.5,0.9c0.9,0.9,2.3,0.9,3.2,0.2
		c0,0,0.1-0.1,0.1-0.1c0,0,0.1-0.1,0.1-0.1c0.5-0.6,0.6-1.3,0.5-2c-0.2-0.7-0.7-1.2-1.4-1.5c0,0-0.1,0-0.2-0.1c-0.1,0-0.1,0-0.2,0
		c-1.2-0.2-2.4,0.5-2.7,1.7C58.6,38.9,58.6,39.2,58.7,39.5 M58.7,47.6c-0.1,0.3-0.1,0.7,0,1c0.3,1.2,1.5,1.9,2.7,1.7
		c0.1,0,0.1,0,0.2,0c0.1,0,0.1,0,0.2-0.1c0.7-0.3,1.2-0.8,1.4-1.5c0.1-0.7,0-1.4-0.5-2c0,0-0.1-0.1-0.1-0.1c0,0-0.1-0.1-0.1-0.1
		c-0.9-0.8-2.3-0.7-3.2,0.2C58.9,47,58.8,47.3,58.7,47.6 M54.6,54.6c-0.2,0.3-0.4,0.6-0.5,0.9c-0.4,1.2,0.3,2.4,1.4,2.8
		c0,0,0.1,0,0.2,0.1c0.1,0,0.1,0,0.2,0c0.7,0.1,1.4-0.1,2-0.6c0.5-0.5,0.7-1.3,0.6-2c0-0.1,0-0.1,0-0.2c0-0.1,0-0.1-0.1-0.2
		c-0.4-1.1-1.6-1.8-2.8-1.4C55.2,54.2,54.9,54.4,54.6,54.6 M47.6,58.7c-0.3,0.1-0.6,0.3-0.9,0.5c-0.9,0.9-0.9,2.2-0.2,3.2
		c0,0,0.1,0.1,0.1,0.1c0,0,0.1,0.1,0.1,0.1c0.6,0.5,1.3,0.6,2,0.5c0.7-0.2,1.2-0.7,1.5-1.4c0,0,0-0.1,0.1-0.2c0-0.1,0-0.1,0-0.2
		c0.2-1.2-0.5-2.4-1.7-2.7C48.3,58.6,48,58.6,47.6,58.7 M39.5,58.7c-0.3-0.1-0.7-0.1-1,0c-1.2,0.3-1.9,1.5-1.7,2.7
		c0,0.1,0,0.1,0,0.2c0,0.1,0,0.1,0.1,0.2c0.3,0.7,0.8,1.2,1.5,1.4c0.7,0.1,1.4,0,2-0.5c0,0,0.1-0.1,0.1-0.1c0,0,0.1-0.1,0.1-0.1
		c0.8-0.9,0.7-2.3-0.2-3.2C40.2,58.9,39.9,58.8,39.5,58.7 M32.5,54.6c-0.3-0.2-0.6-0.4-0.9-0.5c-1.2-0.4-2.4,0.3-2.8,1.4
		c0,0.1,0,0.1-0.1,0.2c0,0.1,0,0.1,0,0.2c-0.1,0.7,0.1,1.4,0.6,2c0.5,0.5,1.3,0.7,2,0.6c0.1,0,0.1,0,0.2,0c0.1,0,0.1,0,0.2-0.1
		c1.1-0.4,1.8-1.6,1.4-2.8C33,55.2,32.8,54.9,32.5,54.6 M25.4,48.4c-0.1-0.2,0-0.5,0.2-0.8c0.6-0.5,1.2-0.2,1.5,0.3
		c0,0.6-0.4,1.2-1.1,1C25.7,48.9,25.5,48.7,25.4,48.4 M25.4,38.7c0.1-0.2,0.3-0.4,0.6-0.5c0.7-0.2,1.1,0.4,1.1,1
		c-0.3,0.5-0.9,0.8-1.5,0.3C25.4,39.2,25.4,39,25.4,38.7 M30.3,30.3c0.2-0.2,0.5-0.3,0.8-0.2c0.7,0.2,0.8,1,0.5,1.4
		c-0.5,0.3-1.2,0.3-1.4-0.5C30,30.7,30.1,30.5,30.3,30.3 M38.7,25.4c0.2-0.1,0.5,0,0.8,0.2c0.5,0.6,0.2,1.2-0.3,1.5
		c-0.6,0-1.2-0.4-1-1.1C38.3,25.7,38.5,25.5,38.7,25.4 M48.4,25.4c0.2,0.1,0.4,0.3,0.5,0.6c0.2,0.7-0.4,1.1-1,1.1
		c-0.5-0.3-0.8-0.9-0.3-1.5C47.9,25.4,48.2,25.4,48.4,25.4 M56.9,30.3c0.2,0.2,0.3,0.5,0.2,0.8c-0.2,0.7-1,0.8-1.4,0.5
		c-0.3-0.5-0.3-1.2,0.5-1.4C56.4,30,56.7,30.1,56.9,30.3 M61.7,38.7c0.1,0.2,0,0.5-0.2,0.8c-0.6,0.5-1.2,0.2-1.5-0.3
		c0-0.6,0.4-1.2,1.1-1C61.5,38.3,61.7,38.5,61.7,38.7 M61.7,48.4c-0.1,0.2-0.3,0.4-0.6,0.5c-0.7,0.2-1.1-0.4-1.1-1
		c0.3-0.5,0.9-0.8,1.5-0.3C61.7,47.9,61.8,48.2,61.7,48.4 M56.9,56.9c-0.2,0.2-0.5,0.3-0.8,0.2c-0.7-0.2-0.8-1-0.5-1.4
		c0.5-0.3,1.2-0.3,1.4,0.5C57.1,56.4,57,56.7,56.9,56.9 M48.4,61.7c-0.2,0.1-0.5,0-0.8-0.2c-0.5-0.6-0.2-1.2,0.3-1.5
		c0.6,0,1.2,0.4,1,1.1C48.9,61.5,48.7,61.7,48.4,61.7 M38.7,61.7c-0.2-0.1-0.4-0.3-0.5-0.6c-0.2-0.7,0.4-1.1,1-1.1
		c0.5,0.3,0.8,0.9,0.3,1.5C39.2,61.7,39,61.8,38.7,61.7 M30.3,56.9c-0.2-0.2-0.3-0.5-0.2-0.8c0.2-0.7,1-0.8,1.4-0.5
		c0.3,0.5,0.3,1.2-0.5,1.4C30.7,57.1,30.5,57,30.3,56.9"/>
	<path clip-path="url(#SVGID_2_)" fill="#feb145" d="M35.1,45.8c-0.7-0.1-1.4,0-2,0.5c0,0-0.1,0-0.1,0.1c0,0,0.1,0,0.1,0
		C33.9,46.5,34.6,46.3,35.1,45.8 M35.1,41.3c-0.5-0.5-1.3-0.7-2-0.6c0,0-0.1,0-0.1,0c0,0,0.1,0,0.1,0.1
		C33.7,41.3,34.4,41.5,35.1,41.3 M37.4,37.4c-0.2-0.7-0.7-1.2-1.4-1.5c0,0-0.1,0-0.1,0c0,0,0,0.1,0,0.1
		C36.2,36.6,36.7,37.2,37.4,37.4 M41.3,35.1c0.1-0.7,0-1.4-0.5-2c0,0,0-0.1-0.1-0.1c0,0,0,0.1,0,0.1C40.6,33.9,40.9,34.6,41.3,35.1
		 M45.8,35.1c0.5-0.5,0.7-1.3,0.6-2c0,0,0-0.1,0-0.1c0,0,0,0.1-0.1,0.1C45.9,33.7,45.7,34.4,45.8,35.1 M49.8,37.4
		c0.7-0.2,1.2-0.7,1.5-1.4c0,0,0-0.1,0-0.1c0,0-0.1,0-0.1,0C50.5,36.2,50,36.7,49.8,37.4 M52,41.3c0.7,0.1,1.4,0,2-0.5
		c0,0,0.1,0,0.1-0.1c0,0-0.1,0-0.1,0C53.3,40.6,52.6,40.9,52,41.3 M52,45.8c0.5,0.5,1.3,0.7,2,0.6c0,0,0.1,0,0.1,0
		c0,0-0.1,0-0.1-0.1C53.5,45.9,52.7,45.7,52,45.8 M49.8,49.8c0.2,0.7,0.7,1.2,1.4,1.5c0,0,0.1,0,0.1,0c0,0,0-0.1,0-0.1
		C51,50.5,50.4,50,49.8,49.8 M45.8,52c-0.1,0.7,0,1.4,0.5,2c0,0,0,0.1,0.1,0.1c0,0,0-0.1,0-0.1C46.5,53.3,46.3,52.6,45.8,52
		 M41.3,52c-0.5,0.5-0.7,1.3-0.6,2c0,0,0,0.1,0,0.1c0,0,0-0.1,0.1-0.1C41.3,53.5,41.4,52.7,41.3,52 M37.4,49.8
		c-0.7,0.2-1.2,0.7-1.5,1.4c0,0,0,0.1,0,0.1c0,0,0.1,0,0.1,0C36.6,51,37.2,50.4,37.4,49.8"/>
	<path clip-path="url(#SVGID_2_)" fill="#feb145" d="M0,43.6c0.1,3.8,0.6,7.6,1.9,11.2c0.7,3.7,2.2,7.2,4,10.6
		c2,3.2,4.3,6.3,7.2,8.7c2.5,2.9,5.5,5.2,8.7,7.2c3.4,1.8,6.9,3.3,10.6,4c3.6,1.3,7.4,1.7,11.2,1.9c3.8-0.1,7.6-0.6,11.2-1.9
		c3.7-0.7,7.2-2.2,10.6-4c3.2-2,6.3-4.3,8.7-7.2c2.9-2.5,5.2-5.5,7.2-8.7c1.8-3.4,3.3-6.9,4-10.6c1.3-3.6,1.7-7.4,1.9-11.2
		c-0.1-3.8-0.6-7.6-1.9-11.2c-0.7-3.7-2.2-7.2-4-10.6c-2-3.2-4.3-6.3-7.2-8.7c-2.5-2.9-5.5-5.2-8.7-7.2c-3.4-1.8-6.9-3.3-10.6-4
		C51.2,0.6,47.4,0.1,43.6,0C39.8,0.1,36,0.6,32.4,1.9c-3.7,0.7-7.2,2.2-10.6,4c-3.2,2-6.3,4.3-8.7,7.2c-2.9,2.5-5.2,5.5-7.2,8.7
		c-1.8,3.4-3.3,6.9-4,10.6C0.6,36,0.1,39.8,0,43.6 M7.9,53.1c0.6-0.7,1.3-1.3,2-1.9c6.5-5.7,15.2-7.5,23.6-6.8
		c1.5,0.1,3,0.3,4.5,0.6c-1.2,1-2.4,1.9-3.6,2.8c-6.9,4.8-15.4,7.6-23.8,5.9C9.7,53.6,8.8,53.4,7.9,53.1 M7.9,34
		c0.9-0.3,1.7-0.5,2.6-0.7c8.5-1.7,16.9,1.1,23.8,5.9c1.3,0.9,2.5,1.8,3.6,2.8c-1.5,0.3-3,0.5-4.5,0.6c-8.4,0.7-17.1-1.1-23.6-6.8
		C9.2,35.3,8.5,34.7,7.9,34 M17.5,17.5c0.9,0.2,1.8,0.5,2.6,0.8c8.2,2.8,14.1,9.4,17.7,17.1c0.6,1.4,1.2,2.8,1.8,4.2
		c-1.4-0.5-2.8-1.1-4.2-1.8c-7.6-3.6-14.3-9.5-17.1-17.7C17.9,19.2,17.7,18.3,17.5,17.5 M34,7.9c0.7,0.6,1.3,1.3,1.9,2
		c5.7,6.5,7.5,15.2,6.8,23.6c-0.1,1.5-0.3,3-0.6,4.5c-1-1.2-1.9-2.4-2.8-3.6c-4.8-6.9-7.6-15.4-5.9-23.8C33.5,9.7,33.8,8.8,34,7.9
		 M53.1,7.9c0.3,0.9,0.5,1.7,0.7,2.6c1.7,8.5-1.1,16.9-5.9,23.8C47,35.6,46,36.8,45.1,38c-0.3-1.5-0.5-3-0.6-4.5
		c-0.7-8.4,1.1-17.1,6.8-23.6C51.8,9.2,52.5,8.5,53.1,7.9 M69.7,17.5c-0.2,0.9-0.5,1.8-0.8,2.6c-2.8,8.2-9.4,14.1-17.1,17.7
		c-1.4,0.6-2.8,1.2-4.2,1.8c0.5-1.4,1.1-2.8,1.8-4.2C53,27.6,58.9,21,67.1,18.2C67.9,17.9,68.8,17.7,69.7,17.5 M79.2,34
		c-0.6,0.7-1.3,1.3-2,1.9c-6.5,5.7-15.2,7.5-23.6,6.8c-1.5-0.1-3-0.3-4.5-0.6c1.2-1,2.4-1.9,3.6-2.8c6.9-4.8,15.4-7.6,23.8-5.9
		C77.5,33.5,78.4,33.8,79.2,34 M79.2,53.1c-0.9,0.3-1.7,0.5-2.6,0.7c-8.5,1.7-16.9-1.1-23.8-5.9c-1.3-0.9-2.5-1.8-3.6-2.8
		c1.5-0.3,3-0.5,4.5-0.6c8.4-0.7,17.1,1.1,23.6,6.8C78,51.8,78.6,52.5,79.2,53.1 M69.7,69.7c-0.9-0.2-1.8-0.5-2.6-0.8
		c-8.2-2.8-14.1-9.4-17.7-17.1c-0.6-1.4-1.2-2.8-1.8-4.2c1.4,0.5,2.8,1.1,4.2,1.8c7.7,3.6,14.3,9.5,17.1,17.7
		C69.2,67.9,69.5,68.8,69.7,69.7 M53.1,79.2c-0.7-0.6-1.3-1.3-1.9-2c-5.7-6.5-7.5-15.2-6.8-23.6c0.1-1.5,0.3-3,0.6-4.5
		c1,1.2,1.9,2.4,2.8,3.6c4.8,6.9,7.6,15.4,5.9,23.8C53.6,77.5,53.4,78.4,53.1,79.2 M34,79.2c-0.3-0.9-0.5-1.7-0.7-2.6
		c-1.7-8.5,1.1-16.9,5.9-23.8c0.9-1.3,1.8-2.5,2.8-3.6c0.3,1.5,0.5,3,0.6,4.5c0.7,8.4-1.1,17.1-6.8,23.6C35.3,78,34.7,78.6,34,79.2
		 M17.5,69.7c0.2-0.9,0.5-1.8,0.8-2.6C21,58.9,27.6,53,35.3,49.4c1.4-0.6,2.8-1.2,4.2-1.8c-0.5,1.4-1.1,2.8-1.8,4.2
		c-3.6,7.6-9.5,14.3-17.7,17.1C19.2,69.2,18.3,69.5,17.5,69.7 M16.2,43.6c0,0.2,0,0.4,0,0.5c-1.2,0.5-2.3,1.1-3.5,1.7
		c-0.1-0.7-0.2-1.5-0.2-2.2c0.1-0.7,0.1-1.5,0.2-2.2c1.1,0.6,2.3,1.2,3.5,1.7C16.2,43.2,16.2,43.4,16.2,43.6 M19.9,29.9
		c-0.1,0.2-0.2,0.3-0.3,0.5c-1.3-0.2-2.5-0.2-3.8-0.2c0.3-0.7,0.6-1.4,0.9-2.1c0.4-0.6,0.9-1.2,1.3-1.8c0.7,1.1,1.4,2.2,2.1,3.2
		C20.1,29.6,20,29.7,19.9,29.9 M29.9,19.9c-0.2,0.1-0.3,0.2-0.5,0.3c-1-0.8-2.1-1.5-3.2-2.1c0.6-0.5,1.2-0.9,1.8-1.3
		c0.7-0.3,1.4-0.6,2.1-0.9c0,1.3,0.1,2.6,0.2,3.8C30.2,19.7,30.1,19.8,29.9,19.9 M43.6,16.2c-0.2,0-0.4,0-0.5,0
		c-0.5-1.2-1.1-2.3-1.7-3.5c0.7-0.1,1.5-0.2,2.2-0.2c0.7,0.1,1.5,0.1,2.2,0.2c-0.6,1.1-1.2,2.3-1.7,3.5
		C43.9,16.2,43.8,16.2,43.6,16.2 M57.3,19.9c-0.2-0.1-0.3-0.2-0.5-0.3c0.2-1.3,0.2-2.5,0.2-3.8c0.7,0.3,1.4,0.6,2.1,0.9
		c0.6,0.4,1.2,0.9,1.8,1.3c-1.1,0.7-2.2,1.4-3.2,2.1C57.6,20.1,57.4,20,57.3,19.9 M67.3,29.9c-0.1-0.2-0.2-0.3-0.3-0.5
		c0.8-1,1.5-2.1,2.1-3.2c0.5,0.6,0.9,1.2,1.3,1.8c0.3,0.7,0.6,1.4,0.9,2.1c-1.3,0-2.6,0.1-3.8,0.2C67.5,30.2,67.4,30.1,67.3,29.9
		 M70.9,43.6c0-0.2,0-0.4,0-0.5c1.2-0.5,2.3-1.1,3.5-1.7c0.1,0.7,0.2,1.5,0.2,2.2c-0.1,0.7-0.1,1.5-0.2,2.2
		c-1.1-0.6-2.3-1.2-3.5-1.7C70.9,43.9,70.9,43.8,70.9,43.6 M67.3,57.3c0.1-0.2,0.2-0.3,0.3-0.5c1.3,0.2,2.5,0.2,3.8,0.2
		c-0.3,0.7-0.6,1.4-0.9,2.1c-0.4,0.6-0.9,1.2-1.3,1.8c-0.7-1.1-1.4-2.2-2.1-3.2C67.1,57.6,67.2,57.4,67.3,57.3 M57.3,67.3
		c0.2-0.1,0.3-0.2,0.5-0.3c1,0.8,2.1,1.5,3.2,2.1c-0.6,0.5-1.2,0.9-1.8,1.3c-0.7,0.3-1.4,0.6-2.1,0.9c0-1.3-0.1-2.6-0.2-3.8
		C57,67.5,57.1,67.4,57.3,67.3 M43.6,70.9c0.2,0,0.4,0,0.5,0c0.5,1.2,1.1,2.3,1.7,3.5c-0.7,0.1-1.5,0.2-2.2,0.2
		c-0.7-0.1-1.5-0.1-2.2-0.2c0.6-1.1,1.2-2.3,1.7-3.5C43.2,70.9,43.4,70.9,43.6,70.9 M29.9,67.3c0.2,0.1,0.3,0.2,0.5,0.3
		c-0.2,1.3-0.2,2.5-0.2,3.8c-0.7-0.3-1.4-0.6-2.1-0.9c-0.6-0.4-1.2-0.9-1.8-1.3c1.1-0.7,2.2-1.4,3.2-2.1
		C29.6,67.1,29.7,67.2,29.9,67.3 M19.9,57.3c0.1,0.2,0.2,0.3,0.3,0.5c-0.8,1-1.5,2.1-2.1,3.2c-0.5-0.6-0.9-1.2-1.3-1.8
		c-0.3-0.7-0.6-1.4-0.9-2.1c1.3,0,2.6-0.1,3.8-0.2C19.7,56.9,19.8,57.1,19.9,57.3 M11.2,43.6c0.1,1,0.2,2,0.3,3
		c-0.4,0.3-0.9,0.6-1.3,0.9c-0.5,0.4-1,0.7-1.4,1.1c-0.4-1.7-0.7-3.3-0.9-5c0.2-1.7,0.5-3.3,0.9-5c0.5,0.4,0.9,0.8,1.4,1.1
		c0.4,0.3,0.8,0.6,1.3,0.9C11.3,41.6,11.2,42.6,11.2,43.6 M15.5,27.4c-0.4,0.9-0.9,1.8-1.2,2.8c-0.5,0-1,0.1-1.5,0.1
		c-0.6,0.1-1.2,0.1-1.8,0.2c0.5-1.6,1-3.2,1.7-4.8c1-1.3,2.1-2.6,3.3-3.9c0.2,0.6,0.4,1.1,0.7,1.7c0.2,0.5,0.4,0.9,0.7,1.4
		C16.7,25.7,16.1,26.5,15.5,27.4 M27.4,15.5c-0.8,0.6-1.7,1.2-2.5,1.8c-0.5-0.2-0.9-0.5-1.4-0.7c-0.6-0.2-1.1-0.5-1.7-0.7
		c1.2-1.2,2.5-2.3,3.9-3.3c1.6-0.7,3.2-1.2,4.8-1.7c-0.1,0.6-0.2,1.2-0.2,1.8c-0.1,0.5-0.1,1-0.1,1.5C29.2,14.6,28.3,15.1,27.4,15.5
		 M43.6,11.2c-1,0.1-2,0.2-3,0.3c-0.3-0.4-0.6-0.9-0.9-1.3c-0.4-0.5-0.7-1-1.1-1.4c1.7-0.4,3.3-0.7,5-0.9c1.7,0.2,3.3,0.5,5,0.9
		c-0.4,0.5-0.8,1-1.1,1.4c-0.3,0.4-0.6,0.8-0.9,1.3C45.6,11.3,44.6,11.2,43.6,11.2 M59.8,15.5c-0.9-0.4-1.8-0.9-2.8-1.2
		c0-0.5-0.1-1-0.1-1.5c-0.1-0.6-0.1-1.2-0.2-1.8c1.6,0.5,3.2,1,4.8,1.7c1.3,1,2.6,2.1,3.9,3.3c-0.6,0.2-1.1,0.4-1.7,0.7
		c-0.5,0.2-0.9,0.4-1.4,0.7C61.5,16.7,60.6,16.1,59.8,15.5 M71.7,27.4c-0.6-0.8-1.2-1.7-1.8-2.5c0.2-0.5,0.5-0.9,0.7-1.4
		c0.2-0.6,0.5-1.1,0.7-1.7c1.2,1.2,2.3,2.5,3.3,3.9c0.7,1.6,1.2,3.2,1.7,4.8c-0.6-0.1-1.2-0.2-1.8-0.2c-0.5-0.1-1-0.1-1.5-0.1
		C72.5,29.2,72.1,28.3,71.7,27.4 M76,43.6c-0.1-1-0.2-2-0.3-3c0.4-0.3,0.9-0.6,1.3-0.9c0.5-0.4,1-0.7,1.4-1.1c0.4,1.7,0.7,3.3,0.9,5
		c-0.2,1.7-0.5,3.3-0.9,5c-0.5-0.4-1-0.8-1.4-1.1c-0.4-0.3-0.8-0.6-1.3-0.9C75.8,45.6,75.9,44.6,76,43.6 M71.7,59.8
		c0.4-0.9,0.9-1.8,1.2-2.8c0.5,0,1-0.1,1.5-0.1c0.6-0.1,1.2-0.1,1.8-0.2c-0.5,1.6-1,3.2-1.7,4.8c-1,1.3-2.1,2.6-3.3,3.9
		c-0.2-0.6-0.4-1.1-0.7-1.7c-0.2-0.5-0.4-0.9-0.7-1.4C70.5,61.5,71.1,60.6,71.7,59.8 M59.8,71.7c0.8-0.6,1.7-1.2,2.5-1.8
		c0.5,0.2,0.9,0.5,1.4,0.7c0.6,0.2,1.1,0.5,1.7,0.7c-1.2,1.2-2.5,2.3-3.9,3.3c-1.6,0.7-3.2,1.2-4.8,1.7c0.1-0.6,0.2-1.2,0.2-1.8
		c0.1-0.5,0.1-1,0.1-1.5C58,72.5,58.9,72.1,59.8,71.7 M43.6,76c1-0.1,2-0.2,3-0.3c0.3,0.4,0.6,0.9,0.9,1.3c0.4,0.5,0.7,1,1.1,1.4
		c-1.7,0.4-3.3,0.7-5,0.9c-1.7-0.2-3.3-0.5-5-0.9c0.4-0.5,0.8-1,1.1-1.4c0.3-0.4,0.6-0.8,0.9-1.3C41.6,75.8,42.6,75.9,43.6,76
		 M27.4,71.7c0.9,0.4,1.8,0.9,2.8,1.2c0,0.5,0.1,1,0.1,1.5c0.1,0.6,0.1,1.2,0.2,1.8c-1.6-0.5-3.2-1-4.8-1.7c-1.3-1-2.6-2.1-3.9-3.3
		c0.6-0.2,1.1-0.4,1.7-0.7c0.5-0.2,0.9-0.4,1.4-0.7C25.7,70.5,26.5,71.1,27.4,71.7 M15.5,59.8c0.6,0.8,1.2,1.7,1.8,2.5
		c-0.2,0.5-0.5,0.9-0.7,1.4c-0.2,0.6-0.5,1.1-0.7,1.7c-1.2-1.2-2.3-2.5-3.3-3.9c-0.7-1.6-1.2-3.2-1.7-4.8c0.6,0.1,1.2,0.2,1.8,0.2
		c0.5,0.1,1,0.1,1.5,0.1C14.6,58,15.1,58.9,15.5,59.8 M6.4,43.6c0.2,2,0.6,4,1.2,6c-1,0.9-2,1.9-2.9,2.9c-0.8-2.9-1.2-5.9-1.3-8.9
		c0.1-3,0.5-6,1.3-8.9c0.9,1,1.8,2,2.9,2.9C7,39.6,6.7,41.6,6.4,43.6 M11.4,25c-0.8,1.9-1.5,3.8-2,5.8c-1.3,0.3-2.6,0.7-3.9,1.1
		c0.8-2.9,2-5.7,3.3-8.4c1.6-2.5,3.5-5,5.6-7.1c0.3,1.3,0.6,2.7,1,4C14,21.8,12.6,23.4,11.4,25 M25,11.4c-1.6,1.2-3.2,2.6-4.6,4
		c-1.3-0.4-2.6-0.8-4-1c2.1-2.2,4.5-4,7.1-5.6c2.7-1.4,5.5-2.6,8.4-3.3c-0.5,1.3-0.8,2.6-1.1,3.9C28.8,9.9,26.9,10.6,25,11.4
		 M43.6,6.4c-2,0.2-4,0.6-6,1.2c-0.9-1-1.9-2-2.9-2.9c2.9-0.8,5.9-1.2,8.9-1.3c3,0.1,6,0.5,8.9,1.3c-1,0.9-2,1.8-2.9,2.9
		C47.6,7,45.6,6.7,43.6,6.4 M62.2,11.4c-1.9-0.8-3.8-1.5-5.8-2c-0.3-1.3-0.7-2.6-1.1-3.9c2.9,0.8,5.7,2,8.4,3.3
		c2.5,1.6,5,3.5,7.1,5.6c-1.3,0.3-2.7,0.6-4,1C65.3,14,63.8,12.6,62.2,11.4 M75.8,25c-1.2-1.6-2.6-3.2-4-4.6c0.4-1.3,0.8-2.6,1-4
		c2.2,2.1,4,4.5,5.6,7.1c1.4,2.7,2.6,5.5,3.3,8.4c-1.3-0.5-2.6-0.8-3.9-1.1C77.2,28.8,76.6,26.9,75.8,25 M80.7,43.6
		c-0.2-2-0.6-4-1.2-6c1-0.9,2-1.9,2.9-2.9c0.8,2.9,1.2,5.9,1.3,8.9c-0.1,3-0.5,6-1.3,8.9c-0.9-1-1.8-2-2.9-2.9
		C80.1,47.6,80.5,45.6,80.7,43.6 M75.8,62.2c0.8-1.9,1.5-3.8,2-5.8c1.3-0.3,2.6-0.7,3.9-1.1c-0.8,2.9-2,5.7-3.3,8.4
		c-1.6,2.5-3.5,5-5.6,7.1c-0.3-1.3-0.6-2.7-1-4C73.2,65.3,74.5,63.8,75.8,62.2 M62.2,75.8c1.6-1.2,3.2-2.6,4.6-4
		c1.3,0.4,2.6,0.8,4,1c-2.1,2.2-4.5,4-7.1,5.6c-2.7,1.4-5.5,2.6-8.4,3.3c0.5-1.3,0.8-2.6,1.1-3.9C58.4,77.2,60.3,76.6,62.2,75.8
		 M43.6,80.7c2-0.2,4-0.6,6-1.2c0.9,1,1.9,2,2.9,2.9c-2.9,0.8-5.9,1.2-8.9,1.3c-3-0.1-6-0.5-8.9-1.3c1-0.9,2-1.8,2.9-2.9
		C39.6,80.1,41.6,80.5,43.6,80.7 M25,75.8c1.9,0.8,3.8,1.5,5.8,2c0.3,1.3,0.7,2.6,1.1,3.9c-2.9-0.8-5.7-2-8.4-3.3
		c-2.5-1.6-5-3.5-7.1-5.6c1.3-0.3,2.7-0.6,4-1C21.8,73.2,23.4,74.5,25,75.8 M11.4,62.2c1.2,1.6,2.6,3.2,4,4.6c-0.4,1.3-0.8,2.6-1,4
		c-2.2-2.1-4-4.5-5.6-7.1c-1.4-2.7-2.6-5.5-3.3-8.4c1.3,0.5,2.6,0.8,3.9,1.1C9.9,58.4,10.6,60.3,11.4,62.2 M7.6,51.5
		c-0.2,0.2-0.3,0.3-0.5,0.5C7.2,51.8,7.4,51.7,7.6,51.5 M16.4,68.4c-0.1,0.2-0.1,0.5-0.2,0.7C16.2,68.9,16.3,68.7,16.4,68.4
		 M32.4,78.7c0.1,0.2,0.1,0.5,0.2,0.7C32.6,79.2,32.5,78.9,32.4,78.7 M51.5,79.6c0.2,0.2,0.3,0.3,0.5,0.5
		C51.8,79.9,51.7,79.7,51.5,79.6 M68.4,70.8c0.2,0.1,0.5,0.1,0.7,0.2C68.9,70.9,68.7,70.9,68.4,70.8 M78.7,54.7
		c0.2-0.1,0.5-0.1,0.7-0.2C79.2,54.6,78.9,54.7,78.7,54.7 M79.6,35.7c0.2-0.2,0.3-0.3,0.5-0.5C79.9,35.3,79.7,35.5,79.6,35.7
		 M70.8,18.7c0.1-0.2,0.1-0.5,0.2-0.7C70.9,18.3,70.9,18.5,70.8,18.7 M54.7,8.4c-0.1-0.2-0.1-0.5-0.2-0.7C54.6,8,54.7,8.2,54.7,8.4
		 M35.7,7.6c-0.2-0.2-0.3-0.3-0.5-0.5C35.3,7.2,35.5,7.4,35.7,7.6 M18.7,16.4c-0.2-0.1-0.5-0.1-0.7-0.2
		C18.3,16.2,18.5,16.3,18.7,16.4 M8.4,32.4c-0.2,0.1-0.5,0.1-0.7,0.2C8,32.6,8.2,32.5,8.4,32.4 M7.1,35.1c0.2,0.2,0.3,0.3,0.5,0.5
		C7.4,35.5,7.2,35.3,7.1,35.1 M7.7,54.5c0.2,0.1,0.5,0.1,0.7,0.2C8.2,54.7,8,54.6,7.7,54.5 M18,71c0.2-0.1,0.5-0.1,0.7-0.2
		C18.5,70.9,18.3,70.9,18,71 M35.1,80.1c0.2-0.2,0.3-0.3,0.5-0.5C35.5,79.7,35.3,79.9,35.1,80.1 M54.5,79.4c0.1-0.2,0.1-0.5,0.2-0.7
		C54.7,78.9,54.6,79.2,54.5,79.4 M71,69.1c-0.1-0.2-0.1-0.5-0.2-0.7C70.9,68.7,70.9,68.9,71,69.1 M80.1,52c-0.2-0.2-0.3-0.3-0.5-0.5
		C79.7,51.7,79.9,51.8,80.1,52 M79.4,32.6c-0.2-0.1-0.5-0.1-0.7-0.2C78.9,32.5,79.2,32.6,79.4,32.6 M69.1,16.2
		c-0.2,0.1-0.5,0.1-0.7,0.2C68.7,16.3,68.9,16.2,69.1,16.2 M52,7.1c-0.2,0.2-0.3,0.3-0.5,0.5C51.7,7.4,51.8,7.2,52,7.1 M32.6,7.7
		c-0.1,0.2-0.1,0.5-0.2,0.7C32.5,8.2,32.6,8,32.6,7.7 M16.2,18c0.1,0.2,0.1,0.5,0.2,0.7C16.3,18.5,16.2,18.3,16.2,18 M5.5,53.8
		c0.5-0.6,1-1.2,1.5-1.7C6.5,52.6,6,53.2,5.5,53.8c0.7,0.3,1.5,0.5,2.2,0.7C6.9,54.3,6.2,54.1,5.5,53.8 M5.5,33.4
		c0.7-0.3,1.4-0.5,2.2-0.7C6.9,32.9,6.2,33.1,5.5,33.4C6,34,6.5,34.5,7,35.1C6.5,34.5,6,34,5.5,33.4 M15.7,15.7
		c0.8,0.1,1.5,0.3,2.2,0.5C17.2,16,16.4,15.8,15.7,15.7c0.1,0.8,0.3,1.5,0.5,2.2C16,17.2,15.8,16.4,15.7,15.7 M33.4,5.5
		C34,6,34.5,6.5,35.1,7C34.5,6.5,34,6,33.4,5.5c-0.3,0.7-0.5,1.5-0.7,2.2C32.9,6.9,33.1,6.2,33.4,5.5 M53.8,5.5
		c0.3,0.7,0.5,1.4,0.7,2.2C54.3,6.9,54.1,6.2,53.8,5.5c-0.6,0.5-1.2,1-1.7,1.5C52.6,6.5,53.2,6,53.8,5.5 M71.5,15.7
		c-0.1,0.8-0.3,1.5-0.5,2.2C71.2,17.2,71.3,16.4,71.5,15.7c-0.8,0.1-1.5,0.3-2.2,0.5C70,16,70.7,15.8,71.5,15.7 M81.7,33.4
		c-0.5,0.6-1,1.2-1.5,1.7C80.7,34.5,81.2,34,81.7,33.4c-0.7-0.3-1.5-0.5-2.2-0.7C80.2,32.9,81,33.1,81.7,33.4 M81.7,53.8
		c-0.7,0.3-1.4,0.5-2.2,0.7C80.2,54.3,81,54.1,81.7,53.8c-0.5-0.6-1-1.2-1.5-1.7C80.7,52.6,81.2,53.2,81.7,53.8 M71.5,71.5
		c-0.8-0.1-1.5-0.3-2.2-0.5C70,71.2,70.7,71.3,71.5,71.5c-0.1-0.8-0.3-1.5-0.5-2.2C71.2,70,71.3,70.7,71.5,71.5 M53.8,81.7
		c-0.6-0.5-1.2-1-1.7-1.5C52.6,80.7,53.2,81.2,53.8,81.7c0.3-0.7,0.5-1.5,0.7-2.2C54.3,80.2,54.1,81,53.8,81.7 M33.4,81.7
		c-0.3-0.7-0.5-1.4-0.7-2.2C32.9,80.2,33.1,81,33.4,81.7c0.6-0.5,1.2-1,1.7-1.5C34.5,80.7,34,81.2,33.4,81.7 M15.7,71.5
		c0.1-0.8,0.3-1.5,0.5-2.2C16,70,15.8,70.7,15.7,71.5c0.8-0.1,1.5-0.3,2.2-0.5C17.2,71.2,16.4,71.3,15.7,71.5"/>
</g>
</svg>
