<?xml version="1.0" encoding="utf-8"?>
<!-- Generator: Adobe Illustrator 17.1.0, SVG Export Plug-In . SVG Version: 6.00 Build 0)  -->
<!DOCTYPE svg PUBLIC "-//W3C//DTD SVG 1.1//EN" "http://www.w3.org/Graphics/SVG/1.1/DTD/svg11.dtd">
<svg version="1.1" id="Layer_1" xmlns="http://www.w3.org/2000/svg" xmlns:xlink="http://www.w3.org/1999/xlink" x="0px" y="0px" 
	 viewBox="0 0 87.2 87.2" enable-background="new 0 0 87.2 87.2" xml:space="preserve">
<g>
	<defs>
		<rect id="SVGID_1_" y="0" width="87.2" height="87.2"/>
	</defs>
	<clipPath id="SVGID_2_">
		<use xlink:href="#SVGID_1_"  overflow="visible"/>
	</clipPath>
	<path clip-path="url(#SVGID_2_)" fill="#feb145" d="M0,43.6c4.6,4.2,9.4,8.2,14.2,12.2c-0.7,6.2-1.2,12.4-1.5,18.7
		c6.2-0.3,12.5-0.8,18.7-1.5c3.9,4.9,8,9.6,12.2,14.2c4.2-4.6,8.2-9.4,12.2-14.2c6.2,0.7,12.4,1.2,18.7,1.5
		c-0.3-6.2-0.8-12.5-1.5-18.7c4.9-3.9,9.6-8,14.2-12.2c-4.6-4.2-9.4-8.2-14.2-12.2c0.7-6.2,1.2-12.4,1.5-18.7
		c-6.2,0.3-12.5,0.8-18.7,1.5c-3.9-4.9-8-9.6-12.2-14.2c-4.2,4.6-8.2,9.4-12.2,14.2c-6.2-0.7-12.4-1.2-18.7-1.5
		c0.3,6.2,0.8,12.5,1.5,18.7C9.4,35.3,4.6,39.4,0,43.6 M35.5,46.9C35.5,46.9,35.5,46.9,35.5,46.9C35.5,46.9,35.6,46.9,35.5,46.9
		C35.6,46.9,35.5,47,35.5,46.9C35.5,47,35.5,46.9,35.5,46.9 M35.5,40.2C35.5,40.2,35.5,40.2,35.5,40.2
		C35.5,40.2,35.6,40.2,35.5,40.2C35.6,40.3,35.5,40.3,35.5,40.2C35.5,40.3,35.5,40.3,35.5,40.2 M40.2,35.5
		C40.3,35.5,40.3,35.5,40.2,35.5C40.3,35.5,40.3,35.6,40.2,35.5C40.2,35.6,40.2,35.5,40.2,35.5C40.2,35.5,40.2,35.5,40.2,35.5
		 M46.9,35.5C46.9,35.5,47,35.5,46.9,35.5C47,35.5,46.9,35.6,46.9,35.5C46.9,35.6,46.9,35.5,46.9,35.5
		C46.9,35.5,46.9,35.5,46.9,35.5 M51.6,40.2L51.6,40.2L51.6,40.2C51.6,40.2,51.6,40.2,51.6,40.2C51.6,40.2,51.6,40.2,51.6,40.2
		 M51.6,46.9C51.6,46.9,51.6,47,51.6,46.9C51.6,47,51.6,46.9,51.6,46.9C51.6,46.9,51.6,46.9,51.6,46.9
		C51.7,46.9,51.7,46.9,51.6,46.9 M46.9,51.6C46.9,51.7,46.9,51.7,46.9,51.6C46.9,51.6,46.9,51.6,46.9,51.6
		C46.9,51.6,47,51.6,46.9,51.6C47,51.6,46.9,51.6,46.9,51.6 M40.2,51.6C40.2,51.6,40.2,51.6,40.2,51.6
		C40.2,51.6,40.2,51.6,40.2,51.6C40.3,51.6,40.3,51.6,40.2,51.6C40.3,51.7,40.3,51.7,40.2,51.6 M39.8,45.1c-2.6-0.3-5.3-0.6-7.9-1
		c-0.3-0.2-0.5-0.4-0.8-0.6c0.3-0.2,0.5-0.4,0.8-0.6c2.6-0.3,5.3-0.7,7.9-1c-1.6-2.1-3.3-4.2-4.9-6.3c0-0.3-0.1-0.6-0.1-1
		c0.3,0,0.6,0.1,1,0.1c2.1,1.6,4.2,3.3,6.3,4.9c0.3-2.6,0.6-5.3,1-7.9c0.2-0.3,0.4-0.5,0.6-0.8c0.2,0.3,0.4,0.5,0.6,0.8
		c0.3,2.6,0.7,5.3,1,7.9c2.1-1.6,4.2-3.3,6.3-4.9c0.3,0,0.6-0.1,1-0.1c0,0.3-0.1,0.6-0.1,1c-1.6,2.1-3.3,4.2-4.9,6.3
		c2.6,0.3,5.3,0.6,7.9,1c0.3,0.2,0.5,0.4,0.8,0.6c-0.3,0.2-0.5,0.4-0.8,0.6c-2.6,0.3-5.3,0.7-7.9,1c1.6,2.1,3.3,4.2,4.9,6.3
		c0,0.3,0.1,0.6,0.1,1c-0.3,0-0.6-0.1-1-0.1c-2.1-1.6-4.2-3.3-6.3-4.9c-0.3,2.6-0.6,5.3-1,7.9c-0.2,0.3-0.4,0.5-0.6,0.8
		c-0.2-0.3-0.4-0.5-0.6-0.8c-0.3-2.6-0.7-5.3-1-7.9c-2.1,1.6-4.2,3.3-6.3,4.9c-0.3,0-0.6,0.1-1,0.1c0-0.3,0.1-0.6,0.1-1
		C36.5,49.3,38.2,47.2,39.8,45.1 M25.3,43.6c2.1,1.7,4.2,3.3,6.4,4.9c-0.4,2.7-0.7,5.3-1,8c2.7-0.3,5.3-0.6,8-1
		c1.6,2.1,3.3,4.3,4.9,6.4c1.7-2.1,3.3-4.2,4.9-6.4c2.7,0.4,5.3,0.7,8,1c-0.3-2.7-0.6-5.3-1-8c2.1-1.6,4.3-3.3,6.4-4.9
		c-2.1-1.7-4.2-3.3-6.4-4.9c0.4-2.7,0.7-5.3,1-8c-2.7,0.3-5.3,0.6-8,1c-1.6-2.1-3.3-4.3-4.9-6.4c-1.7,2.1-3.3,4.2-4.9,6.4
		c-2.7-0.4-5.3-0.7-8-1c0.3,2.7,0.6,5.3,1,8C29.5,40.3,27.4,41.9,25.3,43.6 M18.6,53.9c-4.2-3.3-8.4-6.8-12.5-10.4
		c4.1-3.5,8.2-7,12.5-10.4c-0.6-5.4-1.1-10.7-1.5-16.1c5.4,0.4,10.8,0.9,16.1,1.5c3.4-4.2,6.8-8.4,10.4-12.5
		c3.5,4.1,7,8.2,10.4,12.5c5.4-0.6,10.7-1.1,16.1-1.5c-0.4,5.4-0.9,10.8-1.5,16.1C72.8,36.6,77,40,81,43.6c-4.1,3.5-8.2,7-12.5,10.4
		c0.6,5.4,1.1,10.7,1.5,16.1c-5.4-0.4-10.8-0.9-16.1-1.5C50.6,72.8,47.1,77,43.6,81c-3.5-4.1-7-8.2-10.4-12.5
		c-5.4,0.6-10.7,1.1-16.1,1.5C17.5,64.7,18,59.3,18.6,53.9"/>
	<path clip-path="url(#SVGID_2_)" fill="#feb145" d="M12.8,43.6c0,0.9,0.3,1.7,0.9,2.4c0,0.1,0.1,0.1,0.2,0.2
		c0.1,0.1,0.1,0.1,0.2,0.2c1.5,1.2,3.7,1.2,5.1-0.2c0.7-0.7,1.1-1.7,1.1-2.7c0-1-0.4-2-1.1-2.7c-1.4-1.4-3.6-1.4-5.1-0.2
		c-0.1,0-0.1,0.1-0.2,0.2c-0.1,0.1-0.1,0.1-0.2,0.2C13.1,41.8,12.8,42.7,12.8,43.6 M21.8,21.8c-0.6,0.6-1,1.4-1.1,2.3
		c0,0.1,0,0.2,0,0.3c0,0.1,0,0.2,0,0.3c0.2,1.9,1.7,3.4,3.7,3.4c1,0,1.9-0.4,2.7-1.1c0.7-0.7,1.1-1.7,1.1-2.7c0-2-1.6-3.5-3.4-3.7
		c-0.1,0-0.2,0-0.3,0c-0.1,0-0.2,0-0.3,0C23.3,20.8,22.5,21.2,21.8,21.8 M43.6,12.8c-0.9,0-1.7,0.3-2.4,0.9c-0.1,0-0.1,0.1-0.2,0.2
		c-0.1,0.1-0.1,0.1-0.2,0.2c-1.2,1.5-1.2,3.7,0.2,5.1c0.7,0.7,1.7,1.1,2.7,1.1c1,0,2-0.4,2.7-1.1c1.4-1.4,1.4-3.6,0.2-5.1
		c0-0.1-0.1-0.1-0.2-0.2c-0.1-0.1-0.1-0.1-0.2-0.2C45.3,13.1,44.4,12.8,43.6,12.8 M65.3,21.8c-0.6-0.6-1.4-1-2.3-1.1
		c-0.1,0-0.2,0-0.3,0c-0.1,0-0.2,0-0.3,0c-1.9,0.2-3.4,1.7-3.4,3.7c0,1,0.4,1.9,1.1,2.7c0.7,0.7,1.7,1.1,2.7,1.1
		c2,0,3.5-1.6,3.7-3.4c0-0.1,0-0.2,0-0.3c0-0.1,0-0.2,0-0.3C66.3,23.3,65.9,22.5,65.3,21.8 M74.3,43.6c0-0.9-0.3-1.7-0.9-2.4
		c0-0.1-0.1-0.1-0.2-0.2c-0.1-0.1-0.1-0.1-0.2-0.2c-1.5-1.2-3.7-1.2-5.1,0.2c-0.7,0.7-1.1,1.7-1.1,2.7c0,1,0.4,2,1.1,2.7
		c1.4,1.4,3.6,1.4,5.1,0.2c0.1,0,0.1-0.1,0.2-0.2c0.1-0.1,0.1-0.1,0.2-0.2C74,45.3,74.3,44.4,74.3,43.6 M65.3,65.3
		c0.6-0.6,1-1.4,1.1-2.3c0-0.1,0-0.2,0-0.3c0-0.1,0-0.2,0-0.3c-0.2-1.9-1.7-3.4-3.7-3.4c-1,0-1.9,0.4-2.7,1.1
		c-0.7,0.7-1.1,1.7-1.1,2.7c0,2,1.6,3.5,3.4,3.7c0.1,0,0.2,0,0.3,0c0.1,0,0.2,0,0.3,0C63.9,66.3,64.7,65.9,65.3,65.3 M43.6,74.3
		c0.9,0,1.7-0.3,2.4-0.9c0.1,0,0.1-0.1,0.2-0.2c0.1-0.1,0.1-0.1,0.2-0.2c1.2-1.5,1.2-3.7-0.2-5.1c-0.7-0.7-1.7-1.1-2.7-1.1
		c-1,0-2,0.4-2.7,1.1c-1.4,1.4-1.4,3.6-0.2,5.1c0,0.1,0.1,0.1,0.2,0.2c0.1,0.1,0.1,0.1,0.2,0.2C41.8,74,42.7,74.3,43.6,74.3
		 M21.8,65.3c0.6,0.6,1.4,1,2.3,1.1c0.1,0,0.2,0,0.3,0c0.1,0,0.2,0,0.3,0c1.9-0.2,3.4-1.7,3.4-3.7c0-1-0.4-1.9-1.1-2.7
		c-0.7-0.7-1.7-1.1-2.7-1.1c-2,0-3.5,1.6-3.7,3.4c0,0.1,0,0.2,0,0.3c0,0.1,0,0.2,0,0.3C20.8,63.9,21.2,64.7,21.8,65.3 M18.1,43.6
		c-0.1,1.1-1.5,2.1-2.6,1.1c-0.3-0.3-0.4-0.7-0.4-1.1c0-0.3,0.1-0.7,0.4-1.1C16.6,41.5,17.9,42.5,18.1,43.6 M25.5,25.5
		c-0.9,0.7-2.5,0.4-2.6-1.1c0-0.5,0.2-0.8,0.5-1.1c0.2-0.3,0.6-0.4,1.1-0.5C25.9,23,26.2,24.7,25.5,25.5 M43.6,18.1
		c-1.1-0.1-2.1-1.5-1.1-2.6c0.3-0.3,0.7-0.4,1.1-0.4c0.3,0,0.7,0.1,1.1,0.4C45.6,16.6,44.7,17.9,43.6,18.1 M61.6,25.5
		C61,24.7,61.2,23,62.7,23c0.5,0,0.8,0.2,1.1,0.5c0.3,0.2,0.4,0.6,0.5,1.1C64.1,25.9,62.5,26.2,61.6,25.5 M69.1,43.6
		c0.1-1.1,1.5-2.1,2.6-1.1c0.3,0.3,0.4,0.7,0.4,1.1c0,0.3-0.1,0.7-0.4,1.1C70.6,45.6,69.2,44.7,69.1,43.6 M61.6,61.6
		c0.9-0.7,2.5-0.4,2.6,1.1c0,0.5-0.2,0.8-0.5,1.1c-0.2,0.3-0.6,0.4-1.1,0.5C61.2,64.1,61,62.5,61.6,61.6 M43.6,69.1
		c1.1,0.1,2.1,1.5,1.1,2.6c-0.3,0.3-0.7,0.4-1.1,0.4c-0.3,0-0.7-0.1-1.1-0.4C41.5,70.6,42.5,69.2,43.6,69.1 M25.5,61.6
		c0.7,0.9,0.4,2.5-1.1,2.6c-0.5,0-0.8-0.2-1.1-0.5c-0.3-0.2-0.4-0.6-0.5-1.1C23,61.2,24.7,61,25.5,61.6"/>
</g>
</svg>
