<svg class="svgicon" id="svg86" preserveAspectRatio="xMidYMid meet" xmlns="http://www.w3.org/2000/svg" viewBox="0 0 128 128"><path class="st0" d="M80.612,64l23.824-23.826c1.172-1.172,1.172-3.07,0-4.242L92.067,23.562c-1.125-1.125-3.117-1.125-4.242,0 L64.001,47.389L40.173,23.562c-1.172-1.172-3.07-1.172-4.242,0L23.562,35.932c-1.172,1.17-1.172,3.07,0,4.242L47.388,64 L23.562,87.826c-0.562,0.562-0.879,1.326-0.879,2.121c0,0.797,0.316,1.559,0.879,2.121l12.369,12.369 c0.586,0.586,1.354,0.879,2.121,0.879s1.535-0.293,2.121-0.879l23.828-23.826l23.824,23.826c1.125,1.125,3.117,1.125,4.242,0 l12.369-12.369c1.172-1.17,1.172-3.07,0-4.242L80.612,64z"></path></svg>