<?xml version="1.0" encoding="iso-8859-1"?>
<!DOCTYPE svg PUBLIC "-//W3C//DTD SVG 1.1//EN" "http://www.w3.org/Graphics/SVG/1.1/DTD/svg11.dtd">
<svg xmlns="http://www.w3.org/2000/svg" xmlns:xlink="http://www.w3.org/1999/xlink" version="1.1" viewBox="0 0 394.48 394.48" enable-background="new 0 0 394.48 394.48" width="512px" height="512px">
  <g>
    <path d="m232.677,138.19l-10.887-47.655c-0.779-3.411-3.813-5.83-7.312-5.83h-9.74v-63c0-4.142-3.357-7.5-7.5-7.5s-7.5,3.358-7.5,7.5v63h-9.74c-3.499,0-6.532,2.419-7.312,5.83l-10.886,47.655c-91.904,16.744-161.8,97.382-161.8,194.045 0,4.142 3.357,7.5 7.5,7.5h142.288c3.612,22.939 23.513,40.54 47.451,40.54s43.839-17.601 47.451-40.54h142.29c4.143,0 7.5-3.358 7.5-7.5 0-96.664-69.898-177.304-161.803-194.045zm-46.699-38.485h22.521l8.282,36.257c-6.43-0.635-12.947-0.967-19.541-0.967-6.595,0-13.114,0.332-19.545,0.968l8.283-36.258zm11.26,265.57c-15.638,0-28.764-10.924-32.171-25.54h64.342c-3.407,14.616-16.532,25.54-32.171,25.54zm-182.086-40.54c3.95-97.021 84.115-174.74 182.088-174.74s178.138,77.72 182.088,174.74h-364.176z" fill="#ecfffb"/>
    <path d="m356.001,291.379c-4.055,0.846-6.656,4.819-5.81,8.874 0.493,2.363 0.938,4.774 1.321,7.167 0.591,3.688 3.776,6.315 7.396,6.315 0.394,0 0.793-0.031 1.195-0.095 4.09-0.655 6.874-4.502 6.219-8.592-0.42-2.625-0.907-5.269-1.448-7.86-0.845-4.054-4.82-6.653-8.873-5.809z" fill="#ecfffb"/>
    <path d="m257.762,172.038c-3.876-1.466-8.203,0.482-9.672,4.355-1.468,3.873 0.482,8.203 4.355,9.671 42.714,16.188 76.146,50.089 91.726,93.013 1.106,3.049 3.984,4.943 7.051,4.943 0.849,0 1.713-0.146 2.558-0.452 3.894-1.413 5.904-5.715 4.491-9.608-17.071-47.036-53.706-84.185-100.509-101.922z" fill="#ecfffb"/>
    <path d="m224.597,163.179c-8.987-1.449-18.191-2.184-27.357-2.184-4.143,0-7.5,3.358-7.5,7.5s3.357,7.5 7.5,7.5c8.369,0 16.77,0.67 24.969,1.993 0.405,0.065 0.807,0.097 1.203,0.097 3.616,0 6.802-2.622 7.396-6.307 0.658-4.09-2.122-7.94-6.211-8.599z" fill="#ecfffb"/>
  </g>
</svg>
