<?xml version="1.0" encoding="iso-8859-1"?>
<!-- Generator: Adobe Illustrator 19.0.0, SVG Export Plug-In . SVG Version: 6.00 Build 0)  -->
<svg xmlns="http://www.w3.org/2000/svg" xmlns:xlink="http://www.w3.org/1999/xlink" version="1.1" id="Layer_1" x="0px" y="0px" viewBox="0 0 512 512" style="enable-background:new 0 0 512 512;" xml:space="preserve" width="512px" height="512px">
<g>
	<g>
		<path d="M243.2,298.667h-51.413c-1.869,0-3.661,0.452-4.975,1.246l-14.08,8.533c-1.323,0.802-2.065,1.886-2.065,3.021v25.6    c0,1.135,0.742,2.219,2.065,3.021l14.08,8.533c1.314,0.794,3.106,1.246,4.975,1.246H243.2c2.355,0,4.267-1.911,4.267-4.267    v-42.667C247.467,300.578,245.555,298.667,243.2,298.667z" fill="#ecfffb"/>
	</g>
</g>
<g>
	<g>
		<path d="M339.268,308.446l-14.08-8.533c-1.314-0.794-3.106-1.246-4.975-1.246H268.8c-2.355,0-4.267,1.911-4.267,4.267V345.6    c0,2.355,1.911,4.267,4.267,4.267h51.413c1.869,0,3.661-0.452,4.975-1.246l14.08-8.533c1.323-0.802,2.065-1.886,2.065-3.021v-25.6    C341.333,310.332,340.591,309.248,339.268,308.446z" fill="#ecfffb"/>
	</g>
</g>
<g>
	<g>
		<path d="M302.327,249.464l-93.867,13.406c-2.099,0.307-3.661,2.108-3.661,4.233v10.232c0,2.355,1.911,4.267,4.267,4.267h93.867    c2.355,0,4.267-1.911,4.267-4.267v-23.646C307.2,251.093,304.896,249.097,302.327,249.464z" fill="#ecfffb"/>
	</g>
</g>
<g>
	<g>
		<path d="M243.2,0h-65.766c-1.135,0-2.219,0.452-3.021,1.246l-19.567,19.567c-0.794,0.802-1.246,1.886-1.246,3.021V89.6    c0,2.355,1.911,4.267,4.267,4.267h38.4h8.533h38.4c2.355,0,4.267-1.911,4.267-4.267V4.267C247.467,1.911,245.555,0,243.2,0z" fill="#ecfffb"/>
	</g>
</g>
<g>
	<g>
		<path d="M302.933,366.933h-93.867c-2.355,0-4.267,1.911-4.267,4.267v23.646c0,2.594,2.304,4.591,4.873,4.224l93.867-13.406    c2.099-0.307,3.661-2.108,3.661-4.232V371.2C307.2,368.845,305.289,366.933,302.933,366.933z" fill="#ecfffb"/>
	</g>
</g>
<g>
	<g>
		<path d="M357.154,20.813L337.587,1.246C336.785,0.452,335.701,0,334.566,0H268.8c-2.355,0-4.267,1.911-4.267,4.267V89.6    c0,2.355,1.911,4.267,4.267,4.267h38.4h8.533h38.4c2.355,0,4.267-1.911,4.267-4.267V23.834    C358.4,22.699,357.948,21.615,357.154,20.813z" fill="#ecfffb"/>
	</g>
</g>
<g>
	<g>
		<path d="M302.933,110.933h-93.867c-2.355,0-4.267,1.911-4.267,4.267v74.846c0,2.594,2.304,4.591,4.873,4.224l93.867-13.406    c2.099-0.307,3.661-2.108,3.661-4.233V115.2C307.2,112.845,305.289,110.933,302.933,110.933z" fill="#ecfffb"/>
	</g>
</g>
<g>
	<g>
		<path d="M302.327,454.263l-93.867,13.406c-2.099,0.307-3.661,2.108-3.661,4.232v16.265c0,1.135,0.452,2.219,1.246,3.021    l19.567,19.567c0.802,0.794,1.886,1.246,3.021,1.246h54.733c1.135,0,2.219-0.452,3.021-1.246l19.567-19.567    c0.794-0.802,1.246-1.886,1.246-3.021v-29.679C307.2,455.893,304.896,453.897,302.327,454.263z" fill="#ecfffb"/>
	</g>
</g>
<g>
	<g>
		<path d="M302.327,198.263l-93.867,13.406c-2.099,0.307-3.661,2.108-3.661,4.233v25.344c0,2.594,2.304,4.591,4.873,4.224    l93.867-13.406c2.099-0.307,3.661-2.108,3.661-4.233v-25.344C307.2,199.893,304.896,197.897,302.327,198.263z" fill="#ecfffb"/>
	</g>
</g>
<g>
	<g>
		<path d="M302.327,403.063l-93.867,13.406c-2.099,0.307-3.661,2.108-3.661,4.233v25.344c0,2.594,2.304,4.591,4.873,4.224    l93.867-13.406c2.099-0.307,3.661-2.108,3.661-4.232v-25.344C307.2,404.693,304.896,402.697,302.327,403.063z" fill="#ecfffb"/>
	</g>
</g>
<g>
</g>
<g>
</g>
<g>
</g>
<g>
</g>
<g>
</g>
<g>
</g>
<g>
</g>
<g>
</g>
<g>
</g>
<g>
</g>
<g>
</g>
<g>
</g>
<g>
</g>
<g>
</g>
<g>
</g>
</svg>
