<?xml version="1.0" encoding="iso-8859-1"?>
<!-- Generator: Adobe Illustrator 16.0.0, SVG Export Plug-In . SVG Version: 6.00 Build 0)  -->
<!DOCTYPE svg PUBLIC "-//W3C//DTD SVG 1.1//EN" "http://www.w3.org/Graphics/SVG/1.1/DTD/svg11.dtd">
<svg version="1.1" id="Capa_1" xmlns="http://www.w3.org/2000/svg" xmlns:xlink="http://www.w3.org/1999/xlink" x="0px" y="0px"
	viewBox="0 0 40.193 40.193" style="enable-background:new 0 0 40.193 40.193;"
	 xml:space="preserve">
<g>
	<g>
		<path d="M13.332,35.882c1.593,0.523,3.254,0.799,4.925,0.869c0.951,0.146,1.921,0.24,2.924,0.24c0.296,0,0.594-0.018,0.892-0.029
			c0.652,0.178,1.309,0.369,1.969,0.545c0.946,0.277,1.931,0.428,2.917,0.469c0.822,0.188,1.68,0.293,2.582,0.293
			c0.722,0,1.422-0.062,2.102-0.189c1.146-0.215,2.883-0.914,3.831-1.514c0.575-0.363,1.107-0.777,1.599-1.242
			c0.974-0.928,1.736-1.998,2.289-3.211c0.552-1.215,0.832-2.512,0.832-3.895c0-0.963-0.145-1.895-0.428-2.795
			c-0.143-0.449-0.315-0.881-0.52-1.291c-0.34-0.691-0.604-1.766-0.541-2.475c0.04-0.441,0.061-0.87,0.061-1.289
			c0-2.224-0.457-4.309-1.37-6.256c-0.914-1.941-2.177-3.648-3.777-5.123c-0.502-0.46-1.038-0.878-1.59-1.276
			c-0.086-0.25,0.477,0.028-0.777-1.18c-1.739-1.403-3.744-2.455-6.017-3.089c-2.242-0.574-4.504-0.74-6.793-0.65l-0.072,0.003
			h0.001l-1.016,0.135L17.09,2.969l-0.031,0.005l-0.012,0.002h-0.002c0-0.001,0,0.003,0,0.001c-0.098-0.006-0.248-0.035-0.39-0.066
			c-0.604-0.136-1.254-0.336-1.865-0.543L14.707,2.34h-0.001c-1.014-0.21-1.991-0.339-3.009-0.4C10.658,1.88,9.648,2.005,8.665,2.2
			c-0.862-0.106-2.86,0.283-4.602,1.445c-0.412,0.271-0.9,0.643-1.224,0.952C2.445,4.964,2.106,5.325,1.814,5.714
			C1.223,6.474,0.852,7.257,0.666,7.85c0.073,0.136,0.533-0.771,1.146-1.527c0.601-0.785,1.35-1.428,1.38-1.321
			C2.753,5.576,2.14,6.303,1.573,7.213C1.002,8.123,0.5,9.201,0.229,10.342c-0.247,1.052-0.287,2.12-0.156,3.03
			c0.004,0.035,0.008,0.069,0.013,0.104c0.006,0.037,0.007,0.079,0.014,0.116c0.005,0.03,0.015,0.055,0.021,0.086
			c0.083,0.598,0.218,1.19,0.43,1.757c0.229,0.65,0.512,1.28,0.775,1.899c0.063,0.153,0.128,0.31,0.172,0.453l0.027,0.099
			c-0.003,0.017,0.011-0.005,0.007,0.054c0.002,0.015-0.021,0.154-0.029,0.223l-0.131,1.021l-0.001,0.011v0.021
			c-0.014,1.799,0.205,3.604,0.681,5.367c0.477,1.787,1.345,3.426,2.414,4.93C6.635,32.505,9.823,34.724,13.332,35.882z
			 M24.05,37.202c-0.351-0.094-0.697-0.193-1.045-0.293c0.087-0.008,0.176-0.014,0.263-0.023c0.256-0.025,0.992,0.268,1.917,0.584
			C24.803,37.396,24.423,37.312,24.05,37.202z M18.456,4.087c-0.005,0-0.01,0-0.015,0l0.027-0.001L18.456,4.087
			c1.278-0.018,2.568,0.057,3.844,0.227c-0.371-0.02-0.74-0.049-1.118-0.049c-0.458,0-0.923,0.018-1.393,0.045
			c-0.23,0.018-0.462,0.039-0.695,0.062c-0.24,0.025-0.672-0.082-1.136-0.233L18.456,4.087z M13.204,12.692
			c0.714-0.857,1.767-1.516,3.158-1.995c1.296-0.461,2.885-0.69,4.771-0.69c0.748,0,1.424,0.036,2.043,0.114
			c0.616,0.078,1.203,0.195,1.76,0.347c0.532,0.154,1.021,0.337,1.457,0.546c0.435,0.207,0.837,0.432,1.203,0.678
			c0.726,0.574,1.251,1.113,1.562,1.621c0.317,0.539,0.478,1.1,0.478,1.67c0.011,0.491-0.193,0.93-0.617,1.317
			c-0.436,0.417-0.952,0.623-1.574,0.623c-0.553-0.017-0.994-0.147-1.311-0.392c-0.332-0.25-0.655-0.627-0.973-1.137
			c-0.365-0.693-0.875-1.281-1.524-1.758c-0.538-0.402-1.494-0.602-2.854-0.602c-1.176-0.014-2.165,0.199-2.975,0.646
			c-0.716,0.481-1.075,1.02-1.075,1.624c0,0.413,0.112,0.746,0.332,0.994c0.285,0.288,0.645,0.532,1.074,0.713
			c0.22,0.095,0.441,0.182,0.65,0.255c0.22,0.081,0.453,0.148,0.704,0.211c0.226,0.06,0.526,0.129,0.903,0.209l1.407,0.32
			c1.285,0.287,2.499,0.57,3.643,0.856c1.139,0.366,2.069,0.775,2.784,1.237c0.778,0.474,1.381,1.068,1.809,1.779
			c0.41,0.715,0.618,1.594,0.618,2.641c0,1.328-0.369,2.486-1.117,3.473c-0.709,0.959-1.796,1.762-3.255,2.408
			c-1.482,0.568-3.186,0.852-5.098,0.852c-2.343-0.018-4.293-0.422-5.845-1.225c-1.06-0.539-1.929-1.285-2.606-2.244
			c-0.681-0.932-1.026-1.861-1.026-2.791c-0.011-0.535,0.194-1.01,0.618-1.414c0.425-0.357,0.961-0.539,1.612-0.539
			c0.51,0,0.945,0.148,1.316,0.451c0.398,0.299,0.704,0.74,0.929,1.326c0.258,0.617,0.581,1.188,0.983,1.703
			c0.318,0.451,0.801,0.83,1.455,1.129c0.528,0.268,1.36,0.4,2.51,0.4c1.435,0.02,2.573-0.266,3.417-0.85
			c0.892-0.568,1.343-1.312,1.343-2.234c0-0.33-0.062-0.629-0.184-0.9c-0.21-0.465-0.884-1.086-1.395-1.367
			c-0.293-0.16-0.62-0.291-0.979-0.389c-0.396-0.123-0.848-0.232-1.348-0.332c-0.506-0.1-1.08-0.23-1.735-0.385
			c-1.752-0.338-3.181-0.729-4.298-1.177c-1.177-0.418-2.106-1.035-2.793-1.852c-0.683-0.755-1.027-1.734-1.027-2.938
			C12.134,14.485,12.49,13.506,13.204,12.692z M1.779,19.914c0.075,0.005,0.149,0.715,0.226,0.546
			c0.039-0.432,0.069-0.854,0.086-1.245l-0.003,0.044c0.047-0.289,0.082-0.566,0.105-0.812l0.026-0.343l0.008-0.123l-0.007-0.08
			c-0.012-0.1-0.04-0.202-0.058-0.238c-0.165-0.383-0.304-0.488-0.328-0.381c-0.28-1.073-0.66-2.28-0.717-3.473
			c-0.064-1.191,0.151-2.405,0.452-3.451c0.026-0.355-0.336,0.555-0.241-0.024c0.144-0.307,0.315-0.624,0.489-0.946l0.269-0.466
			c0.11-0.176,0.226-0.39,0.322-0.521c0.397-0.614,0.881-1.233,1.35-1.733C4.006,6.4,4.199,6.21,4.464,5.957l0.579-0.534
			C5.391,5.107,5.616,4.886,5.61,4.786C4.485,5.431,3.443,6.248,2.605,7.27c-0.833,1.019-1.513,2.26-1.85,3.599
			c-0.154,0.613-0.238,1.258-0.257,1.911c-0.005-0.204,0.006-0.405,0.015-0.607c0.174-2.483,1.362-4.89,3.266-6.514
			c0.71-0.619,1.475-1.114,2.317-1.531c0.432-0.21,0.83-0.376,1.304-0.546c0.427-0.14,0.88-0.273,1.34-0.363
			c0.911-0.178,1.886-0.271,2.803-0.201c0.105,0.008,0.212,0.028,0.318,0.039c-1.103,0.087-2.159,0.321-3.165,0.72
			c-1.293,0.51-2.432,1.209-3.404,2.095c-0.973,0.887-1.731,1.931-2.283,3.13c-0.554,1.201-0.833,2.477-0.833,3.83
			c0,0.926,0.147,1.818,0.441,2.682c0.486,1.427,1.221,2.672,1.176,3.001c-0.028,0.2-0.053,0.399-0.075,0.597
			c-0.048,0.392-0.07,0.814-0.07,1.26c0,2.297,0.456,4.459,1.369,6.48c0.908,2.021,2.165,3.789,3.762,5.287
			c1.6,1.506,3.458,2.686,5.58,3.555c0.45,0.184,0.909,0.336,1.372,0.48c-0.815-0.15-1.622-0.348-2.407-0.613
			c-3.451-1.168-6.551-3.381-8.641-6.316c-1.023-1.475-1.857-3.088-2.297-4.809C1.999,22.946,1.808,21.425,1.779,19.914z"/>
	</g>
</g>
<g>
</g>
<g>
</g>
<g>
</g>
<g>
</g>
<g>
</g>
<g>
</g>
<g>
</g>
<g>
</g>
<g>
</g>
<g>
</g>
<g>
</g>
<g>
</g>
<g>
</g>
<g>
</g>
<g>
</g>
</svg>
