<?xml version="1.0" encoding="iso-8859-1"?>
<!-- Generator: Adobe Illustrator 19.0.0, SVG Export Plug-In . SVG Version: 6.00 Build 0)  -->
<svg version="1.1" id="Capa_1" xmlns="http://www.w3.org/2000/svg" xmlns:xlink="http://www.w3.org/1999/xlink" x="0px" y="0px"
	 viewBox="0 0 512 512" style="enable-background:new 0 0 512 512;" xml:space="preserve">
<g>
	<g>
		<path d="M469.333,0H42.667C19.103,0,0,19.103,0,42.667v320c0,23.564,19.103,42.667,42.667,42.667h426.667
			c23.564,0,42.667-19.103,42.667-42.667v-320C512,19.103,492.898,0,469.333,0z M490.667,362.667
			c0,11.782-9.551,21.333-21.333,21.333H42.667c-11.782,0-21.333-9.551-21.333-21.333v-320c0-11.782,9.551-21.333,21.333-21.333
			h426.667c11.782,0,21.333,9.551,21.333,21.333V362.667z"/>
	</g>
</g>
<g>
	<g>
		<path d="M405.333,448H106.667c-17.673,0-32,14.327-32,32s14.327,32,32,32h298.667c17.673,0,32-14.327,32-32
			S423.006,448,405.333,448z M405.333,490.667H106.667C100.776,490.667,96,485.891,96,480c0-5.891,4.776-10.667,10.667-10.667
			h298.667c5.891,0,10.667,4.776,10.667,10.667C416,485.891,411.224,490.667,405.333,490.667z"/>
	</g>
</g>
<g>
	<g>
		<path d="M320,384H192c-5.891,0-10.667,4.776-10.667,10.667v64c0,5.891,4.776,10.667,10.667,10.667h128
			c5.891,0,10.667-4.776,10.667-10.667v-64C330.667,388.776,325.891,384,320,384z M309.333,448H202.667v-42.667h106.667V448z"/>
	</g>
</g>
<g>
	<g>
		<rect y="320" width="512" height="21.333"/>
	</g>
</g>
<g>
	<g>
		<rect x="181.333" y="352" width="64" height="21.333"/>
	</g>
</g>
<g>
	<g>
		<rect x="266.667" y="352" width="64" height="21.333"/>
	</g>
</g>
<g>
	<g>
		<path d="M458.667,42.667h-160V64H448v64h21.333V53.333C469.333,47.442,464.558,42.667,458.667,42.667z"/>
	</g>
</g>
<g>
	<g>
		<path d="M53.333,42.667c-5.891,0-10.667,4.776-10.667,10.667V128H64V64h149.333V42.667H53.333z"/>
	</g>
</g>
<g>
	<g>
		<path d="M64,277.333v-64H42.667V288c0,5.891,4.776,10.667,10.667,10.667h160v-21.333H64z"/>
	</g>
</g>
<g>
	<g>
		<path d="M448,213.333v64H298.667v21.333h160c5.891,0,10.667-4.776,10.667-10.667v-74.667H448z"/>
	</g>
</g>
<g>
	<g>
		
			<rect x="168.047" y="159.997" transform="matrix(0.2427 -0.9701 0.9701 0.2427 28.3207 377.6052)" width="175.914" height="21.333"/>
	</g>
</g>
<g>
	<g>
		<path d="M208.32,126.379l-11.307-18.133l-85.333,53.333c-1.4,0.868-2.58,2.048-3.448,3.448c-3.103,5.007-1.56,11.582,3.448,14.686
			l85.333,53.333l11.307-18.091l-70.859-44.288L208.32,126.379z"/>
	</g>
</g>
<g>
	<g>
		<path d="M400.32,161.579l-85.333-53.333l-11.307,18.133l70.859,44.288l-70.859,44.245l11.307,18.133l85.333-53.333
			c1.4-0.868,2.58-2.048,3.448-3.448C406.871,171.257,405.327,164.682,400.32,161.579z"/>
	</g>
</g>
<g>
</g>
<g>
</g>
<g>
</g>
<g>
</g>
<g>
</g>
<g>
</g>
<g>
</g>
<g>
</g>
<g>
</g>
<g>
</g>
<g>
</g>
<g>
</g>
<g>
</g>
<g>
</g>
<g>
</g>
</svg>
