<?xml version="1.0" standalone="no"?>
<!DOCTYPE svg PUBLIC "-//W3C//DTD SVG 20010904//EN"
 "http://www.w3.org/TR/2001/REC-SVG-20010904/DTD/svg10.dtd">
<svg version="1.0" xmlns="http://www.w3.org/2000/svg"
 width="800.000000pt" height="800.000000pt" viewBox="0 0 800.000000 800.000000"
 preserveAspectRatio="xMidYMid meet">

<g transform="translate(0.000000,800.000000) scale(0.100000,-0.100000)"
fill="#000000" stroke="none">
<path d="M5475 7576 c-159 -58 -336 -218 -533 -481 -125 -166 -275 -340 -328
-380 -60 -46 -84 -47 -285 -20 -275 37 -428 35 -732 -12 -91 -14 -116 -14
-165 -3 -52 11 -64 19 -142 99 -47 47 -124 138 -172 201 -178 236 -205 267
-298 360 -96 97 -187 167 -289 221 -68 37 -106 35 -173 -10 -65 -44 -192 -183
-239 -262 -85 -143 -157 -341 -181 -499 l-12 -75 -19 68 c-11 37 -24 67 -30
67 -5 0 -7 -6 -4 -14 3 -7 0 -64 -7 -125 -15 -123 -3 -289 29 -425 9 -37 14
-73 13 -78 -6 -16 -55 61 -81 125 -13 31 -26 54 -30 51 -25 -25 19 -247 66
-340 14 -27 50 -84 81 -127 31 -43 54 -82 51 -87 -3 -4 -36 -25 -73 -46 -37
-20 -81 -48 -99 -62 -19 -14 -37 -21 -45 -16 -7 4 -10 4 -6 -1 4 -4 -11 -28
-32 -53 -45 -51 -50 -67 -17 -59 12 3 63 13 112 22 50 9 99 19 110 22 34 10
-2 -25 -49 -49 -134 -67 -378 -270 -353 -294 3 -3 46 11 97 30 92 36 120 43
120 28 0 -4 -52 -59 -116 -122 -105 -105 -180 -197 -197 -242 -8 -24 -4 -23
44 8 34 21 110 54 126 54 2 0 -25 -39 -60 -87 -35 -49 -75 -108 -89 -133 -31
-55 -63 -139 -55 -146 3 -3 24 8 48 25 43 32 81 43 61 19 -5 -7 -35 -83 -65
-168 -103 -288 -157 -424 -228 -569 -81 -168 -141 -257 -204 -302 -25 -18 -45
-35 -45 -39 0 -10 275 -27 422 -26 75 1 135 -1 132 -5 -15 -25 -205 -58 -331
-59 -46 0 -83 -4 -83 -9 0 -14 51 -48 112 -75 94 -42 213 -66 322 -66 l101 0
-25 -19 c-31 -25 -92 -44 -221 -71 -117 -24 -136 -34 -93 -50 16 -6 43 -16 59
-23 20 -8 92 -12 221 -11 l190 0 -28 -140 c-32 -162 -35 -274 -12 -377 15 -64
34 -86 34 -36 -1 31 72 259 80 250 3 -5 3 -57 0 -117 -8 -179 28 -409 74 -471
14 -18 15 -14 16 60 0 90 19 193 48 257 l19 43 6 -110 c9 -172 80 -409 144
-486 25 -30 45 -39 38 -16 -2 6 -6 66 -10 132 -3 66 -8 136 -12 155 -10 64 14
20 50 -90 61 -186 130 -311 230 -417 66 -70 85 -70 53 0 -34 74 -46 111 -52
160 l-6 52 164 -166 c89 -91 262 -260 383 -375 428 -407 668 -655 789 -814 65
-86 140 -228 150 -282 4 -21 11 -38 15 -38 4 0 38 64 76 143 108 229 148 282
409 543 127 126 337 324 466 440 416 371 579 529 759 737 46 53 87 97 91 97 8
0 -4 -78 -19 -130 -6 -19 -11 -46 -11 -60 1 -24 2 -23 35 15 44 52 67 94 136
255 56 129 58 133 58 90 1 -25 -6 -76 -14 -115 -19 -90 -19 -92 8 -58 41 50
58 83 97 187 41 109 58 187 61 278 2 47 5 56 16 47 24 -21 45 -116 41 -194 -2
-41 0 -75 3 -75 14 0 50 49 73 100 27 59 52 195 64 344 8 91 8 91 24 61 21
-39 46 -163 44 -220 -2 -101 44 -3 70 148 18 103 14 216 -10 284 l-15 42 63 0
c79 0 169 23 260 66 75 36 146 88 134 100 -4 4 -44 2 -89 -4 -160 -21 -257
-11 -432 46 -60 19 -110 33 -112 32 -6 -7 19 -33 73 -78 51 -42 115 -141 91
-141 -6 0 -35 22 -64 48 -63 58 -106 80 -185 94 -56 11 -87 6 -64 -10 23 -16
103 -130 122 -173 23 -54 40 -143 22 -119 -6 8 -19 31 -30 51 -37 69 -80 96
-54 33 17 -40 64 -217 60 -222 -2 -1 -18 25 -36 60 -18 35 -43 79 -56 99 -23
37 -73 83 -82 75 -2 -3 6 -31 18 -63 25 -65 42 -262 22 -249 -6 3 -10 14 -10
24 5 64 -36 164 -87 214 -36 36 -37 37 -21 65 56 98 126 353 126 457 0 40 3
46 20 46 36 0 91 -35 215 -134 134 -108 166 -121 265 -113 111 10 289 82 378
154 49 40 51 48 17 57 -39 10 -138 117 -195 210 -70 116 -155 298 -230 491
-34 88 -78 198 -97 245 -43 104 -113 297 -113 311 0 11 36 -5 65 -31 11 -10
32 -25 48 -35 39 -25 36 -3 -10 73 -37 60 -65 94 -147 180 -41 43 -41 43 -12
36 16 -4 54 -20 85 -35 70 -36 86 -37 70 -6 -23 43 -93 112 -183 180 -50 38
-95 73 -101 79 -17 16 83 -2 154 -29 36 -13 69 -22 75 -19 6 2 -14 28 -44 58
-39 37 -90 71 -168 111 -61 32 -112 60 -112 63 0 10 89 -10 163 -37 43 -16 84
-29 90 -29 34 1 -128 118 -283 205 -178 99 -265 148 -269 151 -2 1 13 30 33
63 46 75 95 192 102 245 l6 41 -51 -57 c-45 -50 -106 -98 -125 -98 -3 0 8 37
25 83 18 45 40 105 49 132 21 58 36 165 24 165 -5 -1 -27 -29 -48 -65 -22 -35
-55 -81 -74 -102 l-33 -38 6 45 c20 149 24 196 25 295 0 104 -23 245 -40 245
-8 0 -40 -111 -40 -140 0 -11 -4 -20 -9 -20 -11 0 -27 72 -35 152 -6 60 -23
108 -38 108 -5 0 -7 -4 -4 -8 13 -21 -15 -270 -39 -355 -31 -106 -50 -147
-118 -245 -27 -40 -47 -75 -45 -78 3 -3 30 6 59 20 29 14 56 26 61 26 17 0 -6
-57 -43 -106 -71 -93 -63 -91 -176 -53 -54 18 -128 40 -165 48 l-68 16 28 45
c60 96 102 169 148 260 92 183 247 440 265 440 4 0 10 9 14 19 8 25 128 122
185 149 l45 21 59 -61 c155 -162 246 -533 232 -943 -3 -99 -10 -202 -15 -230
-5 -27 -7 -52 -5 -54 2 -2 31 24 64 57 44 45 72 84 100 144 38 82 68 204 56
233 -9 25 -23 17 -30 -17 -6 -30 -55 -123 -61 -116 -3 3 9 98 25 203 15 98 6
343 -14 388 -15 35 -45 55 -32 21 3 -8 3 -34 0 -56 -10 -62 -27 -31 -64 122
-52 215 -101 336 -180 440 -81 108 -243 260 -276 259 -10 0 -46 -10 -79 -23z
m-3139 -348 c137 -106 336 -327 455 -508 111 -167 153 -276 147 -376 -5 -79
-25 -109 -98 -146 -93 -48 -208 -34 -285 34 -42 37 -95 120 -95 149 0 6 30
-13 66 -41 61 -48 150 -97 159 -88 3 2 -23 42 -57 89 -119 165 -171 319 -183
547 -4 72 -11 132 -15 132 -9 0 -46 -84 -54 -125 -4 -16 -7 -54 -8 -83 0 -29
-4 -50 -8 -45 -4 4 -24 44 -43 88 -33 73 -37 78 -45 55 -27 -72 -34 -143 -31
-327 l4 -192 -22 27 c-12 15 -39 50 -60 79 -21 29 -41 52 -45 53 -19 1 1 -111
48 -274 19 -65 33 -121 30 -123 -2 -2 -20 15 -40 39 -47 54 -75 143 -88 278
-29 300 34 565 173 723 28 31 54 57 58 57 5 0 21 -10 37 -22z m927 -1822 c155
-36 249 -185 291 -461 13 -84 26 -295 19 -295 -7 0 -36 72 -78 195 -80 237
-115 295 -190 323 -16 6 -93 24 -170 41 -191 42 -260 66 -328 113 -23 16 -26
23 -16 35 18 21 65 43 112 53 70 13 296 11 360 -4z m1635 -60 c63 -11 116 -37
101 -49 -2 -3 -29 -13 -59 -24 -83 -31 -76 -43 27 -43 135 -1 240 -32 282 -86
27 -34 27 -37 -11 -80 -52 -59 -106 -78 -213 -74 -49 2 -143 4 -207 4 l-117 1
18 30 c20 35 72 67 150 90 116 36 75 47 -70 19 -102 -19 -203 -69 -265 -132
-45 -46 -104 -150 -104 -183 0 -17 4 -16 49 6 65 33 71 31 34 -7 -39 -42 -83
-109 -83 -127 0 -9 11 -5 35 13 l34 27 -30 -71 c-28 -67 -54 -168 -45 -177 2
-3 26 17 53 45 60 61 89 70 228 75 90 3 120 8 158 26 59 29 108 85 157 181 21
41 49 85 62 97 36 34 92 53 157 53 57 0 59 -1 70 -30 24 -70 -39 -232 -128
-332 -30 -32 -79 -72 -116 -93 -36 -20 -65 -39 -65 -42 0 -3 61 -3 135 1 l135
7 -17 -28 c-49 -78 -33 -72 -209 -75 l-159 -3 70 -23 c135 -43 118 -54 -41
-27 -49 9 -111 22 -138 30 -27 8 -59 15 -70 15 -18 0 -18 -1 5 -26 13 -14 48
-40 76 -56 71 -40 76 -51 20 -44 -63 9 -113 28 -196 75 -92 52 -93 29 -5 -76
24 -28 44 -53 44 -56 0 -13 -79 18 -112 44 -73 58 -68 30 21 -106 51 -79 111
-212 146 -325 41 -131 44 -147 61 -312 3 -38 11 -68 16 -68 6 0 7 62 3 168 -8
188 2 254 51 311 24 29 188 131 210 131 7 0 14 9 17 20 5 18 0 20 -50 20 -39
0 -66 6 -90 21 -19 12 -32 23 -30 25 1 2 64 10 139 18 74 9 141 18 149 20 8 3
34 10 59 17 l45 11 -24 19 c-16 13 -40 19 -75 19 l-51 1 60 24 c33 13 78 29
100 34 49 13 207 102 213 121 4 10 -5 12 -39 7 l-44 -6 35 27 c74 59 121 106
156 159 30 45 37 67 42 119 2 35 6 64 8 64 12 0 123 -73 140 -92 26 -30 56
-78 48 -78 -3 0 -39 12 -79 26 -89 32 -114 28 -60 -9 93 -63 176 -162 219
-260 36 -80 70 -239 61 -284 l-7 -38 -18 51 c-25 71 -60 124 -133 198 -56 57
-161 125 -174 112 -3 -2 23 -41 56 -86 154 -204 222 -402 220 -632 -1 -62 -4
-102 -6 -88 -15 84 -75 265 -118 350 -55 110 -153 200 -234 216 -31 7 -33 6
-22 -13 6 -12 33 -47 61 -79 104 -122 158 -287 167 -509 3 -77 2 -176 -2 -220
-9 -90 -12 -85 -41 55 -21 103 -61 226 -92 280 -54 97 -161 217 -233 263 -41
26 -38 6 11 -67 92 -142 153 -316 166 -471 l5 -70 -56 105 c-54 102 -127 201
-139 189 -3 -3 16 -63 44 -133 87 -221 94 -259 97 -513 2 -145 0 -223 -7 -223
-6 0 -10 26 -10 58 0 144 -45 378 -99 519 -46 117 -112 223 -178 283 -32 29
-57 57 -56 61 2 5 -4 6 -12 3 -11 -5 -12 -11 -2 -32 6 -15 14 -31 18 -37 21
-30 82 -198 108 -296 43 -165 61 -298 61 -451 0 -214 -35 -368 -127 -568 -22
-47 -44 -98 -48 -115 -7 -25 -9 -27 -12 -9 -2 12 5 67 17 124 28 136 35 271
21 400 -10 102 -48 241 -67 247 -5 2 -10 -53 -10 -130 -2 -165 -17 -290 -50
-404 -28 -99 -104 -283 -117 -283 -4 0 -6 4 -3 8 2 4 10 64 16 132 11 122 5
290 -10 290 -5 0 -11 -48 -15 -108 -3 -59 -14 -145 -25 -192 -20 -92 -119
-385 -121 -360 -3 34 3 78 17 126 18 65 34 214 34 320 0 101 -10 205 -20 199
-4 -3 -13 -51 -19 -107 -6 -57 -16 -132 -22 -168 -29 -170 -126 -393 -236
-546 -135 -188 -272 -409 -355 -571 -18 -35 -35 -63 -38 -63 -10 0 19 166 52
305 42 173 76 277 158 475 88 213 128 327 136 392 9 69 -4 55 -45 -49 -18 -45
-65 -139 -105 -210 -206 -364 -262 -505 -287 -730 -6 -54 -12 -100 -15 -102
-6 -6 -50 99 -63 151 -17 73 -41 293 -41 388 0 117 26 394 45 475 9 37 14 69
12 72 -8 7 -57 -58 -84 -110 -72 -143 -121 -378 -111 -535 l4 -67 -27 60 c-94
207 -66 546 61 730 l31 45 89 0 c203 0 343 53 486 185 152 140 198 180 206
177 5 -1 7 1 4 6 -3 5 18 31 45 58 112 109 234 273 277 374 38 88 41 131 20
272 -34 233 -36 236 -37 103 -1 -139 -15 -233 -41 -290 l-18 -40 -1 65 c-2
104 -13 230 -21 230 -16 0 -40 -84 -51 -177 -9 -77 -23 -125 -62 -223 -27 -69
-50 -126 -51 -127 0 -1 1 61 2 137 3 115 0 155 -18 234 -12 53 -26 96 -32 96
-6 0 -8 -6 -5 -14 9 -24 -19 -184 -52 -301 -42 -147 -116 -294 -184 -370 -53
-59 -120 -106 -132 -93 -4 4 3 40 14 81 26 97 35 428 11 464 -13 20 -79 55
-125 67 -94 24 -520 37 -582 18 -20 -6 -33 -7 -33 -1 0 5 6 9 14 9 7 0 34 11
59 26 91 50 212 73 437 81 96 3 176 7 178 8 2 2 -30 10 -70 20 -90 21 -317 30
-418 17 -41 -5 -77 -8 -79 -6 -2 1 13 10 33 18 70 29 192 48 356 55 l165 6
-50 17 c-66 23 -196 31 -322 21 -57 -5 -103 -5 -103 -1 0 4 24 15 53 24 68 23
359 32 424 14 24 -7 46 -10 50 -6 4 3 -14 48 -40 99 -81 163 -81 174 -3 106
45 -40 83 -107 177 -314 22 -48 23 -49 27 -21 10 73 -130 397 -215 500 -37 45
-57 86 -40 86 15 0 24 -10 111 -117 32 -40 60 -73 61 -73 2 0 10 -3 19 -6 43
-17 -112 254 -236 413 -38 48 -66 88 -63 91 9 10 77 -51 123 -110 26 -34 64
-80 84 -102 l37 -41 -6 40 c-6 41 -55 195 -118 370 -48 133 -57 177 -56 262 1
118 38 247 114 398 88 177 130 199 372 190 77 -3 173 -12 213 -19z m1062 -119
c48 -25 69 -54 28 -38 -12 5 -47 12 -76 16 -36 5 -55 13 -63 26 -9 17 -6 19
29 19 21 0 58 -10 82 -23z m-2958 -51 c80 -28 147 -74 197 -135 l36 -44 -35 6
c-96 18 -151 19 -221 4 -176 -38 -255 -29 -296 32 -13 19 -23 39 -23 46 0 19
78 39 160 41 111 3 112 3 105 13 -8 15 -125 23 -177 13 -57 -11 -62 -1 -10 21
58 24 63 25 132 26 44 0 87 -7 132 -23z m2628 4 c43 -17 44 -18 19 -25 -41
-10 -70 -2 -87 23 -13 20 -13 22 4 21 11 0 39 -8 64 -19z m366 -57 c29 -9 65
-27 81 -40 l28 -24 -55 6 c-137 15 -138 15 -149 46 -9 27 -8 29 16 29 14 0 50
-7 79 -17z m-342 -33 c30 -12 60 -27 66 -35 11 -13 3 -15 -54 -15 -46 0 -66 4
-66 13 0 6 -3 22 -6 35 -8 27 -8 27 60 2z m374 -75 c34 -8 86 -28 115 -45 49
-28 50 -30 22 -29 -16 0 -66 6 -109 13 -78 13 -106 29 -106 63 0 16 1 16 78
-2z m-321 -47 c22 -11 48 -27 57 -37 15 -17 13 -17 -40 -10 -58 8 -88 27 -97
60 -6 23 8 20 80 -13z m-2936 -29 c32 -14 48 -27 45 -35 -3 -7 0 -11 7 -8 8 3
28 -29 55 -87 23 -51 41 -94 39 -95 -1 -1 -27 6 -56 17 -30 10 -57 17 -59 14
-12 -11 47 -58 113 -91 89 -44 178 -62 335 -70 133 -7 165 -17 199 -60 52 -67
9 -168 -97 -231 -45 -27 -202 -76 -202 -64 0 4 18 18 41 30 35 20 105 98 96
107 -2 2 -50 -8 -107 -22 -79 -19 -125 -24 -190 -22 l-85 3 92 30 c51 17 93
33 93 37 0 13 -60 19 -98 9 -63 -17 -186 13 -224 56 -16 18 -14 18 88 18 57 0
104 2 104 5 0 3 -39 23 -86 44 -154 71 -232 152 -278 290 -43 129 -36 146 62
146 43 0 80 -7 113 -21z m3254 -39 c62 -12 215 -72 215 -83 0 -5 -24 -6 -52
-3 l-53 6 75 -39 c68 -35 120 -75 109 -85 -2 -2 -47 9 -99 25 -52 15 -107 28
-122 28 -39 1 -78 18 -78 35 0 12 -30 58 -83 124 -8 10 -5 12 14 8 13 -3 47
-10 74 -16z m-1160 -14 c70 -70 29 -192 -68 -203 -94 -11 -179 79 -133 142 12
17 13 17 20 -9 10 -40 41 -66 79 -66 35 1 54 12 80 50 25 35 21 56 -13 77 -16
9 -30 21 -30 25 0 17 42 7 65 -16z m871 -37 c55 -31 116 -89 79 -75 -11 5 -49
10 -85 12 -70 3 -64 -2 -84 77 -6 26 -5 28 16 21 13 -4 46 -20 74 -35z m-3492
-17 c-23 -20 -44 -47 -48 -60 -7 -21 -13 -22 -114 -23 -59 0 -116 -2 -127 -4
-48 -9 31 36 99 56 103 30 106 32 56 39 -42 6 -40 6 35 14 44 4 85 9 90 11 6
2 19 4 30 4 16 1 12 -7 -21 -37z m816 -12 c20 -47 55 -70 110 -70 58 0 75 16
60 54 -13 36 -14 36 16 36 23 0 25 -3 20 -27 -3 -16 -8 -44 -12 -64 -7 -43
-34 -59 -97 -59 -69 0 -100 31 -116 115 -10 52 1 59 19 15z m3010 -151 c124
-34 313 -131 389 -199 43 -38 28 -38 -57 1 -68 31 -168 59 -211 59 -34 0 -22
-9 84 -65 148 -78 247 -160 317 -264 29 -42 21 -43 -42 -1 -69 44 -173 86
-240 96 -39 6 -43 5 -33 -8 7 -8 9 -19 5 -23 -4 -5 -2 -5 5 -1 7 4 34 -8 60
-27 26 -18 80 -50 118 -72 77 -43 174 -129 242 -217 24 -32 42 -58 39 -58 -3
0 -43 21 -88 46 -106 58 -134 70 -229 94 -88 23 -99 24 -99 10 0 -15 68 -76
122 -111 48 -31 279 -139 297 -139 5 0 13 -5 16 -10 10 -16 -81 -3 -245 35
-144 33 -212 44 -302 48 l-47 2 -6 50 c-14 108 -49 234 -89 318 -23 48 -38 87
-34 87 4 0 22 -12 40 -28 73 -61 70 -60 63 -16 -18 101 -93 271 -161 367 -33
46 -33 47 -11 47 12 0 56 -9 97 -21z m-3960 -13 c0 -12 -84 -128 -98 -135 -10
-5 -42 -14 -72 -20 -30 -6 -83 -17 -118 -24 -43 -9 -61 -10 -59 -3 5 17 69 57
100 63 30 6 36 20 12 29 -41 16 13 45 140 74 90 21 95 21 95 16z m365 -133
c19 -115 99 -244 200 -320 73 -56 123 -78 195 -87 30 -4 75 -12 99 -18 34 -9
40 -13 27 -20 -9 -5 -39 -10 -66 -11 -28 0 -50 -4 -50 -8 0 -15 45 -39 123
-65 55 -18 90 -37 118 -63 35 -34 39 -43 39 -88 0 -28 -9 -93 -19 -144 -35
-173 -36 -248 -5 -534 l6 -60 -26 30 c-35 42 -62 117 -77 216 -12 86 -15 389
-3 492 8 77 -7 73 -40 -9 -47 -116 -98 -413 -109 -629 l-2 -50 -17 50 c-9 28
-25 105 -35 172 -15 108 -16 135 -4 245 20 192 24 268 15 268 -10 0 -25 -39
-58 -155 -67 -229 -98 -417 -112 -663 -3 -68 -10 -120 -15 -115 -36 36 -26
450 16 648 36 170 38 185 31 185 -19 0 -68 -143 -92 -266 -14 -76 -33 -323
-35 -464 l-1 -75 -20 75 c-16 58 -21 118 -25 270 -7 251 6 353 63 519 24 69
44 135 44 145 0 18 -2 18 -26 -5 -103 -96 -236 -362 -274 -548 -17 -84 -17
-84 -29 -51 -46 133 -3 388 105 619 24 51 44 95 44 97 0 2 13 26 30 54 16 27
27 50 23 50 -15 0 -118 -88 -158 -134 -47 -56 -76 -109 -95 -172 -13 -43 -56
-108 -46 -69 3 11 10 65 15 120 6 55 16 118 22 140 16 57 74 169 125 243 30
43 39 62 28 62 -27 0 -96 -41 -147 -88 -43 -41 -49 -44 -42 -22 22 76 134 213
206 251 46 25 47 24 54 -18z m-501 -140 c-13 -38 -24 -81 -24 -97 l0 -28 39
35 c38 34 81 63 81 53 0 -2 -18 -34 -41 -71 -67 -110 -87 -177 -105 -347 -8
-84 -17 -154 -18 -156 -12 -11 -169 -24 -210 -16 l-49 9 79 32 c69 28 162 89
152 99 -11 10 -322 -81 -390 -114 l-77 -39 24 46 c28 57 165 187 322 308 61
47 -87 -9 -178 -67 -55 -36 -63 -37 -48 -7 27 51 88 113 176 178 51 38 93 73
93 79 0 8 -109 -28 -152 -51 -36 -19 -18 10 34 55 48 42 272 161 310 165 3 1
-5 -29 -18 -66z m36 -628 c-14 -139 -10 -237 13 -303 l15 -44 -31 -13 c-60
-25 -172 -55 -234 -63 -35 -5 -63 -8 -63 -7 0 0 49 37 109 80 161 117 161 115
-16 115 l-148 1 79 29 c130 49 161 83 246 274 17 38 33 66 36 63 3 -3 0 -63
-6 -132z m110 -479 c0 -6 -24 -26 -53 -43 -29 -18 -67 -42 -85 -54 l-33 -22
20 52 c10 28 34 75 52 103 l33 51 33 -38 c18 -21 33 -43 33 -49z m3855 -112
c25 -90 26 -105 20 -208 -10 -157 -19 -166 -33 -34 -10 97 -17 123 -48 185
l-37 73 27 40 c14 22 30 40 35 40 4 0 21 -43 36 -96z m-2531 -783 c-32 -65
-54 -151 -61 -236 -12 -140 -24 -101 -20 65 3 120 9 181 22 222 l17 56 33 -29
32 -29 -23 -49z m138 8 c27 -6 48 -12 48 -14 0 -1 -22 -54 -49 -116 -26 -63
-54 -132 -62 -154 -14 -45 -18 -177 -6 -243 11 -63 -9 -44 -32 31 -28 91 -34
180 -21 292 17 147 39 228 59 220 9 -3 37 -11 63 -16z m235 -71 c-111 -191
-145 -319 -148 -559 l-2 -124 -21 50 c-31 69 -49 183 -49 295 0 118 16 202 55
303 l31 77 79 0 80 0 -25 -42z"/>
</g>
</svg>
